<svg width="70" height="70" viewBox="0 0 70 70" fill="none" xmlns="http://www.w3.org/2000/svg">
<circle cx="35" cy="35" r="25" fill="var(--o-icons-orange-400, #BA220A)"/>
<path d="M35 60C48.8071 60 60 48.8071 60 35C60 30.0834 58.5807 25.4984 56.1296 21.6321C51.888 18.1146 46.4409 16 40.5 16C26.969 16 16 26.969 16 40.5C16 46.4409 18.1146 51.888 21.6321 56.1296C25.4984 58.5807 30.0834 60 35 60Z" fill="var(--o-icons-orange-300, #F84C31)"/>
<path d="M35 60C48.8071 60 60 48.8071 60 35C60 31.2751 59.1854 27.7404 57.7245 24.5645C55.0083 23.5529 52.0687 23 49 23C35.1929 23 24 34.1929 24 48C24 51.7249 24.8146 55.2596 26.2755 58.4355C28.9917 59.4471 31.9313 60 35 60Z" fill="var(--o-icons-orange-200, #FC803D)"/>
</svg>
