<svg width="50" height="50" viewBox="0 0 50 50" fill="none" xmlns="http://www.w3.org/2000/svg">
<path d="M25 50C38.8071 50 50 38.8071 50 25C50 21.2751 49.1854 17.7404 47.7245 14.5645C45.0083 13.5529 42.0687 13 39 13C25.1929 13 14 24.1929 14 38C14 41.7249 14.8146 45.2596 16.2755 48.4355C18.9917 49.4471 21.9313 50 25 50Z" fill="var(--o-icons-cyan-pure, #1BD4F9)"/>
<path d="M25 50C38.8071 50 50 38.8071 50 25C50 21.2751 49.1854 17.7404 47.7245 14.5645C45.0083 13.5529 42.0687 13 39 13C25.1929 13 14 24.1929 14 38C14 41.7249 14.8146 45.2596 16.2755 48.4355C18.9917 49.4471 21.9313 50 25 50Z" fill="url(#white_gradient_1)" fill-opacity="0.3"/>
<path d="M16.2755 48.4355C14.8146 45.2596 14 41.7249 14 38C14 24.1929 25.1929 13 39 13C42.0687 13 45.0083 13.5529 47.7245 14.5645C47.2572 13.5485 46.7237 12.5692 46.1296 11.6321C41.888 8.11456 36.4409 6 30.5 6C16.969 6 6 16.969 6 30.5C6 36.4409 8.11456 41.888 11.6321 46.1296C13.0852 47.0508 14.6399 47.8263 16.2755 48.4355Z" fill="var(--o-icons-cyan-cyan, #03AAE9)"/>
<path d="M16.2755 48.4355C14.8146 45.2596 14 41.7249 14 38C14 24.1929 25.1929 13 39 13C42.0687 13 45.0083 13.5529 47.7245 14.5645C47.2572 13.5485 46.7237 12.5692 46.1296 11.6321C41.888 8.11456 36.4409 6 30.5 6C16.969 6 6 16.969 6 30.5C6 36.4409 8.11456 41.888 11.6321 46.1296C13.0852 47.0508 14.6399 47.8263 16.2755 48.4355Z" fill="url(#white_gradient_2)" fill-opacity="0.3"/>
<path d="M46.1296 11.6321C41.6972 4.64079 33.8906 0 25 0C11.1929 0 0 11.1929 0 25C0 33.8906 4.6408 41.6972 11.6321 46.1296C8.11456 41.888 6 36.4409 6 30.5C6 16.969 16.969 6 30.5 6C36.4409 6 41.888 8.11456 46.1296 11.6321Z" fill="var(--o-icons-magenta-cyan, #1B569A)"/>
<path d="M46.1296 11.6321C41.6972 4.64079 33.8906 0 25 0C11.1929 0 0 11.1929 0 25C0 33.8906 4.6408 41.6972 11.6321 46.1296C8.11456 41.888 6 36.4409 6 30.5C6 16.969 16.969 6 30.5 6C36.4409 6 41.888 8.11456 46.1296 11.6321Z" fill="url(#white_gradient_3)" fill-opacity="0.3"/>
<defs>
<linearGradient id="white_gradient_1" x1="14" y1="13" x2="56.4862" y2="23.3345" gradientUnits="userSpaceOnUse">
<stop stop-color="white"/>
<stop offset="1" stop-color="white" stop-opacity="0"/>
</linearGradient>
<linearGradient id="white_gradient_2" x1="6" y1="6" x2="55.1838" y2="18.0899" gradientUnits="userSpaceOnUse">
<stop stop-color="white"/>
<stop offset="1" stop-color="white" stop-opacity="0"/>
</linearGradient>
<linearGradient id="white_gradient_3" x1="0" y1="0" x2="54.2701" y2="13.5675" gradientUnits="userSpaceOnUse">
<stop stop-color="white"/>
<stop offset="1" stop-color="white" stop-opacity="0"/>
</linearGradient>
</defs>
</svg>
