<svg width="50" height="50" viewBox="0 0 50 50" fill="none" xmlns="http://www.w3.org/2000/svg">
<path d="M6 42.009H13V24.4939L3 16.7666V38.9181C3 40.6284 4.345 42.009 6 42.009Z" fill="#4285F4"/>
<path d="M37 42.009H44C45.66 42.009 47 40.6233 47 38.9181V16.7666L37 24.4939" fill="#34A853"/>
<path d="M37 11.0997V24.4936L47 16.7663V12.6451C47 8.82271 42.765 6.64362 39.8 8.93604" fill="#FBBC04"/>
<path d="M13 24.4935V11.0996L25 20.3723L37 11.0996V24.4935L25 33.7663" fill="#EA4335"/>
<path d="M3 12.6451V16.7663L13 24.4936V11.0997L10.2 8.93604C7.23 6.64362 3 8.82271 3 12.6451Z" fill="#C5221F"/>
</svg>
