<svg width="50" height="50" viewBox="0 0 50 50" fill="none" xmlns="http://www.w3.org/2000/svg">
<path d="M10 6C10 3.79086 11.7909 2 14 2H35C37.2091 2 39 3.79086 39 6V40C39 42.2091 37.2091 44 35 44H14C11.7909 44 10 42.2091 10 40V6Z" fill="var(--o-icons-purple-pure, #7933F3)"/>
<path d="M10 6C10 3.79086 11.7909 2 14 2H35C37.2091 2 39 3.79086 39 6V40C39 42.2091 37.2091 44 35 44H14C11.7909 44 10 42.2091 10 40V6Z" fill="url(#white_gradient_1)" fill-opacity="0.3"/>
<path d="M21.499 43C23.7795 46.0361 27.4104 48 31.4999 48H42.1481C43.1708 48 43.9999 47.1709 43.9999 46.1481V35.5C43.9999 30.9772 41.5979 27.0154 37.9999 24.8208V39C37.9999 41.2091 36.2091 43 33.9999 43H21.499Z" fill="var(--o-icons-teal-pure, #00CEB3)"/>
<path d="M21.499 43C23.7795 46.0361 27.4104 48 31.4999 48H42.1481C43.1708 48 43.9999 47.1709 43.9999 46.1481V35.5C43.9999 30.9772 41.5979 27.0154 37.9999 24.8208V39C37.9999 41.2091 36.2091 43 33.9999 43H21.499Z" fill="url(#white_gradient_2)" fill-opacity="0.3"/>
<path d="M39 25.4991V40C39 42.2091 37.2091 44 35 44H22.3348C20.2653 41.7696 19 38.7826 19 35.5C19 28.5964 24.5964 23 31.5 23C34.314 23 36.9108 23.9299 39 25.4991Z" fill="var(--o-icons-purple-teal, #0028A3)"/>
<path d="M39 25.4991V40C39 42.2091 37.2091 44 35 44H22.3348C20.2653 41.7696 19 38.7826 19 35.5C19 28.5964 24.5964 23 31.5 23C34.314 23 36.9108 23.9299 39 25.4991Z" fill="url(#white_gradient_3)" fill-opacity="0.3"/>
<path d="M10 15V11H28C30.2091 11 32 12.7909 32 15H10Z" fill="var(--o-icons-purple-teal, #0028A3)"/>
<path d="M10 15V11H28C30.2091 11 32 12.7909 32 15H10Z" fill="url(#white_gradient_4)" fill-opacity="0.3"/>
<path d="M10 23V19H16C18.2091 19 20 20.7909 20 23H10Z" fill="var(--o-icons-purple-teal, #0028A3)"/>
<path d="M10 23V19H16C18.2091 19 20 20.7909 20 23H10Z" fill="url(#white_gradient_5)" fill-opacity="0.3"/>
<path d="M10 11H6C6 13.2091 7.79086 15 10 15L10 11Z" fill="var(--o-icons-teal-pure, #00CEB3)"/>
<path d="M10 11H6C6 13.2091 7.79086 15 10 15L10 11Z" fill="url(#white_gradient_6)" fill-opacity="0.3"/>
<path d="M10 19H6C6 21.2091 7.79086 23 10 23L10 19Z" fill="var(--o-icons-teal-pure, #00CEB3)"/>
<path d="M10 19H6C6 21.2091 7.79086 23 10 23L10 19Z" fill="url(#white_gradient_7)" fill-opacity="0.3"/>
<defs>
<linearGradient id="white_gradient_1" x1="10" y1="2" x2="45.2011" y2="8.07638" gradientUnits="userSpaceOnUse">
<stop stop-color="white"/>
<stop offset="1" stop-color="white" stop-opacity="0"/>
</linearGradient>
<linearGradient id="white_gradient_2" x1="21.499" y1="24.8208" x2="48.0608" y2="31.2669" gradientUnits="userSpaceOnUse">
<stop stop-color="white"/>
<stop offset="1" stop-color="white" stop-opacity="0"/>
</linearGradient>
<linearGradient id="white_gradient_3" x1="19" y1="23" x2="42.6588" y2="28.633" gradientUnits="userSpaceOnUse">
<stop stop-color="white"/>
<stop offset="1" stop-color="white" stop-opacity="0"/>
</linearGradient>
<linearGradient id="white_gradient_4" x1="10" y1="11" x2="19.5135" y2="24.0811" gradientUnits="userSpaceOnUse">
<stop stop-color="white"/>
<stop offset="1" stop-color="white" stop-opacity="0"/>
</linearGradient>
<linearGradient id="white_gradient_5" x1="10" y1="19" x2="18.9888" y2="24.618" gradientUnits="userSpaceOnUse">
<stop stop-color="white"/>
<stop offset="1" stop-color="white" stop-opacity="0"/>
</linearGradient>
<linearGradient id="white_gradient_6" x1="6" y1="11" x2="10.7059" y2="12.1765" gradientUnits="userSpaceOnUse">
<stop stop-color="white"/>
<stop offset="1" stop-color="white" stop-opacity="0"/>
</linearGradient>
<linearGradient id="white_gradient_7" x1="6" y1="19" x2="10.7059" y2="20.1765" gradientUnits="userSpaceOnUse">
<stop stop-color="white"/>
<stop offset="1" stop-color="white" stop-opacity="0"/>
</linearGradient>
</defs>
</svg>
