<?xml version="1.0" encoding="utf-8"?>
<!-- Generator: Adobe Illustrator 24.2.0, SVG Export Plug-In . SVG Version: 6.00 Build 0)  -->
<svg version="1.1" id="Layer_1" xmlns="http://www.w3.org/2000/svg" xmlns:xlink="http://www.w3.org/1999/xlink" x="0px" y="0px"
	 viewBox="0 0 1180 324.2" style="enable-background:new 0 0 1180 324.2;" xml:space="preserve">
<style type="text/css">
	.st0{fill:url(#SVGID_1_);}
	.st1{fill:#2B5285;}
</style>
<linearGradient id="SVGID_1_" gradientUnits="userSpaceOnUse" x1="20.9694" y1="152.7633" x2="1090.0162" y2="128.2439">
	<stop  offset="0" style="stop-color:#445869"/>
	<stop  offset="1" style="stop-color:#2DCBB2"/>
</linearGradient>
<path class="st0" d="M-11.8,269.7c0,0,196.3,40,249,40s135-10,181-35s152-36,152-36s142-10,206-37S896,141.9,920,127.2
	s131.9-73,151.5-81.7c19.6-8.7,84.7-36.5,117.3-41.7s-28.4-22-28.4-22L-11.8-8.5V269.7z"/>
<circle class="st1" cx="639.2" cy="15.8" r="6.5"/>
<circle class="st1" cx="772.5" cy="72.1" r="5.6"/>
<circle class="st1" cx="992.3" cy="47.2" r="5.6"/>
<circle class="st1" cx="897.7" cy="22.4" r="5.6"/>
<circle class="st1" cx="664" cy="167.7" r="5.6"/>
<circle class="st1" cx="608.2" cy="140.1" r="5.6"/>
<circle class="st1" cx="664" cy="85.1" r="5.6"/>
</svg>
