<?xml version="1.0" encoding="utf-8"?>
<!-- Generator: Adobe Illustrator 24.2.0, SVG Export Plug-In . SVG Version: 6.00 Build 0)  -->
<svg version="1.1" id="Layer_1" xmlns="http://www.w3.org/2000/svg" xmlns:xlink="http://www.w3.org/1999/xlink" x="0px" y="0px"
	 viewBox="0 0 1180 324.2" style="enable-background:new 0 0 1180 324.2;" xml:space="preserve">
<style type="text/css">
	.st0{fill:url(#SVGID_1_);}
	.st1{fill:#5184DA;}
	.st2{fill:#58A475;}
	.st3{fill:#EE9A6D;}
	.st4{fill:#5FB6CA;}
	.st5{fill:#B9D35E;}
	.st6{fill:#4C54AB;}
</style>
<linearGradient id="SVGID_1_" gradientUnits="userSpaceOnUse" x1="-6.8488" y1="245.5589" x2="1184.2308" y2="218.2406">
	<stop  offset="0" style="stop-color:#445869"/>
	<stop  offset="1" style="stop-color:#2DCBB2"/>
</linearGradient>
<path class="st0" d="M-46.8,222.6c0,0,79.6,38.1,253.9,38.1S660.4,113.6,793.4,88.6s255-32.7,442.4,0S1180,374.1,1180,374.1
	L-24,363.2L-46.8,222.6z"/>
<circle class="st1" cx="449.5" cy="211" r="9.4"/>
<circle class="st2" cx="528.8" cy="128.2" r="3.6"/>
<circle class="st3" cx="976.3" cy="37.1" r="3.6"/>
<path class="st4" d="M467.2,95l-4.3-4.3c-2.4-2.4-2.4-6.2,0-8.6l4.3-4.3c2.4-2.4,6.2-2.4,8.6,0l4.3,4.3c2.4,2.4,2.4,6.2,0,8.6
	l-4.3,4.3C473.4,97.4,469.6,97.4,467.2,95z"/>
<path class="st5" d="M544.1,27.1l-8.4,14.6c-1.2,2.1,0.3,4.6,2.7,4.6h16.9c2.4,0,3.9-2.6,2.7-4.6l-8.4-14.6
	C548.3,25.1,545.3,25.1,544.1,27.1z"/>
<path class="st6" d="M1017.9,49.9l-24.1,15.4c-2,1.3-1.9,4.3,0.2,5.4l25.4,13.2c2.1,1.1,4.6-0.5,4.5-2.9l-1.3-28.6
	C1022.6,50,1019.9,48.6,1017.9,49.9z"/>
</svg>
