<svg xmlns="http://www.w3.org/2000/svg" viewBox="0 0 1920 1080">
  <g id="Layer_2" data-name="Layer 2">
    <g id="Layer_1-2" data-name="Layer 1">
      <g>
        <path d="M1915.5,0,962.5.26c-86.68,0-145,88.74-110.75,168.36l341.56,792.93c.06.13.12.26.19.39,36.69,66,87.84,106.86,156.42,118a5.16,5.16,0,0,0,.67,0H1920L1919.5,4A4,4,0,0,0,1915.5,0Z" fill="#F6F6F6"/>
        <path d="M1919.49,0h-389.3c-77.84,0-130.14,79.81-99.07,151.17l300.82,691.06c.06.13.12.26.19.39,32.48,57.82,77.75,93.59,138.46,103.37a4.89,4.89,0,0,0,.66,0H1916a4,4,0,0,0,4-4V0Z" fill="#3AADAA"/>
        <path d="M0,1076v4H810.58L406.46,118.29h0c-.74-1.38-1.5-2.75-2.26-4.11C364.58,43.32,289.17,0,208,0H0Z" fill="#F6F6F6"/>
        <path d="M0,1076H0a4,4,0,0,0,4,4H549.63a4,4,0,0,0,3.66-5.59L187.55,233.78a2.35,2.35,0,0,0-.19-.39C154.89,175.57,109.61,139.79,48.91,130a3.79,3.79,0,0,0-.67-.06H4a4,4,0,0,0-4,4Z" fill="#7C6576"/>
      </g>
    </g>
  </g>
</svg>
