<?xml version="1.0" encoding="UTF-8"?>
<svg viewBox="0 0 1200 250" version="1.1" xmlns="http://www.w3.org/2000/svg" xmlns:xlink="http://www.w3.org/1999/xlink">
    <defs>
        <linearGradient x1="50%" y1="0%" x2="50%" y2="79.6865792%" id="linearGradient-1">
            <stop stop-color="#445869" offset="0%"></stop>
            <stop stop-color="#2DCBB2" offset="100%"></stop>
        </linearGradient>
    </defs>
    <polygon fill="url(#linearGradient-1)" points="1200,20 1188.11,0 1176.21,20 1164.33,0 1152.44,20 1140.55,0 1128.67,20 1116.78,0 1104.9,20
	1093.01,0 1081.13,20 1069.24,0 1057.36,20 1045.47,0 1033.59,20 1021.71,0 1009.83,20 997.94,0 986.06,20 974.18,0 962.3,20
	950.41,0 938.53,20 926.64,0 914.76,20 902.88,0 891,20 879.11,0 867.23,20 855.35,0 843.46,20 831.58,0 819.7,20 807.82,0
	795.94,20 784.06,0 772.18,20 760.29,0 748.41,20 736.53,0 724.65,20 712.77,0 700.89,20 689.01,0 677.13,20 665.25,0 653.37,20
	641.49,0 629.61,20 617.73,0 605.85,20 593.97,0 582.09,20 570.21,0 558.34,20 546.46,0 534.58,20 522.7,0 510.82,20 498.94,0
	487.07,20 475.19,0 463.32,20 451.44,0 439.56,20 427.68,0 415.8,20 403.92,0 392.04,20 380.16,0 368.27,20 356.39,0 344.51,20
	332.63,0 320.75,20 308.87,0 296.99,20 285.11,0 273.23,20 261.35,0 249.47,20 237.59,0 225.71,20 213.83,0 201.95,20 190.07,0
	178.19,20 166.31,0 154.43,20 142.55,0 130.67,20 118.79,0 106.92,20 95.04,0 83.16,20 71.28,0 59.4,20 47.52,0 35.64,20 23.76,0
	11.88,20 0,0 0,20 "/>
</svg>
