<?xml version="1.0" encoding="utf-8"?>
<!-- Generator: Adobe Illustrator 24.2.0, SVG Export Plug-In . SVG Version: 6.00 Build 0)  -->
<svg version="1.1" id="Layer_1" xmlns="http://www.w3.org/2000/svg" xmlns:xlink="http://www.w3.org/1999/xlink" x="0px" y="0px"
	 viewBox="0 0 1180 324.2" style="enable-background:new 0 0 1180 324.2;" xml:space="preserve">
<style type="text/css">
	.st0{fill:#2DCBB2;}
	.st1{fill:none;stroke:#DBDEF9;stroke-width:2.8346;stroke-miterlimit:10;}
	.st2{fill:none;stroke:#445869;stroke-miterlimit:10;}
</style>
<image style="display:none;overflow:visible;" width="1133" height="377" xlink:href="../../Desktop/Screenshot 2020-06-24 at 17.11.20.png"  transform="matrix(1 0 0 1 23.5 -43.8414)">
</image>
<path class="st0" d="M1213.7,222.6c-57.2,0-84.2,66.2-162.6,66.2S906.4,169.5,824.7,169.5S658.8,288.8,583.6,288.8
	s-162.6-78.5-236.2-78.5s-163.5,78.5-245.2,78.5s-125-81.7-125-81.7l11.4-176.5L-9.8-34h1231.7L1213.7,222.6z"/>
<path class="st1" d="M-22.9,207.1c0,0,43.3,81.7,125,81.7s171.6-95.5,245.2-95.5s161,95.5,236.2,95.5S743,152.5,824.7,152.5
	s147.9,136.3,226.4,136.3s105.4-66.2,162.6-66.2"/>
<path class="st1" d="M-22.9,207.1c0,0,43.3,81.7,125,81.7s171.6-104.5,245.2-104.5s161,104.5,236.2,104.5S743,144.5,824.7,144.5
	s147.9,144.3,226.4,144.3s105.4-66.2,162.6-66.2"/>
<path class="st1" d="M-22.9,207.1c0,0,43.3,81.7,125,81.7s171.6-112.5,245.2-112.5s161,112.5,236.2,112.5S743,136.5,824.7,136.5
	s147.9,152.3,226.4,152.3s105.4-74.2,162.6-74.2"/>
<path class="st1" d="M-22.9,207.1c0,0,43.3,81.7,125,81.7s171.6-117.5,245.2-117.5s161,117.5,236.2,117.5S743,128.5,824.7,128.5
	s147.9,160.3,226.4,160.3s105.4-96.2,162.6-96.2"/>
<path class="st1" d="M-22.9,97.1c0,0,43.3,191.7,125,191.7s171.6-123.5,245.2-123.5s161,123.5,236.2,123.5S743,120.5,824.7,120.5
	s147.9,168.3,226.4,168.3s105.4-86.2,162.6-86.2"/>
<path class="st1" d="M-22.9,157.1c0,0,43.3,131.7,125,131.7s171.6-150.5,245.2-150.5s161,150.5,236.2,150.5S743,104.5,824.7,104.5
	s147.9,184.3,226.4,184.3s105.4-146.2,162.6-146.2"/>
<path class="st1" d="M-22.9,187.1c0,0,43.3,101.7,125,101.7S273.8,68.3,347.4,68.3s161,220.5,236.2,220.5S743,74.5,824.7,74.5
	s147.9,214.3,226.4,214.3s105.4-66.2,162.6-66.2"/>
<path class="st2" d="M-22.9,207.1c0,0,43.3,81.7,125,81.7s171.6-83.5,245.2-83.5s161,83.5,236.2,83.5S743,165.5,824.7,165.5
	s147.9,123.3,226.4,123.3s105.4-70.2,162.6-70.2"/>
</svg>
