<?xml version="1.0" encoding="UTF-8"?>
<svg viewBox="0 0 1200 250" version="1.1" xmlns="http://www.w3.org/2000/svg" xmlns:xlink="http://www.w3.org/1999/xlink">
    <defs>
        <linearGradient x1="50%" y1="0%" x2="50%" y2="79.6865792%" id="linearGradient-1">
            <stop stop-color="#445869" offset="0%"></stop>
            <stop stop-color="#2DCBB2" offset="100%"></stop>
        </linearGradient>
    </defs>
    <path fill="url(#linearGradient-1)" d="M1200,10c-5.95,0-5.95-10-11.89-10c-5.95,0-5.95,10-11.89,10c-5.94,0-5.94-10-11.89-10
    c-5.94,0-5.94,10-11.89,10c-5.94,0-5.94-10-11.89-10c-5.94,0-5.94,10-11.88,10c-5.94,0-5.94-10-11.89-10c-5.94,0-5.94,10-11.89,10
    c-5.94,0-5.94-10-11.88-10c-5.94,0-5.94,10-11.89,10c-5.94,0-5.94-10-11.88-10c-5.94,0-5.94,10-11.88,10c-5.94,0-5.94-10-11.88-10
    c-5.94,0-5.94,10-11.89,10c-5.94,0-5.94-10-11.88-10c-5.94,0-5.94,10-11.88,10c-5.94,0-5.94-10-11.88-10C992,0,992,10,986.06,10
    c-5.94,0-5.94-10-11.88-10c-5.94,0-5.94,10-11.88,10c-5.94,0-5.94-10-11.88-10c-5.94,0-5.94,10-11.88,10c-5.94,0-5.94-10-11.88-10
    c-5.94,0-5.94,10-11.88,10c-5.94,0-5.94-10-11.88-10c-5.94,0-5.94,10-11.88,10c-5.94,0-5.94-10-11.88-10c-5.94,0-5.94,10-11.88,10
    c-5.94,0-5.94-10-11.88-10c-5.94,0-5.94,10-11.88,10c-5.94,0-5.94-10-11.88-10c-5.94,0-5.94,10-11.88,10c-5.94,0-5.94-10-11.88-10
    c-5.94,0-5.94,10-11.88,10C790,10,790,0,784.06,0c-5.94,0-5.94,10-11.88,10c-5.94,0-5.94-10-11.88-10c-5.94,0-5.94,10-11.88,10
    c-5.94,0-5.94-10-11.88-10c-5.94,0-5.94,10-11.88,10c-5.94,0-5.94-10-11.88-10c-5.94,0-5.94,10-11.88,10c-5.94,0-5.94-10-11.88-10
    c-5.94,0-5.94,10-11.88,10c-5.94,0-5.94-10-11.88-10c-5.94,0-5.94,10-11.88,10c-5.94,0-5.94-10-11.88-10c-5.94,0-5.94,10-11.88,10
    c-5.94,0-5.94-10-11.88-10c-5.94,0-5.94,10-11.88,10c-5.94,0-5.94-10-11.88-10c-5.94,0-5.94,10-11.88,10c-5.94,0-5.94-10-11.88-10
    c-5.94,0-5.94,10-11.88,10c-5.94,0-5.94-10-11.88-10c-5.94,0-5.94,10-11.88,10c-5.94,0-5.94-10-11.88-10c-5.94,0-5.94,10-11.88,10
    c-5.94,0-5.94-10-11.88-10c-5.94,0-5.94,10-11.88,10c-5.94,0-5.94-10-11.88-10c-5.94,0-5.94,10-11.88,10c-5.94,0-5.94-10-11.88-10
    c-5.94,0-5.94,10-11.88,10c-5.94,0-5.94-10-11.88-10c-5.94,0-5.94,10-11.88,10c-5.94,0-5.94-10-11.88-10c-5.94,0-5.94,10-11.88,10
    c-5.94,0-5.94-10-11.88-10c-5.94,0-5.94,10-11.88,10c-5.94,0-5.94-10-11.88-10c-5.94,0-5.94,10-11.88,10c-5.94,0-5.94-10-11.88-10
    c-5.94,0-5.94,10-11.88,10c-5.94,0-5.94-10-11.88-10c-5.94,0-5.94,10-11.88,10c-5.94,0-5.94-10-11.88-10c-5.94,0-5.94,10-11.88,10
    c-5.94,0-5.94-10-11.88-10c-5.94,0-5.94,10-11.88,10c-5.94,0-5.94-10-11.88-10c-5.94,0-5.94,10-11.88,10c-5.94,0-5.94-10-11.88-10
    c-5.94,0-5.94,10-11.88,10c-5.94,0-5.94-10-11.88-10c-5.94,0-5.94,10-11.88,10c-5.94,0-5.94-10-11.88-10c-5.94,0-5.94,10-11.88,10
    c-5.94,0-5.94-10-11.88-10c-5.94,0-5.94,10-11.88,10c-5.94,0-5.94-10-11.88-10c-5.94,0-5.94,10-11.88,10c-5.94,0-5.94-10-11.88-10
    C89.1,0,89.1,10,83.16,10c-5.94,0-5.94-10-11.88-10c-5.94,0-5.94,10-11.88,10c-5.94,0-5.94-10-11.88-10c-5.94,0-5.94,10-11.88,10
    C29.7,10,29.7,0,23.76,0c-5.94,0-5.94,10-11.88,10C5.94,10,5.94,0,0,0h1200V10z"/>
</svg>
