<svg id="Layer_1" data-name="Layer 1" xmlns="http://www.w3.org/2000/svg" viewBox="0 0 1920 1080">
  <path d="M757.23,1080H0l.13,532c2.4,14.13,319.25-69.71,542.75-267.91C656,1243.77,757.23,1080,757.23,1080Z" fill="#3AADAA"/>
  <g>
    <path d="M0,0V1080H757.23s228.08-369.25,201.89-644.4C953.43,375.81,895,276.08,823.64,219.05a625.06,625.06,0,0,0-162.21-93.76A1818.45,1818.45,0,0,0,0,0Z" fill="#3AADAA"/>
    <path d="M1919,30.14V440.89L1710.38,318.1c-76.5-43.6-129-97.82-125-184.19h0C1576.42,14.75,1823.25-33.85,1919,30.14Z" fill="#3AADAA"/>
  </g>
</svg>
