<svg width="70" height="70" viewBox="0 0 70 70" fill="none" xmlns="http://www.w3.org/2000/svg">
<path d="M14 41.5C14 33.4919 20.4919 27 28.5 27C36.5081 27 43 33.4919 43 41.5C43 49.5081 36.5081 56 28.5 56H16.1481C14.9618 56 14 55.0382 14 53.8519V41.5Z" fill="var(--o-icons-purple-300, #82209C)"/>
<path d="M41.5 43C33.4919 43 27 36.5081 27 28.5C27 20.4919 33.4919 14 41.5 14C49.5081 14 56 20.4919 56 28.5L56 40.8519C56 42.0382 55.0382 43 53.8519 43L41.5 43Z" fill="var(--o-icons-blue-100, #1ACAF0)"/>
<path d="M27 28.5C27 36.5081 33.4919 43 41.5 43H42.9234C42.974 42.5069 43 42.0065 43 41.5C43 33.4919 36.5081 27 28.5 27C28.0173 27 27.5402 27.0236 27.0697 27.0697C27.0236 27.5402 27 28.0173 27 28.5Z" fill="var(--o-icons-blue-300, #352B97)"/>
</svg>
