<svg width="50" height="50" viewBox="0 0 50 50" fill="none" xmlns="http://www.w3.org/2000/svg">
<path d="M36.0525 13.9475L26.1052 12.8423L13.9472 13.9475L12.8418 25.0002L13.947 36.053L24.9997 37.4345L36.0525 36.053L37.1577 24.7241L36.0525 13.9475Z" fill="white"/>
<path d="M18.4819 31.0959C17.6558 30.5377 17.0838 29.7227 16.7715 28.645L18.6892 27.8547C18.8633 28.5179 19.1672 29.0318 19.601 29.3966C20.0322 29.7613 20.5572 29.9409 21.1706 29.9409C21.7978 29.9409 22.3367 29.7502 22.7869 29.3688C23.2372 28.9875 23.464 28.5011 23.464 27.9127C23.464 27.3104 23.2263 26.8184 22.751 26.4372C22.2758 26.0561 21.679 25.8652 20.966 25.8652H19.8581V23.967H20.8526C21.466 23.967 21.9828 23.8013 22.4028 23.4697C22.8228 23.1381 23.0328 22.685 23.0328 22.1075C23.0328 21.5936 22.8449 21.1845 22.4692 20.8779C22.0935 20.5713 21.6181 20.4165 21.0406 20.4165C20.4769 20.4165 20.0292 20.5658 19.6976 20.867C19.366 21.1681 19.1256 21.5384 18.9738 21.9749L17.0756 21.1847C17.3269 20.4718 17.7885 19.8418 18.4653 19.2974C19.1424 18.7531 20.0072 18.4795 21.0572 18.4795C21.8335 18.4795 22.5326 18.6288 23.1517 18.9299C23.7706 19.2311 24.2569 19.6484 24.6078 20.1788C24.9588 20.712 25.1328 21.309 25.1328 21.972C25.1328 22.649 24.9699 23.2209 24.6438 23.6906C24.3176 24.1604 23.9169 24.5195 23.4417 24.7711V24.8843C24.069 25.1468 24.5801 25.5475 24.9835 26.0863C25.3842 26.6252 25.5858 27.269 25.5858 28.0206C25.5858 28.7722 25.3951 29.4436 25.0138 30.0322C24.6324 30.6209 24.1047 31.085 23.436 31.422C22.7647 31.7591 22.0104 31.9304 21.1731 31.9304C20.2033 31.9331 19.3081 31.6541 18.4819 31.0959Z" fill="#1A73E8"/>
<path d="M30.2498 21.5799L28.1553 23.1024L27.1025 21.5053L30.8798 18.7808H32.3278V31.6321H30.2498V21.5799Z" fill="#1A73E8"/>
<path d="M36.0523 46L45.9995 36.0527L41.0259 33.8423L36.0523 36.0527L33.8418 41.0264L36.0523 46Z" fill="#EA4335"/>
<path d="M11.7373 41.0264L13.9478 46H36.053V36.0527H13.9478L11.7373 41.0264Z" fill="#34A853"/>
<path d="M7.31569 4C5.48386 4 4 5.48386 4 7.31569V36.0525L8.97364 38.263L13.9473 36.0525V13.9473H36.0525L38.263 8.97364L36.0527 4H7.31569Z" fill="#4285F4"/>
<path d="M4 36.0527V42.6843C4 44.5164 5.48386 46 7.31569 46H13.9473V36.0527H4Z" fill="#188038"/>
<path d="M36.0527 13.9473V36.0525H46V13.9473L41.0264 11.7368L36.0527 13.9473Z" fill="#FBBC04"/>
<path d="M46 13.9473V7.31569C46 5.48365 44.5162 4 42.6843 4H36.0527V13.9473H46Z" fill="#1967D2"/>
</svg>
