<svg viewBox="219.00000000000023 169.69827586206884 1724.6249999999998 957.9741379310344" xmlns="http://www.w3.org/2000/svg" overflow="visible" xmlns:xlink="http://www.w3.org/1999/xlink" width="1724.6249999999998px" height="957.9741379310344px"><g id="Master/Scene/Walking" stroke="none" stroke-width="1" fill="none" fill-rule="evenodd"><g id="Background" opacity=".4" transform="translate(99.000000, 75.000000) scale(1.0375 1.037037037037037)"><g id="Background/Patio" stroke="none" stroke-width="1" fill="none" fill-rule="evenodd"><path d="M1627.67245,498.88557 C1618.42869,493.280747 1611.64935,486.917407 1602.50155,483.106245 C1591.81263,482.897066 1595.65563,493.985504 1603.09293,496.610993 C1611.22442,504.423924 1627.58237,508.004403 1628.32159,520.760408 C1628.4714,536.067614 1628.93745,551.369933 1629.29287,566.673229 C1632.88913,633.857788 1625.96292,699.476438 1627.18779,766.940554 C1616.53608,761.355281 1608.45452,752.661648 1596.43891,751.179801 C1589.65076,750.496548 1587.75423,759.960429 1594.37006,761.755067 C1603.92027,765.576004 1628.11892,777.074003 1628.02101,787.850628 C1628.72107,821.64671 1632.55819,855.210154 1640.8904,888.015081 C1643.71904,897.496556 1625.60751,894.794824 1619.79455,897 C1592.93762,894.985431 1570.84896,878.080059 1555.35262,856.933437 C1537.96073,840.396571 1531.35763,816.064369 1530.403,792.617757 C1523.33874,740.822511 1522.17752,721.443158 1546.93915,673.207865 C1594.52672,581.45651 1503.09373,497.551321 1551.6702,416.345908 C1570.53173,383.285862 1604.15526,350.464319 1593.95492,309.253136 C1584.59759,276.644682 1580.23468,241.147799 1601.67028,212.186291 C1616.9708,194.844966 1640.23831,178.257272 1664.5662,184.249174 C1699.0582,198.67861 1714.14919,238.622989 1716.81628,274.042652 C1719.19845,325.919028 1680.77924,375.395711 1703.31928,427.021854 C1717.26373,480.346842 1765.4652,537.521114 1740.71825,593.218427 C1730.9213,615.735464 1714.41061,636.162666 1713.99449,661.6346 C1712.98209,700.748128 1749.67709,724.726486 1747.85105,767.157553 C1752.4088,797.450377 1743.51556,829.264147 1719.22096,849.359009 C1708.39106,858.529648 1701.76837,872.481101 1686.82621,876.06549 C1678.97964,875.995112 1652.29896,895.684323 1651.97879,883.338856 C1644.28496,854.663748 1641.40737,825.28486 1640.20502,795.684085 C1638.08917,788.814415 1652.28623,783.996457 1643.21774,778.208847 C1633.95146,768.073444 1641.37799,744.498782 1638.95372,730.755531 C1638.18806,701.979743 1641.93511,673.413134 1642.59894,644.682309 C1641.9165,632.607602 1682.33994,615.793135 1686.73026,607.432819 C1688.44761,581.595311 1652.57801,621.201485 1643.63288,624.494587 C1638.93512,556.176161 1641.63256,491.368813 1640.45372,423.076778 C1621.70968,392.818165 1631.00337,490.984666 1627.67245,498.88557" id="Fill-1" fill="#52DC82"/><path d="M372.298983,658.998481 C440.089257,673.886266 433.26074,631.158482 434.722528,691.139379 C435.696625,756.067816 438.010865,820.961842 441.217628,885.817168 C442.15783,895.545922 421.841465,888.291422 415.612676,889.872714 L415.615416,889.794173 C406.74789,887.451003 349.802613,890.930873 352.985787,882.026027 C349.392107,842.873952 347.361464,803.653319 347.321375,764.344122 L346.40405,746.62374 C344.817983,715.909077 343.35205,685.194112 343.558834,654.420228 C341.127652,646.897971 366.893349,660.30274 372.298983,658.998481 Z M539.050947,610.656428 L538.298905,663.926662 C534.977018,736.957396 540.977704,813.774024 544.429617,887.239886 C545.995505,898.048611 506.761461,890.008741 498.797013,891.677897 C489.652979,889.604657 453.339728,896.119415 451.821776,887.2643 C449.189218,855.164573 449.153288,822.917084 447.961657,790.746277 C446.152435,751.83395 445.47878,712.896662 444.992296,673.948442 C446.289629,666.559142 440.704549,655.843209 446.993606,650.55762 L449.485622,649.17502 C477.701887,633.440145 505.059139,615.582551 536.131356,605.936811 C539.320283,605.040107 539.112124,608.393677 539.050947,610.656428 L539.050947,610.656428 Z M256.803956,611.441073 L262.594879,613.333016 L265.852431,614.408678 C287.590992,621.631333 329.347724,636.465257 332.842107,648.586483 L333.22946,664.454951 L333.50013,675.300136 C335.235145,743.990088 337.406557,812.746593 342.390364,881.272075 C343.085158,891.30505 322.704137,882.451093 316.350114,884.094412 C308.243231,882.190236 264.145922,886.20398 265.88106,876.648257 C261.13386,790.346442 257.756252,703.966686 251.251263,617.761572 L251.434135,617.748742 L251.450648,617.430691 C251.636676,613.445727 251.119801,609.171781 256.803956,611.441073 Z M240.85449,613.8878 C246.701595,701.837491 251.535807,789.898564 255.023735,877.944904 C251.168008,884.736254 218.928241,878.567784 209.444431,880.454687 C196.735811,879.554345 180.214894,886.977663 184.301542,867.011402 L184.611005,866.997755 C182.787393,820.291168 178.876939,773.806082 177.136755,727.084937 L176.606671,722.658343 L176.263924,719.75353 C172.804364,690.218872 170.165883,660.611031 173.615249,630.918635 L173.705687,630.610282 C174.070875,629.441524 174.796188,627.90627 175.575284,627.751694 C180.480482,626.781185 182.080494,621.349158 186.78183,619.99232 C191.242462,618.704831 195.394419,616.382529 199.779582,614.78135 L201.406989,614.25543 L203.021455,613.747983 C214.102986,610.314406 240.722246,603.088426 240.85449,613.8878 Z M626.28936,593 C630.511084,595.233194 649.950694,592.516511 649.199406,601.417245 C649.502075,619.012708 649.625725,636.610651 650.08132,654.200975 L650.992459,682.101714 C652.113345,716.202998 653.289119,750.304198 654.830264,784.389041 C656.183374,817.485541 658.320785,850.543053 660.631661,883.582164 C665.366198,894.234289 623.028564,887.988934 615.661723,890.191865 C599.235816,890.683196 582.815281,891.365095 566.40605,892.249869 L560.936733,892.552325 C556.601708,892.791349 555.265869,891.851691 554.876881,887.214263 C548.823749,794.136382 546.137423,700.926303 549.769802,607.710806 C545.696476,594.443101 615.214946,593.443802 626.28936,593 Z" id="Shape" fill="#9BC9CD"/><path d="M665.139551,601.755177 C679.041333,606.961468 692.37706,613.251568 704.259281,622.337439 C754.234813,661.945568 758.277002,625.121735 754.706201,688.103039 L754.090378,698.8043 C750.954927,750.963932 756.29272,803.098019 756.378288,855.295145 C754.803407,862.956679 761.667232,888.063954 751.438476,887.94655 C726.634892,889.037161 701.733493,887.870649 676.935863,888.965848 C667.663414,889.799009 672.116465,875.16713 670.278064,869.228062 C669.076102,850.125456 667.771788,831.028025 666.780664,811.914411 C664.32051,747.959214 660.603104,684.022169 660.804388,619.999026 C661.953994,615.02125 656.129993,597.771326 665.139551,601.755177 Z M853.739323,617.348356 C852.304821,670.766676 848.054805,724.314113 844.610774,777.711972 C843.612845,792.27344 842.607515,806.834475 841.599144,821.395307 L837.789691,876.325031 L837.701158,877.846662 C837.524368,880.500196 837.048147,883.278392 833.71538,883.302232 C813.836248,885.442107 793.872354,884.498465 774.005554,886.635268 L773.517419,886.706322 C768.680472,887.366911 767.647528,886.121992 767.523995,881.048597 C766.575891,821.018725 763.132786,761.067007 763.658633,701.015187 L764.636619,701.017034 C767.95911,627.557636 755.632177,665.859132 811.265419,638.603442 C825.575545,631.880235 838.836382,622.588042 853.739323,617.348356 Z M951.852758,605.897042 C966.755687,609.511849 956.147616,661.650614 958.671827,676.384987 C959.73863,728.716334 949.849765,780.589491 951.90025,833.035 C952.020074,844.065928 960.483552,889.946069 941.725646,885.289677 C912.657235,879.828938 882.534272,884.692306 853.22349,883.960832 C843.064232,886.412255 851.105387,850.012006 849.505799,842.882193 L850.018589,842.901906 C855.897661,771.057001 860.060701,699.088926 864.287107,627.131828 C865.687023,621.084584 863.064674,612.003349 869.448959,608.645405 C894.992503,595.355747 925.81228,592.124066 951.852758,605.897042 Z" id="Shape" fill="#EBBF5E"/><path d="M1422.74988,752.913085 C1425.03626,786.496462 1426.49907,820.114949 1427.9707,853.743187 C1428.45504,864.174358 1429.0482,874.600653 1429.62273,885.027923 C1430.98652,894.070352 1420.58508,890.43173 1415.39269,889.422356 C1394.84668,887.263174 1379.53424,875.088273 1370.54071,856.807392 C1348.62111,814.775508 1412.27099,811.417755 1391.18868,782.077648 C1376.02722,762.498722 1353.55172,764.88416 1358.7696,732.564694 C1360.78929,707.790663 1389.76901,712.062216 1390.83082,691.076018 C1390.98279,687.510539 1389.83176,684.452186 1386.93751,682.249118 C1376.30665,674.153647 1372.47412,662.15429 1370.05637,650.142254 C1366.45719,630.111792 1386.03551,611.453493 1405.27754,609.168505 C1447.38921,597.030663 1471.23438,638.213114 1452.37178,673.838645 C1446.54799,689.867695 1473.29134,691.784043 1482.99373,716.193334 C1502.80637,763.599769 1458.59068,776.524629 1474.97474,789.992699 C1483.46041,796.877896 1492.87456,803.217934 1495.92665,814.278135 C1506.79282,843.594836 1509.80472,883.287119 1470.11276,889.155141 C1462.87519,888.1799 1440.99089,894.017689 1438.96236,886.036322 C1434.26902,836.226895 1433.418,785.832324 1431.25026,735.873685 C1421.7616,724.095707 1422.79106,747.212805 1423.10186,752.896506 C1422.98421,752.902357 1422.86753,752.907233 1422.74988,752.913085" id="Fill-11" fill="#3AADAA"/><path d="M1333.5974,388 C1324.64426,385.31586 1310.1075,389.423364 1301.27547,384.79013 C1283.07326,380.822821 1267.37718,372.575685 1252.4058,361.119653 C1241.3704,352.742058 1231.22474,338.935821 1230,324.953367 C1231.09192,312.051579 1251.57661,315.987735 1260.95069,312.46048 C1267.07149,309.884406 1280.34639,315.106651 1282.37591,307.461183 C1281.6981,286.480688 1276.80596,259.508824 1302.10271,250.784638 C1322.89993,244.195496 1346.10172,256.680595 1360.60234,271.511031 C1366.68114,279.310323 1372.32434,255.715784 1376.82973,252.028864 C1391.54717,229.90442 1428.95171,215.467308 1431.47933,253.797846 C1432.88573,262.218278 1433.54303,270.721463 1431.97841,279.289878 C1431.19805,283.563863 1432.36517,284.330065 1436.29627,282.384866 C1507.22404,246.70342 1467.88765,344.429693 1435.35378,359.42953 C1403.46549,377.141742 1371.08983,387.042004 1333.5974,388" id="Fill-16" fill="#3AADAA"/><path d="M264.044954,227.795507 C246.604656,276.332627 299.185007,313.916749 278.103511,310.626942 C259.419568,307.048897 184.859371,324.506276 182.175048,302.300319 C196.367236,267.056288 224.382909,234.440586 264.044954,227.795507 Z M364.392395,169.795507 C402.24824,169.824708 435.539573,193.220267 458.998294,221.184755 L459.600475,221.920976 C462.101455,225.026692 461.758959,225.437712 457.591123,227.348039 C443.34742,233.875357 431.976692,243.832779 422.537894,256.139879 C412.293881,269.497229 404.191896,284.0995 397.926073,299.648845 C394.02215,310.80544 380.109719,304.307322 371.180043,306.020427 L371.173202,305.906544 C355.907346,306.403929 340.635626,306.74071 325.380519,307.466832 C315.63781,306.404902 303.273268,313.419871 295.059881,307.172879 L294.056655,305.894661 C277.700298,284.885659 262.962319,257.484257 274.005078,230.736288 C282.170581,219.865859 309.557657,227.818169 323.023506,218.368839 C345.143461,210.538199 339.862659,173.174995 364.392395,169.795507 Z M470.80967,237.974638 C482.707377,256.675791 489.721865,277.217493 493.708326,298.886041 C499.595993,310.190733 447.98248,304.311745 440.032075,306.795507 L440.010537,306.158168 L440.010537,306.158168 C434.257971,304.38615 398.600094,311.075763 406.244074,300.653164 C412.760255,285.312971 420.776253,270.82648 431.38071,257.895644 L431.978665,257.197982 C439.001628,249.130782 464.340834,223.927489 470.80967,237.974638 Z M512.928391,232.627166 C518.568333,235.277214 524.125493,238.357159 529.146025,242.037781 C542.41367,251.764438 553.371188,263.876139 563.209678,277.058655 C567.874732,282.884835 562.842512,290.361896 562.29712,296.900644 C563.430757,306.94727 527.023864,301.38904 519.418561,303.504171 C513.242966,302.437281 503.92552,306.878565 502.656509,298.909773 L502.186693,296.806843 C497.22435,274.728757 491.280147,252.764209 478.700146,233.676389 C473.545214,223.036937 507.921494,229.465757 512.928391,232.627166 Z M724.479486,192.614758 C730.120527,200.181603 739.175004,182.589788 744.491655,190.97438 C754.696685,217.669856 767.676174,214.581567 737.207108,227.216097 C671.739287,258.920639 702.400439,307.605394 676.007309,302.411676 C663.174824,302.54064 650.343319,302.542594 637.511815,302.529893 L637.511815,302.405814 C623.207328,302.405814 608.900882,302.265127 594.600315,302.493744 C584.598151,302.615869 583.730826,289.39514 578.175048,283.221494 C578.813046,237.236182 605.230677,186.150944 645.264815,160.473499 C674.209938,144.67936 705.704113,172.292236 724.479486,192.614758 Z M572.779223,291.795507 C574.898334,295.812085 577.868138,297.893248 577.029641,301.257747 C569.150818,303.679618 570.882695,297.460737 572.779223,291.795507 Z M766.427423,261.268678 C773.768293,319.188057 759.397382,288.601902 696.178158,300.795507 C695.842738,264.462963 722.688113,239.868535 754.812657,228.554629 C764.227031,222.416285 764.172931,255.343417 766.427423,261.268678 Z M816.225281,214.795507 C837.805654,214.54372 878.066709,300.400916 838.364004,294.554917 C819.268239,294.892768 800.167568,295.772549 781.073766,295.793054 C772.576837,295.98932 777.2448,284.357861 776.130063,279.025474 C777.962118,222.106316 742.461266,221.569269 816.225281,214.795507 Z M457.532878,129.795507 C483.986576,129.676517 509.42908,140.818168 532.487635,152.902836 C565.701244,175.659109 602.546136,158.432216 638.175048,153.620583 C597.435295,180.055307 580.981836,224.084575 568.800475,268.795507 C546.46896,241.331948 515.435494,212.499209 477.100266,220.882996 C472.234725,222.110793 469.522145,220.551875 466.662815,217.00418 L466.47195,216.76473 C442.168999,186.061559 406.905567,163.267253 367.175048,159.867709 C392.531327,139.863448 426.317161,134.371126 457.532878,129.795507 Z M812.175048,206.086654 L809.394338,206.543359 C795.19181,208.858359 783.450377,210.539358 770.066658,214.279626 L769.579695,214.394086 C765.824665,215.260698 765.38278,214.922139 763.720221,211.391167 C763.000267,206.195671 746.380196,184.412894 756.353028,185.179942 C777.810594,182.62148 795.138784,193.197112 812.175048,206.086654 Z" id="Shape" fill="#7DB4DB"/><path d="M185.940308,517.968844 C158.692644,519.013188 141.250047,493.605044 130.461064,471.532159 C121.127497,441.137735 158.339018,393.03342 190.135103,394.038687 C215.797785,393.04319 231.143958,411.409581 242.99674,431.822653 C265.004319,474.115177 232.167815,518.871533 185.940308,517.968844" id="Fill-32" fill="#3AADAA"/></g></g><g transform="translate(927.000000, 237.000000) scale(1 1)" id="Master/Character/Standing"><g id="Master/Character/Standing" stroke="none" stroke-width="1" fill="none" fill-rule="evenodd"><g id="Legs" transform="translate(50.000000, 263.000000) scale(1 1)"><g id="Legs/Jeans Sprint" stroke="none" stroke-width="1" fill="none" fill-rule="evenodd"><g id="Group-20" transform="translate(85.000000, 0.000000)"><path d="M549.434196,568.75038 L485.758787,588.704907 C482.333484,589.777032 478.712992,587.836063 477.672989,584.36894 C474.52195,573.957255 471.477014,563.524932 468.243896,553.128724 L458.493492,521.952485 C451.797034,501.212696 445.126601,480.461557 438.097823,459.802255 C422.599876,413.775175 406.298155,367.956535 389.348809,322.352527 C385.583177,312.316446 389.97241,301.198953 399.152263,297.518232 L440.03369,281.169099 C449.213543,277.489409 459.761715,282.785026 463.59241,292.996526 C480.820024,339.350713 497.411024,385.978348 513.221272,432.933089 C520.387183,453.999984 527.208761,475.210311 534.052361,496.410319 L544.032987,528.325386 C547.34418,538.970277 550.4752,549.686367 553.704314,560.364278 C554.771343,563.923238 552.859499,567.678255 549.434196,568.75038" id="SKIN-DARKER" fill="#d29863"/><path d="M253.688249,6.17159823 C250.953025,7.46171177 250.176827,11.7751425 251.955573,15.8031407 C268.136561,52.4363886 283.832799,89.3313688 299.211548,126.359276 C306.944489,144.854682 314.44407,163.451071 322.003744,182.020668 C329.417192,200.650031 336.912767,219.24642 344.141931,237.942762 C351.493283,256.595825 358.562199,275.346781 365.727263,294.065792 C372.708043,312.843539 379.807006,331.58419 386.58347,350.425824 C393.500151,369.223149 400.116368,388.109092 406.806699,406.971335 L416.587804,435.332194 C418.2043,440.061923 419.862861,444.781348 421.447308,449.519321 L426.18863,463.73427 L432.780809,483.509485 L439.1857,503.322826 L445.57056,523.141319 L451.735079,543 L554,509.11185 L547.521996,488.655513 L540.835671,468.290885 L534.129315,447.936562 L527.243682,427.661583 L522.297043,413.085979 C520.64349,408.228475 518.92083,403.402914 517.236228,398.559836 L507.055507,369.536404 C500.106776,350.259923 493.22515,330.95459 486.05708,311.778062 C479.023218,292.541768 471.677876,273.446645 464.441701,254.303092 C457.032259,235.236821 449.710954,216.132424 442.116226,197.15065 C434.640682,178.117353 426.903734,159.200497 419.244907,140.248605 C411.441857,121.361632 381.413096,45.9889123 365.727263,0 C365.727263,0 328.380925,2.05719941 253.688249,6.17159823 Z" id="Fill-3" fill="#3E36B9"/><path d="M545.940827,536 C540.694163,537.694646 521.776106,543.807916 504.134887,549.507808 C504.226089,549.736092 504.32531,549.960262 504.39747,550.199857 C506.269632,556.413901 500.930763,563.631571 492.470956,566.320587 C484.012151,569.01166 475.654571,566.214672 473.804458,560.075694 C473.7333,559.840212 473.692208,559.599589 473.642097,559.361022 C471.332963,560.105515 470,560.537402 470,560.537402 L480.388094,595 L591,560.68445 L587.523271,549.147902 C584.737077,539.903444 553.902527,547.173557 545.940827,536" id="Fill-5" fill="#D7DBE2"/><path d="M554,509.873671 L451.409887,544 L446.28013,527.561748 C444.580905,522.078879 442.755365,516.622933 441,511.150419 L543.266308,476 C545.074805,481.637155 546.948465,487.244282 548.70383,492.905254 L554,509.873671 Z" id="Fill-8" fill="#D7DBE2"/><path d="M32.4518534,226.986362 L75.5578755,174.619526 C77.8769843,171.80376 81.602159,171.148955 84.0062718,173.188885 C91.2696125,179.346951 98.9659736,185.391228 106.732338,191.075517 C114.514703,196.766013 122.431074,202.125485 130.378447,207.038076 C138.32482,211.911358 146.313195,216.397757 154.174563,220.152801 C162.029932,223.945086 169.770295,227.040153 176.994634,229.223872 C180.058778,230.175563 182.976915,230.860367 185.792047,231.475864 C188.588178,232.045844 191.2013,232.398591 193.641415,232.648927 C196.045528,232.844438 198.210629,232.854782 200.14172,232.778233 C202.051809,232.674788 203.634884,232.388246 205.017948,232.094463 C206.419014,231.823438 207.449063,231.345523 208.45911,230.9214 C209.468157,230.507621 210.318197,229.942813 211.251241,229.253871 C213.095327,227.969087 215.214427,225.668475 217.607539,222.191697 C218.113563,221.368277 219.018605,220.827261 220.276664,220.576925 C221.546724,220.110389 223.146799,219.861087 224.965884,219.907637 C228.601055,219.994531 233.141268,221.065184 237.519473,223.384415 L276.4663,244.131294 C280.845506,246.450526 283.942651,250.19626 285.263713,254.620592 C285.921744,256.827068 286.162755,259.184574 285.888742,261.556562 C285.477723,263.962687 284.595681,266.389501 283.162614,268.613563 C276.451299,278.628049 268.045905,288.338408 257.538412,296.042973 C252.340168,299.901462 246.710904,303.31307 240.805627,305.978841 C234.922351,308.657026 228.816065,310.832469 222.701778,312.210353 C216.594492,313.622374 210.478205,314.499585 204.498924,314.831643 C198.530644,315.137839 192.674369,315.018878 186.981102,314.535791 C181.314837,314.006154 175.774577,313.192044 170.406325,312.096564 C165.062074,310.967981 159.811828,309.670784 154.74959,308.114975 C142.739027,304.475789 131.455498,299.855946 120.684992,294.671296 C109.893486,289.503196 99.6430053,283.724772 89.6925386,277.620498 C79.768073,271.487258 70.1846234,264.985756 60.8661863,258.173919 C51.5467491,251.349669 42.5063251,244.253359 33.6209082,236.723616 C30.651769,234.205771 30.1257443,229.800059 32.4518534,226.986362" id="SKIN" fill="#edb98a"/><path d="M159.127501,0 C157.624968,-0.0279988939 157.660229,10.7399664 157.865576,14.1521098 C158.217168,17.755193 158.633871,21.3593083 159.11368,24.9469099 C159.663607,28.3198333 160.310698,31.5224592 160.970811,34.8045573 C162.376181,40.9879063 163.983891,46.9318066 165.729835,52.1666499 L167.040044,56.1928966 L168.393326,59.9053831 C169.299854,62.3432182 170.217401,64.9472224 171.146969,67.1518015 L173.949694,73.9864096 L176.75843,80.3792761 L177.464621,81.9759446 L178.160794,83.4786914 L179.554144,86.4831529 L180.9515,89.4865823 L182.323813,92.3558379 L185.058424,98.0251979 L187.719911,103.441692 C191.209796,110.535359 194.607524,117.313201 197.63563,123.637948 C199.229317,126.89218 200.5836,129.888384 202.053078,133.000185 L204.050446,137.474366 L205.046124,139.703715 L205.946643,141.859785 C208.481917,147.68809 210.414175,153.066396 212.181154,158.257891 C212.933423,160.77623 213.805894,163.335854 214.341797,165.668414 L214.818601,167.452926 L215.057003,168.338473 L215.222282,169.181704 C215.445658,170.303604 215.68406,171.422407 215.934483,172.538114 C216.085738,173.110933 216.127809,173.620793 216.20594,174.147168 L216.442339,175.717001 L216.701776,177.281674 C216.818974,177.816305 216.788923,178.272496 216.847021,178.76894 C216.924151,179.745312 217.022317,180.715492 217.140516,181.686704 C217.176577,182.618696 217.153538,183.50734 217.199616,184.417658 L217.271737,185.775909 L217.18459,187.052625 C217.132502,187.901016 217.121484,188.752504 217.111467,189.600895 C216.976239,190.408003 216.87006,191.21511 216.791928,192.025313 C216.746852,192.430931 216.73383,192.841709 216.682744,193.243199 L216.411286,194.420832 C216.243003,195.208329 216.112783,196.000987 215.992581,196.798805 C215.734145,197.579077 215.500751,198.36451 215.295405,199.157168 L215.006919,200.354411 C214.887718,200.753836 214.691387,201.151197 214.547143,201.553719 C214.23662,202.355665 213.951139,203.164837 213.689698,203.986393 C213.594537,204.397172 213.344115,204.811046 213.151791,205.225953 L212.566804,206.47893 L212.012871,207.745325 C211.81654,208.170552 211.705352,208.596812 211.414862,209.030297 C210.911013,209.89417 210.425194,210.7663 209.956403,211.648751 L209.265238,212.979136 C209.209143,213.084411 209.150044,213.213424 209.097956,213.302185 L208.948704,213.516863 L208.659216,213.95138 C207.151674,216.370637 205.882535,217.755724 205.135275,218.450331 C205.048128,218.588634 204.946957,218.602051 204.86582,218.666042 C204.78268,218.72384 204.71156,218.796087 204.648454,218.881752 C204.571324,218.903426 204.505212,218.931293 204.448116,218.976706 C204.392021,219.021086 204.351954,219.105719 204.287846,219.092301 C204.178662,219.120168 204.117559,219.235764 204.009376,219.227507 C203.959292,219.231636 203.95228,219.316269 203.88717,219.303883 C203.829072,219.303883 203.780991,219.319365 203.73892,219.353424 C203.712876,219.408126 203.623726,219.387484 203.56062,219.406062 C203.4895,219.416383 203.450434,219.473149 203.370299,219.494823 C203.155937,219.475213 203.069792,219.632093 202.779302,219.627965 C202.656095,219.646543 202.542904,219.687827 202.420698,219.733239 C202.256421,219.739432 202.095149,219.756978 201.937884,219.79207 C201.85875,219.808583 201.780618,219.830257 201.702487,219.853996 L201.398975,219.87051 C201.196634,219.884959 200.996296,219.913858 200.794957,219.955142 C199.001933,220.098605 196.261313,220.075899 192.81951,219.626933 C189.333632,219.130489 185.18063,218.197465 180.671027,216.820635 C172.380048,214.308489 162.948145,210.258503 153.355972,205.210471 C143.739759,200.159343 133.896162,194.121521 124.165756,187.470628 L65,279.893685 C77.7064236,288.460167 90.9387339,296.530207 105.047522,303.833391 C119.167329,311.114901 134.142578,317.688386 150.71552,322.6394 C159.773793,325.318748 169.30887,327.511974 179.459985,328.82791 C189.642152,330.088112 200.466403,330.477216 211.803518,329.269651 C223.138629,327.971261 234.995621,325.115423 246.280648,319.955924 C257.533621,314.842869 268.146514,307.724432 276.845181,299.362306 C285.619976,291.039401 292.71594,281.763861 298.409539,272.423299 L299.486355,270.665622 L300.021257,269.785236 L300.485039,268.942005 L302.300099,265.57837 L305.878132,258.822202 C306.493169,257.719913 306.987001,256.487578 307.528915,255.310976 L309.111583,251.73576 L310.673216,248.151255 C311.183076,246.948851 311.731,245.779475 312.151709,244.509984 L314.794165,237.002442 C315.216877,235.743273 315.674649,234.503713 316.057294,233.224933 L317.113074,229.340085 C317.807245,226.746402 318.483385,224.147558 319.141494,221.547682 C319.664376,218.902394 320.1532,216.247816 320.631006,213.593239 L321.332188,209.607244 C321.513494,208.272731 321.645717,206.933057 321.796972,205.596479 C322.088463,202.919195 322.362926,200.238815 322.616353,197.559467 C322.743568,194.892505 322.825706,192.22451 322.905841,189.555483 L323,185.555039 L322.873787,181.608264 C322.771615,178.982586 322.696488,176.338329 322.526201,173.732261 L321.749892,166.021394 C321.520506,163.424615 321.099796,160.945496 320.69311,158.452959 L320.078073,154.713638 C319.866717,153.470982 319.676396,152.206651 319.396925,151.017665 L317.814257,143.789824 L317.408573,141.98467 L316.948797,140.236282 L316.010215,136.751891 C314.805183,132.040326 313.340714,127.6322 311.914309,123.159051 C308.923266,114.43156 305.688813,105.947646 302.210949,98.0592574 L300.921775,95.0589243 L299.603553,92.1514808 L296.960096,86.3520754 C295.179093,82.6292679 293.393081,78.7898324 291.608072,75.2073914 C284.470037,60.6237291 277.361051,47.1568058 271.740574,34.8551305 L269.704141,30.316959 L267.893087,25.9728235 C267.240988,24.4938152 266.813267,23.1861365 266.279366,21.8082745 L265.502056,19.7678003 L264.887019,17.8666605 C263.182144,12.7876653 257.955332,0.0339274854 256.451797,0 L159.127501,0 Z" id="Fill-12" fill="#694FD9"/><path d="M54.0536333,253.355094 C57.2962112,248.804809 68.9922957,232.40159 79.8972391,217.105891 C79.6982036,216.982605 79.4941673,216.866511 79.3031332,216.722677 C74.3212454,212.965532 74.7813274,204.000576 80.2192965,196.848953 C85.6612664,189.689112 93.6876968,186.787778 98.2545107,190.229516 C98.4305421,190.363076 98.5855697,190.518211 98.7485988,190.666154 C100.174853,188.663782 101,187.507975 101,187.507975 C96.7382405,184.297398 92.5134876,181.002577 88.4007546,177.64303 C86.3443881,175.966339 84.3080252,174.274236 82.3326731,172.591381 L79.4391575,170.090727 L77.0857381,168 L-2.91038305e-11,256.105402 L3.15156166,258.942011 L5.82503813,261.285475 L11.0239647,265.724802 C15.1627023,269.193252 22.6580381,264.96762 30.7054723,260.446101 C38.7739102,255.92561 47.363441,251.099986 54.0536333,253.355094" id="Fill-14" fill="#D7DBE2"/><path d="M65,279.82601 L123.987578,187 C131.982753,192.478487 140.046663,197.512157 148,201.938601 L97.474796,300 C86.1653985,293.706361 75.393927,286.944112 65,279.82601" id="Fill-16" fill="#D7DBE2"/><path d="M257,102 C202.324,102 158,56.3328485 158,0 L366,0 C366,56.3328485 321.676,102 267,102 L257,102 Z" id="Fill-18" fill="#694FD9"/></g></g></g><g id="Body" transform="translate(17.000000, -31.000000) scale(1 1)"><g id="Body/Short Tee Wave 2" stroke="none" stroke-width="1" fill="none" fill-rule="evenodd"><g id="Right-Arm" transform="translate(417.000000, -22.000000)"><path d="M209.51019,16.2545499 L209.480977,16.1430408 C209.303308,15.4579152 209.123468,14.7733057 208.941468,14.0892288 C207.719468,9.54222878 210.509468,4.72522878 215.284468,3.30222878 C216.133039,3.04937164 216.989583,2.92923133 217.831594,2.9300037 L218.083739,2.93385099 C221.024438,3.02091671 223.758909,4.57931975 225.31775,7.10056491 L225.319402,7.09110066 C225.97573,4.05217878 227.715668,1.76567878 231.193668,0.771928782 C232.106328,0.549988782 232.960527,0.450236382 233.760723,0.460926798 L234.156342,0.4754212 C239.328336,0.787323135 242.172468,5.84077158 243.976512,12.242106 C245.122011,10.0688613 247.091847,8.36179958 249.636068,7.69772878 C250.373868,7.45876878 251.082087,7.34348878 251.762006,7.34321237 L252.266659,7.36443266 C263.0867,8.28553303 266.518209,39.0019883 268.055609,62.2831618 L268.119015,63.2481737 C271.126407,80.3759271 269.295986,100.92372 268.662368,115.309329 C265.525368,155.823329 252.990368,198.660329 224.979368,230.073329 C199.888808,259.711289 162.59927,273.010328 124.876528,273.461799 L123.1616,273.473484 C104.295016,273.50496 85.3646979,270.337769 67.8413679,264.408329 C52.8623679,258.928329 36.2833679,255.616329 24.8253679,244.382329 C4.74222786,224.058109 23.3737723,189.69092 49.9806703,189.741797 L50.7976258,189.754157 C51.070753,189.761895 51.3446779,189.773269 51.6193679,189.788329 C64.0683679,190.511329 75.2953679,198.602329 87.1053679,201.283329 C95.0633679,203.711329 102.970368,205.527329 110.650368,206.573329 C116.151798,207.522379 121.383814,207.952194 126.352697,207.909589 L127.999255,207.877954 C177.104128,206.407849 199.965568,158.215729 202.865368,110.114329 C204.012512,101.827659 203.529429,93.0263387 203.071757,84.3944131 C200.962583,79.8500739 193.818999,80.7947903 193.814368,72.9670288 C194.961368,62.9770288 184.490368,44.6730288 198.663368,41.1410288 C197.677125,35.815686 196.54029,30.5071506 195.257668,25.2258288 C194.203668,20.8728288 197.132668,16.2998288 201.943668,14.9848288 C204.664473,14.239426 207.427434,14.7868757 209.51019,16.2545499 Z" id="SKIN" fill="#edb98a"/><path d="M243.976794,12.2431083 L243.982112,12.2304239 C245.129213,10.0626251 247.096496,8.36058592 249.636068,7.69772878 C262.714936,3.4617213 266.4983,38.0910559 268.118902,63.2537185 C271.126051,80.3799136 269.295924,100.925115 268.662368,115.309329 C265.525368,155.823329 252.990368,198.660329 224.979368,230.073329 C186.963368,274.979329 120.942368,282.376329 67.8413679,264.408329 C52.8623679,258.928329 36.2833679,255.616329 24.8253679,244.382329 C4.33236786,223.643329 24.1503679,188.282329 51.6193679,189.788329 C64.0683679,190.511329 75.2953679,198.602329 87.1053679,201.283329 C95.0633679,203.711329 102.970368,205.527329 110.650368,206.573329 C171.777368,217.118329 199.643368,163.560329 202.865368,110.114329 C204.012512,101.827659 203.529429,93.0263387 203.071757,84.3944131 C200.962583,79.8500739 193.818999,80.7947903 193.814368,72.9670288 C194.961368,62.9770288 184.490368,44.6730288 198.663368,41.1410288 C197.677125,35.815686 196.54029,30.5071506 195.257668,25.2258288 C194.203668,20.8728288 197.132668,16.2998288 201.943668,14.9848288 C204.664473,14.239426 207.427434,14.7868757 209.51019,16.2545499 C209.322886,15.5324683 209.133377,14.8105525 208.941468,14.0892288 C207.719468,9.54222878 210.509468,4.72522878 215.284468,3.30222878 C219.192567,2.13769405 223.269757,3.78817268 225.31775,7.10056491 C225.97196,4.05713748 227.711898,1.76675602 231.193668,0.771928782 C238.292449,-0.954347802 241.854424,4.71162705 243.976794,12.2431083 Z" id="SKIN-DARKER" fill="#d29863"/><path d="M96.5428679,282.324929 C71.1168679,278.378929 47.4858679,270.031929 24.8448679,259.452929 C0.801867862,248.410929 -4.77068404,222.39977 4.90386786,198.525929 C10.6857019,184.258127 31.4171906,171 31.4171906,171 C75.5576343,172.574517 109.978868,195.355929 109.978868,195.355929 L96.5428679,282.324929 Z" id="Fill-15" fill="#051026"/></g><g id="body" transform="translate(272.000000, 149.000000)"><rect id="SKIN" fill="#edb98a" x="18" y="101" width="180" height="48"/><path d="M40,0 L176,0 C198.09139,-4.05812251e-15 216,17.90861 216,40 L216,117 L216,117 L0,117 L0,40 C-2.705415e-15,17.90861 17.90861,4.05812251e-15 40,0 Z" fill="#7C6576"/></g><path d="M334,149 C334,167.225397 354.594902,182 380,182 C405.405098,182 426,167.225397 426,149" id="SKIN" fill="#edb98a"/><g id="Left-Arm" transform="translate(119.000000, 148.000000)"><path d="M158.927768,263.652024 L158.926768,263.652024 C147.950768,264.948024 136.348768,261.612024 126.141768,259.556024 C119.140768,257.148024 115.719768,250.243024 108.708768,246.775024 C95.0227683,238.016024 79.7397683,231.599024 64.2127683,223.065024 C42.6397683,211.756024 18.5417683,193.564024 8.10676827,169.268024 C-6.94023173,135.529024 -0.688231726,93.6230238 23.9317683,66.1570238 C52.7587683,34.0470238 95.6917683,22.4820238 136.178768,16.5450238 C154.833768,14.9350238 178.560768,7.92402379 193.229768,22.2770238 C206.565768,33.8240238 205.593768,57.0920238 193.539768,68.9450238 C187.903768,74.9510238 180.394768,78.8170238 172.023768,79.3160238 C153.948768,80.3930238 136.118768,82.6950238 119.724768,86.7550238 C98.9597683,92.5340238 72.1557683,100.656024 66.7517683,123.155024 C61.8407683,144.300024 78.1857683,155.853024 95.7937683,165.111024 C111.236768,173.501024 128.526768,180.984024 144.554768,191.355024 C158.267768,200.619024 174.823768,212.599024 179.134768,229.722024 C183.632768,245.272024 175.406768,262.079024 158.927768,263.652024" id="SKIN" fill="#edb98a"/><path d="M134.948268,279.355124 C122.768268,277.998124 128.590268,267.070124 123.440268,260.053124 C119.847268,251.374124 101.944268,248.472124 108.510268,236.087124 C117.567268,222.827124 133.043268,243.188124 138.721268,250.541124 C143.486268,258.430124 151.019268,280.642124 134.948268,279.355124" id="SKIN" fill="#edb98a"/><path d="M148.860368,291.451824 C135.713368,288.061824 145.747368,269.756824 140.964368,260.499824 C139.679368,254.490824 147.936368,248.066824 153.684368,250.471824 C163.311368,256.645824 160.264368,274.769824 159.424368,284.722824 C158.725368,289.636824 153.649368,292.748824 148.860368,291.451824" id="SKIN" fill="#edb98a"/><path d="M163.879968,297.383524 C159.115968,296.096524 156.230968,291.093524 157.125968,286.362524 C158.786968,276.970524 159.154968,267.234524 156.860968,257.994524 C154.777968,250.979524 162.123968,242.098524 169.391968,246.587524 C179.211968,251.487524 180.989968,302.915524 163.879968,297.383524" id="SKIN" fill="#edb98a"/><path d="M190.887768,254.586624 C177.273768,254.024624 177.084768,233.155624 168.623768,225.197624 C160.782768,214.551624 149.693768,208.212624 148.713768,194.131624 C154.459768,197.607624 160.541768,192.166624 166.426768,196.967624 C177.358768,204.277624 210.012768,244.716624 190.887768,254.586624" id="SKIN" fill="#edb98a"/><path d="M181.494168,292.004624 C166.783168,288.913624 182.038168,259.820624 164.188168,234.688624 C160.582168,227.359624 152.605168,223.065624 150.805168,215.163624 C149.214168,207.805624 157.193168,203.142624 163.464168,206.863624 C170.254168,211.169624 174.745168,218.221624 179.472168,225.175624 C188.220168,235.479624 203.726168,292.481624 181.494168,292.004624" id="SKIN" fill="#edb98a"/><path d="M104.562768,11.2090238 C128.114768,5.69102379 154.312092,5.1403326e-14 191.396139,1 C217.091608,1.6928982 222.965768,20.7940238 221.034768,46.3420238 C219.224768,69.2870238 201.773768,88.7990238 178.951768,89.9760238 C160.110768,90.8000238 141.496768,92.9130238 124.760768,96.8590238 L104.562768,11.2090238 Z" id="Fill-26" fill="#7C6576"/></g></g></g><g id="Head" transform="translate(338.000000, -61.000000) scale(1 1)"><g id="Head/Afro" stroke="none" stroke-width="1" fill="none" fill-rule="evenodd"><path d="M60,44 C14.0627304,44 -9,67.357571 -9,114.051992 C-9,160.746412 14.0627304,172 60,172 C105.93727,172 129,160.746412 129,114.051992 C129,67.357571 105.93727,44 60,44 Z" id="Fill-3" fill="#000"/><g id="head" transform="translate(22.000000, 72.000000)"><g fill="#edb98a" id="SKIN"><path d="M13,62 L58,62 L58,113.633 C58,127.538 47.926,138.81 35.5,138.81 C23.074,138.81 13,127.538 13,113.633 L13,62 Z"/><path d="M60.0525,94 L55.0655,94 C31.8335,94 13.0005,75.167 13.0005,51.935 L13.0005,32.203 C13.0005,14.418 27.4175,0 45.2035,0 L50.7965,0 C68.5825,0 83.0005,14.418 83.0005,32.203 L83.0005,71.052 C83.0005,83.726 72.7265,94 60.0525,94"/><path d="M25,58.5 C25,65.403 19.404,71 12.5,71 C5.596,71 0,65.403 0,58.5 C0,51.597 5.596,46 12.5,46 C19.404,46 25,51.597 25,58.5"/></g><path d="M10.067,53.1685 C10.9718309,53.1685 12.2239875,53.3771928 13.5088204,54.0196092 C15.6553998,55.0928989 17.0130325,57.055328 17.10411,59.9021045 L17.109,60.2105 L14.109,60.2105 C14.109,58.3751144 13.4076866,57.3231443 12.1671796,56.7028908 C11.7065142,56.4725581 11.1976823,56.3199085 10.686339,56.2346846 C10.4347302,56.1927498 10.2385731,56.1747448 10.1250097,56.169908 L10.067,56.1685 L10.067,53.1685 Z" id="ear-line" fill="#000"/><path d="M34.7507501,96.3316762 C25.4557924,93.0435693 20.8185822,84.7386742 18.9822222,73.5680961 C26.2532122,85.6701724 39.4406226,93.8132264 54.5439426,93.9967331 L55.0655,93.9999 L58,93.9999 C50.0632106,98.2297391 42.3134606,99.0069978 34.7507501,96.3316762 Z" id="SHADOW" fill="#000" opacity=".12"/></g><path d="M19.0235388,90.2974915 C18.0946008,77.6615932 44.8808128,67 60.3367811,67 L94.3260463,67 L110,94.0239492 L60.0298015,94.0239492 C53.2572536,108.828644 43.3389157,118 34.3395164,118 C25.3401171,118 19.7014935,99.5172542 19.0235388,90.2974915 Z" id="Fill-17" fill="#000"/></g></g><g id="Expression" transform="translate(385.000000, 34.000000) scale(1 1)" fill="#000"><g id="Expression/Happy" stroke="none" stroke-width="1" fill="none" fill-rule="evenodd"><path d="M20.5607,22 C20.5607,20.343 19.2177,19 17.5607,19 C15.9037,19 14.5607,20.343 14.5607,22 C14.5607,23.657 15.9037,25 17.5607,25 C19.2177,25 20.5607,23.657 20.5607,22" id="Fill-1" fill="#000"/><path d="M46.5607,22 C46.5607,20.343 45.2177,19 43.5607,19 C41.9037,19 40.5607,20.343 40.5607,22 C40.5607,23.657 41.9037,25 43.5607,25 C45.2177,25 46.5607,23.657 46.5607,22" id="Fill-3" fill="#000"/><polygon id="Stroke-5" fill="#000" points="33.1977829 19.396766 36.1476171 18.850434 40.4350211 41.9996 30.5607 41.9996 30.5607 38.9996 36.828 38.999"/><path d="M21.9219,41.586 C21.9219,45.2602625 25.6639817,48.6581933 29.6815435,48.7900329 L29.9229,48.794 L29.9229,51.794 C24.3252295,51.794 19.0961019,47.2280163 18.9261594,41.8552911 L18.9219,41.586 L21.9219,41.586 Z" id="Stroke-7" fill="#000"/><path d="M23.0607,9 L23.0607,12 C19.8342736,12 16.8913939,12.8655529 14.2891644,14.3112359 C13.508469,14.7449556 12.8086718,15.2043948 12.1956619,15.6654963 L11.8964164,15.8960741 C11.548672,16.1706093 11.3051282,16.3844813 11.1717567,16.5115787 L11.1213602,16.5606602 L9.00003983,14.4393398 C9.71719288,13.7221868 11.0118484,12.7000903 12.8322356,11.6887641 C15.7235813,10.0824609 18.9894549,9.08904431 22.5704367,9.00569674 L23.0607,9 Z" id="Stroke-9" fill="#000"/><path d="M37.0607,9 C40.8342736,9 44.2663939,10.0094471 47.2891644,11.6887641 C48.9957774,12.6368824 50.2403215,13.5944668 50.980139,14.3013772 L51.1213602,14.4393398 L49.0000398,16.5606602 L48.8084832,16.3819961 C48.6965748,16.2822525 48.549249,16.1566104 48.3676199,16.0099419 L48.2249836,15.8960741 C47.5437467,15.3582556 46.7430469,14.8172422 45.8322356,14.3112359 C43.3601176,12.937837 40.5805627,12.0880056 37.5425302,12.006456 L37.0607,12 L37.0607,9 Z" id="Stroke-11" fill="#000"/></g></g><g id="Accessories" transform="translate(372.000000, 56.000000) scale(1 1)" fill="#000"><g id="Accessories/None" stroke="none" stroke-width="1" fill="none" fill-rule="evenodd" fill-opacity="0"/></g><g id="Glasses" transform="translate(364.000000, 42.000000) scale(1 1)" fill="#000"><g id="Glasses/None" stroke="none" stroke-width="1" fill="none" fill-rule="evenodd" fill-opacity="0"/></g></g></g><g transform="translate(656.000000, 237.000000) scale(1 1)" id="Master/Character/Standing"><g id="Master/Character/Standing" stroke="none" stroke-width="1" fill="none" fill-rule="evenodd"><g id="Legs" transform="translate(50.000000, 263.000000) scale(1 1)"><g id="Legs/Pants Stride" stroke="none" stroke-width="1" fill="none" fill-rule="evenodd"><g id="Right-leg" transform="translate(340.912300, 0.000075)"><path d="M351.570952,557.400568 L292.421642,588.268621 C289.23919,589.928579 285.361168,588.667216 283.759463,585.45079 C246.439243,510.875624 199.230368,417.989682 161.287429,343.131708 C156.535206,333.763189 159.73662,322.39145 168.445702,317.732295 L207.213943,296.98589 C215.92103,292.326735 226.838569,296.144639 231.593785,305.518281 C251.975853,345.704643 292.982488,426.593799 313.314658,466.827296 C327.03044,493.982986 340.71828,521.075146 354.368197,548.438842 C356.005828,551.729043 354.753405,555.740609 351.570952,557.400568" id="SKIN-DARKER" fill="#d29863"/><path d="M86.3018681,0.553047184 L3.58722884,44.8848046 C0.925720594,46.310596 0.289077427,50.4516434 2.16502598,54.1345105 C47.1498124,143.092204 210.139458,465.665446 251.855077,548.999925 L347.0877,498.490422 C306.772296,419.027412 139.536031,92.5806506 95.7585677,7.05572162 C94.3243715,3.06432593 89.8698682,-1.62510275 86.3018681,0.553047184" id="Fill-3" fill="#051026"/><polygon id="Fill-5" fill="#FFF" points="351.0877 540.556344 280.284523 577.999925 267.0877 551.628227 337.798704 513.999925"/><path d="M343.719319,525.999925 C338.839171,528.596035 321.243031,537.953385 304.83617,546.680031 C313.20814,560.743411 282.702962,576.912582 276.474497,561.764307 C274.326992,562.907008 273.0877,563.566616 273.0877,563.566616 L289.211494,595.999925 L392.0877,542.206257 L386.757446,531.444014 C382.48344,522.799949 353.425603,535.562693 343.719319,525.999925" id="Fill-7" fill="#7C6576"/></g><path d="M243,0 C243,55.228475 289.562386,100 347,100 C404.437614,100 451,55.228475 451,0" id="Path" fill="#7C6576"/><g id="Left-Leg" transform="translate(15.000400, 0.000075)"><path d="M30.239127,557.161414 L6.48321118,491.091216 C5.21392545,487.532681 6.52914914,483.643194 9.42224179,482.410903 C17.7749608,479.121599 25.640338,474.891582 33.6914643,471.031892 C59.328839,457.46285 83.4372787,440.300156 104.929252,420.190817 C135.662744,390.774378 160.646002,356.076536 180.175626,316.548494 C182.322726,312.342953 185.979787,309.372897 190.199089,307.916068 C200.492187,302.022777 233.664385,326.382352 243.12361,329.170438 C247.552628,331.433896 250.627475,335.548984 251.969663,340.466445 C253.653389,376.004969 183.860649,458.895203 157.588132,483.422914 C141.92229,498.068881 124.074395,512.379639 106.514112,524.333293 C94.3745071,532.319777 81.4759276,540.045543 68.7441229,546.868906 C60.3704323,549.247293 34.5433138,569.214035 30.239127,557.161414" id="SKIN" fill="#edb98a"/><path d="M327.589239,-7.48875118e-05 L234.263966,2.49908329 C229.168425,2.66739829 228.517611,9.87191949 228.971481,14.5112349 C230.778964,179.189353 185.88582,369.76348 39.9996,452.672467 L91.3448955,552.999925 C227.004045,476.171584 302.743354,318.80132 323.872303,161.436382 C326.849451,141.283324 342.647926,1.01301097 327.589239,-7.48875118e-05" id="Fill-12" fill="#7C6576"/><path d="M44.8850906,557.999925 L13.9996,479.217498 C21.9808145,475.635354 30.8073943,471.323017 38.4599114,466.999925 L74.9996,542.961589 C65.5638745,548.266517 54.7138457,553.5865 44.8850906,557.999925" id="Fill-14" fill="#FFF"/><path d="M62.9996,549.37113 C60.6360448,544.095785 52.1153883,525.069219 44.1695419,507.327972 C31.6000913,515.152677 16.6218644,483.646376 30.4343923,476.662236 C29.3943075,474.338445 28.7933695,472.999925 28.7933695,472.999925 C20.8193856,477.171895 8.37755891,482.485544 -0.00040000003,485.956334 L40.2423423,600.999925 L52.6550265,595.76714 C63.0086442,589.458645 52.9112793,557.402253 62.9996,549.37113" id="Fill-16" fill="#7C6576"/><path d="M281.629623,1.99992511 L279.631892,2.05201959 C285.059729,189.839841 231.3627,406.728274 64.9996,501.133029 L65.9555146,502.999925 C233.003836,408.206056 287.085428,190.604248 281.629623,1.99992511" id="Fill-18" fill="#FFF"/></g></g></g><g id="Body" transform="translate(17.000000, -31.000000) scale(1 1)"><g id="Body/Tee Stride" stroke="none" stroke-width="1" fill="none" fill-rule="evenodd"><g id="Right-Arm" transform="translate(411.000000, 157.000000)"><path d="M341.286207,6.05212955 C344.343381,7.46655808 345.794655,9.59488783 346.071135,12.1806633 C346.464916,11.4011165 346.851741,10.6161369 347.230007,9.82692955 C349.290791,5.72987073 354.256228,4.17894801 358.578473,5.7527473 L358.837007,5.85092955 C362.496907,7.28087316 364.647676,10.9354507 364.306055,14.6357684 C366.791217,13.0384704 369.933815,12.5815681 372.848707,13.7665296 C377.766707,15.8325296 379.332707,21.8035296 376.894707,26.5575296 C375.860372,28.2325626 374.804501,30.1391165 373.708883,32.169062 C376.306311,30.7749792 379.385582,30.4144949 382.111407,31.8114296 C395.127603,39.8860226 372.951048,65.6342309 352.999326,84.0248252 C348.800502,88.4733181 343.734365,92.7303079 338.168256,96.7385579 C334.245557,99.8230548 331.0544,102.07202 329.133407,103.12243 C328.194504,103.75627 327.177208,104.258427 326.127323,104.616191 C306.522932,116.35111 284.311754,125.090851 271.668707,128.90793 C230.439707,141.33993 187.231707,143.51493 144.959707,135.75793 C111.935707,129.65093 78.857707,116.55793 51.567707,95.6789296 C38.217707,84.4149296 21.849707,72.0649296 16.250707,54.6099296 C12.220707,40.9689296 18.084707,25.3769296 31.604707,19.7899296 C44.227707,14.4719296 60.023707,15.3829296 71.078707,23.5209296 C77.955707,30.0549296 83.674707,37.5709296 91.725707,43.3019296 C110.721707,57.6829296 133.218707,66.4009296 157.091707,70.8819296 C203.343707,79.3389296 255.036707,72.1969296 294.497707,46.2239296 C294.865387,45.9984458 295.228969,45.768295 295.58886,45.533973 C288.245921,34.2499137 306.562693,28.2854373 311.227107,19.7775296 C314.036336,16.7626754 318.843637,17.5848082 322.239312,19.9448238 L322.449085,20.0928187 C325.218436,16.3499848 327.730998,12.4477039 329.968207,8.39912955 C332.248697,4.70606833 337.087481,4.24781926 341.040338,5.9433634" id="SKIN-DARKER" fill="#d29863"/><path d="M341.286207,6.05212955 C344.343381,7.46655808 345.794655,9.59488783 346.071135,12.1806633 C346.464916,11.4011165 346.851741,10.6161369 347.230007,9.82692955 C349.290791,5.72987073 354.256228,4.17894801 358.578473,5.7527473 L358.837007,5.85092955 C362.496907,7.28087316 364.647676,10.9354507 364.306055,14.6357684 C366.791217,13.0384704 369.933815,12.5815681 372.848707,13.7665296 C377.766707,15.8325296 379.332707,21.8035296 376.894707,26.5575296 C375.860372,28.2325626 374.804501,30.1391165 373.708883,32.169062 C376.306311,30.7749792 379.385582,30.4144949 382.111407,31.8114296 C395.127603,39.8860226 372.951048,65.6342309 352.999326,84.0248252 C348.800502,88.4733181 343.734365,92.7303079 338.168256,96.7385579 C334.245557,99.8230548 331.0544,102.07202 329.133407,103.12243 C328.194504,103.75627 327.177208,104.258427 326.127323,104.616191 C306.522932,116.35111 284.311754,125.090851 271.668707,128.90793 C230.439707,141.33993 187.231707,143.51493 144.959707,135.75793 C111.935707,129.65093 78.857707,116.55793 51.567707,95.6789296 C38.217707,84.4149296 21.849707,72.0649296 16.250707,54.6099296 C12.220707,40.9689296 18.084707,25.3769296 31.604707,19.7899296 C44.227707,14.4719296 60.023707,15.3829296 71.078707,23.5209296 C77.955707,30.0549296 83.674707,37.5709296 91.725707,43.3019296 C110.721707,57.6829296 133.218707,66.4009296 157.091707,70.8819296 C203.343707,79.3389296 255.036707,72.1969296 294.497707,46.2239296 C294.865387,45.9984458 295.228969,45.768295 295.58886,45.533973 C288.245921,34.2499137 306.562693,28.2854373 311.227107,19.7775296 C314.036336,16.7626754 318.843637,17.5848082 322.239312,19.9448238 L322.449085,20.0928187 C325.218436,16.3499848 327.730998,12.4477039 329.968207,8.39912955 C332.248697,4.70606833 337.087481,4.24781926 341.040338,5.9433634" id="SKIN-DARKER" fill="#d29863"/><path d="M75.355307,116.92353 C46.745307,101.01153 -0.0736929955,65.3305296 0.572307005,29.3035296 C1.624307,5.91452955 29.478307,-2.54247045 49.042307,0.845529552 C57.649307,2.55352955 65.6332437,2.47741958 70.4592437,10.1364196 C79.4442437,24.7874196 94.302307,40.8405296 111.323307,49.9725296 L75.355307,116.92353 Z" id="Fill-14" fill="#3F8FD4"/></g><path d="M312,149 L448,149 C470.09139,149 488,166.90861 488,189 L488,300 L488,300 L272,300 L272,189 C272,166.90861 289.90861,149 312,149 Z" id="body" fill="#55B0EB"/><path d="M334,149 C334,167.225397 354.594902,182 380,182 C405.405098,182 426,167.225397 426,149" id="SKIN" fill="#edb98a"/><g id="Left-Arm" transform="translate(114.000000, 149.000000)"><path d="M74.3438502,347.540423 C86.3638502,357.343423 97.0938502,355.709423 103.62885,353.103423 C110.40285,350.211423 108.62785,340.007423 101.39785,338.764423 C90.0398502,337.809423 80.4458502,338.449423 70.5808502,326.731423 C67.4648502,323.195423 65.4538502,322.029423 64.2718502,322.513423 C60.1978502,329.036423 67.9648502,341.754423 74.3438502,347.540423" id="SKIN" fill="#edb98a"/><path d="M74.3438502,347.540423 C86.3638502,357.343423 97.0938502,355.709423 103.62885,353.103423 C110.40285,350.211423 108.62785,340.007423 101.39785,338.764423 C90.0398502,337.809423 80.4458502,338.449423 70.5808502,326.731423 C67.4648502,323.195423 65.4538502,322.029423 64.2718502,322.513423 C60.1978502,329.036423 67.9648502,341.754423 74.3438502,347.540423" id="SKIN-DARKER" fill="#d29863"/><path d="M65.4327502,315.775823 L65.4327502,315.775823 C38.8037502,326.810823 21.9167502,305.288823 16.3227502,281.046823 C11.7167502,267.188823 7.65175021,252.355823 4.84675021,237.858823 C-5.64124979,188.952823 -0.280249786,133.061823 32.5367502,93.3988231 C54.1337502,65.7928231 84.0177502,45.3078231 114.91175,30.1448231 C141.15875,17.4578231 179.86175,-3.08017689 193.42875,35.8868231 C197.88775,52.7928231 189.20375,70.9428231 173.02975,77.0238231 C127.94975,94.4168231 76.3267502,121.380823 67.4417502,172.408823 C63.9897502,193.749823 67.1697502,215.869823 72.1647502,236.881823 C78.3177502,265.613823 101.40775,296.470823 65.4327502,315.775823" id="SKIN" fill="#edb98a"/><path d="M90.8417502,37.4348231 C116.849574,24.5066067 142.563862,4.54747351e-13 202.674991,4.54747351e-13 C220.97481,4.54747351e-13 221,9.80366649 221,27.8213053 C221,45.8389442 206.51375,71.1108231 189.75275,76.5798231 C168.46575,83.3408231 147.83775,92.0498231 129.55475,102.836823 L90.8417502,37.4348231 Z" id="Fill-23" fill="#55B0EB"/><path d="M82.6250502,270.835323 C73.3400502,261.646323 31.9530502,286.758323 21.0070502,294.480323 C30.3540502,321.843323 48.5280502,351.947323 71.0180502,366.534323 C80.5280502,373.780323 112.02205,385.826323 105.78405,366.609323 C98.7040502,361.083323 63.2780502,331.162323 76.6220502,316.126323 C83.8480502,306.560323 92.4900502,311.154323 99.5690502,316.425323 C106.05505,321.589323 117.97305,313.076323 113.05605,306.059323 C104.25405,295.360323 87.4460502,283.260323 82.6250502,270.835323" id="SKIN" fill="#edb98a"/></g></g></g><g id="Head" transform="translate(338.000000, -61.000000) scale(1 1)"><g id="Head/Adventure Times" stroke="none" stroke-width="1" fill="none" fill-rule="evenodd"><g id="Group-15" transform="translate(12.000000, 66.000000)"><path d="M0,49 L103,49 L103,122.773848 C103,136.704992 79.9440222,148 51.5,148 C23.0559778,148 0,136.704992 0,122.773848 L0,49 Z" id="Fill-1" fill="#D7DBE2"/><path d="M16,51 L0,51 L0,8 C0,3.582 3.582,0 8,0 C12.418,0 16,3.582 16,8 L16,51 Z" id="Fill-4" fill="#D7DBE2"/><path d="M103,43 L87,43 L87,8 C87,3.582 90.582,0 95,0 C99.418,0 103,3.582 103,8 L103,43 Z" id="Fill-7" fill="#D7DBE2"/><path d="M69.2336571,135.70122 L61.8956429,135.70122 C27.7114143,135.70122 0,108.773548 0,75.556128 L0,47.3430544 C0,21.9138269 21.2135857,1.29878049 47.3844143,1.29878049 L55.6141143,1.29878049 C81.7849429,1.29878049 103,21.9138269 103,47.3430544 L103,102.891296 C103,121.011319 87.8825429,135.70122 69.2336571,135.70122" id="Fill-10" fill="#D7DBE2"/><path d="M66.1323455,103 L58.3386765,103 C35.9981741,103 28,88.4253977 28,70.4469318 L28,50.5530682 C28,32.5746023 35.9981741,18 58.3386765,18 C76.9295433,18 92,30.1279545 92,45.0889205 L92,82.1827273 C92,93.6799432 80.4184911,103 66.1323455,103" id="SKIN" fill="#edb98a"/><path d="M58.3386765,18 C70.5091849,18 81.1709636,23.1976343 87.0835205,30.9851047 C74.7773662,31.7325458 58.6678115,25.0210153 53.0468111,23 C53.0468111,39.0959726 39.9286386,43.5378125 28.3921269,43.9647117 C30.2346112,29.1444033 38.8032458,18 58.3386765,18 Z" id="Combined-Shape" fill="#000"/></g></g></g><g id="Expression" transform="translate(385.000000, 34.000000) scale(1 1)" fill="#000"><g id="Expression/Happy" stroke="none" stroke-width="1" fill="none" fill-rule="evenodd"><path d="M20.5607,22 C20.5607,20.343 19.2177,19 17.5607,19 C15.9037,19 14.5607,20.343 14.5607,22 C14.5607,23.657 15.9037,25 17.5607,25 C19.2177,25 20.5607,23.657 20.5607,22" id="Fill-1" fill="#000"/><path d="M46.5607,22 C46.5607,20.343 45.2177,19 43.5607,19 C41.9037,19 40.5607,20.343 40.5607,22 C40.5607,23.657 41.9037,25 43.5607,25 C45.2177,25 46.5607,23.657 46.5607,22" id="Fill-3" fill="#000"/><polygon id="Stroke-5" fill="#000" points="33.1977829 19.396766 36.1476171 18.850434 40.4350211 41.9996 30.5607 41.9996 30.5607 38.9996 36.828 38.999"/><path d="M21.9219,41.586 C21.9219,45.2602625 25.6639817,48.6581933 29.6815435,48.7900329 L29.9229,48.794 L29.9229,51.794 C24.3252295,51.794 19.0961019,47.2280163 18.9261594,41.8552911 L18.9219,41.586 L21.9219,41.586 Z" id="Stroke-7" fill="#000"/><path d="M23.0607,9 L23.0607,12 C19.8342736,12 16.8913939,12.8655529 14.2891644,14.3112359 C13.508469,14.7449556 12.8086718,15.2043948 12.1956619,15.6654963 L11.8964164,15.8960741 C11.548672,16.1706093 11.3051282,16.3844813 11.1717567,16.5115787 L11.1213602,16.5606602 L9.00003983,14.4393398 C9.71719288,13.7221868 11.0118484,12.7000903 12.8322356,11.6887641 C15.7235813,10.0824609 18.9894549,9.08904431 22.5704367,9.00569674 L23.0607,9 Z" id="Stroke-9" fill="#000"/><path d="M37.0607,9 C40.8342736,9 44.2663939,10.0094471 47.2891644,11.6887641 C48.9957774,12.6368824 50.2403215,13.5944668 50.980139,14.3013772 L51.1213602,14.4393398 L49.0000398,16.5606602 L48.8084832,16.3819961 C48.6965748,16.2822525 48.549249,16.1566104 48.3676199,16.0099419 L48.2249836,15.8960741 C47.5437467,15.3582556 46.7430469,14.8172422 45.8322356,14.3112359 C43.3601176,12.937837 40.5805627,12.0880056 37.5425302,12.006456 L37.0607,12 L37.0607,9 Z" id="Stroke-11" fill="#000"/></g></g><g id="Accessories" transform="translate(372.000000, 56.000000) scale(1 1)" fill="#000"><g id="Accessories/None" stroke="none" stroke-width="1" fill="none" fill-rule="evenodd" fill-opacity="0"/></g><g id="Glasses" transform="translate(364.000000, 42.000000) scale(1 1)" fill="#000"><g id="Glasses/None" stroke="none" stroke-width="1" fill="none" fill-rule="evenodd" fill-opacity="0"/></g></g></g><g transform="translate(345.000000, 237.000000) scale(1 1)" id="Master/Character/Standing"><g id="Master/Character/Standing" stroke="none" stroke-width="1" fill="none" fill-rule="evenodd"><g id="Legs" transform="translate(50.000000, 263.000000) scale(1 1)"><g id="Legs/Loose Pants Leg Back" stroke="none" stroke-width="1" fill="none" fill-rule="evenodd"><g id="Group-15" transform="translate(174.000000, 0.000000)"><path d="M18.2274,396.9593 L3.3754,332.6043 C3.1864,331.7293 3.0384,330.8963 3.05148259,330.0933 C3.0704,329.2893 3.1854,328.5393 3.3844,327.8873 C3.4834,327.5603 3.6044,327.2583 3.7444,326.9843 C3.8994,326.7033 4.1164,326.4343 4.3334,326.2053 C4.7964,325.7343 5.2634,325.4383 5.9584,325.2303 C9.8974,324.1053 14.4434,322.6483 19.0254,321.1043 C23.6294,319.5513 28.3474,317.8873 33.0924,316.1723 C42.5994,312.7233 52.2234,309.0663 61.8534,305.3113 C81.1234,297.7833 100.4324,289.8623 119.6234,281.7213 C146.1344,270.4433 172.5594,258.7333 198.1234,246.4963 L207.6314,241.8803 L212.3304,239.5533 L212.8744,239.2803 L213.1244,239.1433 L213.6304,238.8753 C213.9694,238.7013 214.3124,238.5353 214.6614,238.3773 C217.2404,237.0793 219.7754,235.7403 222.2884,234.3383 C224.7864,232.9213 227.2894,231.4833 229.5604,229.7153 C230.1134,229.2603 230.6754,228.7973 231.0904,228.2053 C231.5064,227.6013 231.4934,226.8323 231.5384,226.1283 C231.5614,224.6893 231.4354,223.2543 231.2844,221.8253 C230.9704,218.9673 230.5184,216.1263 230.0364,213.2923 L229.2754,209.0473 L227.8224,201.4893 C225.0934,187.5823 222.0964,173.4883 218.9964,159.3773 C212.7764,131.1353 206.1184,102.7623 199.2774,74.4223 L276.0684,55.8713 C283.0024,84.6003 289.7594,113.3813 296.1514,142.4073 C299.3424,156.9293 302.4434,171.5003 305.3454,186.2833 L306.4224,191.8423 L307.8394,199.4343 C308.7944,204.6093 309.6744,209.7933 310.4934,214.9733 C312.0774,225.3163 313.3884,235.7223 313.1464,245.6213 C313.0844,250.5953 312.3594,255.2853 311.5994,260.0533 C311.3594,261.2343 311.0744,262.3953 310.7034,263.5633 C310.5444,264.1473 310.3074,264.7253 310.0884,265.3053 L310.0064,265.5223 C309.6204,265.3803 309.8684,265.5433 309.7684,265.5383 L309.7154,265.6433 L309.5004,266.0613 C309.3534,266.3363 309.2224,266.6253 309.0604,266.8893 C307.7804,269.0283 306.4144,270.9753 304.8804,272.8183 C298.5394,280.0103 290.5544,286.0943 281.7854,291.5803 C273.0154,297.0493 263.7164,302.0313 254.3664,306.8283 L250.8924,308.6023 L247.6054,310.2403 L242.4974,312.7703 L232.2954,317.7233 C205.1144,330.7303 177.9154,342.7713 150.4974,354.4383 C130.6644,362.8523 110.7454,371.0253 90.5734,378.9053 C80.4794,382.8413 70.3254,386.7033 59.9914,390.4513 C54.8154,392.3213 49.5954,394.1643 44.2544,395.9673 C38.8964,397.7683 33.4744,399.5273 27.5324,401.2273 C26.5604,401.5143 25.4634,401.6093 24.4924,401.5373 C23.9944,401.5013 23.5264,401.4223 23.0504,401.3053 C22.5614,401.1883 22.0974,401.0313 21.6624,400.8383 C20.7914,400.4513 20.0424,399.9173 19.4624,399.2623 C18.8804,398.6073 18.4194,397.8313 18.2274,396.9593" id="Fill-1" fill="#d29863"/><path d="M48.8686,402.0101 C54.6956,400.0201 60.3776,397.9891 66.0046,395.9251 L34.2916,309.3471 C27.0306,312.0021 19.7736,314.5761 12.9536,316.7961 C9.5746,317.8961 6.2386,318.9301 3.4816,319.6931 L2.4986,319.9591 L2.0076,320.0941 L1.6146,320.1901 L0.8296,320.3871 C0.6766,320.4291 0.6096,320.4401 0.5366,320.4531 L0.3116,320.5021 L0.0876,320.5551 C0.0616,320.5611 -0.0144,320.5821 0.0026,320.5761 L0.0406,320.5631 L0.0606,320.5581 C0.0646,320.5691 0.0586,320.5311 0.0706,320.5821 L0.1796,321.1371 L0.3926,322.2451 L1.2046,326.6911 C1.7226,329.6591 2.1926,332.6391 2.6136,335.6271 C3.5696,340.5821 4.2646,345.4891 4.6756,350.4961 C4.7326,351.0961 4.7636,351.7991 4.8286,352.3171 L5.0286,353.7741 C5.1486,354.7461 5.2426,355.7251 5.3106,356.7061 C5.4446,358.6681 5.4726,360.6451 5.3936,362.6251 C5.4846,360.3621 5.4346,358.1041 5.2456,355.8651 C5.1516,354.7461 5.0226,353.6331 4.8596,352.5251 L4.7986,352.1021 L4.7686,351.6551 L4.7966,351.6701 L4.8536,351.7011 L5.0916,351.8411 C5.1336,351.8651 5.1686,351.8931 5.2196,351.9161 L5.4776,351.9531 C5.8366,351.9961 6.1436,352.0701 6.5586,352.1001 L7.8876,352.1561 C7.7886,353.6421 7.6586,355.1371 7.4946,356.6391 C7.3526,358.1311 7.2376,359.5961 7.0266,361.0941 L6.8676,362.2161 L6.7416,363.3131 C6.6476,364.0451 6.5316,364.7821 6.3926,365.5241 L5.9826,367.7151 C5.8306,368.4381 5.6346,369.1681 5.3936,369.9001 L5.3936,412.3891 L5.3936,448.1861 C6.9356,448.1731 8.4796,448.1261 10.0226,448.0461 L12.3346,447.9011 L13.4886,447.8091 L14.4126,447.7221 C16.2256,447.5261 18.0376,447.2931 19.8426,447.0261 L20.9416,446.8491 L21.8736,446.6871 L23.7356,446.3491 L25.5736,445.9961 L27.0046,445.6901 L29.8606,445.0541 L32.2666,444.4651 L34.5986,443.8741 L36.6826,443.3121 C37.3996,443.1151 38.1136,442.8211 38.6756,442.4571 C39.2356,442.0941 39.7466,441.6511 40.2126,441.1341 C41.1446,440.1021 41.9166,438.7781 42.4486,437.2521 C43.0076,435.7251 43.4416,433.9811 43.7966,432.0941 C44.1496,430.2071 44.3666,428.1831 44.5916,426.0841 C45.4886,417.6881 45.7876,408.1601 48.8686,402.0101" id="Fill-3" fill="#7C6576"/><path d="M168.6478,25.3772 C172.3508,41.6722 176.0138,58.1742 179.5948,74.5982 C183.1768,91.0382 186.6898,107.4812 190.0978,123.8872 C193.5048,140.2932 196.8118,156.6722 199.9288,172.9282 C201.4868,181.0552 202.9958,189.1492 204.4198,197.1612 L206.4908,209.1062 L206.7358,210.5822 L206.8548,211.3032 L206.8488,211.3822 L206.8348,211.6912 L206.7958,212.2892 C206.7368,213.0702 206.6578,213.7892 206.5368,214.4482 C206.4738,214.7772 206.4078,215.0922 206.2998,215.3912 C206.2378,215.5352 206.1968,215.6982 206.0358,215.8062 C205.8808,215.9122 205.7018,215.9902 205.5248,216.0612 C204.8058,216.3362 204.0948,216.5032 203.4438,216.6382 C203.1178,216.7052 202.8028,216.7582 202.5028,216.8042 C202.3418,216.8302 202.2448,216.8382 201.9778,216.8652 C201.8478,216.8952 201.8168,216.9012 201.6318,216.9982 L198.9588,218.2422 C184.6688,224.8852 169.7028,231.4222 154.6288,237.8052 C139.5338,244.1902 124.2558,250.4342 108.9238,256.5222 C92.4108,263.1122 75.8148,269.5312 59.2978,275.6602 C51.0428,278.7232 42.8038,281.7122 34.6658,284.5632 C26.5338,287.4162 18.4628,290.1442 10.8338,292.5452 L23.3538,329.3332 C29.2758,331.1822 35.3608,332.9022 41.5028,334.5632 C37.7738,339.5372 34.0058,344.4862 30.1768,349.3832 L55.8348,424.7772 C65.3808,421.3152 74.4428,417.8072 83.3888,414.2402 C92.3328,410.6772 101.1268,407.0592 109.8618,403.3932 C127.3278,396.0632 144.5568,388.5512 161.7128,380.8542 C177.6108,373.6762 193.4318,366.3442 209.2458,358.7772 C225.0698,351.1952 240.8468,343.4322 256.8498,335.0722 L264.7678,330.9612 L274.6838,325.6322 C281.2658,321.9942 287.8338,318.3312 294.0848,314.3812 C300.3308,310.4432 306.4318,306.3522 311.7988,301.7952 C317.1948,297.2552 321.9758,292.3812 325.9578,287.0662 L327.4038,285.0392 C327.8908,284.3672 328.2378,283.6052 328.6618,282.8922 C329.4728,281.4382 330.2808,279.9772 331.0758,278.4452 C331.2758,278.0662 331.4758,277.6882 331.6668,277.2912 L331.9558,276.7042 L332.0998,276.4102 L332.1708,276.2642 C332.1248,276.1802 332.8408,276.4642 332.5668,276.2742 C332.8978,275.4772 333.2438,274.6782 333.5198,273.8872 C333.8248,273.0952 334.0958,272.3032 334.3418,271.5122 L334.7258,270.3242 L334.9978,269.1042 C335.6988,265.8402 336.4668,262.6452 337.0268,259.3342 L337.4058,256.8382 C337.5398,256.0102 337.5678,255.1372 337.6538,254.2872 L337.8708,251.7262 L337.9608,249.1092 C338.3498,235.1062 335.9158,220.2232 333.3098,205.6352 C332.6418,201.9772 331.9538,198.3242 331.2258,194.6782 L330.1408,189.2132 L329.3318,185.3762 L326.4598,172.4082 C324.5188,163.8152 322.5248,155.3162 320.4948,146.8592 C316.4378,129.9492 286.154,33.203 277,0 C277,0 168.3998,24.3932 168.6478,25.3772 Z" id="Fill-5" fill="#CC2935"/><path d="M253.4472,581.221 L187.5262,585.303 C185.7552,585.459 184.0892,584.967 182.8332,584.069 C181.5792,583.18 180.7422,581.908 180.6202,580.44 L180.4852,578.803 C180.4442,578.265 180.3982,577.717 180.3212,577.096 L179.9142,573.498 L179.5102,569.899 C179.3752,568.7 179.2522,567.514 179.0752,566.248 L178.0942,558.768 L177.6012,555.024 L177.0512,551.213 C175.6202,541.086 174.0342,530.805 172.3932,520.498 C169.1112,499.875 165.5562,479.086 161.9272,458.28 C150.7132,394.093 138.7782,329.658 127.1442,265.051 C121.3222,232.737 115.5492,200.369 109.9692,167.862 C104.4042,135.33 99.0112,102.725 94.2482,69.45 L172.4722,58.403 C177.0292,90.244 182.3342,122.382 187.8332,154.512 C193.3502,186.655 199.0892,218.836 204.8912,251.037 C216.4902,315.455 228.4282,379.897 239.7552,444.716 C243.4222,465.747 247.0262,486.813 250.4082,508.064 C252.1002,518.692 253.7472,529.353 255.2742,540.157 L255.8562,544.196 L256.3972,548.293 L257.4712,556.496 C257.8332,559.223 258.1182,562.096 258.4442,564.889 L258.9162,569.106 C259.0812,570.489 259.1822,572.055 259.3162,573.52 C259.6522,577.56 257.0372,580.945 253.4472,581.221" id="Fill-8" fill="#edb98a"/><path d="M264.3109,559.000237 L263.1339,549.924039 L261.8719,540.996432 L170.6109,554.289792 C171.1679,558.214826 171.7549,562.176249 172.2249,565.985037 L172.9729,571.753816 L173.3389,574.621526 L173.6439,577.381079 L174.2599,582.899172 L174.4149,584.278949 C174.4649,584.734831 174.4849,585.114901 174.5219,585.536415 L174.7249,588.009904 L174.9349,590.483393 L175.0429,591.719632 L175.0699,592.027933 L175.0749,592.243239 L175.0829,592.66071 C175.1079,593.772617 175.1579,594.884525 175.2339,595.996432 L178.4879,595.996432 L206.4039,595.996432 L207.5539,590.14982 C213.3289,591.74187 219.1369,593.689729 224.9479,595.996432 L267.4369,595.996432 L303.2339,595.996432 C303.1619,592.730457 303.0569,589.464481 302.9189,586.199516 L302.8089,583.755341 L302.6589,581.872174 L302.3529,578.102808 C302.1319,575.479717 300.3229,573.357995 297.5549,571.716415 C294.7729,570.20321 291.0489,568.986177 287.0229,567.799468 C278.9579,565.452333 269.7499,563.10924 264.3109,559.000237" id="Fill-10" fill="#7C6576"/><path d="M68.9989954,-0.00356781757 C68.9989954,-0.00356781757 68.9989954,0.333024023 68.9989954,1.0062077 L69.5659,9.8676846 C69.5869,10.682695 69.5929,11.6124105 69.6399,12.2724683 L70.1139,20.867306 C70.1999,22.2789844 70.2689,23.7802134 70.3739,25.1194465 L70.6969,29.0989107 L71.3519,37.0598514 C71.4559,38.4101525 71.5859,39.6709031 71.7139,40.9427218 L72.0969,44.7622024 L72.8649,52.40217 L74.5459,67.3581133 C76.8849,87.1065187 79.4639,106.454462 82.1629,125.681664 C87.5799,164.097831 93.4119,202.073289 99.3269,239.969259 L117.2989,353.24765 C123.2959,390.899117 129.2779,428.482163 134.9569,465.844854 C137.7109,483.914942 140.3559,501.906547 142.8629,519.75628 L144.7069,533.105345 L146.4339,546.315556 C147.5339,555.046229 148.5869,563.728605 149.4339,571.996432 L187.9879,567.099327 C190.9519,561.532102 193.9349,555.903499 196.7769,550.132018 C200.9229,554.892283 204.9429,559.616324 208.9999,564.42891 L288.0139,554.393214 C286.5749,544.503416 285.0119,535.004017 283.4169,525.555934 L280.9779,511.500527 L278.4609,497.586992 C275.0729,479.092294 271.5889,460.752548 268.0259,442.509397 C260.6899,404.744231 253.1339,367.248723 245.5879,329.810568 L223.0669,217.743625 C215.6749,180.468471 208.3869,143.22451 201.6119,106.196879 C198.2369,87.6951373 195.0119,69.2497423 192.0999,51.0558936 L190.0109,37.5065978 C189.3959,33.0854181 188.7209,28.5767003 188.1489,24.2239412 L187.3559,17.7954212 L186.9569,14.5806581 C186.8269,13.5171199 186.7579,12.5783487 186.6539,11.5711569 L186.0649,5.62459977 L185.7539,0.756673667 C185.7239,-0.0160769009 68.9989954,-0.00356781757 68.9989954,-0.00356781757 Z" id="Fill-13" fill="#FA3239"/></g><path d="M243,0 C243,55.228475 289.562386,100 347,100 C404.437614,100 451,55.228475 451,0" id="Waist" fill="#FA3239"/></g></g><g id="Body" transform="translate(17.000000, -31.000000) scale(1 1)"><g id="Body/Short Tee Shake Hand" stroke="none" stroke-width="1" fill="none" fill-rule="evenodd"><g id="body" transform="translate(272.000000, 149.000000)"><rect id="SKIN" fill="#edb98a" x="18" y="101" width="180" height="48"/><path d="M40,0 L176,0 C198.09139,-4.05812251e-15 216,17.90861 216,40 L216,117 L216,117 L0,117 L0,40 C-2.705415e-15,17.90861 17.90861,4.05812251e-15 40,0 Z" fill="#7C6576"/></g><g id="Arm" transform="translate(254.000000, 148.000000)"><path d="M300.5349,228.3517 C303.4289,263.7207 273.2199,266.8117 245.5889,267.3777 C225.2159,268.3977 204.8709,268.2457 184.4309,266.3107 C146.3099,262.5497 106.9119,252.0807 76.5209,227.4727 C53.0909,208.4557 36.7959,181.5437 27.1389,153.7107 C16.2219,122.5667 12.1329,89.0997 11.6439,56.9387 C11.2769,37.7077 26.5849,22.0127 45.6079,23.5087 C62.9239,24.8917 77.2749,38.8547 77.6389,56.0307 C77.8989,73.9477 79.5129,91.6927 82.9809,108.3877 C89.8469,141.5477 104.2309,173.1837 135.7689,187.0707 C163.5059,199.7217 195.1849,202.0617 225.5309,201.9997 C255.4289,202.8447 290.9179,187.8987 300.5349,228.3517" id="SKIN" fill="#edb98a"/><path d="M323.8806,248.5685 C324.8566,253.4455 321.4076,258.2395 316.1976,259.1665 C293.5736,263.1775 270.8676,265.9685 247.7226,267.2565 C242.3976,267.5475 237.9246,263.6605 237.7646,258.7065 C237.6006,253.7245 241.6166,249.5645 246.7196,249.2845 C269.0406,248.0465 291.1136,245.3355 313.0316,241.4465 C318.0466,240.5545 322.9016,243.6985 323.8806,248.5685" id="SKIN" fill="#edb98a"/><path d="M331.78,230.5587 C332.908,235.3987 329.626,240.2847 324.559,241.3007 C314.107,241.6037 287.307,253.9677 284.734,238.7097 C282.805,224.2607 311.189,227.5517 321.005,223.6537 C325.845,222.6837 330.646,225.7177 331.78,230.5587" id="SKIN" fill="#edb98a"/><path d="M330.0564,214.5333 C333.4054,229.5983 304.3274,227.1153 294.7524,230.2553 C289.8114,230.9743 285.2814,227.5273 284.6404,222.5933 C282.5484,208.2473 310.0914,211.4323 319.7254,207.5823 C324.3924,206.6293 328.9524,209.6913 330.0564,214.5333" id="SKIN" fill="#edb98a"/><path d="M292.532,196.1974 C294.392,211.4224 267.599,206.8544 257.835,209.4114 C254.61,210.2744 246.94,202.8404 245.903,201.2434 C251.491,200.8964 249.026,192.0744 259.07,191.2414 C269.185,192.2154 289.446,181.7694 292.532,196.1974" id="SKIN" fill="#edb98a"/><path d="M319.2351,200.5372 C320.2721,205.3982 317.2951,210.1462 312.5321,211.0382 C296.6241,214.0052 280.5091,216.3332 264.3931,217.8522 C259.5701,218.3502 255.3561,214.5722 254.9851,209.6372 C254.6141,204.6592 258.0511,200.4142 262.6771,199.9342 C278.2221,198.4712 293.8571,196.2112 309.1961,193.3502 C313.7541,192.4972 318.2021,195.6762 319.2351,200.5372" id="SKIN" fill="#edb98a"/><path d="M6.8845,120.5616 C3.2435,88.2826 -10.3045,39.6826 15.0195,15.7016 C31.9775,-1.3674 58.3043792,1 70.7422769,1 C83.1801745,1 88.6515,38.9626 88.6095,49.6936 C88.5285,68.2696 89.9395,86.6736 93.2605,103.7316 L6.8845,120.5616 Z" id="Fill-18" fill="#7C6576"/></g><path d="M334,149 C334,167.225397 354.594902,182 380,182 C405.405098,182 426,167.225397 426,149" id="SKIN" fill="#edb98a"/></g></g><g id="Head" transform="translate(338.000000, -61.000000) scale(1 1)"><g id="Head/Layered" stroke="none" stroke-width="1" fill="none" fill-rule="evenodd"><path d="M130,125.5 L130,108.367 C130,104.576 127.538,101.504 124.5,101.504 C121.462,101.504 119,98.431 119,94.641 L119,86.457 C119,72.397 101.84,61 90.715,61 L79,61 L79,173 L121.072,173 C133.182,173 143,160.162 143,144.324 L143,138.5 C143,134.91 140.775,132 138.029,132 L134.971,132 C132.225,132 130,129.09 130,125.5" id="Fill-1" fill="#000"/><path d="M57.801,173 L77,173 L77,61 L57.801,61 C29.744,61 7,83.744 7,111.801 L7,122.199 C7,150.256 29.744,173 57.801,173" id="Fill-4" fill="#000"/><g id="head" transform="translate(22.000000, 72.000000)"><g fill="#edb98a" id="SKIN"><path d="M13,62 L58,62 L58,113.633 C58,127.538 47.926,138.81 35.5,138.81 C23.074,138.81 13,127.538 13,113.633 L13,62 Z"/><path d="M60.0525,94 L55.0655,94 C31.8335,94 13.0005,75.167 13.0005,51.935 L13.0005,32.203 C13.0005,14.418 27.4175,0 45.2035,0 L50.7965,0 C68.5825,0 83.0005,14.418 83.0005,32.203 L83.0005,71.052 C83.0005,83.726 72.7265,94 60.0525,94"/><path d="M25,58.5 C25,65.403 19.404,71 12.5,71 C5.596,71 0,65.403 0,58.5 C0,51.597 5.596,46 12.5,46 C19.404,46 25,51.597 25,58.5"/></g><path d="M10.067,53.1685 C10.9718309,53.1685 12.2239875,53.3771928 13.5088204,54.0196092 C15.6553998,55.0928989 17.0130325,57.055328 17.10411,59.9021045 L17.109,60.2105 L14.109,60.2105 C14.109,58.3751144 13.4076866,57.3231443 12.1671796,56.7028908 C11.7065142,56.4725581 11.1976823,56.3199085 10.686339,56.2346846 C10.4347302,56.1927498 10.2385731,56.1747448 10.1250097,56.169908 L10.067,56.1685 L10.067,53.1685 Z" id="ear-line" fill="#000"/><path d="M34.7507501,96.3317762 C25.4557924,93.0436693 20.8185822,84.7387742 18.9822222,73.5681961 C26.2532122,85.6702724 39.4406226,93.8133264 54.5439426,93.9968331 L55.0655,94 L58,94 C50.0632106,98.2298391 42.3134606,99.0070978 34.7507501,96.3317762 Z" id="SHADOW" fill="#000" opacity=".12"/></g><path d="M34.3390489,118 L32.8032704,118 C26.9501148,112.308 24.7014391,100.708 24.0235369,89.449 C23.0946709,74.02 49.8788072,61 65.3335778,61 L83.3159838,61 L104,87 L66.0314771,87 C59.2564544,105.085 46.3373181,118 34.3390489,118" id="Fill-15" fill="#000"/></g></g><g id="Expression" transform="translate(385.000000, 34.000000) scale(1 1)" fill="#000"><g id="Expression/Happy" stroke="none" stroke-width="1" fill="none" fill-rule="evenodd"><path d="M20.5607,22 C20.5607,20.343 19.2177,19 17.5607,19 C15.9037,19 14.5607,20.343 14.5607,22 C14.5607,23.657 15.9037,25 17.5607,25 C19.2177,25 20.5607,23.657 20.5607,22" id="Fill-1" fill="#000"/><path d="M46.5607,22 C46.5607,20.343 45.2177,19 43.5607,19 C41.9037,19 40.5607,20.343 40.5607,22 C40.5607,23.657 41.9037,25 43.5607,25 C45.2177,25 46.5607,23.657 46.5607,22" id="Fill-3" fill="#000"/><polygon id="Stroke-5" fill="#000" points="33.1977829 19.396766 36.1476171 18.850434 40.4350211 41.9996 30.5607 41.9996 30.5607 38.9996 36.828 38.999"/><path d="M21.9219,41.586 C21.9219,45.2602625 25.6639817,48.6581933 29.6815435,48.7900329 L29.9229,48.794 L29.9229,51.794 C24.3252295,51.794 19.0961019,47.2280163 18.9261594,41.8552911 L18.9219,41.586 L21.9219,41.586 Z" id="Stroke-7" fill="#000"/><path d="M23.0607,9 L23.0607,12 C19.8342736,12 16.8913939,12.8655529 14.2891644,14.3112359 C13.508469,14.7449556 12.8086718,15.2043948 12.1956619,15.6654963 L11.8964164,15.8960741 C11.548672,16.1706093 11.3051282,16.3844813 11.1717567,16.5115787 L11.1213602,16.5606602 L9.00003983,14.4393398 C9.71719288,13.7221868 11.0118484,12.7000903 12.8322356,11.6887641 C15.7235813,10.0824609 18.9894549,9.08904431 22.5704367,9.00569674 L23.0607,9 Z" id="Stroke-9" fill="#000"/><path d="M37.0607,9 C40.8342736,9 44.2663939,10.0094471 47.2891644,11.6887641 C48.9957774,12.6368824 50.2403215,13.5944668 50.980139,14.3013772 L51.1213602,14.4393398 L49.0000398,16.5606602 L48.8084832,16.3819961 C48.6965748,16.2822525 48.549249,16.1566104 48.3676199,16.0099419 L48.2249836,15.8960741 C47.5437467,15.3582556 46.7430469,14.8172422 45.8322356,14.3112359 C43.3601176,12.937837 40.5805627,12.0880056 37.5425302,12.006456 L37.0607,12 L37.0607,9 Z" id="Stroke-11" fill="#000"/></g></g><g id="Accessories" transform="translate(372.000000, 56.000000) scale(1 1)" fill="#000"><g id="Accessories/None" stroke="none" stroke-width="1" fill="none" fill-rule="evenodd" fill-opacity="0"/></g><g id="Glasses" transform="translate(364.000000, 42.000000) scale(1 1)" fill="#000"><g id="Glasses/Thick" stroke="none" stroke-width="1" fill="none" fill-rule="evenodd"><path d="M43.5452664,3.00012344 C49.2894512,3.02462661 55.021427,4.35163303 57.0857956,6.97405047 C58.0938547,8.25461237 58.6772219,10.0147386 58.9068842,11.9996703 L62.1143968,11.9996703 C62.3440591,10.0147386 62.9274264,8.25461237 63.9354854,6.97405047 C65.9529365,4.41123343 71.4731799,3.0856142 77.0844275,3.00401411 L77.4760146,3.00012344 L77.8967218,3.00012344 L80.8146938,3.0378718 C91.0822714,3.2070925 94.9796428,3.73089949 95.893837,5.69362755 C96.9046181,7.86372269 97.4724619,10.8486323 96.5699433,12.3975628 L96.4345265,12.6077971 C96.2607766,12.8804731 95.8187885,13.7026763 95.3317143,14.6775352 L95.2267324,14.8886255 L94.7966033,15.7746065 C94.1772527,17.0747485 93.6217104,18.3482986 93.2115536,19.4320065 L93.1438986,19.6872046 L93.1438986,19.6872046 C92.2530855,22.9637972 90.4857872,26.1972123 88.6985341,28.3365739 C85.3492115,32.34575 71.1131799,32.6082999 67.0329763,28.4576053 C64.4038322,25.7830393 62.5077693,20.7417692 62.087653,15.9998009 L58.933628,15.9998009 C58.5135117,20.7417692 56.6174488,25.7830393 53.9883048,28.4576053 C49.9081011,32.6082999 35.6720695,32.34575 32.3227469,28.3365739 C30.5354938,26.1972123 28.7681955,22.9637972 27.8773824,19.6872046 L27.8097274,19.4320065 C27.4233065,18.4110132 26.9078403,17.2215143 26.331547,16.0000268 L0,16 L0,12 L24.2628445,12.0004643 C23.6422666,10.3774347 24.1973223,7.69055104 25.127444,5.69362755 C26.0970439,3.61194627 30.4223758,3.14888604 42.1443686,3.0107703 L43.1245592,3.00012344 L43.5452664,3.00012344 Z M32.8542992,9.57832836 C31.1333273,11.9393787 30.7976239,14.9040914 31.4059083,17.8533932 L31.6334165,18.4663592 L31.5539327,18.4983688 C32.1949786,21.035914 33.5135424,23.5284501 35.226974,25.5794466 C37.0849603,27.8034767 48.7860935,28.0192764 51.3034638,25.4584151 C54.5060095,22.2005411 56.3804317,12.9591713 54.2303847,9.80770023 L54.1067801,9.63896051 L53.9809214,9.49277664 C51.015179,6.32545056 35.1904568,6.373287 32.8542992,9.57832836 Z M88.1669819,9.57832836 C85.8662205,6.42184823 70.4825425,6.32762495 67.1839305,9.35102137 L67.0403596,9.49277664 L66.9145009,9.63896051 L66.7908963,9.80770023 C64.6408493,12.9591713 66.5152715,22.2005411 69.7178172,25.4584151 C72.2351876,28.0192764 83.9363207,27.8034767 85.794307,25.5794466 C87.4069485,23.6490969 88.669811,21.3276257 89.347247,18.9456229 L89.4673483,18.4983688 L89.3878645,18.4663592 L89.6153727,17.8533932 L89.6153727,17.8533932 C90.2236571,14.9040914 89.8879537,11.9393787 88.1669819,9.57832836 Z" id="Shape" fill="#000"/></g></g></g></g></g></svg>
