<svg width="50" height="50" viewBox="0 0 50 50" fill="none" xmlns="http://www.w3.org/2000/svg">
<path d="M12.1709 24.1923C12.1709 24.1923 18.2922 21.6065 19.9491 19.9497C21.6059 18.2928 24.1917 12.1715 24.1917 12.1715L37.6267 25.6065C37.6267 25.6065 31.5283 28.1695 29.8486 29.8492C28.1689 31.5289 25.6059 37.6274 25.6059 37.6274L12.1709 24.1923Z" fill="var(--o-icons-purple-purple, #370ADE)"/>
<path d="M12.1709 24.1923C12.1709 24.1923 18.2922 21.6065 19.9491 19.9497C21.6059 18.2928 24.1917 12.1715 24.1917 12.1715L37.6267 25.6065C37.6267 25.6065 31.5283 28.1695 29.8486 29.8492C28.1689 31.5289 25.6059 37.6274 25.6059 37.6274L12.1709 24.1923Z" fill="url(#white_gradient_1)" fill-opacity="0.3"/>
<path fill-rule="evenodd" clip-rule="evenodd" d="M42.577 22.7782C46.8728 18.4824 46.8728 11.5176 42.577 7.22182C38.2812 2.92606 31.3164 2.92606 27.0207 7.22183C22.7249 11.5176 22.7249 18.4824 27.0207 22.7782C31.3164 27.0739 38.2812 27.0739 42.577 22.7782ZM38.3344 18.5355C40.287 16.5829 40.287 13.4171 38.3344 11.4645C36.3817 9.51185 33.2159 9.51185 31.2633 11.4645C29.3107 13.4171 29.3107 16.5829 31.2633 18.5355C33.2159 20.4882 36.3818 20.4882 38.3344 18.5355Z" fill="var(--o-icons-purple-pure, #7933F3)"/>
<path fill-rule="evenodd" clip-rule="evenodd" d="M42.577 22.7782C46.8728 18.4824 46.8728 11.5176 42.577 7.22182C38.2812 2.92606 31.3164 2.92606 27.0207 7.22183C22.7249 11.5176 22.7249 18.4824 27.0207 22.7782C31.3164 27.0739 38.2812 27.0739 42.577 22.7782ZM38.3344 18.5355C40.287 16.5829 40.287 13.4171 38.3344 11.4645C36.3817 9.51185 33.2159 9.51185 31.2633 11.4645C29.3107 13.4171 29.3107 16.5829 31.2633 18.5355C33.2159 20.4882 36.3818 20.4882 38.3344 18.5355Z" fill="url(#white_gradient_2)" fill-opacity="0.3"/>
<path fill-rule="evenodd" clip-rule="evenodd" d="M22.7782 42.577C27.0739 38.2812 27.0739 31.3164 22.7782 27.0207C18.4824 22.7249 11.5176 22.7249 7.22182 27.0207C2.92606 31.3164 2.92606 38.2812 7.22183 42.577C11.5176 46.8728 18.4824 46.8728 22.7782 42.577ZM18.5355 38.3344C20.4882 36.3817 20.4882 33.2159 18.5355 31.2633C16.5829 29.3107 13.4171 29.3107 11.4645 31.2633C9.51185 33.2159 9.51185 36.3817 11.4645 38.3344C13.4171 40.287 16.5829 40.287 18.5355 38.3344Z" fill="var(--o-icons-cyan-pure, #1BD4F9)"/>
<path fill-rule="evenodd" clip-rule="evenodd" d="M22.7782 42.577C27.0739 38.2812 27.0739 31.3164 22.7782 27.0207C18.4824 22.7249 11.5176 22.7249 7.22182 27.0207C2.92606 31.3164 2.92606 38.2812 7.22183 42.577C11.5176 46.8728 18.4824 46.8728 22.7782 42.577ZM18.5355 38.3344C20.4882 36.3817 20.4882 33.2159 18.5355 31.2633C16.5829 29.3107 13.4171 29.3107 11.4645 31.2633C9.51185 33.2159 9.51185 36.3817 11.4645 38.3344C13.4171 40.287 16.5829 40.287 18.5355 38.3344Z" fill="url(#white_gradient_3)" fill-opacity="0.3"/>
<defs>
<linearGradient id="white_gradient_1" x1="12.1709" y1="12.1715" x2="42.119" y2="19.6585" gradientUnits="userSpaceOnUse">
<stop stop-color="white"/>
<stop offset="1" stop-color="white" stop-opacity="0"/>
</linearGradient>
<linearGradient id="white_gradient_2" x1="23.7988" y1="4" x2="49.6812" y2="10.4706" gradientUnits="userSpaceOnUse">
<stop stop-color="white"/>
<stop offset="1" stop-color="white" stop-opacity="0"/>
</linearGradient>
<linearGradient id="white_gradient_3" x1="4" y1="23.7988" x2="29.8824" y2="30.2694" gradientUnits="userSpaceOnUse">
<stop stop-color="white"/>
<stop offset="1" stop-color="white" stop-opacity="0"/>
</linearGradient>
</defs>
</svg>
