<svg width="70" height="70" viewBox="0 0 70 70" fill="none" xmlns="http://www.w3.org/2000/svg">
<path d="M55.0016 24.6989C56.3482 23.1954 56.3587 20.739 54.874 19.4076C52.5335 17.3087 49.9334 15.5872 47.1492 14.2996C43.3007 12.5198 39.176 19.2505 35.0105 19.2505C30.845 19.2505 26.7203 12.5198 22.8718 14.2996C20.0876 15.5872 17.4875 17.3087 15.147 19.4076C13.6623 20.739 13.6728 23.1954 15.0194 24.6989L32.5723 44.2967C33.9189 45.8002 36.1021 45.8002 37.4487 44.2967L55.0016 24.6989Z" fill="var(--o-icons-blue-400, #251B85)"/>
<path d="M14.9984 45.3016C13.6518 46.805 13.6413 49.2614 15.126 50.5929C17.4665 52.6918 20.0666 54.4132 22.8509 55.7009C26.6993 57.4806 30.824 50.75 34.9895 50.75C39.155 50.75 43.2797 57.4806 47.1282 55.7009C49.9124 54.4132 52.5125 52.6918 54.853 50.5929C56.3377 49.2614 56.3272 46.805 54.9806 45.3016L37.4277 25.7038C36.0811 24.2003 33.8979 24.2003 32.5513 25.7038L14.9984 45.3016Z" fill="var(--o-icons-green-100, #49DC69)"/>
<path d="M45.7652 35.0115L37.4277 25.7028C36.0811 24.1993 33.8979 24.1993 32.5513 25.7028L24.2349 34.9881L32.5723 44.2969C33.9189 45.8003 36.1021 45.8003 37.4487 44.2969L45.7652 35.0115Z" fill="var(--o-icons-green-200, #18B17E)"/>
</svg>
