<svg width="70" height="70" viewBox="0 0 70 70" fill="none" xmlns="http://www.w3.org/2000/svg">
<circle cx="35" cy="35" r="5" fill="var(--o-icons-blue-100, #1ACAF0)"/>
<path fill-rule="evenodd" clip-rule="evenodd" d="M38 59.8218C49.4091 58.4574 58.4574 49.4091 59.8218 38C59.9395 37.0164 60 36.0153 60 35C60 33.9847 59.9395 32.9836 59.8219 32C58.3398 19.6073 47.7918 10 35 10C21.1929 10 10 21.1929 10 35C10 47.7918 19.6073 58.3398 32 59.8218C32.9836 59.9395 33.9847 60 35 60C36.0153 60 37.0164 59.9395 38 59.8218ZM53.7645 38H43.4879C42.584 40.5572 40.5572 42.584 38 43.4879V53.7645C46.0908 52.4812 52.4812 46.0908 53.7645 38ZM43.4879 32H53.7645C52.3261 22.932 44.4726 16 35 16C25.5274 16 17.6739 22.932 16.2355 32H26.5121C27.7476 28.5044 31.0813 26 35 26C38.9187 26 42.2524 28.5044 43.4879 32ZM26.5121 38H16.2355C17.5188 46.0908 23.9092 52.4812 32 53.7645V43.4879C29.4428 42.584 27.416 40.5572 26.5121 38ZM35 40C36.0355 40 36.9975 39.6852 37.7955 39.1461C37.865 39.0992 37.9331 39.0506 38 39.0004C38.3788 38.7158 38.7158 38.3788 39.0004 38C39.0009 37.9993 39.0015 37.9985 39.002 37.9978C39.6287 37.1625 40 36.1246 40 35C40 33.8744 39.6281 32.8357 39.0004 32C38.0882 30.7856 36.6358 30 35 30C33.3642 30 31.9118 30.7856 30.9996 32C30.9494 32.0669 30.9008 32.135 30.8539 32.2045C30.3148 33.0025 30 33.9645 30 35C30 36.1256 30.3719 37.1643 30.9996 38C31.2842 38.3788 31.6212 38.7158 32 39.0004C32.8357 39.6281 33.8744 40 35 40Z" fill="var(--o-icons-blue-200, #1861AF)"/>
</svg>
