<svg xmlns="http://www.w3.org/2000/svg" class="o_ignore_content position-absolute top-100 start-0 w-100  overflow-visible" xmlns:xlink="http://www.w3.org/1999/xlink" viewBox="0 0 572.96 17.69" preserveAspectRatio="xMidYMid meet"
    stroke-width="var(--text-highlight-width)"
    stroke="var(--text-highlight-color)"
    fill="none">
        <path d="m0,17.19c7.35-.06,14.57-15.52,21.92-15.58,7.35-.06,14.81,15.29,22.15,15.24,7.35-.05,14.59-15.5,21.94-15.55,7.35-.05,14.79,15.31,22.14,15.26,7.35-.04,14.61-15.49,21.95-15.53,7.35-.04,14.77,15.33,22.12,15.29,7.35-.04,14.62-15.47,21.97-15.5s14.75,15.34,22.1,15.32c7.35-.03,14.64-15.45,21.99-15.47s14.74,15.36,22.08,15.34S235.03.58,242.38.56c7.35-.01,14.72,15.38,22.07,15.37,7.35,0,14.68-15.42,22.03-15.42s14.7,15.39,22.05,15.39c7.35,0,14.7-15.4,22.04-15.4,7.35,0,14.68,15.41,22.03,15.42,7.35,0,14.71-15.38,22.06-15.37s14.67,15.43,22.01,15.44,14.73-15.37,22.08-15.35c7.35.02,14.65,15.44,21.99,15.47s14.75-15.35,22.1-15.32,14.63,15.46,21.98,15.49c7.35.03,14.77-15.33,22.11-15.3,7.35.04,14.61,15.48,21.96,15.52,7.35.04,14.78-15.32,22.13-15.27s14.59,15.49,21.94,15.54" stroke-linecap="round" stroke-linejoin="miter" class="applied-effect"/>
<path d="M1 49.14C22.84 48.96 44.32 3.00002 66.16 2.83002C88 2.66002 110.18 48.29 132.02 48.14C153.86 47.99 175.39 2.05002 197.24 1.91002C219.08 1.77002 241.21 47.42 263.05 47.29C284.89 47.16 306.48 1.25002 328.32 1.13002C350.16 1.01002 372.24 46.69 394.08 46.59C415.92 46.49 437.56 0.60002 459.4 0.51002C481.24 0.42002 503.26 46.12 525.11 46.04" stroke-linecap="round" stroke-linejoin="miter" class="preview-effect"/>
</svg>

