<!-- DESIGN NOTE: This is a default SVG added for testing purposes only.
    In general, the SVG element class should contain "o_ignore_content"
    to prevent issues during the editor's split process. -->
<svg class="o_ignore_content" xmlns="http://www.w3.org/2000/svg" viewBox="0 0 299.82 77.81"
    stroke-width="var(--text-highlight-width)"
    stroke="var(--text-highlight-color)"
    fill="none" preserveAspectRatio="xMinYMid slice">
    <path d="m145.04,2.6s-.01,0-.01,0c0,0-.01,0-.02,0-.01,0-.03,0-.04,0-.01,0-.02,0-.03,0,0,0-.01,0-.01,0,0,0-.02,0-.05,0-.02,0-.05,0-.05,0-.01,0-.04,0-.04,0,0,0-.01,0-.03,0-.02,0-.04,0-.05,0-.01,0-.02,0-.02,0,0,0,0,0-.01,0s-.02,0-.03,0c0,0-.02,0-.03,0,0,0-.02,0-.02,0,0,0-.01,0-.02,0,0,0-.03,0-.04,0-.02,0-.03,0-.04,0-.01,0-.02,0-.02,0,0,0-.01,0-.02,0,0,0-.03,0-.05,0-.02,0-.04,0-.04,0,0,0-.01,0-.01,0,0,0,0,0-.01,0-.02,0-.05,0-.05,0h0s-.04,0-.09,0c-.77-.04-1.59-.08-2.44-.12-1.96-.12-3.96-.15-5.98-.17-2.02-.05-4.06.02-6.12.06-8.21.2-16.54.93-24.16,1.93-1.38.19-6.23.85-10.79,1.62-6.68,1.08-17.72,3.29-27.41,5.53-9.69,2.22-18.07,4.32-19.52,4.7-1.5.38-3.18.83-3.78,1-.61.17-1.64.45-2.32.64-.89.28-5.28,1.37-12.76,4.02-3.73,1.35-8.22,3.13-13.26,5.71-2.51,1.3-5.17,2.79-7.87,4.59-1.36.89-2.76,1.82-4.08,2.98-1.31,1.16-2.56,2.59-3.23,4.42-.78,2.11-.54,4.65.49,6.87,1.03,2.23,2.65,4.27,4.61,6.03,3.86,3.59,8.88,6.36,14.25,8.51,5.39,2.15,11.11,3.83,16.84,5.43,5.72,1.61,11.51,2.91,17.1,4.08,22.41,4.51,41.75,5.54,44.38,5.8,2.24.15,4.67.3,5.41.35,1.04.07,1.33.09,1.36.08.19,0,2.37.11,7.15.35,3.92.2,18.7.7,32.87.64,14.16,0,26.42-.69,27.26-.73.82-.05,1.4-.09,1.53-.1.15,0,1.37-.08,3.66-.22,3.2-.21,10.35-.74,16.86-1.48,6.52-.7,12.39-1.62,13.14-1.73.52-.08.86-.13,1.07-.16.21-.03.3-.05.31-.04.13-.02.75-.12,2.94-.47,2.22-.36,5.95-.98,11.97-2.27,4.07-.9,7.74-1.85,10.38-2.61,2.63-.77,4.25-1.29,4.25-1.29.08-.03.9-.3,2.02-.68.23-.07,1.36-.44,3.27-1.16,1.92-.69,4.6-1.77,7.9-3.26,3.28-1.54,7.17-3.54,11.37-6.26,1.07-.65,2.11-1.42,3.19-2.18,1.09-.75,2.19-1.6,3.25-2.54,1.06-.95,2.1-1.99,3-3.22.9-1.22,1.67-2.64,2.05-4.24.39-1.59.33-3.35-.19-4.96-.5-1.63-1.4-3.1-2.45-4.44-1.06-1.33-2.27-2.56-3.57-3.7-1.31-1.12-2.61-2.29-4.05-3.34-5.61-4.36-12.24-8.02-19.44-11-14.45-5.98-31.05-9.09-47.9-11.62C179.81,1.4,162.39.07,145.48,0c-16.92-.04-33.32,1.23-48.19,3.39-14.87,2.16-28.21,5.2-39.18,8.31-2.74.8-5.32,1.63-7.77,2.37-1.22.38-2.41.74-3.55,1.12-1.13.4-2.22.79-3.28,1.17-2.33.84-4.3,1.55-5.88,2.12-.03.01-.06.02-.06.02-.14.05-.35.15-.45.19-.03.01-.08.04-.18.08-.06.02-.07.08-.05.17,0,.02,0,.03,0,.04-.01,0,0,.07.02.14h0s0,.01,0,.02c0,.01,0,.03,0,.04,0,0,0,.02,0,.04,0,.01,0,.02,0,.02,0,0,0,0,0,.01,0,0,0,.02,0,.02,0,0,0,.01-.01,0h0s0,.01,0,.02c0,0,0,.02,0,.02,0,0,0,.01,0,.02,0,0,0,.01,0,.01,0,0,0,.03.01.04,0,0,.02.05,0,.05,0,0,0,0,0,.02,0,0,.01.02.01.02,0,0,0,.01.01.02,0,.01,0,.02,0,.02,0,0,0,0,0,.01,0,0,0,.02,0,.02,0,0,0,.01.01.02,0,.01.01.02.01.02,0,0,0,.01,0,.02,0,.01,0,.03,0,.04,0,.01,0,.02,0,.02,0,0,0,.01.01.02,0,0,0,.02,0,.02,0,0,.02.04.02.06h0s0,.02,0,.02c0,0,0,.01,0,.02,0,.01.01.02.01.02,0,0,0,0,0,.01,0,0,0,.01,0,.01,0,0,0,0,.01.02,0,.02,0,.02,0,0,0-.02.01,0,0,.02,0,.03.06.07.1.06.01,0,.03,0,.03,0,0,0,.01,0,.02,0,0,0,.01,0,.01,0,0,0,0,0,.01,0,0,0,.02,0,.03,0,.01,0,.03,0,.05,0,.06,0,.07,0,.08,0,0,0,.02,0,.03,0s.02,0,.02,0c0,0,.06,0,.13-.02.02,0,.03,0,.03,0,0,0,.01,0,.01,0,0,0,.01,0,.02,0,0,0,.01,0,.02,0,0,0,.01,0,.02,0,0,0,0,0,.02,0,0,0,.01,0,.01,0,0,0,0,0,.02,0,0,0,.01-.02.01-.02h0s0,0,0,0c0,0,0,.01.01,0s.02,0,.03,0c.01,0,.03,0,.03,0,0,0,.03,0,.05-.03.01-.01.09-.06.16-.09.03-.01.06-.03.06-.03,1.08-.37,4.51-1.55,9.66-3.33,2.83-.87,6.13-1.89,9.82-3.02,1.85-.53,3.83-1.03,5.88-1.59,2.06-.53,4.18-1.16,6.42-1.67,4.48-.99,9.24-2.19,14.3-3.07,1.26-.24,2.54-.48,3.82-.72,1.29-.25,2.59-.49,3.91-.68,2.64-.4,5.32-.81,8.04-1.22,10.91-1.46,22.44-2.46,33.84-2.87,8.97-.23,21.18-.24,33.6.55,12.42.79,24.99,2.39,34.76,3.94,3.61.65,11.2,1.71,21.47,4.17,5.13,1.24,10.93,2.85,17.12,5.15,3.08,1.18,6.28,2.48,9.48,4.1,1.62.76,3.2,1.68,4.83,2.56,1.58.97,3.22,1.9,4.78,3.02,1.61,1.04,3.13,2.25,4.7,3.44,1.48,1.29,3.07,2.53,4.47,3.96,1.4,1.42,2.68,3,3.49,4.81.83,1.8,1.06,3.85.48,5.77-.56,1.93-1.79,3.67-3.26,5.18-1.48,1.52-3.19,2.85-5.01,4.09-3.59,2.54-7.45,4.82-11.51,6.82-8.12,4.02-16.99,6.96-26.11,9.16-9.12,2.21-18.51,3.72-27.87,4.93-18.75,2.38-37.52,3.14-55.06,3.18-17.56.03-33.92-.48-48.01-1.53-28.22-2.01-47.09-6.65-49.19-7.08-.54-.13-1.9-.46-3.78-.92-.94-.23-2.02-.5-3.18-.79-1.16-.32-2.41-.66-3.72-1.01-5.22-1.46-11.32-3.28-15.76-5.06-.42-.17-1.98-.77-4.33-1.89-2.34-1.13-5.49-2.81-8.75-5.49-1.61-1.35-3.3-2.91-4.6-4.92-.65-1-1.21-2.09-1.57-3.28-.33-1.18-.48-2.46-.23-3.71.46-2.55,2.48-4.64,4.75-6.31,1.14-.86,2.39-1.63,3.6-2.45,1.26-.76,2.51-1.57,3.83-2.29,2.6-1.5,5.27-2.76,7.86-3.96,2.62-1.14,5.19-2.21,7.69-3.1,4.99-1.83,9.64-3.23,13.63-4.34,7.97-2.19,13.23-3.4,13.73-3.54,1.01-.24,1.74-.42,1.83-.44,0,0,4.99-1.24,13.06-3.07,8.07-1.82,19.24-4.21,31.66-5.99,12.41-1.83,24.58-2.61,34.06-2.48,2.37,0,4.57.06,6.57.14.32.01.6.02.84.03h.02s.03,0,.03,0c0,0,.01,0,.01,0,0,0,.02,0,.09,0,.02,0,.04,0,.04,0h.01s.02,0,.02,0c.01,0,.34.01.38.01.02,0,.04,0,.06,0,.04,0,.06-.01.07-.02h0s.02-.03.02-.03c0-.02.01-.03.02-.03,0,0,0,0,0,0-.01,0-.01,0,0,0,.02,0,.02-.01.02-.02,0,0,0-.01,0-.02.01,0,.01,0,.01-.03,0-.01,0-.03,0-.03h0s0-.03,0-.03h0s0-.01,0-.01c.01,0,.02-.01,0-.01,0,0,0-.03,0-.03,0,0,.01-.02.02-.03,0-.02.02-.04.02-.04.01,0,.01-.02,0-.03Z"/></svg>
