<svg width="70" height="70" viewBox="0 0 70 70" fill="none" xmlns="http://www.w3.org/2000/svg">
<path d="M60 29.5232C60 28.8035 59.2627 28.3195 58.6024 28.6056L30.6024 40.739C30.2367 40.8974 30 41.2579 30 41.6565V51C30 51.5523 30.4477 52 31 52H56C58.2091 52 60 50.2091 60 48V29.5232Z" fill="var(--o-icons-green-100, #49DC69)"/>
<path d="M52 24.4856C52 23.7759 51.2812 23.292 50.6236 23.5592L20.6236 35.7467C20.2466 35.8998 20 36.2662 20 36.6731V51C20 51.5523 20.4477 52 21 52H48C50.2091 52 52 50.2091 52 48V24.4856Z" fill="var(--o-icons-green-200, #18B17E)"/>
<path d="M52 31.4668L30.6024 40.7391C30.2367 40.8976 30 41.2581 30 41.6566V51.0001C30 51.5524 30.4477 52.0001 31 52.0001H48C50.2091 52.0001 52 50.2093 52 48.0001V31.4668Z" fill="var(--o-icons-green-300, #10846B)"/>
<path d="M42 19.4856C42 18.7759 41.2812 18.292 40.6236 18.5592L10.6236 30.7467C10.2466 30.8998 10 31.2662 10 31.6731V51C10 51.5523 10.4477 52 11 52H38C40.2091 52 42 50.2091 42 48V19.4856Z" fill="var(--o-icons-green-300, #10846B)"/>
<path d="M42 27.0625L20.6236 35.7467C20.2466 35.8998 20 36.2662 20 36.6731V51C20 51.5523 20.4477 52 21 52H38C40.2091 52 42 50.2091 42 48V27.0625Z" fill="var(--o-icons-green-400, #105B54)"/>
</svg>
