<svg width="50" height="50" viewBox="0 0 50 50" fill="none" xmlns="http://www.w3.org/2000/svg">
<path d="M18.9709 13.8283C17.4088 12.2662 14.8762 12.2662 13.3141 13.8283L4.8288 22.3136C3.2667 23.8757 3.2667 26.4083 4.8288 27.9704L20.3851 43.5268C21.9472 45.0889 24.4799 45.0889 26.042 43.5268L34.5273 35.0415C36.0894 33.4794 36.0894 30.9468 34.5273 29.3847L18.9709 13.8283Z" fill="var(--o-icons-cyan-pure, #1BD4F9)"/>
<path d="M18.9709 13.8283C17.4088 12.2662 14.8762 12.2662 13.3141 13.8283L4.8288 22.3136C3.2667 23.8757 3.2667 26.4083 4.8288 27.9704L20.3851 43.5268C21.9472 45.0889 24.4799 45.0889 26.042 43.5268L34.5273 35.0415C36.0894 33.4794 36.0894 30.9468 34.5273 29.3847L18.9709 13.8283Z" fill="url(#white_gradient_1)" fill-opacity="0.3"/>
<path d="M33.3847 8.00986C32.5393 5.96889 30.1994 4.99968 28.1584 5.84508L17.0719 10.4373C15.0309 11.2827 14.0617 13.6226 14.9071 15.6635L23.3261 35.9889C24.1715 38.0299 26.5114 38.9991 28.5524 38.1537L39.6389 33.5615C41.6799 32.7161 42.6491 30.3762 41.8037 28.3352L33.3847 8.00986Z" fill="var(--o-icons-purple-pure, #7933F3)"/>
<path d="M33.3847 8.00986C32.5393 5.96889 30.1994 4.99968 28.1584 5.84508L17.0719 10.4373C15.0309 11.2827 14.0617 13.6226 14.9071 15.6635L23.3261 35.9889C24.1715 38.0299 26.5114 38.9991 28.5524 38.1537L39.6389 33.5615C41.6799 32.7161 42.6491 30.3762 41.8037 28.3352L33.3847 8.00986Z" fill="url(#white_gradient_2)" fill-opacity="0.3"/>
<path d="M14.8015 12.8871C14.5137 13.7639 14.5262 14.744 14.9071 15.6635L23.3261 35.9889C24.1715 38.0299 26.5114 38.9991 28.5524 38.1537L33.4386 36.1297L34.5268 35.0415C36.0889 33.4794 36.0889 30.9468 34.5268 29.3847L18.9705 13.8283C17.8431 12.7009 16.2102 12.3872 14.8015 12.8871Z" fill="var(--o-icons-purple-cyan, #0D2AED)"/>
<path d="M14.8015 12.8871C14.5137 13.7639 14.5262 14.744 14.9071 15.6635L23.3261 35.9889C24.1715 38.0299 26.5114 38.9991 28.5524 38.1537L33.4386 36.1297L34.5268 35.0415C36.0889 33.4794 36.0889 30.9468 34.5268 29.3847L18.9705 13.8283C17.8431 12.7009 16.2102 12.3872 14.8015 12.8871Z" fill="url(#white_gradient_3)" fill-opacity="0.3"/>
<path d="M49 7C49 4.79086 47.2091 3 45 3H33C30.7909 3 29 4.79086 29 7V29C29 31.2091 30.7909 33 33 33H45C47.2091 33 49 31.2091 49 29V7Z" fill="var(--o-icons-teal-pure, #00CEB3)"/>
<path d="M49 7C49 4.79086 47.2091 3 45 3H33C30.7909 3 29 4.79086 29 7V29C29 31.2091 30.7909 33 33 33H45C47.2091 33 49 31.2091 49 29V7Z" fill="url(#white_gradient_4)" fill-opacity="0.3"/>
<path d="M29.2662 5.56197C29.0943 6.00821 29 6.49304 29 6.99989V28.9999C29 31.209 30.7909 32.9999 33 32.9999H40.5955C41.9603 31.9178 42.5034 30.0242 41.8038 28.3352L33.3847 8.00986C32.6898 6.33204 30.9848 5.37851 29.2662 5.56197Z" fill="var(--o-icons-purple-teal, #0028A3)"/>
<path d="M29.2662 5.56197C29.0943 6.00821 29 6.49304 29 6.99989V28.9999C29 31.209 30.7909 32.9999 33 32.9999H40.5955C41.9603 31.9178 42.5034 30.0242 41.8038 28.3352L33.3847 8.00986C32.6898 6.33204 30.9848 5.37851 29.2662 5.56197Z" fill="url(#white_gradient_5)" fill-opacity="0.3"/>
<defs>
<linearGradient id="white_gradient_1" x1="3.65723" y1="12.6567" x2="41.3533" y2="22.0807" gradientUnits="userSpaceOnUse">
<stop stop-color="white"/>
<stop offset="1" stop-color="white" stop-opacity="0"/>
</linearGradient>
<linearGradient id="white_gradient_2" x1="14.6016" y1="5.53955" x2="47.5484" y2="12.4222" gradientUnits="userSpaceOnUse">
<stop stop-color="white"/>
<stop offset="1" stop-color="white" stop-opacity="0"/>
</linearGradient>
<linearGradient id="white_gradient_3" x1="14.6016" y1="12.6567" x2="39.9149" y2="17.831" gradientUnits="userSpaceOnUse">
<stop stop-color="white"/>
<stop offset="1" stop-color="white" stop-opacity="0"/>
</linearGradient>
<linearGradient id="white_gradient_4" x1="29" y1="3" x2="53.3243" y2="7.05405" gradientUnits="userSpaceOnUse">
<stop stop-color="white"/>
<stop offset="1" stop-color="white" stop-opacity="0"/>
</linearGradient>
<linearGradient id="white_gradient_5" x1="29" y1="5.53955" x2="45.1565" y2="7.46779" gradientUnits="userSpaceOnUse">
<stop stop-color="white"/>
<stop offset="1" stop-color="white" stop-opacity="0"/>
</linearGradient>
</defs>
</svg>
