<svg fill="none" height="28" viewBox="0 0 28 28" width="28" xmlns="http://www.w3.org/2000/svg">
    <g fill="#000">
        <path d="m21 14c0 3.866-3.134 7-7 7s-7-3.134-7-7 3.134-7 7-7 7 3.134 7 7z" />
        <path
            d="m11.2114 22.6967c-.5387.9045-.8636 1.9695-.8636 2.8685 0 2.0171 1.6352 2.4348 3.6522 2.4348s3.6522-.4177 3.6522-2.4348c0-.899-.3249-1.964-.8636-2.8685-.879.2817-1.8161.4337-2.7886.4337s-1.9096-.152-2.7886-.4337z" />
        <path
            d="m22.5204 17.2882c.394-1.0202.61-2.129.61-3.2882 0-.7824-.0984-1.5418-.2835-2.2666.8706-.4867 1.8686-.7769 2.7183-.7769 2.0171 0 2.4348 1.6352 2.4348 3.6522s-.4177 3.6522-2.4348 3.6522c-.9582 0-2.1049-.369-3.0448-.9727z" />
        <path
            d="m16.7886 5.30326c.5387-.90443.8636-1.96944.8636-2.86848 0-2.017037-1.6352-2.43478-3.6522-2.43478s-3.6522.417743-3.6522 2.43478c0 .89904.3249 1.96405.8636 2.86848.879-.28164 1.8161-.43369 2.7886-.43369s1.9096.15205 2.7886.43369z" />
        <path
            d="m5.1531 11.7334c-.87055-.4867-1.86858-.7769-2.71832-.7769-2.017037 0-2.43478 1.6352-2.43478 3.6522s.417743 3.6522 2.43478 3.6522c.95819 0 2.10491-.369 3.04482-.9727-.394-1.0202-.61003-2.129-.61003-3.2882 0-.7824.09841-1.5418.28353-2.2666z" />
    </g>
</svg>
