<svg viewBox="192 38.4 627.2 716.8" xmlns="http://www.w3.org/2000/svg" overflow="visible">
    <g id="Master/Doodles/Ice Cream" stroke="none" stroke-width="1" fill="none" fill-rule="evenodd">
        <path d="M542.372852,149.023671 C546.335667,148.599899 546.901784,153.974948 547.442389,156.425427 C548.969445,155.461483 550.328854,156.382989 550.674476,154.131968 C555.505904,159.194189 559.375176,165.004528 563.665391,170.503859 C567.780062,175.780089 574.212044,179.976579 577.771532,185.523198 C580.792844,190.231973 575.808347,197.381528 575.191814,202.403131 C574.496925,208.061906 575.974173,214.538519 579.839193,218.852623 C581.647486,220.870236 583.857891,222.271896 586.529937,222.813887 C589.187404,223.352847 591.714883,221.794167 594.054669,222.125788 C595.995987,222.401028 596.081026,223.684468 596.758301,225.591137 C597.68644,228.207123 598.869697,230.677002 601.061272,232.514558 C603.511001,234.566729 606.142349,235.159645 608.010777,237.917495 C609.641702,240.323717 610.566197,242.654158 613.095499,244.324994 C616.47033,246.554191 621.884275,247.227739 621.518607,252.433036 C622.098694,251.972283 622.678782,251.51153 623.259476,251.050171 C624.604307,255.373369 626.455119,259.558947 628.431667,263.623881 C629.357984,265.528731 629.833595,266.540569 629.786216,268.660033 C629.754023,270.056237 628.988672,271.112331 629.81598,272.463671 C631.140158,274.626786 634.680208,274.333359 636.296555,276.082402 C637.9536,277.875702 636.233991,280.308599 638.148582,281.871522 C637.341927,282.11948 635.106617,283.924905 635.947288,285.021619 C637.156056,286.598486 637.247169,284.438402 638.094522,284.698485 C640.040699,285.294433 639.630082,287.723087 641.148028,288.383298 C641.460116,288.519124 641.436052,287.063672 641.419713,286.688972 L641.418051,286.675101 L642.590129,288.961974 C652.455502,308.0546 664.018263,326.243046 673.312876,345.611666 L674.417089,347.941699 C691.919928,385.357276 712.727746,421.78769 735.739287,456.105916 C741.167202,464.201226 747.123573,472.242581 752.142694,480.56948 C757.185504,488.937606 763.471097,496.354518 769.049045,504.356466 C774.786745,512.587577 780.039116,521.155766 785.822979,529.349897 C790.436343,535.885316 796.074425,542.841475 796,551.268407 C795.965089,555.013238 795.42084,559.14971 791.810937,561.162474 C791.724075,559.618344 789.387326,561.326162 788.830321,561.705071 C786.418859,563.345595 787.730282,563.164325 785.131127,562.590808 C780.912587,561.659602 777.31058,562.920004 773.408507,560.522269 C765.131787,555.43701 756.974729,550.208675 748.549191,545.356217 C730.338706,534.869234 712.30984,524.130655 695.416852,511.596958 C665.88586,489.686329 633.801269,470.052185 606.662302,445.128473 C579.543379,420.223555 551.083878,395.515063 518.903315,377.300159 C516.745756,376.079164 510.563424,374.247064 511.133185,371.334619 C511.633092,368.782896 517.193425,365.204784 519.143247,363.437553 C525.91174,357.304687 532.960862,351.501017 539.489424,345.105036 C551.541874,333.297632 563.505032,320.266806 573.172747,306.413294 C577.875401,299.673567 580.275322,292.177842 583.020865,284.515396 C585.443868,277.75142 587.684037,269.42452 583.750985,262.732687 C581.929937,259.63291 579.416428,258.375539 575.900067,258.610766 C572.989913,258.805373 573.120508,259.401321 571.967016,256.314275 C570.72484,252.991396 569.714698,249.135621 566.383601,247.211976 C562.932842,245.218613 560.582122,247.34414 557.787377,249.339322 C554.572298,244.696628 550.628312,236.663761 544.146522,236.219377 C537.378636,235.755593 533.534875,244.116443 531.197519,249.145321 C524.286889,264.014915 515.295234,277.905408 505.62509,291.14721 C495.143431,305.500882 484.427308,320.101905 472.878411,333.617734 C470.432933,336.479253 467.657019,340.655131 464.211726,342.390837 C460.67775,344.172617 457.745121,342.499356 454.757824,340.449611 C447.717814,335.620797 440.87157,330.661639 433.542427,326.240834 C425.424244,321.343513 417.078278,316.857839 408.798521,312.244246 C405.146098,310.209051 401.680153,307.757966 397.915965,305.93011 C394.409323,304.226536 390.589859,303.383236 387,301.892457 C400.18286,297.962112 414.068507,303.111028 426.546151,307.194756 C433.022475,309.31422 439.794613,311.520985 446.708887,310.951106 C452.688948,310.458828 458.115648,307.256594 462.845636,303.75972 C471.396303,297.438309 472.067504,287.943157 469.279441,278.346155 C466.071042,267.300205 461.163687,256.676815 457.455989,245.781823 C455.769788,240.826302 454.608399,235.562804 458.446693,231.280831 C461.881659,227.449306 466.326767,226.97764 471.01545,228.486 C482.383336,232.144137 492.467134,235.578567 504.652609,235.231183 C514.180009,234.960187 526.29806,232.256294 532.716679,224.513823 C536.234862,220.270045 536.369102,214.434849 536.383073,209.170745 C536.400688,202.93239 536.007079,196.658267 535.134215,190.482356 C533.57618,179.462476 529.5344,168.428045 534.602721,157.728267 C535.790837,155.218981 539.09946,149.374086 542.372852,149.023671 Z M247.110002,234.913051 C250.08859,230.792295 258.239622,221.197044 264.463012,223.296513 C265.549655,223.663364 266.334991,224.747077 267.051352,225.553547 C267.558977,226.213277 268.062366,226.875412 268.562125,227.541156 C268.872508,228.416185 269.429745,228.674184 270.234442,228.315752 C272.416803,231.338362 275.49657,233.620654 276.751412,237.333063 C277.993549,241.011193 281.328969,244.578142 283.295938,247.951966 C284.817601,250.561418 288.248321,257.527293 287.985736,260.79046 L287.985736,260.79046 L287.985736,269.118638 C287.675958,272.355946 281.624845,278.146619 279.496937,280.336297 C274.213166,285.77531 268.47379,286.471213 260.643426,285.777204 C254.009822,285.18904 245.418324,282.977712 240.927754,277.705285 C236.61809,272.646354 236.679198,264.805972 237.316905,258.575524 C238.207517,249.875148 242.024078,241.949368 247.110002,234.913051 Z M267.520254,236.293853 C266.305949,234.038022 263.648635,233.480529 261.313805,233.74815 C258.980185,234.015169 256.301695,234.211224 254.161686,235.252238 C252.185641,236.214469 251.185518,237.898976 248.722421,237.333063 C249.697737,239.014563 247.949791,239.985815 247.698096,241.500728 C247.374403,243.446841 248.001824,245.191487 249.287524,246.668512 C251.949073,249.727205 255.924758,249.667667 259.623942,249.965959 C262.751368,250.217943 266.598181,250.735744 268.435672,253.66634 C269.620936,255.555922 268.545789,256.917479 269.101211,258.81548 C269.50961,260.213723 271.218229,261.017186 271.965447,262.21757 C274.468477,258.533426 274.380747,250.640723 272.854243,246.700987 C272.133042,244.840272 270.769293,242.417253 269.6887,240.782663 C269.335359,240.247422 268.500411,239.609342 268.278363,239.167317 C267.894166,238.404147 267.940149,237.072659 267.520254,236.293853 Z" id="Accent" fill="#3AADAA"/>
        <path d="M487.652982,49.5176885 C506.590972,52.9374626 524.117834,64.435658 538.448122,76.8316576 C554.80046,90.9766187 565.356617,108.029448 573.707509,127.782354 L575.079696,131.039308 C576.45666,134.294956 577.873551,137.534163 579.560716,140.644218 C582.057187,145.245314 585.263468,149.524121 587.099269,154.461439 C588.73608,158.864436 589.011511,163.640609 586.095827,167.574712 C584.04587,170.340822 579.840394,170.965408 578.047667,173.495253 C577.142507,174.77108 577.233508,175.984509 579.222798,176.364955 C581.277002,176.756912 582.256177,174.46636 583.733432,173.547352 C587.408674,171.259224 592.595751,173.208707 596.312247,174.50816 C605.124819,177.589289 612.023328,183.12272 617.297161,190.793434 C621.783326,197.318367 624.93019,204.632612 627.914182,211.943082 L629.027843,214.682782 C631.00689,219.557167 632.896192,224.401501 634.076661,229.528924 L634.289541,230.493709 C634.725135,232.558296 635.332417,238.154125 632.070322,235.701822 C630.747162,234.707695 628.85676,242.251796 629.213485,243.453109 C630.454137,247.631352 634.878017,251.548492 637.481262,254.930706 C643.603227,262.88312 647.702535,271.791495 652.02146,280.784683 C660.824396,299.115086 670.56886,316.941592 680.027805,334.931897 L681.797712,338.307162 C702.176556,377.282288 724.447623,414.760468 747.807672,452.013894 C759.381832,470.470981 771.31393,488.613049 783.686475,506.546114 L789.145793,514.463391 C792.781488,519.746153 796.401994,525.041569 799.962372,530.370642 L800.717287,531.509957 C804.98116,538.006819 808.915119,545.198649 807.812149,553.205888 C806.743186,560.968684 802.130631,567.204244 794.672766,569.743177 L793.31467,570.201409 C789.628085,571.427833 785.457092,572.625803 781.654718,572.254242 C777.13375,571.81269 773.126965,568.874107 769.34337,566.556564 L768.952748,566.319162 C751.037007,555.52249 733.118839,544.736116 715.192178,533.95883 C695.143365,521.906322 676.807197,507.59537 657.678711,494.194339 C647.946419,487.375994 637.910182,481.230699 627.768991,475.058749 C625.485463,473.66903 615.124048,463.710793 612.927275,465.070222 C622.740255,498.988081 617.080577,533.478426 615.068841,567.98331 C614.052052,585.429308 613.89735,602.98435 613.445983,620.453974 C613.226366,628.946161 613.241533,637.445011 613.594012,645.933563 C613.771768,650.203888 614.084206,654.459675 614.38815,658.722125 C614.656908,662.490843 613.645579,666.657576 614.121213,670.294228 C614.730316,674.95227 623.978481,675.866431 621.136811,681.844523 C619.230636,685.854958 612.55599,686.467427 608.980243,688.158232 L609.321674,688.551034 C610.913601,690.367024 613.239985,692.76643 615.708884,692.927741 C618.097366,693.083433 619.94166,691.012183 622.083226,690.228876 L622.425625,690.106946 C624.286668,689.464028 626.669337,688.989077 627.799324,691.07761 C629.05575,693.400876 626.42399,695.98282 625.382935,697.783275 C628.922281,698.467836 631.370218,696.354785 634.562545,696.548643 C637.921709,696.752799 638.073985,700.058076 640.281678,701.970605 C642.806055,704.157564 647.214161,704.628276 650.326408,705.548495 C653.947049,706.618348 657.58589,707.945669 660.883172,709.803675 C666.77824,713.125309 671.840949,719.39964 674.019522,725.821788 C676.238701,732.364964 672.869413,738.042853 667.766273,742.113609 L667.500791,742.322728 C665.544262,743.843907 662.7396,745.612254 660.144848,744.791993 C657.179417,743.854205 656.715917,741.440675 653.101949,741.619993 C649.856234,741.780532 646.774928,743.076956 643.512226,743.242947 C638.716454,743.487693 633.924929,742.614121 629.123697,742.798286 C610.418169,743.516563 591.710378,743.695507 573.033635,742.030281 L571.032676,741.844747 C566.028207,741.363132 561.123234,740.968752 556.189747,740.811243 C552.353736,740.68887 552.032805,737.827649 551.383055,734.236431 C549.812978,725.561897 553.284984,717.022458 551.565665,708.593275 C551.67972,709.149405 548.964239,707.702135 548.637241,707.427099 C546.643098,705.749016 545.976968,703.364565 545.383639,700.887424 C543.802035,694.290199 543.818415,687.568177 544.307396,680.840097 C545.418826,665.568337 548.260495,650.438335 548.027532,635.086003 C547.909837,627.348045 548.144013,619.62826 548.14644,611.893331 C548.14826,604.787834 548.791336,597.775631 548.851397,590.71981 C548.982439,575.249952 550.610757,559.953354 551.065157,544.499852 C547.844922,547.632474 546.13713,551.999729 544.092026,555.908994 C541.576142,560.715458 538.770267,565.471639 535.697454,569.944304 C529.353446,579.18042 520.841179,586.696654 512.023147,593.510758 C495.195175,606.514381 476.913002,616.584692 456.295733,622.099948 C433.97674,628.069559 411.405369,632.100592 388.395978,634.365094 C383.072399,634.889116 377.689365,635.172633 372.353652,634.654063 C368.859806,634.314812 363.180715,631.492363 359.860985,632.924488 C356.088069,634.552288 355.329117,638.467005 350.381677,637.369285 C348.494308,636.950068 347.126861,635.68878 345.474277,634.83944 C343.04272,633.588451 342.946259,634.451724 340.625117,634.611051 C338.037039,634.788552 336.485769,633.496368 334.230148,635.579735 C332.314873,637.349294 332.500516,638.588772 334.250169,640.245046 C336.709025,642.572552 340.645138,642.963297 343.106421,645.39379 C345.50097,647.75825 345.072051,650.664301 341.373149,650.699438 C337.650586,650.734574 334.34299,648.085385 330.705969,647.740076 C331.481301,658.499794 334.718522,670.5208 331.128822,681.077573 C329.463497,685.974907 325.88957,689.129944 320.560531,689.096019 C311.643004,689.039073 303.820527,680.83525 298.450233,674.44521 C295.481162,670.912756 293.07448,666.944122 290.207937,663.324432 L288.668354,661.388132 C286.228118,658.307145 283.842062,655.125034 282.455834,651.428222 C280.670994,646.666588 281.192129,641.889203 282.19011,637.001561 C283.425302,630.951984 284.573133,624.84122 286.066162,618.849194 C288.960612,607.229838 294.784092,596.623389 297.724043,585.039169 C298.836079,580.656163 298.822126,575.512872 301.628608,571.755058 C304.600105,567.775519 309.222975,567.520475 313.80823,567.774913 C319.483075,568.089932 325.153673,568.717547 330.799397,569.359701 C334.363617,569.764986 342.175174,572.336026 345.076297,570.144826 C346.074886,569.390598 346.076706,567.413853 347.244556,566.731716 C348.370546,566.07381 350.18936,566.546339 351.419699,566.637816 L357.529103,567.104892 C361.609155,567.414795 365.698823,567.698582 369.770426,567.81732 C392.470413,568.481283 416.423791,564.943377 436.691007,554.398114 C445.573785,549.776286 452.457592,542.647711 459.563056,535.740174 L461.641496,533.726735 C468.726464,526.795307 474.805455,519.283183 476.730999,509.281328 C478.557093,499.798043 477.866089,488.456751 474.833317,479.278187 C472.315235,471.655759 464.32428,466.595474 457.294073,462.537299 L453.763469,460.512138 C443.640741,454.664163 432.922426,449.773969 422.031677,445.518683 L419.961789,444.717667 C418.275034,444.072703 416.326499,443.396242 414.545523,443.714959 C412.105473,444.151745 410.465628,446.266008 408.246408,447.199555 C405.606762,448.309391 402.369541,448.314843 399.584899,448.963055 C396.884585,449.59067 394.253433,450.454549 391.502765,450.869526 C382.841862,452.17625 370.670733,451.133052 363.513173,445.600833 C351.812825,436.55918 358.882417,423.761531 362.640773,412.756462 C358.667047,412.621973 355.357631,413.551279 351.564694,411.850782 C347.785711,410.156343 344.8312,407.155787 343.108241,403.397973 C339.973548,396.560242 341.784475,388.70294 342.709049,381.572605 C343.127048,378.349112 343.604502,375.150457 344.834234,372.122034 C345.786715,369.776959 347.351331,367.542141 347.928887,365.061972 C348.565289,362.330393 347.74021,362.171067 345.461536,360.864949 C341.948884,358.85125 339.421473,356.534649 337.271414,353.000377 C333.060478,346.077228 332.955523,338.520406 336.406294,331.237407 C337.803469,328.289556 341.135332,324.237321 340.756159,320.794526 C340.441234,317.931467 337.298021,315.68092 335.305605,313.781859 L335.103761,313.586648 C329.00849,307.598257 322.526767,302.069067 315.767186,296.844597 C312.607618,294.402593 309.127726,292.186556 306.256937,289.41257 C304.152985,287.380698 302.015667,282.960132 299.13881,281.891491 C296.332764,280.84907 294.440195,283.876319 292.489114,285.626558 L292.334942,285.761984 C289.207529,288.448733 286.211157,291.540766 282.80346,293.87009 C276.691201,298.047727 269.112608,297.266238 262.210458,295.931647 C255.000117,294.537082 248.31273,292.081751 242.165285,288.030727 C239.722809,286.421101 236.870219,283.152173 233.862928,282.890465 C230.65058,282.611188 227.160981,285.804391 224.86532,287.721161 C219.011351,292.609929 217.158531,300.139959 213.822633,306.753108 L213.581758,307.223869 C209.683866,314.732832 208.028248,322.526525 209.088717,330.967824 C210.015753,338.345224 212.80228,343.970416 216.949993,349.909298 L217.319487,350.434184 C218.218581,351.703347 220.325565,354.099915 218.785822,355.502961 C216.902094,357.220421 213.041816,353.77702 211.776898,352.664761 C199.212036,341.614256 192.070856,324.963076 196.149537,308.293722 C198.268401,299.632261 202.348008,291.597725 207.116582,284.108853 L208.252217,282.346996 C210.154733,279.425661 212.154375,276.637817 215.452139,275.14039 C219.638808,273.238766 224.383013,273.465337 228.855426,273.009165 L228.643158,271.950631 C225.722616,257.102463 225.014788,241.083435 234.299128,228.193465 C241.59319,218.066208 256.53076,209.205086 268.36943,217.41739 L268.295101,215.863208 C267.74593,205.266616 266.43096,195.141387 269.26367,184.661467 C270.595324,179.735659 272.418991,174.942523 274.660658,170.35839 C276.856824,165.865734 279.889596,162.056427 281.664122,157.379605 C288.554575,139.222241 301.676399,122.972111 315.768237,109.840969 L316.439989,109.218039 C330.941359,95.8357876 345.169725,79.5099253 363.435518,71.1376882 L365.92326,70.0035154 C384.182349,61.7266922 402.797695,54.3793596 422.560922,50.5826952 C444.006303,46.4626096 466.049259,45.6169046 487.652982,49.5176885 Z M587.985622,697.193826 C582.076601,699.388055 576.045031,701.330874 570.061994,703.313071 C565.969967,704.667653 559.897749,704.788208 559.124844,709.583162 C558.157803,715.586698 559.335967,721.682922 559.308667,727.711902 C563.681335,726.002193 569.03581,726.714116 573.673315,726.842131 L574.167369,726.853475 C580.127958,726.960703 586.104928,727.41324 592.047923,727.878499 C603.460707,728.772668 614.816464,728.394646 626.238954,729.462075 C631.910159,729.99155 637.585004,730.481041 643.260456,730.964474 C648.22913,731.387327 653.999223,732.704954 658.96001,731.756868 L659.221845,731.702564 C661.439859,731.209636 666.494607,729.318475 665.511502,726.439104 C664.741806,724.185825 658.821502,722.773956 656.639381,722.093328 L656.47082,722.039742 C651.701742,720.489485 646.777961,719.378437 641.956709,717.995988 L640.646049,717.621186 C638.606081,717.048457 636.55469,716.566286 634.407843,716.769837 C632.195297,716.97884 629.864449,718.630267 627.622175,718.440044 C624.306692,718.159555 622.598293,713.995852 620.16613,712.159654 C616.294326,709.235429 613.423536,710.797803 610.455072,714.02069 C608.260119,716.403324 606.169514,720.008475 602.568287,720.221719 C597.986672,720.49312 597.095465,716.565074 599.116909,713.233748 C600.979403,710.165341 606.049392,707.019391 606.321183,703.194333 C606.493479,700.776562 602.626528,694.308373 600.401241,693.388154 C596.658659,691.841531 591.369053,695.936779 587.985622,697.193826 Z M554.144643,413.93112 C553.684599,426.290817 543.321187,435.739532 534.067629,442.738366 L533.349012,443.278779 C521.301039,452.289535 510.186739,462.531289 495.817624,467.659436 C490.285955,469.633757 483.378345,469.064906 481.161552,475.291378 C480.295826,477.725506 481.082077,478.620282 482.020605,481.07016 C483.48876,484.9037 484.37208,489.061346 485.06915,493.096013 C487.438826,506.824179 485.134671,520.803756 476.886308,532.233495 C472.676658,538.066097 467.34431,543.058999 461.799052,547.615794 L461.104852,548.183152 C455.326266,552.881176 449.860117,558.361296 443.489415,562.247541 C429.901092,570.536176 414.806393,575.294781 399.137779,577.585333 C390.98891,578.776954 382.806675,579.838325 374.576512,580.258755 C370.308548,580.476845 366.033304,580.516828 361.762913,580.329634 C359.854918,580.246033 352.759845,578.633983 351.381478,579.727463 C350.354043,580.541783 349.878299,585.340049 349.656231,586.922564 L349.634859,587.06983 C349.184099,590.041914 348.828587,592.973408 348.214631,595.920048 L347.580854,598.935107 C346.525224,604.044982 345.623721,609.520794 347.138388,614.49345 L347.341896,615.151133 C347.79528,616.571381 348.298167,617.699875 349.688246,618.204011 C350.700788,618.571735 352.495942,617.92534 353.52001,617.81993 C355.836905,617.581848 358.023971,617.48916 360.354212,617.735723 C368.000753,618.54508 375.509579,620.499409 383.238021,619.966906 L387.73162,619.655636 C402.710763,618.609085 417.690088,617.437777 432.531031,615.094409 C440.47181,613.840391 448.091051,611.46745 455.900181,609.634887 L457.760497,609.197018 C464.579305,607.583792 471.360857,605.850771 477.728981,602.842592 C491.339144,596.413174 503.917959,587.908265 515.1542,577.945182 C527.149999,567.308443 535.090778,554.699805 542.59475,540.629964 L543.284634,539.328322 C549.569751,527.390243 554.73512,515.259867 554.456474,501.511262 L554.418651,500.044307 C554.153476,491.306053 553.260316,480.895548 558.194204,473.369156 C560.576013,469.736744 565.380278,466.370281 569.855725,468.291292 C577.979113,471.777704 570.305271,478.682074 567.206978,482.46412 C562.743665,487.913343 563.343667,496.210461 562.88138,502.874325 C562.334159,510.737685 560.566912,517.634785 558.843953,525.239466 C557.158001,532.682397 560.559026,541.512017 560.895124,549.104582 C561.260343,557.33809 561.020099,565.580079 560.928491,573.816615 C560.745275,590.198817 561.506046,606.537402 561.449626,622.916575 C561.419899,631.41179 561.637088,639.948807 561.099574,648.432512 C560.639357,655.713016 559.208593,662.696762 557.885625,669.824673 L557.639095,671.162954 C556.277715,678.618001 554.293885,687.545156 554.752532,695.123182 C573.36595,688.038282 591.483715,679.669074 610.384091,673.339614 C604.489022,668.199957 604.226939,660.936345 603.751305,653.687272 C603.125215,644.127655 601.551499,634.649823 600.864742,625.090812 C599.508821,606.212084 599.889814,586.35195 601.495684,567.494425 C603.220464,547.248393 606.278109,527.070211 606.907232,506.738761 C607.196801,497.370526 606.516111,487.979566 605.060545,478.722813 L604.548703,475.547305 C603.315177,467.760373 602.019619,458.517825 598.10012,451.858807 C594.042673,444.965342 586.584808,440.585972 580.360922,435.890371 C571.259572,429.024167 562.829813,421.302565 554.144643,413.93112 Z M327.824866,580.828212 L325.052644,580.980452 C319.963494,581.264475 314.844339,581.598378 309.812057,582.359084 C303.171991,583.362904 303.292719,590.152776 301.625574,595.703775 C297.583901,609.160541 292.163859,622.364686 289.640088,636.238246 C288.551712,642.219973 291.436455,646.317038 294.793799,651.02112 C298.997455,656.910159 303.370374,662.784053 308.130958,668.239941 L308.794638,668.989679 C311.808966,672.343102 315.211031,675.391897 319.521295,676.951429 C324.7654,678.848813 326.76925,676.74182 325.559539,671.573084 C323.962162,664.749893 321.551839,658.159331 321.835763,651.052622 C321.939505,648.465225 322.692389,645.684577 320.826255,643.518821 C319.532215,642.017028 317.314816,641.510574 315.626437,640.597019 L315.384323,640.459701 C312.603867,638.81442 308.683917,634.20684 313.953225,633.19286 C317.63696,632.483461 321.551839,634.960601 325.117879,635.419196 L325.300885,635.022364 C326.426207,632.627063 327.435333,631.158517 325.178546,628.837721 C323.848713,627.470417 321.972872,626.797367 320.663666,625.377964 C318.69743,623.244922 315.61491,617.415252 319.831306,615.946778 C323.860847,614.543126 327.255804,620.152283 330.499093,621.384492 C334.614781,622.948077 337.165246,620.326149 337.753721,616.393257 C338.510246,611.339625 337.678493,606.059421 338.281529,600.94339 C338.871824,595.927318 340.623904,591.762402 341.968297,586.960179 L342.32106,585.698392 C343.080404,582.897066 343.458641,580.332349 339.860099,579.703837 C336.068376,579.041691 331.669977,580.616786 327.824866,580.828212 Z M537.876633,153.211055 C527.670485,165.985684 534.797605,183.338721 536.159099,197.799653 L536.335449,199.73718 C537.008567,206.820521 538.055603,214.991501 534.989463,221.501733 C531.893597,228.074727 524.05838,231.355771 517.454715,233.185911 C508.548108,235.65457 498.982045,235.545525 489.918916,234.046761 C485.172285,233.262242 480.61615,231.921594 476.122503,230.22352 L475.59123,230.017911 C471.157379,228.265228 466.562484,225.6183 462.057333,228.650242 C456.009383,232.721258 457.877944,240.887521 459.205957,246.839563 C461.281685,256.14 464.838335,264.842378 468.077099,273.75574 L468.51661,274.972582 C471.331585,282.817768 473.610866,292.660296 467.692744,299.680374 C461.781902,306.691365 451.978629,311.078611 442.854833,310.715128 C423.93929,309.9609 406.672085,295.857133 387.342183,301.626223 C390.973743,303.127409 394.813394,304.010069 398.361841,305.72874 C402.645578,307.803019 406.611417,310.560042 410.770179,312.867556 L417.955849,316.847952 C423.540728,319.949081 429.104709,323.08423 434.566429,326.4055 C441.616001,330.692182 448.28094,335.388389 455.008974,340.138513 C463.393233,346.057842 467.808619,339.501811 473.187406,333.10753 C484.929008,319.150975 496.106402,304.371129 506.774188,289.580379 C516.049047,276.721543 524.657776,263.29628 531.365183,248.931411 L532.050405,247.473897 C534.512873,242.30753 538.435119,235.162601 544.82853,236.085903 C551.06273,236.985525 554.698538,244.508422 557.921806,249.111941 C560.170753,247.500498 562.098769,245.345646 565.135181,246.232546 C567.653492,246.967388 569.395258,249.55115 570.509721,251.755072 C571.275953,253.269587 571.7983,258.375319 573.0796,259.14348 C573.990826,259.689917 577.474965,258.51526 579.028055,258.873897 C584.342535,260.102471 586.041833,266.933538 585.987839,271.675181 C585.912611,278.210614 583.181964,284.750289 580.943937,290.802289 C575.927942,304.368706 567.33438,314.97152 557.860532,325.691861 C548.663961,336.09792 539.055529,345.572247 528.746939,354.825275 L527.336856,356.085747 C524.660809,358.468381 522.010849,360.877671 519.402144,363.333608 C517.262398,365.347307 513.874114,367.442183 512.199689,369.807855 C509.10079,374.184803 517.391014,376.171846 520.47596,377.773597 C533.321242,384.444105 545.190414,393.160486 556.537093,402.104831 L562.494049,406.821617 C572.947635,415.111224 583.391105,423.478095 593.42993,432.244025 C604.76142,442.138652 615.463787,452.685127 627.396492,461.886712 C639.655588,471.339707 652.50134,480.068158 665.098962,489.063163 C677.709324,498.067256 689.979341,507.540242 702.573929,516.555845 C714.882773,525.366079 728.095564,532.918661 741.042631,540.741432 C747.814952,544.834257 754.623067,548.867106 761.426936,552.907226 C766.928878,556.173731 772.900387,561.25099 779.422758,561.66415 C782.254543,561.843363 785.015772,562.438274 787.510012,562.292031 L787.701881,562.065279 C788.713414,560.899235 790.462968,559.315693 790.935365,560.318173 C791.179885,560.836486 790.701162,561.371372 789.995279,561.825835 C791.662716,561.244232 793.152139,560.05485 794.387022,557.808801 C797.053362,552.958113 795.948605,546.285162 793.614117,541.572598 C790.764561,535.821077 786.306708,530.532998 782.725501,525.210387 C778.607386,519.089931 774.784722,512.792579 770.719995,506.64062 C766.82271,500.742494 762.491045,495.297511 758.143,489.739242 C753.734894,484.10343 750.390291,477.75095 746.461459,471.783762 C738.06446,459.027308 729.430251,446.50106 721.468845,433.458666 C703.799903,404.511894 687.916141,374.65906 672.747573,344.356427 L671.23306,341.324681 C669.856513,338.562812 637.734853,281.660679 638.633946,281.169976 C635.106734,272.364588 629.886289,264.301917 626.550179,255.426861 C625.574644,252.831589 625.02985,248.694541 622.450264,247.095819 C620.755212,246.045352 618.498985,246.675996 616.629817,246.110779 C614.766109,245.547985 612.801693,244.205519 611.465187,242.821253 C609.019677,240.288379 608.226752,236.811659 605.343222,234.60592 L604.713511,234.134 C601.296231,231.621903 598.644464,230.395154 596.975343,225.910182 L596.525283,224.699811 C595.592828,222.242312 595.144111,221.782542 592.112422,222.32478 L591.40424,222.459512 C586.842645,223.370038 583.137677,222.255356 579.99085,218.692005 C574.66181,212.659391 574.072728,204.159934 576.688107,196.877542 L576.893617,196.320612 C578.129859,193.045144 579.943824,189.317592 578.27153,185.944564 C576.629259,182.632017 572.64158,180.254229 570.114775,177.614127 C563.727693,170.941176 558.728685,163.131732 552.739582,156.130434 L551.878782,155.123817 C550.734349,153.776854 549.619813,152.399881 548.735522,150.863558 C548.034205,149.64407 547.619846,147.546165 545.993348,147.200855 C543.193539,146.60656 539.285334,151.447554 537.876633,153.211055 Z M440.604373,491.307804 C441.794251,493.400717 439.982668,497.336068 439.330547,499.382619 C434.433556,506.593414 429.284112,513.369491 422.390608,518.840206 C415.12907,524.602942 407.53478,529.272257 399.427066,533.744082 L398.409722,534.29914 C384.22732,541.953214 365.570668,548.529528 349.35305,545.038948 L348.998234,544.957984 C344.264015,543.817457 337.17546,539.744664 341.180246,533.989741 C343.243674,531.024981 347.67104,531.798083 350.805115,531.961253 L352.407344,532.044358 C356.804662,532.263722 360.787677,532.330192 365.106762,530.813643 C373.995561,527.691132 382.946409,524.746243 391.625946,521.071001 C400.032954,517.510159 407.406424,512.627097 415.119337,507.830136 C422.051494,503.518094 427.408161,498.39318 433.435366,493.186703 L434.794634,492.023339 C436.562582,490.542951 439.126226,488.706667 440.604373,491.307804 Z M403.947814,480.991063 C399.237059,485.283078 393.799339,485.220491 387.892883,484.832672 L387.119838,484.780574 C383.96891,484.564381 376.671958,482.698493 381.742783,478.790444 C384.391886,476.748899 405.174567,475.344875 403.947814,480.991063 Z M393.10505,314.245999 L393.148111,314.21824 C394.047348,313.645907 395.021828,314.255513 396,315.391933 C395.395142,316.63886 392.870261,315.55037 392,315.739275 C392.111314,315.500877 392.22461,315.289743 392.339706,315.104224 L392.564447,314.893371 C389.744012,317.609199 386.503757,319.773137 382.863702,321.232524 L382.415222,321.407195 C378.852168,322.754996 377.71216,322.263374 377.846971,326.423025 L377.896441,327.658561 C378.071293,332.313913 377.962839,336.172556 375.788043,340.612253 C374.699667,342.833743 370.679833,345.831877 371.439391,348.330826 C372.509865,351.855468 383.304408,355.417533 386.771057,356.730602 L386.949663,356.79878 C394.741806,359.800548 403.833449,359.861735 411.188179,355.621093 C419.731387,350.69468 420.487305,341.76389 417.26889,333.121464 C416.925511,332.199427 415.676973,330.640689 415.983951,329.634445 C416.547553,327.788555 418.869301,328.055109 420.200954,328.759661 C423.092977,330.289927 424.301475,334.943122 424.923924,337.847355 C426.586823,345.604699 423.53221,354.006621 417.725717,359.351646 C414.775453,362.067474 411.085044,363.881862 407.321228,365.189797 C405.184516,365.932515 402.943456,366.519541 400.686622,366.746718 C398.863561,366.929672 396.561834,366.355368 394.821281,366.874543 C391.834058,367.764647 391.625459,371.375979 390.908111,374.118861 L390.848768,374.339283 C389.478894,379.283265 388.906799,384.634954 388.727223,389.749773 C388.436019,398.022658 389.42126,408.563074 394.180025,415.576488 C405.283404,431.940516 426.757298,437.620552 443.522782,446.04186 C452.435456,450.518765 460.698986,456.143067 468.634305,462.155084 C469.41813,462.748774 470.590834,463.913133 471.531788,464.375968 L471.929614,464.576278 C474.470046,465.888036 472.027773,465.324302 473.971231,464.337197 C475.538881,463.541168 476.880848,461.812198 478.500672,460.910759 C482.231728,458.834056 486.422037,457.713315 490.216794,455.75111 C498.67264,451.378302 506.194108,445.995676 513.698536,440.23613 L514.677353,439.482799 C522.701246,433.289646 530.828274,427.63566 538.147817,420.586503 C541.234583,417.615025 544.710229,415.165146 547.841282,412.320888 C550.995389,409.455426 546.958569,408.265623 544.287982,406.156813 C535.197553,398.978013 526.221179,391.571431 516.514367,385.22622 C513.275932,383.108929 510.420309,380.254372 507.041732,378.383037 C503.513913,376.429313 501.420275,378.179486 498.641093,380.664502 L496.380145,382.686464 C494.126212,384.689514 491.863919,386.622451 489.328621,388.364901 C484.864701,391.433913 479.675196,392.911474 475.187009,395.832669 C478.068112,398.848977 485.094024,399.858249 486.113239,404.426631 C487.147015,409.056806 480.252145,412.669832 477.029483,414.458171 C471.338865,417.615631 465.062198,419.533006 458.721223,420.902734 C453.444964,422.042254 445.623094,420.326612 441.394564,424.30918 L441.189217,423.883559 C440.0701,421.603481 439.172259,420.287806 441.043299,417.988202 C443.024702,415.552862 446.557981,415.133644 449.354756,414.197068 C456.908476,411.666011 464.348141,408.294096 471.656763,405.133001 C470.686689,402.863046 468.262412,401.309154 466.413871,399.830988 C463.775439,397.719755 461.558039,395.380738 459.410407,392.756387 C455.721576,388.249555 452.376238,383.472836 448.898958,378.805152 L447.229301,376.586746 C445.717432,374.606613 444.188609,372.909763 441.406698,374.023658 C438.678477,375.116532 436.014564,377.950492 433.392511,379.417754 L428.865967,381.972061 C424.664162,384.327291 420.571052,386.475787 415.746134,388.03716 L415.344105,388.160488 C412.175012,389.087941 402.474025,391.015635 405.209996,384.727642 C406.059342,382.776341 408.896765,381.972437 410.645204,381.118857 C413.875146,379.541338 417.094774,377.932924 420.207021,376.131257 C426.600169,372.430995 432.238007,367.649975 438.219223,363.345724 C444.817429,358.598024 451.527869,353.989658 457.722635,348.713089 C451.558809,344.629958 444.720967,341.640306 438.346625,337.905513 C432.489998,334.473898 426.59326,331.342182 420.562972,328.281879 L418.749785,327.365702 C413.775424,324.862777 408.724812,322.204378 404.126331,319.038591 L403.21282,318.398564 C401.432471,317.128309 395.630038,312.14701 393.10505,314.245999 Z M629.220851,291.059191 C633.036037,292.257901 631.5468,303.828218 631.512265,306.80707 L631.48455,309.689072 C631.460766,312.090658 631.420951,314.491625 631.257798,316.888871 C631.053619,319.903569 630.204184,323.599339 630.833081,326.586089 C631.936376,331.823231 638.145369,329.038189 639.947237,333.2036 C641.659436,337.163049 632.324741,334.059041 630.581643,335.419361 C627.97881,337.450424 628.605283,345.936173 628.233277,348.907127 C627.417165,355.433505 625.84977,362.211411 625.340231,368.718347 C624.938536,373.854634 629.068171,373.172955 633.269904,372.80113 C636.87364,372.482163 640.833024,371.626115 644.444637,372.106692 L644.719855,372.149465 C647.592698,372.658696 651.269841,375.221352 647.176521,376.945277 C640.64661,379.695904 627.428587,374.172545 623.919749,382.208246 L623.801312,382.494095 C623.175444,384.088325 620.262404,402.576285 616.601716,393.449563 C615.071885,389.634713 618.818001,383.649668 614.823477,380.726712 C613.515396,379.769033 611.602039,379.875697 610.039899,379.795817 L609.768068,379.77953 C606.376387,379.543104 602.966011,379.440141 599.564411,379.363897 L597.864469,379.327508 C593.911144,379.246095 590.358907,378.450195 588.832106,382.780254 C587.642776,386.154019 587.774856,389.929378 586.824846,393.381517 L586.753326,393.629524 C585.965974,396.24431 583.696002,400.367948 581.34472,396.266198 C579.802087,393.575112 580.8951,388.936936 581.25276,385.899976 L581.28595,385.601749 C581.442871,384.087717 582.345623,380.954545 581.196887,379.682929 C580.052002,378.415261 577.124649,378.96173 575.46366,379.145013 L574.597958,379.225574 C569.997411,379.685896 562.089528,381.555762 558.768052,377.620272 C555.930467,374.257608 561.691148,374.140683 564.121131,373.917767 L569.092071,373.43902 C569.901316,373.359812 570.710426,373.27867 571.519268,373.193612 C574.189959,372.912313 577.726443,373.288391 580.240212,372.451177 C584.461939,371.044683 584.16082,365.305091 584.43831,361.581982 C584.980567,354.308916 586.617032,347.125162 587.818479,339.937762 C582.100244,340.369735 576.362621,340.710575 570.660745,341.319955 L570.187127,341.377259 C567.529414,341.728473 562.860942,342.738136 560.848016,341.00038 C555.926965,336.753349 573.851145,335.207914 576.573915,334.825856 L576.721298,334.803905 C580.308676,334.227941 586.448599,334.992856 588.749101,331.605725 C591.024156,328.256263 590.449182,322.627247 591.037485,318.738275 C591.922061,312.88507 592.934476,307.040372 593.525202,301.148891 L593.550541,300.836097 C593.701759,298.558543 593.539945,292.581642 595.53125,291.65642 C600.337039,289.422433 598.827202,312.443376 598.747833,314.171269 C598.612723,317.142222 598.464284,320.12715 598.050472,323.073194 C597.816605,324.733648 596.996252,326.979786 597.502157,328.648138 C598.951406,333.431434 607.183411,330.672518 610.932557,330.290972 C615.134896,329.862644 621.624408,331.490897 623.015494,326.306005 C624.690608,320.061458 624.526701,313.005047 625.08018,306.527612 L625.181133,305.388883 C625.380831,302.688446 625.94869,290.031581 629.220851,291.059191 Z M539.819209,254.237059 C537.637603,258.528587 535.949224,262.967327 533.554069,267.165562 C529.42382,274.404942 524.666876,281.320822 520.131368,288.31061 C510.789775,302.706374 500.137762,316.218268 489.180592,329.41272 C477.47721,343.506188 464.808607,356.795145 450.380038,368.144312 C453.690061,371.839728 457.287648,375.375817 460.425982,379.215415 C462.225382,381.417519 463.500008,384.064285 465.431057,386.15068 C469.532038,390.582976 473.618186,385.955042 477.276833,382.970987 L477.618566,382.696375 C492.347439,371.05218 506.206946,358.43385 520.239963,345.971212 C526.926136,340.033103 534.038802,334.556618 540.618201,328.505829 C547.283141,322.376891 552.832403,315.201726 559.07631,308.670533 C562.075108,305.534882 565.664809,302.424069 567.516383,298.41848 C569.09556,295.002341 569.444399,291.285722 571.243799,287.907749 C574.359685,282.058087 580.073964,275.267004 578.763545,268.191797 L578.528973,268.446781 C574.647904,272.80805 568.343925,286.595925 561.74629,279.934132 C556.941418,275.082233 561.848818,267.910097 561.635268,262.253082 C557.073067,264.188632 558.258511,272.03927 553.394792,273.428383 C550.764246,274.179582 548.514086,271.798159 547.287387,269.709946 C545.23072,266.209343 545.899732,262.550378 546.820613,258.839661 L546.907608,258.491633 C547.564031,255.882427 551.753734,247.274532 547.610139,246.212554 C544.018618,245.292335 541.009507,251.896831 539.819209,254.237059 Z M609.117965,337.084675 C605.697203,337.337418 600.534554,336.293635 597.511245,338.321661 C594.278303,340.490032 594.981723,348.082064 594.430983,351.645386 C593.381005,358.437874 592.115335,365.184795 590.827853,371.934754 C596.505919,372.507801 602.201161,372.82593 607.901212,373.025557 L609.801391,373.087897 C615.147619,373.251937 617.343911,372.240962 618.026731,366.684246 C618.835572,360.095897 619.112456,353.448616 619.921297,346.858445 C620.287851,343.864403 623.192409,337.880574 619.694095,336.277839 C616.762272,334.935138 612.188533,336.858663 609.117965,337.084675 Z M662,355.470864 L661.881114,356.887787 C661.547005,360.707501 661.053282,364.821357 659.848123,368.368554 C658.822047,371.385317 656.750872,372.30151 656.044724,368.460781 C655.597401,366.026498 658.571869,352.307874 662,355.470864 Z M412.432273,340.141951 C415.978965,343.678761 412.859686,347.792689 409.484436,349.987757 L409.016257,349.99792 C406.865327,350.024815 403.221598,349.805944 401.799341,348.449525 C398.950916,345.735164 404.50609,345.374746 406.131211,344.110477 C408.409356,342.338703 408.856413,336.57651 412.432273,340.141951 Z M387.932532,342.985646 C385.290508,343.336571 380.576677,337.156427 380,335.026422 C383.697894,334.484394 391.925224,342.455562 387.932532,342.985646 Z M400.999192,327.400662 C401.045289,328.078867 399.595109,328.42977 399.674221,329.085617 C399.824347,330.334583 401.673201,330.92646 402.268722,331.918925 C403.58248,334.109429 403.037417,338.435783 401.34118,340.5176 C397.472788,345.265659 393.177689,337.227808 396.172111,335.650918 C395.504954,336.002442 386.550965,331.450641 386.214583,330.422775 C384.373203,324.790317 394.975463,330.096714 395.42771,327.821745 L394.971495,327.483148 C392.662752,325.725676 386.185861,320.235859 391.533155,320.00251 C394.476497,319.873949 400.817296,324.715168 400.999192,327.400662 Z M466.517006,61.1188708 C457.801503,61.2436669 449.029578,61.8452321 440.368675,62.8217911 C431.943163,63.7710889 424.448897,66.5359869 416.292749,68.6235939 C412.187374,69.6740613 407.952777,70.5458159 403.961458,71.9894513 C400.459119,73.2555856 397.310472,75.2111269 393.771732,76.3942657 C386.025696,78.9822684 378.23052,81.8749914 371.242222,86.107757 C364.408626,90.2472285 358.252688,94.6617358 352.047001,99.7432354 C345.912021,104.76666 340.547611,110.567831 334.027847,115.103452 L333.088385,115.742568 C327.048376,119.759226 322.189099,125.105615 316.770362,129.871742 L315.992262,130.548464 C309.997699,135.699631 304.46967,142.012128 299.97299,148.521512 C295.57641,154.886714 293.902592,163.122645 291.246566,170.300839 L290.560712,172.166661 C287.711049,179.978275 285.001918,188.243058 283.923383,196.444997 C281.752697,212.951389 286.624303,232.243883 292.818463,247.519277 C298.944674,262.62747 308.873529,275.233078 320.720693,286.294488 C326.274109,291.481118 332.314392,296.207345 339.047566,299.76981 L340.706626,300.633532 C346.62318,303.769747 354.078255,308.64728 360.349359,304.949068 C363.011452,303.379425 365.171824,301.554132 368.24949,300.847156 C371.612901,300.07536 374.908363,300.390984 377.623237,297.924749 C379.931032,295.829266 381.034575,293.299421 384.06492,292.033892 C387.657654,290.533311 391.906811,290.260093 395.753742,290.272209 C404.095491,290.2997 412.4412,292.316793 420.42774,294.614059 L421.28205,294.861188 C428.83759,297.058446 435.160971,300.371599 443.187897,298.363958 C449.152733,296.871858 458.72001,292.905041 460.005556,286.066705 C461.130745,280.085364 456.906593,272.389814 454.632691,266.936992 L454.487233,266.584594 C451.400467,259.027166 448.604298,251.591505 446.665363,243.645755 L446.168584,241.579495 C444.700985,235.311812 443.163484,226.681582 447.053029,221.52233 C451.315532,215.867738 461.17098,215.936195 467.294158,217.358021 C471.306711,218.28975 474.995906,220.167143 479.010886,221.112806 C483.101094,222.077249 487.332658,222.561287 491.505373,223.033816 C505.963669,224.669492 526.534224,220.972259 525.764352,202.495786 C525.078809,186.028771 516.00476,169.521772 521.318632,153.034766 C523.484465,146.314561 527.908344,138.542678 535.275208,136.768878 C541.118102,135.361591 549.014593,136.836729 554.169517,139.893019 L554.461285,140.070543 C558.492522,142.585743 562.237298,147.521747 555.271847,149.123077 C557.602088,152.273874 560.235061,155.182348 563.021522,157.935129 C565.896559,160.775753 567.12083,160.148138 570.560682,158.670578 C577.205515,155.81519 577.271706,152.525323 573.769678,146.936669 L573.451492,146.43754 C564.595239,132.767531 561.235469,116.488315 551.864149,103.097582 C542.630544,89.9043423 529.199957,79.2445823 515.100206,71.6368723 C499.969106,63.4730324 483.571875,60.8753369 466.517006,61.1188708 Z M264.917445,222.674573 C250.342668,225.518226 240.703803,240.880857 238.03261,254.504219 C236.822292,260.677381 236.394586,268.028835 238.735747,274.002081 C241.386899,280.767466 248.794681,283.659559 255.435616,285.128508 L255.790616,285.205855 C263.483871,286.857281 270.301086,286.212098 276.399997,280.878583 C278.902171,278.689282 281.047619,276.163292 282.889119,273.409466 L283.279093,272.815913 C285.248969,269.763257 287.989324,267.538738 286.007921,264.126839 C281.097487,255.673424 276.907178,247.368432 273.67299,238.0681 C272.360916,234.295031 271.181708,230.601067 270.258435,226.74953 L269.989255,225.589105 C269.22909,222.194775 268.860838,220.123525 264.917445,222.674573 Z M586.377325,182.097091 C585.5662,182.301247 584.763568,182.532665 583.968216,182.791344 C584.139723,183.053552 584.299776,183.317742 584.448985,183.583808 L586,183 L585.338761,185.519223 L585.338761,185.519223 C588.178052,193.236061 583.587591,202.241241 585.097239,210.220416 C590.085934,207.270142 590.739324,195.794967 598.31367,197.916499 C606.471639,200.201599 602.412371,210.242831 604.881542,215.986476 C608.737573,212.616378 613.239107,215.765963 614.82981,219.763676 C616.552163,224.095794 614.16368,228.094718 614.966919,232.382006 C615.783616,236.744384 618.193577,234.001829 619.580236,231.421954 L619.649849,231.29095 C621.400715,227.955989 622.931358,223.447581 622.285855,219.633428 C621.500817,214.993561 618.386144,210.680223 616.456308,206.466237 L615.445013,204.244971 C613.868479,200.788254 612.233738,197.350605 609.948497,194.291357 C604.692866,187.256739 595.564822,180.936972 586.377325,182.097091 Z M607.459903,75.0430484 C612.2385,79.8843118 616.080603,87.0526634 619.778993,92.8596167 L620.205138,93.5233982 C625.320249,101.421438 629.837946,109.762883 633.081949,118.618742 C636.998567,129.316424 639.19872,141.722991 637.212387,153.068912 L637.082735,153.768601 C636.443165,157.029528 634.876566,162.346086 630.790568,161.557132 C625.185187,160.47465 627.946608,149.501405 627.861123,145.775834 C627.489254,129.544013 622.196537,113.935856 614.35995,99.8625748 C610.706786,93.3033264 606.259851,87.2066833 602.800566,80.5402345 L601.911011,78.7832987 C601.093941,77.2038168 599.480278,74.1986929 600.863059,72.8155101 C602.684634,70.9936869 606.176401,73.7428875 607.459903,75.0430484 Z M647.699408,101.16144 L647.788713,101.602717 C648.454363,104.701022 650.563542,111.667956 646.216388,112.314305 C641.109235,113.073692 639.47357,100.674779 638.050467,97.0882851 L637.990453,96.9420489 C637.231801,95.159697 633.191822,87.3100134 635.297553,85.6012994 C639.682502,82.0439386 646.659796,98.8962785 647.699408,101.16144 Z" id="Shape" fill="#7C6576"/>
    </g>
</svg>
