<svg viewBox="256 12.8 512 742.4" xmlns="http://www.w3.org/2000/svg" overflow="visible">
    <g id="Master/Doodles/Selfie" stroke="none" stroke-width="1" fill="none" fill-rule="evenodd">
        <path d="M530.198793,382.002101 L530.353152,382.020489 C532.58788,382.452865 536.292259,388.846249 537.809379,390.663346 C542.699532,396.523715 547.590616,402.384084 552.481699,408.244453 C554.439064,410.589905 557.262024,413.05277 558.656285,415.767233 C559.729438,417.855496 560.097084,420.734895 560.737439,422.973185 C568.690685,450.775693 576.468951,478.758048 582.26193,507.102889 C583.509133,513.203674 584.692114,519.347324 585.385522,525.540362 C585.727107,528.601471 586.62621,533.099483 585.293378,536.058089 C583.790219,539.392228 578.95405,540.777881 575.811843,541.811296 C569.699617,543.823148 563.29979,545.020568 556.967907,546.095916 C541.711077,548.685512 526.263443,550.189509 510.843732,551.406497 C506.133214,551.778303 501.284014,551.77178 496.603279,552.405435 C494.367621,552.707352 495.03776,552.107244 494.333184,553.608446 C493.352175,555.696709 494.002768,560.054013 493.886424,562.330509 C493.611853,567.685818 493.338213,573.040196 493.063643,578.395506 L493.063643,578.395506 L490.819608,622.215487 C490.061048,637.024357 489.303418,651.833228 488.543928,666.642098 C488.257257,672.252733 487.969656,677.8643 487.682985,683.475867 C487.529412,686.474542 487.986409,690.347287 487.182242,693.250914 C486.573533,695.447271 487.574088,694.799639 484.881432,694.930097 C478.645417,695.231083 472.18416,694.476289 465.946283,694.252647 C458.871664,694.000117 451.796113,693.746655 444.719632,693.494125 C442.698977,693.421441 440.440981,693.994526 439.626576,692.545508 C438.635329,690.781526 439.390166,685.931276 439.32036,683.961357 C439.123972,678.471862 438.927584,672.981435 438.731196,667.49194 C438.192292,652.422153 437.653389,637.352366 437.114486,622.282579 C436.379194,601.730752 435.642972,581.177993 434.907681,560.624302 C427.040063,562.208437 419.171515,563.791641 411.302967,565.374844 C399.676987,567.714706 388.050076,570.054567 376.423165,572.393496 C371.090906,573.466981 364.758093,575.915868 359.251785,575.125664 C353.782706,574.341051 351.521918,572.004917 351.214771,566.813612 C350.885286,561.248638 351.013729,555.639866 351.088189,550.070233 C351.211048,540.95959 351.472588,531.850812 351.816965,522.745761 C367.351159,521.347062 382.886283,519.947432 398.420476,518.547802 C406.692038,517.802326 414.964532,517.057783 423.235163,516.312307 C425.112483,516.143643 429.740165,516.506131 430.577839,515.090659 C431.880886,512.890575 430.43078,505.657599 430.391689,503.169574 L430.391689,503.169574 L430.021251,479.647959 L430.021251,479.647959 L428.663289,393.101982 C432.38256,393.224054 436.101831,393.334943 439.821102,393.43931 C456.002166,393.895914 472.263274,394.557523 488.448991,394.059918 C496.566049,393.811116 504.256825,391.621282 511.919677,389.037277 C515.994495,387.663739 520.027428,386.168129 524.028716,384.595175 C525.288019,384.100366 528.99426,381.757709 530.353152,382.020489 Z M508.414069,462.535865 L500.147594,502.967454 L528.435074,501.092974 L508.414069,462.535865 Z" id="Accent" fill="#35979C"/>
        <path d="M620.672438,25.9325595 C625.072076,23.0547708 625.72892,25.446699 629.2147,27.9370823 L629.411307,28.0755054 C633.231653,30.7255749 636.278624,33.3933239 639.307912,36.9459803 C643.156179,30.2435749 652.702858,33.3970459 658.638588,34.7267332 C666.370292,36.4584748 673.63361,39.3994409 681.50157,40.3900519 L682.531343,40.5079417 C686.676489,40.9341116 690.400047,42.1651656 694.389774,43.2408259 C699.336215,44.5723741 704.422255,45.3046792 709.357529,46.6781 C717.829299,49.0350614 724.802712,53.919266 731.00554,60.0754668 C743.467967,72.442768 748.8695,88.354351 750.449755,105.529556 C751.323642,115.016953 752.02908,124.834679 751.422292,134.358366 C751.322712,135.942081 749.382292,143.321892 750.502803,144.297988 C751.444628,145.11776 755.365485,144.908397 756.623734,145.059139 C759.035066,145.346664 761.447328,145.621162 763.837255,146.059428 C768.342566,146.886644 766.614336,152.357996 764.018734,153.992888 C762.173241,155.155085 760.405923,155.212776 759.434318,157.418996 C758.57346,159.37305 758.569737,162.007301 757.896872,164.075807 C754.552091,174.365297 750.321325,184.250949 745.006343,193.657393 L742.697431,197.751385 C738.649075,204.913339 734.497253,212.019249 729.254044,218.395718 C723.178715,225.785764 716.001489,232.371857 708.965723,238.834193 C695.358588,251.331764 678.683077,259.949142 662.248606,267.822119 C645.462225,275.864569 628.09002,280.071697 610.03181,283.690248 L607.565066,284.180343 C597.162182,286.230239 586.653204,288.717471 576.158186,290.195108 C566.514719,291.55178 556.636726,290.357946 546.931836,290.334683 C547.481854,299.213532 548.573515,307.046498 551.915504,315.365185 L553.201386,318.548062 C559.241606,333.413093 565.857427,348.408301 574.036288,362.178737 C578.117164,369.050001 583.443691,374.998104 587.851897,381.642845 L588.667146,382.897293 C591.49262,387.339509 597.051434,393.056513 596.618679,398.713965 C596.178757,404.43559 586.941485,408.744274 582.254844,411.431568 L581.786799,411.703772 C578.410376,413.698768 574.742657,415.291787 571.081453,416.692193 C569.383004,417.342614 565.195978,417.702718 564.033588,419.124525 C561.910204,421.721781 568.610018,432.123843 569.990467,435.416853 L570.054007,435.573007 C573.064682,443.231038 576.249391,450.374502 578.213077,458.441023 C580.352657,467.231475 581.599737,476.207096 583.580175,485.031046 L583.98255,486.788424 C585.689227,494.114906 587.716147,501.495115 587.954816,509.035021 L587.974737,509.940583 C588.071526,517.863807 590.99565,527.388424 588.755558,535.137644 C586.841867,541.760859 579.268057,544.730444 573.435904,546.88414 L573.125175,546.998753 C558.889847,552.245853 542.137091,553.226602 527.082785,554.559081 C520.756179,555.119243 514.66596,555.933432 508.266763,556.862073 C505.892657,557.206359 500.802894,556.959776 499.265449,558.921274 C497.513022,561.15727 497.986726,565.945633 497.902036,568.585467 C497.65262,576.363532 496.599117,583.945262 496.516288,591.673081 C496.427876,600.006656 495.896471,608.465849 495.369719,616.79105 C494.797365,625.804822 494.051909,634.809289 493.720595,643.836088 C493.418405,652.085809 493.63558,660.343772 492.849814,668.557226 L492.690358,670.096714 C491.71596,678.80342 492.352529,687.613413 490.46888,696.22893 C490.012858,698.314185 488.934226,700.396648 490.036124,701.855675 C491.115686,703.285857 494.256653,704.314061 495.806197,705.222231 C499.378989,707.316791 502.956434,709.408559 506.665102,711.254675 C513.386307,714.60076 521.036307,716.183544 527.369427,720.283336 L527.817521,720.568209 C532.86153,723.72401 541.565422,727.637503 540.635942,734.836386 C540.256008,737.772486 537.720683,738.667299 535.450993,740.055988 L534.731959,740.507748 C533.59081,741.231435 532.736991,741.830271 532.017128,743.07598 C531.437328,744.078131 532.015266,745.104475 530.875212,745.924247 C528.746799,747.455853 522.442529,746.613749 519.883223,746.791475 C515.730631,747.079 511.90377,747.13576 507.778168,746.529073 C490.928624,744.049285 473.163314,743.169031 456.723259,738.669123 C452.223533,737.438069 447.809427,735.923212 443.331106,734.623301 L442.612257,734.419973 C439.164586,733.465939 436.11179,732.864922 433.747201,729.860061 C429.065996,723.914154 431.625303,714.132718 433.081781,707.299112 C433.806763,703.894405 436.190175,699.419621 435.316288,695.905115 C434.555011,692.844695 432.676945,690.985552 432.358661,687.620857 C431.516416,678.713162 432.35773,669.569119 431.965923,660.613038 C431.213022,643.417363 431.809573,625.066934 428.470376,608.147617 L428.260795,607.064348 C427.554142,603.317484 427.153641,600.008398 427.812441,596.183346 L427.913843,595.633297 C428.651854,591.876861 428.244226,588.237668 427.720266,584.503563 C427.158274,580.498187 427.671277,576.412564 427.472804,572.357148 L427.378374,570.873299 C427.172592,567.210198 427.525122,564.13037 423.225193,565.037463 C406.058296,568.657115 389.063569,573.036058 371.970193,577.098629 C370.59096,577.426166 369.238715,578.502756 368.036307,578.760505 C366.677547,579.051753 366.130321,578.457162 364.651507,578.357598 C363.5645,578.284088 361.460285,578.544629 360.46169,578.969868 C358.657146,579.738463 359.053606,580.354455 358.037328,581.68042 C353.908004,587.068027 349.781471,580.998363 347.401781,577.481996 C347.377746,587.403331 349.097561,597.347653 350.161804,607.209912 L350.302639,608.554247 C350.600449,611.493702 352.725139,618.174706 350.613478,620.543764 C348.481405,622.935692 340.962761,622.03074 337.90226,621.98499 L337.700613,621.983251 C333.353515,621.975807 327.227931,623.1501 323.244719,621.212795 C320.159591,619.711895 318.52908,616.038274 317.018624,613.15837 C312.570384,604.677596 310.691571,595.231268 308.433422,585.985708 L307.685664,582.948174 C305.70706,574.853359 303.9554,566.834665 303.549741,558.477908 L303.348296,553.423246 C303.153528,548.068072 303.162121,541.994442 305.419847,537.512285 C307.009409,534.355092 309.366763,533.062625 312.583113,532.013019 C316.252693,530.815463 319.642146,529.106131 323.294974,527.833204 C330.163004,525.439734 336.844721,523.78809 343.828165,522.342218 L345.141215,522.073397 C347.051854,521.686308 346.404117,522.138532 347.568369,520.418034 C348.190047,519.499629 348.386416,518.516088 349.263095,517.690733 C351.790759,515.31237 355.926599,515.545926 359.14388,515.38681 L360.962804,515.293866 C364.259871,515.116992 367.374108,514.883695 370.703569,514.250668 C373.840814,513.654216 377.090668,513.80961 380.065047,513.443922 C387.146416,512.572042 394.855047,512.719992 402.241672,512.396177 C406.01851,512.231478 409.794825,512.064686 413.570224,511.874209 L417.78258,511.653826 C420.863597,511.523743 422.803544,511.801256 423.222401,508.353146 C423.735193,504.142625 422.907839,499.404509 422.751489,495.152115 L422.496373,487.911764 L422.496373,487.911764 L421.926582,471.322616 C421.874603,469.764508 421.824555,468.20633 421.778022,466.64805 C421.694263,463.810949 422.775686,459.137038 421.701708,456.569783 C419.73523,451.865166 406.485467,454.065803 402.081599,452.923146 L401.294335,452.717138 C398.643452,452.011824 395.79518,451.076015 394.828989,448.581424 C393.460744,445.048201 394.098196,440.961804 394.223717,437.266083 L394.236161,436.824532 C394.422292,428.333702 394.75919,419.882884 394.778734,411.382749 C394.797347,402.668598 397.104445,394.356424 396.751726,385.623664 C396.399007,376.886251 396.407383,368.152559 396.77127,359.410494 C397.168661,349.875641 398.586051,340.415227 398.609318,330.867347 C392.441854,338.241575 387.267401,346.298791 380.897055,353.571594 C374.475522,360.903019 367.75804,367.608216 360.332328,373.921671 C352.814482,380.312359 345.832693,387.323691 338.273898,393.646451 C330.718825,399.96549 322.957146,405.995142 315.481179,412.421189 L312.611748,414.893241 C307.690825,419.114037 302.941147,422.942254 296.7545,425.452868 L292.6551,427.143501 C286.873757,429.505997 281.007527,431.561257 274.613241,430.322185 C257.397018,426.985405 255.860504,408.018054 257.509628,393.759042 C259.517985,376.391224 263.904172,360.275861 269.827803,343.873903 C271.067438,340.441281 273.164208,337.99127 274.908259,334.890837 C276.840303,331.455424 278.214883,327.592911 279.89565,324.021644 C283.55127,316.259397 288.160814,308.862837 292.639135,301.550953 C296.819646,294.723861 301.463624,288.673737 307.056872,283.007911 C309.527766,280.505791 310.917237,276.614432 312.256453,273.360467 C313.461782,270.431407 313.243429,267.896253 312.793664,265.055452 L312.415595,262.757397 C309.628277,245.427729 305.044792,228.711262 301.260741,211.599332 C299.454026,203.424438 296.978478,195.607006 294.629347,187.620489 L294.128186,185.906312 C292.924847,181.763718 290.440923,167.274872 298.339409,167.880629 C301.321021,168.110224 305.058794,172.236782 307.250947,174.301233 L307.440303,174.477888 C310.267639,177.086085 312.875339,179.929698 315.207566,182.989189 C317.87669,186.489737 320.219153,190.270366 322.096288,194.253845 C323.592785,197.430579 324.656526,200.876227 326.813788,203.697509 C325.100449,196.336308 322.702146,189.102586 321.660741,181.597158 L321.538169,180.686289 C320.909281,175.838843 320.327964,168.195025 323.680266,164.469409 C328.210704,159.434463 335.93981,168.221193 338.407912,171.798973 C341.749901,176.642235 343.37762,183.786629 347.778697,187.753359 C346.376197,178.559069 342.717785,167.286038 345.506033,158.048946 C348.812657,147.096938 356.635759,162.128266 358.541745,165.807471 C367.015309,182.165894 370.592479,200.757078 376.88927,218.025972 L377.354974,219.287139 C378.662547,222.783965 379.684409,225.080444 383.793259,225.459158 C387.057247,225.760989 390.538813,224.858166 393.841501,224.629895 L395.017382,224.567256 C400.062383,224.245625 398.475953,222.33886 396.792675,218.525988 C396.205431,217.196301 396.144007,215.868475 395.112839,214.778857 C394.1645,213.777637 392.799226,213.658532 391.952328,212.423756 C390.822511,210.773976 391.339026,209.054409 389.642438,207.92478 C388.753661,207.33298 386.979828,207.659586 385.935631,207.063135 C383.385079,205.604631 383.249476,202.12629 382.532763,199.466325 L382.461489,199.211559 C381.246266,195.035037 381.918858,191.131231 382.260312,186.883039 L382.299555,186.371563 C382.60481,182.203845 382.719281,178.031475 384.628058,174.244332 L384.861587,173.780362 C385.647976,172.207288 385.673417,171.961165 385.194448,170.314141 L384.791716,168.953679 C384.425848,167.701123 384.257055,166.864959 384.54523,165.234281 L384.76499,164.01073 C385.282439,161.250484 386.029914,158.651481 389.018898,157.680467 C392.836527,156.439698 393.42151,158.008266 394.555656,154.615525 L394.700558,154.165031 C395.96346,150.099668 398.594427,150.380679 402.36638,150.931536 L402.354703,149.087082 C402.363437,146.555336 402.636841,143.677766 405.179755,142.807324 C406.764664,142.264841 408.397967,144.043961 409.623642,143.63361 C410.505107,143.338109 410.42764,142.876528 411.029793,142.258551 L411.181562,142.113169 C413.395595,140.123756 413.934445,134.548189 416.963734,133.349702 C419.849701,132.208907 421.603989,135.394015 423.207511,137.263393 L424.022358,136.095337 C425.982583,133.328869 429.596359,128.636598 432.311197,128.950289 C435.806745,129.353197 434.300011,133.777733 438.221799,132.637868 C441.202693,131.771571 444.030029,127.882073 447.386909,129.996173 C449.770321,131.497073 449.735887,135.934637 452.685139,136.913525 C456.134153,138.057112 456.828423,134.431876 460.083861,138.019892 C462.396544,140.569467 463.316033,144.994934 465.930248,147.095077 C467.582164,148.422903 469.798058,147.888795 471.422985,149.198942 C472.34992,149.946135 473.335485,151.942992 474.009281,152.94049 L474.399561,153.523922 C475.273738,154.85446 475.886416,156.0044 476.107912,157.709312 C476.21773,158.558861 475.892,159.306984 476.102328,160.178864 C476.235412,160.726 476.860814,161.008872 477.006927,161.506691 C477.570905,163.420733 476.62815,164.203285 476.721215,165.777695 C476.801252,167.132505 478.861726,168.418459 480.140449,169.762104 C482.53596,172.277251 484.543387,175.127378 486.724847,177.821181 C491.23481,183.384652 497.242201,188.028787 499.883405,194.880073 C502.52554,201.73415 501.902,207.986193 497.562347,213.83998 C493.219901,219.69842 487.726234,225.493586 480.891489,228.372559 C478.861726,229.227691 473.38388,229.808324 475.527182,232.809193 C477.211672,235.168015 477.233077,233.04554 478.442,231.781919 C480.857985,229.254675 482.601106,231.974532 485.642493,231.800529 C487.058953,231.719575 488.170157,231.090556 489.670376,231.223617 C491.541927,231.389247 493.488861,232.259266 495.32877,232.660312 C512.135504,236.329281 530.188387,235.305729 547.200796,233.940683 C555.516215,233.272583 563.646434,230.948189 571.784099,229.178374 C580.22888,227.341563 588.722985,226.009085 596.907182,223.141278 L603.240837,220.921291 C617.129083,216.034091 630.691352,211.002978 643.457712,203.400679 L646.085184,201.828234 C658.91209,194.10904 671.418171,185.868894 681.434099,174.634212 C683.9795,171.780089 686.303965,168.799031 688.034289,165.386939 L688.607156,164.222498 C689.586807,162.260474 691.717858,158.150116 691.131544,156.50059 C690.410285,154.469305 686.293989,154.004054 687.971964,150.460702 C689.145522,147.979984 692.263223,148.495482 694.570321,148.322409 L692.278113,141.823783 L692.278113,141.823783 C681.771927,147.764108 671.12335,154.155725 661.171836,160.980027 C657.348697,163.601064 653.582738,166.306071 649.78533,168.96546 L646.929993,170.949424 C643.084518,173.594841 637.998478,179.32022 633.737,174.942208 C626.978569,167.996942 621.976288,159.050166 616.192255,151.319556 C610.142055,143.231633 604.048113,135.149293 597.973715,127.077189 C588.27627,114.191598 577.19773,101.340436 570.01492,86.3081772 L569.743024,85.7280495 C566.128789,77.859712 564.853676,68.5513977 572.776179,63.0112004 C580.205427,57.8168905 587.102042,51.949807 594.163662,46.2701274 L595.679646,45.0562351 C603.811726,38.5762197 611.966142,31.6281618 620.672438,25.9325595 Z M443.255723,696.475513 C443.238971,703.931625 441.12638,711.477065 441.371142,718.841988 C441.479189,722.115539 442.821173,722.082017 445.802408,722.725618 L446.02908,722.77522 C449.334774,723.508455 452.631161,724.267745 455.920102,725.077281 C469.74315,728.481058 483.927292,729.580911 497.607949,733.485297 C504.460376,735.440281 511.469153,735.445864 518.491891,736.298204 C520.423004,736.532691 523.547219,737.771189 525.442967,737.490177 C526.937602,737.268718 529.219573,735.171366 528.985047,733.300127 C528.545777,729.792135 514.775777,726.512115 511.296982,724.953525 C505.114628,722.18342 499.007657,718.992729 493.492584,715.043679 C489.575449,712.239146 485.857474,708.700447 483.671361,704.344768 L483.099189,703.181039 C481.539384,699.968766 481.197396,699.190439 476.872912,698.785949 C465.659427,697.735413 454.438496,697.752162 443.255723,696.475513 Z M444.681489,656.543023 C443.528405,656.614671 444.716854,680.421563 444.779208,682.777594 L444.802258,683.410956 C444.946246,686.39861 445.571604,686.743568 448.942036,686.453077 C452.874993,686.112513 456.735358,686.524725 460.666453,686.444702 C463.253679,686.392594 465.688277,685.764505 468.264336,686.231617 C469.61658,686.47727 470.857146,687.064417 472.235449,687.277502 L473.670328,687.516901 C476.0093,687.88404 479.599551,688.203537 479.018077,685.602598 C478.602073,683.745316 470.118204,683.320077 468.620777,682.759915 C464.635704,681.26832 461.052675,678.764339 457.866106,675.98493 C451.627912,670.547077 448.108168,663.93493 444.681489,656.543023 Z M452.312876,627.486239 C450.806142,627.11683 445.234299,624.022911 443.856927,625.024131 C442.391142,626.088625 443.286434,629.627324 443.343204,631.052853 C443.654974,638.858834 442.51492,646.604332 445.676361,653.986003 L446.037683,654.81882 C451.949735,668.273668 461.310994,681.216456 477.224701,682.762706 C482.413113,683.266108 481.652766,644.035216 481.918004,639.182648 C482.071562,636.377185 483.479646,631.444594 482.62158,628.76754 C481.555978,625.443787 479.677912,626.925146 476.323825,627.721656 C468.58169,629.561258 460.038259,629.37981 452.312876,627.486239 Z M482.534099,617.241413 C480.898934,616.544467 476.341507,618.03327 474.64585,618.156096 C466.351481,618.756048 457.949907,619.248813 449.638093,618.660987 L447.96808,618.532631 C444.994083,618.334918 441.053144,618.642763 444.790376,622.066065 C447.45896,624.510884 452.574077,625.313914 456.162152,625.869174 L456.515723,625.923926 C461.014409,626.622788 465.568329,626.932603 470.099894,626.523672 L470.949281,626.438494 C473.929245,626.108166 479.573679,626.385455 482.16742,624.758938 C483.984062,623.620003 484.624354,618.131903 482.534099,617.241413 Z M480.039007,591.152 C472.700777,580.012031 461.080595,571.500729 447.17658,575.995054 C439.876507,578.353876 442.030047,586.305946 442.384628,592.577529 C442.68492,597.89147 443.114243,603.1757 443.104859,608.477522 L443.084986,610.424048 C443.06079,614.791103 443.882121,615.58163 448.658186,615.86427 C456.283058,616.316494 463.87908,615.842868 471.503953,615.486486 C474.155394,615.362729 479.722584,616.168544 482.173004,615.081718 C484.573535,614.0179 484.191222,612.271612 484.405149,609.711344 L484.427055,609.46893 C485.158551,601.946753 484.223241,597.504536 480.039007,591.152 Z M346.806161,525.591625 C337.091964,531.231397 326.918022,535.713625 317.103314,541.097509 C312.587766,543.573575 311.464464,545.755602 311.688752,550.75798 L311.859191,554.56271 C312.061474,559.004479 312.291094,563.453128 312.708752,567.873633 C313.619144,577.492321 316.251519,586.729151 319.070256,595.917938 L321.277561,603.077857 C322.427464,606.873856 323.258721,609.862025 327.461526,611.101961 C332.391215,612.556336 337.648496,612.498644 342.734536,612.510741 C341.206398,600.457019 338.317639,588.608007 338.118478,576.408197 L338.096458,574.76108 C338.05267,569.950822 338.238565,564.737809 340.158478,560.350525 C341.214774,557.935872 343.049099,555.926919 343.953697,553.442478 C344.851781,550.978509 344.697292,548.360077 344.841544,545.777934 C345.219391,539.026212 345.81315,532.282864 346.806161,525.591625 Z M485.004062,542.224194 C481.505723,542.237374 477.711434,543.837837 474.353624,544.671567 C466.63594,546.589247 458.831343,548.202399 451.010455,549.648746 L448.66377,550.077783 C444.689865,550.796131 442.89835,550.587698 442.639628,554.797289 C442.40594,558.618581 442.589121,562.534841 442.621988,566.379875 L442.626599,567.658687 C442.625668,567.83083 442.03377,574.61698 442.52981,574.984529 C443.263168,575.527942 449.023934,572.778308 450.174226,572.546614 C453.964792,571.782671 457.875412,571.96598 461.593387,573.021169 C468.318314,574.929629 474.377821,579.462104 478.455029,585.096293 C480.445704,587.847787 481.536434,591.749382 483.766288,594.197532 L484.015197,594.465133 C485.943596,596.489193 485.357237,594.605019 485.345613,592.095529 C485.311179,584.358405 485.538259,576.530092 485.971015,568.801343 C486.338702,562.236962 487.477451,555.729659 488.084042,549.145405 L488.235303,547.347691 C488.480066,544.097447 488.674573,542.21039 485.004062,542.224194 Z M361.743204,527.943934 C360.881416,527.381911 357.084336,527.204185 356.128551,527.631285 C352.937727,529.057802 354.851626,534.487233 354.935448,537.295573 L354.938241,537.467621 C354.945686,542.556536 355.336562,547.646382 355.320741,552.75949 C355.311434,556.032996 354.950339,559.301849 355.599007,562.525108 L355.707813,563.011577 C356.160271,564.93231 357.81643,571.119822 359.473332,569.612741 C360.656197,568.537081 357.676234,560.705046 357.517091,559.164135 C357.055081,554.707678 357.950345,550.542382 358.916837,546.240722 L359.048953,545.653247 C360.082912,541.051915 361.109427,536.466401 362.296945,531.90322 L362.401085,531.525184 C362.908059,529.770628 363.417396,529.037244 361.743204,527.943934 Z M378.226069,529.367602 C378.69512,524.783949 373.829646,526.956671 370.743588,527.216281 L369.997276,527.284582 C366.285118,527.657307 365.410716,528.345441 364.343907,532.358978 L363.986738,533.714656 C361.577009,542.699752 358.001033,552.71426 359.961927,561.978903 L360.212791,563.148328 C361.061755,566.995024 361.982283,569.456965 366.404865,568.532428 C368.899956,568.010417 371.375504,567.38698 373.854774,566.798903 C374.479245,566.651884 377.228405,566.40344 377.57554,565.923301 C377.911507,565.459911 377.139062,562.498123 377.074847,561.851424 C376.012036,551.010146 377.12231,540.154911 378.226069,529.367602 Z M404.692091,521.303872 C400.163515,520.83583 395.611672,522.20832 391.255266,523.253274 C388.601964,523.889737 383.633186,524.074907 381.589464,525.996393 C379.21815,528.225876 379.853788,533.569749 379.599719,536.474776 L379.215909,540.761529 C378.965321,543.615964 378.747547,546.468056 378.696051,549.344548 C378.624391,553.343845 378.252128,558.096849 379.000376,562.058926 C379.891945,566.771919 383.233934,564.002745 386.615011,562.97361 C391.156617,561.590884 395.811763,560.679922 400.492967,559.922494 C403.115558,559.497254 409.539883,559.91598 411.519391,557.936803 C412.742274,556.714123 405.466398,545.181482 404.658588,543.141822 C401.825668,535.995567 402.049956,528.475251 404.692091,521.303872 Z M422.536507,527.835065 C419.510942,523.874849 410.873515,517.268285 406.438934,522.511664 C400.820558,529.155447 405.939172,542.305301 409.363989,548.635505 L410.53893,550.835914 C412.237117,553.959067 414.081851,556.678826 417.919123,556.86144 L419.646629,556.900452 C421.578006,556.925919 424.273173,556.827644 425.045558,555.644046 C427.01669,552.626428 424.820339,543.95415 424.615595,540.493614 C424.372693,536.388239 425.148861,531.256521 422.536507,527.835065 Z M486.100376,516.542494 C479.796106,514.000363 473.486252,513.336915 466.862766,514.549359 C460.321179,515.746915 454.318442,517.958718 448.506489,521.190351 C443.036088,524.231231 442.708496,526.482115 443.077036,532.360096 C443.269682,535.424239 443.09658,538.496756 442.966288,541.559969 C442.901142,543.093436 442.000266,546.748447 443.21012,547.892965 C444.48512,549.097965 448.283131,547.645451 449.79731,547.359787 C452.971781,546.759614 456.134153,546.117567 459.295595,545.445745 C466.362073,543.943915 473.432274,542.473722 480.508989,541.017486 C482.831909,540.540139 486.594555,540.482447 488.356288,538.720077 C490.226909,536.848837 489.782055,532.468034 490.134774,530.01337 C490.508898,527.405173 492.413022,522.587034 491.302748,520.013266 C490.485631,518.121556 487.854664,517.249675 486.100376,516.542494 Z M507.345412,544.110475 C507.810741,539.617081 500.624208,540.033015 500.859664,544.215621 C500.998332,546.690756 507.053186,546.924312 507.345412,544.110475 Z M515.468186,544.285409 C515.794847,543.475872 509.45242,539.871108 509.349117,543.21254 C509.256982,546.138038 513.866526,544.545019 515.468186,544.285409 Z M549.587,524.040478 C545.774374,519.657694 542.127602,521.32174 537.0171,521.742936 L536.121968,521.810836 C531.016634,522.214072 529.287193,522.912763 526.976649,527.76102 L526.842675,528.045359 C524.381088,533.325027 521.234536,538.309725 519.48304,543.899251 C526.320577,543.440513 533.132985,542.664475 539.964938,542.131297 C545.435339,541.704197 551.238916,540.080471 556.633004,540.359621 C558.223496,540.442436 559.723715,539.495185 560.979172,538.654942 L558.210787,534.947502 C555.435132,531.233316 552.618382,527.52358 549.587,524.040478 Z M504.613934,516.547146 C504.066708,519.920216 502.564628,524.390347 503.06346,527.784818 C503.42142,530.224888 505.162589,532.654936 506.370415,534.822577 L506.566453,535.181378 C507.970814,537.805393 508.567365,538.140374 511.257894,539.179745 C512.64085,539.713853 516.745047,542.47 518.075887,541.500417 C520.313186,539.871108 521.751982,534.235058 522.917164,531.825058 L523.056185,531.549659 C524.201832,529.355871 527.553638,524.363442 525.604901,522.52283 C523.763131,520.782791 516.524482,521.476015 514.081507,521.04054 L513.367343,520.918872 C510.185189,520.39236 505.966378,519.808024 504.613934,516.547146 Z M580.517383,513.426243 L549.48742,520.37244 L549.48742,520.37244 C552.781015,524.184706 555.955485,528.107702 558.93731,532.168413 L560.156916,533.839494 C562.313117,536.749709 564.201249,538.694882 568.634755,537.676054 C572.478369,536.792077 577.589536,535.097633 580.709099,532.615054 C584.466161,529.62442 582.193496,525.957312 581.416398,522.001749 C580.860796,519.177675 580.510869,516.308007 580.517383,513.426243 Z M503.284956,532.729505 C501.624664,533.000281 501.899208,538.547934 504.181179,537.702108 C505.846124,537.084254 503.737255,533.734447 503.284956,532.729505 Z M423.415978,524.85932 L423.414407,524.325662 C423.385209,521.184317 422.9391,518.144253 418.657529,519.350749 C416.297383,520.016058 422.726361,524.330795 423.415978,524.85932 Z M498.362712,473.170868 C490.586142,476.064729 483.115759,479.947714 475.178186,482.396795 C471.820376,483.432444 468.540741,483.415695 465.141982,483.970274 C461.83908,484.508104 459.21742,486.678034 456.318423,488.220807 C451.526471,490.771312 440.961653,492.598818 440.817401,498.772698 C440.643369,506.204617 442.115668,514.130633 442.82669,521.536498 L444.810227,520.442556 C451.879472,516.558404 459.14536,512.807592 467.211763,511.608042 C471.351325,510.99205 475.593259,511.012521 479.699318,511.855556 C484.199044,512.779544 487.730887,515.432405 492.01377,516.740691 C494.261307,506.049224 495.890887,495.107451 497.552109,484.308046 L497.720103,483.261088 C498.269608,479.936117 498.937813,476.524929 498.362712,473.170868 Z M529.727712,516.521092 C529.622547,513.302486 510.509646,515.768316 507.95127,516.626239 L508.117833,516.70826 C511.164501,518.131493 529.955723,523.537188 529.727712,516.521092 Z M537.075598,516.586094 L536.534323,516.445969 C532.960835,515.542621 532.073265,515.985868 530.918953,519.777849 C532.708606,519.610359 539.460522,520.157494 540.951434,518.793378 C542.581096,517.30235 538.348608,516.893261 537.075598,516.586094 L537.075598,516.586094 Z M538.982266,411.507545 L538.851872,411.34832 C537.102237,409.258413 537.027785,408.346521 534.591325,409.684583 C532.596927,410.778853 530.452693,413.740641 528.693752,415.255498 C526.602566,417.05788 524.44158,418.781169 522.197766,420.390938 C520.436964,421.652698 517.857182,422.679042 516.533788,424.39861 C513.736149,428.034208 514.828941,436.222549 514.210341,440.778988 L514.164336,441.090884 C513.172255,447.280583 517.276453,452.256907 519.861818,457.629625 L520.126819,458.172364 C522.334675,462.619958 523.469676,462.903745 528.564391,463.711386 C539.693186,465.474687 540.696434,479.025586 539.893277,488.063552 C539.341398,494.283957 537.706234,500.381536 535.785358,506.305112 C535.300485,507.802289 533.81888,510.142502 533.91846,511.656428 C534.080394,514.123189 536.293496,513.850552 538.497292,514.49632 C544.447912,516.240081 547.814099,518.153193 554.179792,516.787216 L570.999555,513.152675 L570.999555,513.152675 C572.923223,512.740463 577.449938,512.705104 578.927821,511.431247 C580.537268,510.043341 579.682135,507.521604 579.341717,505.584057 L579.30846,505.385776 C578.612328,501.002181 578.589993,497.084768 573.701252,496.777702 L569.413003,496.530114 C560.718534,495.97724 549.422181,494.47792 548.556763,484.150791 C547.694974,473.857579 561.330029,471.151679 568.597529,469.940166 C573.774774,469.07759 569.858569,462.275621 568.803204,458.727617 C567.320668,453.741988 566.223423,448.034289 563.240668,443.674888 L562.743998,444.314662 C558.794806,449.470649 540.096068,474.60105 536.239518,462.525926 C534.568058,457.295575 541.308807,449.840393 544.698259,446.716698 C549.457639,442.333104 555.214682,439.216853 561.74138,438.652969 C560.222547,434.193073 559.054573,429.815992 557.875431,425.27142 C556.559482,420.198324 554.414318,421.926266 550.235668,422.688347 C545.618756,423.531056 541.571478,414.734811 538.982266,411.507545 Z M533.369372,506.976003 C527.173989,506.961348 521.01067,506.975189 514.825797,507.148433 L512.173661,507.232822 C510.239755,507.301679 507.153697,506.704297 505.813551,508.430378 C505.161161,509.269691 504.827055,513.005656 505.723277,513.802166 C506.943369,514.8862 512.216471,513.296903 513.51846,513.167563 C516.920942,512.82793 520.336453,512.652996 523.755686,512.635316 C525.768697,512.62415 529.548095,513.450436 531.32658,512.090042 C532.754208,510.998563 532.931964,508.569023 533.369372,506.976003 Z M509.503606,475.278455 C509.114824,478.866238 508.681021,482.448787 508.238712,486.03042 L507.79492,489.611907 C507.579938,491.349154 505.362182,498.340015 508.677182,498.155776 C511.715777,497.987355 514.701325,497.343447 517.706416,496.914486 L509.503606,475.278455 L509.503606,475.278455 Z M531.729555,467.252876 L531.401939,467.084295 C527.928547,465.35901 523.475129,465.085494 524.927383,470.031355 C525.608624,472.350166 526.767292,474.402853 527.222383,476.802617 L527.324404,477.318371 C527.684099,479.052907 527.910526,479.152988 528.825905,480.513459 C529.322876,481.253208 529.094865,484.146139 529.422456,485.227382 C529.868241,486.695714 530.34846,488.146366 530.776562,489.623073 C531.903588,493.508849 533.112511,494.601258 536.388423,497.009397 L536.603617,496.222222 C538.770394,487.998196 540.549905,471.952376 531.729555,467.252876 Z M572.272693,472.238505 C571.345759,468.096841 556.547383,474.984417 554.140704,476.958011 C547.867427,482.106392 550.881011,489.310904 557.596854,492.228712 L557.835412,492.329903 C560.726964,493.526529 574.674719,497.644 576.224263,494.165783 C577.139099,492.114027 574.895285,486.959976 574.489518,484.826336 C573.69846,480.653034 573.199628,476.382031 572.272693,472.238505 Z M468.146142,399.18666 L467.821184,399.11936 C464.387629,398.346047 460.329727,395.575124 460.628296,400.491224 C461.299299,411.53349 460.498004,422.256594 460.572456,433.250475 C460.601307,437.501938 461.038715,442.352644 458.687876,445.90344 C456.01596,449.938096 452.955029,453.394911 448.837803,456.020787 C446.663788,457.408166 444.45627,458.468007 441.819719,458.530351 C439.819737,458.577807 438.693642,457.54681 437.575923,459.235671 C436.635029,460.658409 438.303697,465.764073 438.469354,467.590648 C438.715978,470.309575 438.826726,473.04339 438.968186,475.76976 C439.262274,481.422559 439.626161,487.072567 439.96585,492.722575 C447.551635,490.889486 454.199318,486.65198 460.906562,482.842505 C453.318916,475.715791 461.493807,463.01537 466.134993,456.573505 C472.429956,447.837023 480.295869,441.085301 488.305102,434.003251 L487.427091,433.995589 C477.86978,433.850682 465.412738,431.614875 464.537985,419.978725 C464.089409,414.016069 466.955832,408.785718 471.871562,405.516864 C473.791507,404.239285 485.676927,400.882965 485.892839,399.530946 C480.080887,399.516988 473.865029,400.260459 468.146142,399.18666 Z M502.378496,454.625965 C492.599153,464.754478 480.771434,472.527892 469.229427,480.46042 C472.639354,482.53637 482.518277,476.813783 485.824901,475.574355 C489.446088,474.216753 498.874573,472.639552 500.422255,468.230834 C501.10815,466.27771 500.765668,463.723482 501.431088,461.586119 L501.671126,460.806101 C502.292095,458.748479 502.734214,456.850071 502.378496,454.625965 Z M507.471051,431.451814 C506.755376,428.747776 503.600449,430.705552 501.556726,431.355042 C489.065449,435.320841 479.275869,443.912166 471.050723,453.970892 C467.079643,458.827812 463.482402,464.004001 461.317933,469.91662 L460.819389,471.315224 C459.998064,473.559846 458.999739,476.045654 460.173204,478.277463 C461.832566,481.430934 464.353715,480.765625 466.857182,479.175397 C478.282858,471.916552 488.7695,463.463872 499.329664,455.032594 C504.580431,450.842544 504.254701,444.669594 505.746544,438.505949 C506.108569,437.013424 507.892639,433.042042 507.471051,431.451814 Z M562.045704,442.767648 C564.496124,437.822961 552.534391,443.627432 551.512529,444.226675 C546.233843,447.315942 540.23669,452.329486 538.634099,458.520115 C536.574555,466.478698 545.923004,460.566289 548.554901,458.118139 C550.94669,455.894239 552.975522,453.30093 555.119755,450.847197 C557.25096,448.40742 560.597602,445.690355 562.045704,442.767648 Z M529.753607,397.952468 L529.615102,397.961189 C527.778916,398.184509 524.135394,405.126984 523.214974,406.369204 C520.369956,410.212177 517.618934,414.16681 514.657584,417.920455 L514.059602,418.666592 C512.128528,421.022656 510.79815,421.96577 509.430084,418.424787 C508.040613,414.825606 508.074117,410.920289 505.933606,407.569552 C497.711252,394.696988 467.560759,402.475984 466.435595,417.658054 C465.797164,426.262405 474.097693,429.77598 481.179062,431.005173 C486.103168,431.860305 490.407456,431.810988 495.103551,430.006745 C498.974153,428.519803 503.465504,428.059204 507.17138,426.412216 C509.805139,425.241644 510.428679,422.518996 513.001945,421.686197 C514.780431,421.109285 515.880467,421.782969 517.792967,420.581691 C519.852511,419.287363 521.766872,417.584544 523.694263,416.100393 C526.588606,413.86998 532.272128,410.749077 533.759318,407.255042 C534.472945,405.577702 532.242217,397.939079 529.753607,397.952468 L529.753607,397.952468 Z M525.903642,387.987139 C520.853898,390.869834 515.37419,392.611733 509.946599,394.83098 C504.444555,397.080934 497.822,396.117864 492.635449,398.641386 C497.58096,400.992764 502.292876,398.961478 506.330066,403.93315 C509.490577,407.82637 510.53012,413.160007 511.714847,417.899984 C515.663624,413.728544 518.834372,408.910405 522.229409,404.298837 C524.803606,400.80015 530.115796,396.716177 527.912,392.173467 L525.903642,387.987139 L525.903642,387.987139 Z M489.320449,264.807293 C484.337712,272.244795 478.01669,276.920567 469.261069,279.312888 C459.37377,282.014135 450.089536,280.1522 440.231088,278.503351 C442.674993,290.265826 443.795504,302.169737 445.355285,314.061552 C446.770581,324.836997 448.708261,335.540509 450.562591,346.24806 L451.065796,349.168459 C452.561465,357.898635 454.11449,366.557495 455.872591,375.226077 L456.541781,378.477409 C457.473369,382.940096 458.406818,384.81878 462.947493,385.834888 C466.637547,386.660243 470.513734,387.209239 474.245668,387.842911 C483.11762,389.348463 493.437675,387.630756 502.095577,385.467339 C506.585066,384.345154 511.075485,382.612559 515.680376,382.080312 C517.445832,381.876532 520.072146,382.296189 521.588186,381.141436 L522.280502,380.622802 C522.851828,380.185397 522.522566,380.301591 522.47138,379.136204 C522.389482,377.283575 520.257347,374.452988 519.450467,372.704575 C518.410923,370.454621 517.387201,368.202807 516.471434,365.898884 C514.804628,361.705112 513.225303,357.446204 511.689719,353.203115 C508.368204,344.033019 505.898241,334.258096 504.823332,324.596695 C503.776941,315.192411 500.500496,305.442902 497.920456,296.275937 L497.636799,295.25983 C494.815978,285.06432 491.822985,275.094922 489.320449,264.807293 Z M348.973661,320.455031 C343.835504,324.16122 341.649391,331.714104 338.487949,336.975162 C334.611763,343.428193 330.489883,349.736065 326.462,356.093254 C322.719642,362.002314 319.246403,368.106583 315.448638,373.981425 L314.169883,375.930625 C313.575193,376.824837 310.035905,381.147019 313.076361,380.549637 C314.413036,380.286279 317.607479,375.790211 318.69731,374.120615 L318.933916,373.749529 C321.859901,369.007691 325.471781,364.831598 329.109719,360.4052 C330.137164,359.155536 330.888204,357.815614 331.615047,356.642251 C333.090139,354.263888 335.545212,352.542459 337.03054,350.149208 C338.328807,348.054648 338.476781,345.642787 339.587985,343.551019 C340.759682,341.34666 342.549336,339.404702 343.761982,337.232911 C345.171927,334.711251 346.033715,331.486131 347.047201,328.786745 C347.545102,327.46171 348.651653,325.618386 348.846161,324.226355 C348.951325,322.972038 348.993204,321.71493 348.973661,320.455031 Z M476.33643,301.030848 C478.94258,300.398558 480.45014,309.678975 480.86465,311.196844 L481.810452,314.633012 C482.670067,317.792184 483.463784,320.98117 483.815148,324.233755 L483.934662,325.353748 C484.108347,327.197784 484.068145,329.046896 482.099871,328.801329 C478.098789,328.303133 480.093791,322.161817 478.846569,320.012589 C477.481179,317.657565 470.955188,318.393219 468.687847,318.171591 C469.168826,320.488437 471.917146,327.391481 470.703158,329.656178 C469.503019,331.893871 468.475514,331.032503 467.333535,329.28742 C464.468893,324.911674 463.946371,316.683521 463.501396,311.865451 L463.471611,311.591646 C463.258758,309.811764 462.356442,304.308699 463.812509,303.15307 C465.820768,301.559215 466.5958,305.197139 466.874939,306.838838 L466.963338,307.380754 C467.439701,310.27588 467.183979,312.14202 470.368966,312.623455 L470.656472,312.663229 C472.760422,312.92892 476.689548,312.898415 476.505373,310.752658 C476.413054,309.678044 474.356199,301.511351 476.33643,301.030848 Z M486.943654,309.050071 C489.44772,307.918531 495.947299,326.334199 491.459915,326.98679 C487.615317,327.544928 484.315688,310.236947 486.943654,309.050071 Z M484.014886,303.318521 C484.356097,299.221765 489.179456,301.165708 488.994834,304.433402 C488.755116,308.668488 483.691073,307.215569 484.014886,303.318521 Z M434.521507,231.694451 L434.352745,232.10545 C433.154066,234.952906 432.77167,234.186538 430.576453,233.106023 C428.626726,232.144814 427.27262,232.200644 425.087438,232.410007 C422.410869,232.667756 422.103752,233.76854 419.788277,235.136378 C417.044701,236.755451 414.797164,235.386683 412.398861,233.760166 C412.442602,239.530208 407.176945,242.478038 402.947109,245.291876 C398.222164,248.434181 394.12169,252.497683 389.206891,255.317104 C383.978873,258.316473 378.4379,260.518228 372.761939,262.465592 L371.758934,262.806714 C365.451872,264.933841 364.923259,267.884463 363.713405,273.916907 C366.805047,273.846189 368.738022,275.243803 367.570047,278.258629 C367.171726,279.288695 366.023296,279.980988 365.603569,281.026872 C365.195942,282.041119 365.254573,283.047922 364.852529,284.019366 L364.335218,285.247599 C364.079451,285.853646 363.832529,286.450582 363.614755,287.051872 C363.47888,287.431517 362.584518,288.589061 362.531471,288.922181 C362.369536,289.947594 362.806945,290.856695 362.556599,291.927702 C362.126635,293.759861 360.91492,295.158405 360.766945,297.134791 C363.611033,295.471054 365.857639,292.191965 368.155431,289.860127 C371.071179,286.902061 373.956215,283.91422 376.826361,280.910559 L389.487914,267.643808 C391.59992,265.434245 393.714062,263.22668 395.832237,261.022942 C401.47388,255.153336 407.311891,249.740606 414.347657,245.536598 C418.069354,243.312698 420.822237,243.40854 425.014847,243.154513 C427.606726,242.997258 432.55596,239.408312 434.606197,240.488625 C436.105485,241.278621 436.02638,242.830698 438.06731,242.397085 C439.506106,242.090949 439.682,241.567077 439.751799,240.40581 C439.88023,238.298224 436.040339,232.972961 434.521507,231.694451 Z M354.538058,171.161579 L354.290075,170.574756 C353.496624,168.634581 351.807693,164.247949 350.519482,165.049112 C349.774026,165.512502 350.70096,171.063876 350.765175,171.777571 C352.057991,186.291753 358.147732,199.977018 360.746962,214.21011 L360.967036,215.467428 C361.337438,217.682953 361.66596,223.143139 357.788843,222.234038 C355.12158,221.609671 353.779573,216.184845 352.761434,214.084702 C349.834518,208.049467 346.749391,202.15939 344.104464,195.980857 L343.444014,194.426158 C340.812994,188.198155 338.267312,181.885256 334.223679,176.40961 L333.86684,175.937874 C331.66043,173.090253 327.851173,169.433376 326.986891,175.292077 C326.064609,181.543189 328.670449,188.706193 330.246982,194.630698 C332.195777,201.960262 334.701106,209.090698 337.227839,216.236023 C338.273898,219.195949 341.81877,225.432173 340.707566,228.583783 C339.671745,231.520447 337.739701,230.699745 335.927712,228.959706 C334.355832,227.449502 333.456818,224.867359 332.222766,223.077073 C330.148332,220.06876 327.884044,217.234451 325.944555,214.126575 C321.703551,207.329258 318.513259,200.035054 314.858569,192.929741 C311.447712,186.301776 306.651106,181.60088 300.670704,177.237756 C298.367836,181.092509 300.386484,185.805733 301.775432,189.609183 L301.871252,189.873042 C303.603204,194.673502 305.011288,199.513042 306.313277,204.446563 L308.979954,214.491056 C310.756751,221.190739 312.50804,227.900485 314.092639,234.64042 C316.503971,244.892691 317.742675,255.260343 318.717073,265.734073 C319.489518,274.029498 318.197766,279.769764 314.046106,286.41727 C321.606763,285.452339 328.800741,283.371737 336.176197,281.527482 C340.112876,280.543011 344.061653,279.604135 348.008569,278.658745 C350.015066,278.177675 357.035942,277.678926 358.144354,275.852351 C359.460303,273.686142 357.720905,267.491791 357.772091,264.982227 C357.838168,261.665919 358.193679,257.912274 360.414226,255.238942 C362.510066,252.71542 366.673825,252.165494 369.57096,250.824641 C373.397821,249.052034 377.15023,247.112868 380.97523,245.342123 L381.237696,245.226558 C384.617289,243.800488 397.495104,240.3077 396.463223,235.998953 C394.97231,229.766451 380.258624,236.737772 376.146982,233.80576 C373.248916,231.739115 372.12096,226.378494 371.009755,223.241772 L369.781943,219.780236 C368.968204,217.471419 368.172803,215.156951 367.448131,212.816428 C365.469555,206.430393 363.875339,199.933629 362.112675,193.486181 C360.040102,185.904451 357.781398,178.33854 354.538058,171.161579 Z M449.521836,152.771139 C446.851781,151.337235 445.284555,154.406961 442.856471,155.92554 C439.279956,158.161536 435.467985,159.778749 431.987328,162.22783 C428.912438,164.391247 425.923168,166.965946 422.31315,168.133725 L421.829971,168.29428 C418.464535,169.44528 417.178695,170.648335 417.118223,174.757969 C417.069828,178.135691 418.40346,181.733011 418.973953,185.058625 C419.608661,188.770397 419.288515,193.033027 420.758953,196.540088 C421.523953,198.366664 423.072566,199.82383 423.7445,201.691347 L423.880531,202.080209 C424.648493,204.348713 424.098698,204.270054 421.887839,204.516351 C418.780376,204.863428 415.554719,204.531239 412.825102,206.682559 C409.28023,209.476857 407.814445,218.10261 412.378387,220.479112 C415.512839,222.112142 418.438825,220.604729 420.830613,218.624621 C421.588168,217.997463 423.816161,215.157571 424.732858,215.136169 C426.12512,215.103602 425.944573,216.243467 426.786818,217.051142 C428.931982,219.10476 431.272584,218.420841 433.588058,220.407463 C435.986723,222.46563 437.72129,225.541358 439.422098,228.225241 L439.722018,228.694513 C443.681033,234.828382 446.834099,241.612671 446.147274,249.107864 C445.775942,253.149034 444.807128,252.971308 441.880212,254.781135 C439.802055,256.065227 438.653624,258.545015 435.923077,256.791019 C436.783934,260.588397 436.921672,266.455212 438.795084,269.86178 C440.421296,272.816633 443.250101,272.037509 446.224415,271.600553 L446.442292,271.569251 C455.154172,270.347502 463.651069,270.12139 471.841781,266.537096 C475.629555,264.879872 479.339153,262.829046 482.886818,260.711224 C486.438437,258.592428 487.418657,256.928641 486.633569,252.937221 L486.575942,252.654938 C485.798451,248.971081 485.058018,247.057744 481.64418,245.453841 L481.361471,245.324444 C477.782164,243.728633 474.806854,241.804355 472.536051,238.519683 C468.608679,232.838038 467.082401,223.555351 474.430869,220.275332 L476.549946,219.328002 C483.507932,216.197327 490.692513,212.608926 494.489318,205.496169 C497.773606,199.346482 492.215723,195.075478 488.078953,191.225061 C482.341453,185.885841 478.119062,177.441536 471.276872,173.467363 C470.644026,180.349355 464.410485,172.799262 461.651088,171.908772 C457.50315,170.56978 458.797693,175.609378 461.415631,177.18844 L461.657433,177.328783 C465.835828,179.673545 480.998775,184.581129 472.620741,190.729104 L472.268458,190.979155 C469.702804,192.743211 464.386689,195.234866 463.664099,190.413664 C463.494719,189.27566 464.273679,188.631753 464.353715,187.647281 C464.504482,185.821637 465.28065,187.247166 464.086617,185.629953 C463.062894,184.241644 460.599445,183.277644 459.278843,182.073575 C455.945174,179.035514 454.983047,175.174989 454.472105,170.843257 L454.425467,170.435787 C453.881964,165.530181 454.799591,164.43405 458.747438,161.928208 C456.049464,159.407478 452.694445,154.474888 449.521836,152.771139 Z M420.025654,207.000209 L420.181073,207.005421 C421.77973,207.094941 423.716958,208.763714 422.733237,210.547306 C422.138739,211.623494 419.937586,211.881352 418.912988,211.971845 C413.639818,212.437989 416.46129,206.96108 420.025654,207.000209 L420.025654,207.000209 Z M456.216981,199.995804 C454.588996,193.92017 462.569134,198.893202 465.247979,199.3308 C469.388439,200.007582 475.317615,194.838853 476.737873,200.657184 C479.572749,212.276631 458.529248,208.611862 456.216981,199.995804 Z M438.17725,176.197481 C441.836571,174.928151 451.921522,180.016583 450.932045,184.627281 C449.515356,191.233171 441.933038,180.499873 439.028917,184.762454 C437.492793,187.018734 439.035348,189.564802 439.506659,191.547957 C439.804329,192.795068 441.195294,192.454358 439.921927,193.70332 C439.115278,194.493064 437.467987,193.502412 436.930527,193.086708 C432.846751,189.929584 432.823782,178.054722 438.17725,176.197481 Z M624.732894,35.9363857 C616.543113,42.2116907 608.560869,48.7512583 600.363642,55.0181888 C596.550741,57.9334514 592.704336,60.8040498 588.881197,63.7044243 C585.752328,66.0799958 580.462474,68.6872622 578.140485,71.8258452 C575.640741,75.2044977 580.904536,79.5815788 582.958496,82.4512467 C584.878973,85.1357448 586.712558,87.8819598 588.527081,90.6403826 L590.699701,93.9531811 C595.470016,101.226333 600.199716,108.525845 605.077712,115.727666 L607.177912,118.807818 C611.541246,125.160665 615.734556,131.619899 619.8949,138.103651 L623.456033,143.665247 C625.837584,147.388185 628.219135,151.111123 630.57835,154.848019 C631.858004,156.874652 633.052036,158.993405 634.419172,160.961417 L634.973258,161.75889 C635.854309,162.997652 636.023652,162.894943 637.941708,162.420444 C641.5145,161.536467 645.458624,158.365316 648.704755,156.642027 L652.624503,154.55806 C655.235455,153.164467 657.838852,151.75681 660.415942,150.302102 L662.343533,149.201733 C670.180595,144.67298 678.694245,140.512706 685.997109,135.189305 C688.85981,133.101258 682.799372,124.805834 679.823131,125.357621 C677.272201,125.830316 674.413223,128.048633 672.026088,129.143834 C669.624248,130.244803 667.202158,131.299323 664.766011,132.322637 L662.361922,133.325838 C658.167809,135.112691 652.357377,138.042823 647.870887,136.355224 C642.229245,134.233679 644.341836,128.011413 646.374391,124.110749 C639.706234,122.565185 629.269847,130.075266 623.096799,124.92866 C614.460303,117.729366 630.481562,109.517687 634.897529,106.700127 C632.515047,105.357497 627.764523,107.163857 624.99413,107.658065 L624.740339,107.700417 C620.965595,108.282911 617.127566,109.302741 613.277438,109.241328 C606.839153,109.138042 603.291489,102.652444 606.903369,97.0312815 C610.570157,91.3226521 619.450485,87.2563587 625.254993,84.2471154 C633.114391,80.1724475 640.648989,75.6483471 648.107274,70.8888297 L645.958121,67.9296693 C638.447023,57.5620017 631.07868,47.0668475 624.732894,35.9363857 Z M647.689409,43.6623432 C649.378551,47.0456483 650.948569,50.5071154 652.893642,53.7545672 C654.559518,56.5349069 657.39523,59.2473201 658.688843,62.1821232 C660.921489,67.2449842 655.626051,75.2407873 652.419007,78.9023124 C648.168697,83.7548799 643.007274,87.390351 637.418679,90.528934 C634.794226,92.0030041 632.152324,93.4615659 629.477353,94.8475399 L627.868277,95.6699571 C627.128405,96.0430884 622.609135,97.6268027 625.160066,98.1571888 C627.672839,98.6792004 632.270285,96.5641695 634.849135,95.9686483 C638.526161,95.1200305 642.192018,94.2220961 645.848569,93.2888027 C649.318989,92.4029649 652.79127,91.496656 656.115577,90.1446367 C658.210485,89.2932274 661.312365,87.0423432 663.635285,88.2380382 C673.940449,93.5437602 643.233423,111.430799 639.838387,113.700293 C649.997558,112.145154 660.728488,108.867183 670.134218,104.660793 L671.070303,104.237088 C674.981854,102.445872 678.094901,103.908621 676.966015,108.807714 C676.006507,112.976363 670.591015,115.701803 667.462146,118.137857 C669.180139,121.29505 687.672292,105.27739 691.463788,111.134899 C692.574993,112.851675 692.084536,115.630154 693.115704,117.672606 C694.253898,119.929073 695.250631,122.131571 696.085431,124.525753 C697.881599,129.677011 700.040723,134.948305 701.393898,140.229834 L701.523923,140.754703 C702.822452,146.170895 702.116932,148.595805 708.680942,147.945556 C714.052693,147.413308 719.419792,146.82244 724.802712,146.389756 C729.592803,146.005459 734.747712,146.313455 739.445668,145.215463 C744.430097,144.051557 744.124195,139.304244 744.658407,134.875748 L744.688989,134.630073 C745.618208,127.408067 745.149964,119.996146 744.87317,112.72774 L744.835102,111.690409 C744.581964,104.482741 744.058934,97.2546019 741.909117,90.3270151 C738.239536,78.501266 730.985066,68.9384977 720.527274,62.2816869 C715.588776,59.1394483 710.414898,57.5061611 704.692716,56.7051888 L704.054646,56.6195826 C697.19012,55.7365363 690.149701,54.0281347 683.393131,52.5002506 C677.423898,51.1500923 671.418369,50.8541927 665.395157,49.1895247 C662.392858,48.359517 659.462219,47.4559996 656.576252,46.3393973 C653.690285,45.2237255 650.516745,44.9054938 647.689409,43.6623432 Z M562.036958,128.371049 L562.714873,126.543593 C563.768757,123.756064 565.671174,119.325283 567.667144,120.086643 C570.600802,121.204722 567.800237,123.839212 567.639963,125.201785 C567.556546,125.916953 568.256687,126.661423 568.100163,127.632989 C567.699949,130.112725 565.542351,134.919273 563.562835,136.579451 C562.226287,137.699361 560.569192,136.37708 560.105243,135.015423 C559.545692,133.373559 561.367746,130.067855 562.036958,128.371049 Z M550.765335,95 C551.449239,98.5193849 550.597375,101.030849 548.742389,103.900829 C547.201053,106.288156 543.866904,107.195099 542.613234,109.662096 C541.669502,111.521377 539.838643,112.481125 537.760948,112.179119 L537.942828,115 L537.942828,115 C531.014702,114.983325 534.785919,108.378109 537.440803,105.21724 C540.617199,101.434758 546.017908,96.598036 550.765335,95 Z M590.482126,69.5707399 C592.727021,67.7650168 595.336196,70.662171 596.580668,72.4624415 C599.017573,75.9866461 600.092467,80.2178725 602,84.0392444 C596.508889,87.0854367 591.656613,82.3752891 589.60283,77.0880736 C588.839279,75.1242247 588.492047,71.1719902 590.482126,69.5707399 Z M520.108732,63.5817301 C522.31406,62.4407547 525.689236,63.2681796 527.98477,63.6270207 L529.665377,63.8745474 C531.629185,64.1725971 532.957621,64.519198 534.439137,66.2765224 C534.962515,66.8983976 535.607106,66.6466862 535.946315,67.414885 C536.350359,68.336375 534.287855,68.3886334 535.920005,69.3336398 C534.081135,70.7393912 530.980333,69.492157 528.711109,69.4416405 L526.079053,69.4006376 C524.052015,69.3592265 522.158136,69.2386525 519.997855,68.6176995 C516.889535,67.7240806 517.787828,64.7828027 520.108732,63.5817301 Z M536.630631,31.0348855 C539.403368,30.5106649 546.557521,36.0368174 548.784971,38.047915 L549.077384,38.3177297 C550.90431,40.0363323 556.450868,45.7942363 552.759276,47.7465404 C549.670792,49.3789468 540.10908,42.6654278 537.890445,40.759539 C535.894241,39.0441449 530.978034,32.1042956 536.630631,31.0348855 Z M586.967048,20.0039432 C588.484537,19.8213948 589.833012,26.0290014 589.980218,27.8295052 C590.165588,30.1152034 589.032469,32.0002559 587.241468,33.6624072 C584.193769,36.4928682 581.928439,20.6121176 586.967048,20.0039432 Z" id="Ink" fill="#685563"/>
    </g>
</svg>
