<svg viewBox="64 12.8 844.8 742.4" xmlns="http://www.w3.org/2000/svg" overflow="visible">
    <g id="Master/Doodles/Ballet" stroke="none" stroke-width="1" fill="none" fill-rule="evenodd">
        <path d="M720.311796,614.793035 C725.064712,630.889494 722.033913,649.66973 711.148359,662.909534 C704.116775,671.461132 687.397039,679.108064 678.011843,670.205342 C673.815278,666.222931 672.039787,652.594031 670.246512,646.234716 C668.597927,640.38615 665.840174,629.555397 667.065103,624.647818 C668.84901,617.496965 683.100832,619.150047 689.762666,618.523926 C699.985743,617.563309 710.135306,616.103006 720.311796,614.793035 Z M854.79983,622.969383 C857.037533,627.895392 860.60816,631.159471 862.130123,636.62633 C863.124673,640.19512 863.723525,643.773706 864.117488,647.43768 C864.595059,651.875616 864.920546,651.706155 861.858922,653.780725 C857.187443,656.948425 845.235363,656.704161 839.550125,657.622265 C832.129772,658.820167 824.745926,660.230789 817.321846,661.425469 C819.120886,654.515995 818.178243,647.077956 820.038421,640.030929 C821.846019,633.184 824.992848,626.424306 829.435433,620.798563 C832.739842,616.613297 837.546842,611.598768 843.48971,611.573026 C851.150929,611.539548 852.361157,617.60288 854.79983,622.969383 Z M383.678633,474.921268 C384.816214,489.734678 382.704959,505.510034 374.280358,518.239708 C370.71193,523.631148 365.516031,526.530846 361.298305,531.172832 C356.417445,536.544786 353.769967,543.185154 346.059248,545.483488 C341.083531,546.967541 335.245346,545.943117 330.072307,546.611222 C321.485045,547.720937 318.949885,546.517565 311.709476,542.072607 C306.509241,538.87916 300.513808,539.478233 295.030227,535.976907 C288.453685,531.778756 282.728116,525.793081 276.499362,521.038749 C311.455261,503.914893 347.49274,489.333276 383.678633,474.921268 Z M477.644329,483.706252 C491.022272,490.000654 498.095753,500.738432 501.918511,514.597848 C465.016552,523.032885 429.101682,533.352152 392.854845,544.987651 C402.976336,519.242125 414.342526,495.667222 442.03069,483.692201 C447.55465,481.302933 453.230755,477.498887 459.518459,477.589651 C465.779937,477.679084 472.153218,481.122707 477.644329,483.706252 Z M814.224017,521.872757 C833.242134,531.882171 823.574733,563.87211 816.928853,578.07404 C808.47117,571.85304 799.603743,565.793577 791.345107,559.735842 C782.317559,553.113973 774.202467,544.591289 765.966645,537.047879 C770.327039,534.77392 773.161392,531.156865 777.21357,528.559378 C781.227433,525.987709 785.207642,525.804065 789.703389,524.799175 C798.31086,522.874423 805.276675,517.161736 814.224017,521.872757 Z M665.814855,449.791259 C667.332575,451.738196 669.14712,453.573637 670.577203,455.574864 C674.050742,460.434474 677.055258,465.375026 681.083132,469.883323 C688.218119,477.870657 698.605952,488.399138 710.295935,489.127587 L710.635405,492.537771 C707.188036,492.451076 705.149232,489.481771 702.158326,489.18041 C699.809672,488.943952 696.523262,490.737768 693.644438,490.483968 C684.741049,489.700182 675.994248,489.252461 666.955868,489.491727 C649.117112,489.964943 631.58237,492.80941 614.046646,495.075857 C617.39695,483.135531 623.649323,470.906019 633.612192,462.918892 C637.056056,460.157233 640.355951,456.360702 644.24404,454.159694 C646.584737,452.834936 649.06296,452.734227 651.472321,451.699119 C654.259873,450.500581 657.83908,446.503895 660.718037,446.12072 C663.727917,445.719958 663.74021,447.127632 665.814855,449.791259 Z M808.765482,450.878538 C818.123067,458.390639 825.313042,467.922189 833.007718,476.944406 C839.973341,485.110057 849.412054,496.759506 851.888689,507.272628 C839.536934,513.083846 818.352676,507.764594 810.384971,497.016196 C800.559525,483.759993 805.375604,465.310206 808.765482,450.878538 Z M594.557628,408.046103 C592.714831,420.503064 586.727402,434.38291 577.740627,443.683878 C573.866104,447.695168 570.470755,452.924544 566.068758,456.431966 C560.320341,461.012241 555.692768,458.665453 549.021251,459.375746 C541.854676,460.138326 537.210599,464.814253 529.574264,463.544558 C524.134453,462.639887 519.123228,459.627997 514.010522,458.714282 C508.425977,457.714868 503.551403,458.307161 497.998683,455.542421 C491.132036,452.123892 485.653373,445.396797 480.31277,440.288628 C483.12412,438.062518 488.799889,437.903405 492.396322,436.700046 C497.146392,435.109962 501.890092,433.534772 506.666728,432.011711 C516.531601,428.867316 526.369994,425.65494 536.254561,422.563448 C555.081928,416.673709 574.960663,411.079705 594.557628,408.046103 Z" id="Accent" fill="#35979C"/>
        <path d="M900.927956,40.4932795 L901.589801,42.3179665 C905.305894,52.62406 908.427578,64.1188311 906.944119,75.0463288 C906.309075,79.7327935 905.802786,85.1621491 904.548627,89.750899 L904.345439,90.4820979 C903.381842,93.8986456 903.203463,93.8789567 903.815179,97.4191325 C904.44965,101.099064 905.199313,103.367004 904.760645,107.092625 L904.517197,108.894947 C904.283544,110.564305 903.904913,113.008402 903.541742,113.439702 C901.293478,116.115316 900.987875,114.244997 898.188904,115.314336 C894.152407,116.856638 892.825928,118.205703 890.312725,121.357114 L889.339586,122.586077 C881.327243,132.724967 872.963023,142.895009 864.304352,152.52057 C849.637073,168.824417 834.240357,183.498282 817.848847,198.00759 L816.088796,199.561596 C799.353814,214.301648 781.858406,229.255821 762.862061,241.296369 C758.245701,244.222552 750.65662,246.789943 746.942233,250.629248 C742.93025,254.775057 748.869746,256.606328 753.035126,259.515537 L755.37922,261.189973 C762.97419,266.626291 770.653246,272.231952 777.253066,278.538669 C792.662448,293.264161 801.462864,314.959971 806.861382,334.662638 C809.477025,344.208903 810.156862,355.055522 811.096813,365.076532 L811.310865,367.288969 C812.558215,379.744779 811.01446,393.376103 807.084697,405.225101 C805.807521,409.076754 804.336749,412.8617 803.032476,416.705904 L802.395882,418.633527 C801.729663,420.712055 798.460734,427.164573 799.347809,429.56287 C800.813492,433.525366 810.444184,438.337693 813.806742,441.091925 L815.431746,442.427394 C819.497663,445.782852 823.559808,449.278608 826.958277,453.239191 C842.979667,471.908127 856.146524,491.479231 867.976353,512.872326 L872.765362,521.595551 C883.470499,541.144054 893.106221,559.579594 897.407627,581.942411 C898.670141,588.503954 899.79286,595.071655 901.119809,601.623351 C902.54553,608.672408 901.167479,618.841068 904.020938,625.280506 C905.785387,629.265269 909.08849,630.51911 907.74282,636.026967 C906.579444,640.789147 900.669061,649.244158 897.455891,652.99473 C890.14053,661.533922 876.786466,664.896644 866.241915,667.992255 C853.444699,671.749186 839.757015,673.481078 826.579854,675.617642 L823.307737,676.149749 C776.974586,683.707541 731.581253,692.176738 688.655369,711.45106 C690.132886,713.605847 691.326087,718.260646 688.326322,719.745007 C684.551196,721.612357 682.596788,716.457651 681.23571,713.71042 L681.014147,713.276457 C677.023802,705.748503 675.835102,696.013359 673.450742,687.764605 C667.636852,667.642364 663.221839,647.3096 658.486687,626.968183 C642.329002,630.369175 625.968705,632.175959 609.895208,635.329795 C602.481126,636.785057 594.967507,636.921264 587.501582,637.838754 C579.484795,638.824182 578.972461,641.346826 579.604809,648.998097 C580.999861,665.867234 587.73453,682.050925 591.577006,698.454816 C593.442013,706.411354 596.70366,713.986847 598.478138,721.905464 C599.054811,724.483705 598.429454,731.423962 600.24703,733.348174 C600.169463,733.265902 606.368732,734.496346 607.347213,734.7426 C606.821387,724.778024 607.986556,715.00107 607.489345,705.05545 L607.406325,703.490895 C606.845451,693.440733 605.687074,680.806694 607.868949,671.350613 C609.958316,662.301947 617.927759,652.734153 626.725214,648.915681 L627.680031,648.507529 C635.593555,645.177717 649.92881,640.448402 657.871864,645.183765 L658.110845,645.331276 C659.673639,646.325508 662.786347,648.847162 662.011296,650.823114 C660.907323,653.637551 648.659702,655.795438 646.17273,656.666586 C636.437116,660.077812 626.141905,666.055936 620.688245,674.723166 C615.953019,682.248084 617.6132,693.735751 617.882169,702.565895 L617.905618,703.518323 C617.997759,708.601317 618.655457,713.321526 618.040804,718.386233 L617.727821,720.975328 C617.124437,726.158042 617.099567,728.820394 619.460221,733.936598 L619.646546,734.335076 C623.081061,741.584073 620.959484,752.17737 610.671679,749.570175 C604.51934,748.010928 604.273118,744.654486 600.56833,741.002232 C599.166554,739.619569 597.591261,740.231763 596.21799,738.488684 C594.377957,736.152178 594.387353,730.981291 593.455703,728.031341 C590.47641,718.589548 586.257112,709.410889 583.105179,699.912378 C579.116513,687.892002 575.808659,675.732307 572.90065,663.442597 L571.779672,658.634691 C569.629627,649.286211 567.841707,639.866539 572.347475,630.783803 C576.703148,622.002124 587.372842,622.654951 596.220056,622.339284 C616.708291,621.608822 637.884491,617.167189 658.789132,616.094764 C660.293421,616.017336 663.43113,616.531854 664.779678,615.904662 C666.643467,615.039961 667.347,612.5234 669.758211,610.914964 C674.10944,608.010748 682.479645,606.896267 687.882059,605.986022 L688.803196,605.827188 C700.878051,603.683219 712.890409,601.942177 724.892543,599.706682 C738.692973,597.135929 752.364673,594.064226 766.179987,591.727037 C779.406365,589.489293 792.766454,589.06812 806.149142,587.546645 C784.9158,573.852297 766.216423,557.157968 745.78737,542.321383 C736.313381,535.441113 727.534946,528.672988 719.032874,520.718374 L717.106858,518.917691 C714.228028,516.221711 711.405176,513.528862 708.774722,510.574923 C707.07131,508.6607 705.565721,505.004396 703.398943,503.669 C700.675038,501.988727 697.569058,502.43797 693.977545,502.139237 C661.676156,501.376496 629.854215,506.437099 598.148063,512.008164 C570.102834,516.934662 542.263562,521.041098 514.834927,527.224467 L508.981876,528.54985 C455.654253,540.682924 402.377069,554.477527 352.880188,577.6184 L349.764903,579.07582 C338.347442,584.424815 327.00973,589.859734 316.477018,596.357169 L312.190488,598.99426 C307.422455,601.932389 302.662429,604.923372 298.164542,608.228189 L294.927078,610.590409 C292.764821,612.172739 290.615703,613.784319 288.60591,615.510456 C285.844394,617.881806 284.276543,621.154055 281.795976,623.4745 L281.542637,623.704196 C280.030815,625.043491 275.505899,628.630689 274.103546,629.0571 L273.423599,629.270719 C271.204854,629.987414 271.826094,629.944069 269.402172,628.225867 L268.926594,627.894807 C262.152888,623.26469 260.794668,617.093491 258.752917,609.669242 L258.608311,609.122533 C257.387468,604.321226 258.250579,602.71725 253.698126,602.889145 C251.295573,602.979922 247.680325,605.420777 245.454127,606.344741 C238.263393,609.330217 230.493154,611.707562 223.592096,615.269037 C218.013246,618.14682 213.548989,621.848905 211.159231,627.54897 L210.033499,630.264096 C207.750381,635.709644 205.511567,639.878814 198.135322,640.529143 C182.862835,641.874637 174.087558,626.650501 161.028853,621.527616 C147.061921,616.047524 129.236535,617.126119 114.48973,616.949832 C109.118842,616.885432 103.270231,617.402473 98.1472478,618.126228 C90.9082659,619.148736 82.3441765,623.079562 74.8310285,620.5806 C66.184329,617.704717 66.3144315,605.421678 72.0436274,600.075712 C78.0341054,594.488407 86.9227295,593.722483 94.5847501,591.86697 C110.073559,588.118099 124.161608,579.572397 139.972902,576.947244 C155.700229,574.336036 172.363832,573.768391 187.695752,569.009969 C195.117942,566.705385 202.340399,564.882912 209.409098,561.780903 L210.523937,561.280221 C219.773071,557.028031 229.734808,554.261761 238.870563,550.082879 C235.825201,544.733224 234.931001,539.757049 234.704163,533.826198 L234.684244,533.24922 C234.557072,529.120275 233.885323,529.116667 236.752118,527.387442 L238.455888,528.271033 L238.455888,528.271033 C240.257236,529.550264 241.540495,528.965747 242.30775,526.516698 C254.987944,518.82623 266.708044,510.564013 280.238327,503.883742 C301.943907,493.166595 324.867615,484.418978 346.673732,474.33844 L349.640146,472.955249 C392.741045,452.67919 440.745617,440.979717 486.088663,426.125724 C513.518284,417.13981 541.603925,409.77906 569.709163,403.151652 C574.088006,402.118811 578.454623,401.243947 582.888205,400.521075 L585.890921,400.04675 C592.830736,398.922143 591.271655,398.505132 595.309879,392.347956 C600.800337,383.97524 609.514516,375.041645 618.360099,369.854132 L618.895167,369.545961 C623.967169,366.677583 626.136454,366.900924 625.971515,360.134045 C625.842142,354.784563 624.374255,354.838078 619.999259,351.256869 C615.050851,347.205485 610.455148,342.709788 606.276649,337.9322 C601.507335,332.479684 599.370792,326.300391 595.380645,320.696362 C590.624435,314.016098 576.05058,315.04153 567.638728,313.940109 L567.28701,313.892277 C554.207008,312.046299 540.909539,310.725177 528.025506,307.873422 C502.006932,302.115091 475.85153,300.100666 449.508784,296.075297 C423.027678,292.028146 396.554707,288.337842 370.07154,284.671808 C360.564805,283.356196 350.935945,282.225387 341.481057,280.593983 C328.244664,278.309476 314.316028,278.077994 300.887094,275.941161 C293.973098,274.840772 285.505189,270.936318 278.549536,271.269408 L277.103932,271.343499 C272.016801,271.629778 277.393291,271.734433 272.849861,274.109523 C270.645978,275.262862 268.096568,276.294035 265.557119,276.427029 C261.556779,276.637378 257.524943,274.923968 255.077594,271.870445 C250.998094,266.780221 252.964993,262.879968 244.651641,262.237807 C239.178811,261.816094 232.792125,263.927381 227.230834,264.205362 C221.782047,264.477701 216.116382,265.268173 210.665097,265.107704 L209.231739,265.061872 C198.639785,264.695632 186.341979,263.62575 176.873037,259.168646 C166.382386,254.231726 157.019889,247.645732 145.98424,243.44792 C140.445973,241.340451 132.567417,240.446001 128.854634,235.351086 C125.755437,231.097609 124.796774,222.447126 129.549084,218.958956 C136.838693,213.609183 150.973332,221.705286 159.039471,219.682867 C163.163313,218.649114 159.758553,217.403799 162.877638,215.962781 C164.810463,215.070248 164.520443,214.936486 166.81322,214.612552 C172.324311,213.832219 181.264218,217.576401 187.034754,218.635583 L187.472279,218.711641 C198.812933,220.565126 210.055114,223.394208 221.386157,225.12685 L223.048158,225.363929 C225.031261,225.291002 226.986469,225.533225 228.919375,226.02978 L231.923403,226.323973 C234.928162,226.61892 237.932917,226.932936 240.917852,227.417275 C246.565317,228.334275 251.206434,230.546161 255.303635,226.010657 C257.032091,224.097646 256.5043,222.125627 259.273768,221.128224 C261.757666,220.234549 268.892884,221.516876 271.292754,222.437173 C273.914321,223.441706 274.499923,224.891353 276.608726,226.035867 C276.662194,228.204456 277.57317,228.853199 279.343742,227.981311 C280.992357,227.857477 282.634587,227.945023 284.270434,228.24395 C298.664114,228.30418 312.989612,223.838037 326.080994,218.564233 C347.775417,209.825599 374.711255,185.087805 399.59418,198.544021 C405.716443,201.854217 409.734012,207.375482 415.694871,210.961886 C420.989556,214.146452 427.762392,216.998717 433.716378,218.795131 C445.613588,222.384114 457.441242,221.935324 469.226843,218.2186 L470.812418,217.714351 C484.460232,213.341394 495.745159,208.958508 510.660131,209.460087 C525.00983,209.942283 536.462403,219.847644 550.517965,220.243138 C547.084095,214.728422 546.447631,208.392945 546.084778,202.136567 C545.848338,198.045483 548.132559,187.334801 545.65732,184.023349 C542.923817,180.365103 521.580442,178.885871 533.483859,168.147711 C537.379909,164.63108 544.572384,165.904868 548.601348,162.02244 C552.667807,158.103613 552.747789,151.97598 554.91649,147.084009 C557.188718,141.959228 560.826594,137.659998 564.645389,133.544903 L566.443341,131.624367 C567.733795,130.237817 568.683842,129.106527 569.507358,127.254668 C570.66796,124.64648 569.895107,122.44205 571.749159,119.693237 C577.397646,111.324256 586.838412,113.132492 595.611408,114.474433 C600.596175,114.781484 607.633402,114.742694 612.823419,115.733004 C614.191587,115.897258 615.519016,116.135157 616.776366,116.488603 C621.271324,117.752845 627.116866,121.584648 630.773995,124.397555 C638.830523,130.59348 640.703242,142.025918 641.323644,151.393918 C641.666053,156.555507 640.740392,161.437276 640.557271,166.549963 L640.532128,167.511422 C640.439368,173.231478 637.956303,175.822677 633.490073,179.616527 C633.406821,178.561159 632.890552,177.853076 631.940264,177.492189 C629.995286,179.884654 630.493812,180.818609 633.43676,180.295101 C633.54875,181.72557 634.059921,183.01096 634.968102,184.153016 C637.400804,186.854929 639.496836,189.84094 641.866329,192.596356 C647.049841,198.620281 653.097194,203.84783 657.086446,210.684707 C661.268051,205.81884 666.591293,205.020669 671.580296,201.664499 C676.433124,198.399965 672.808709,197.427697 674.609093,192.708668 C675.331535,190.817966 677.226558,190.484395 677.893499,189.020458 C678.524592,187.631774 677.755544,186.756411 678.145275,185.231447 C680.087302,177.659273 679.280782,172.967658 685.328968,167.032169 C693.418296,159.092958 703.386232,156.994017 714.507289,155.486614 L717.524155,155.087926 C727.084841,153.848741 734.397947,153.038086 743.343498,149.062515 C746.765163,147.542483 750.001566,146.848194 753.252515,145.122578 C757.645442,142.789439 761.736744,140.328297 765.554211,137.179314 C774.426757,129.861217 779.944581,119.664733 787.118714,110.871246 L788.902416,108.685989 C794.300626,102.120649 800.838087,95.0123895 810.154768,96.6824665 C821.766216,98.7648521 832.019218,105.746444 844.315628,102.266804 L845.837459,101.815356 C849.47922,100.767181 849.174786,101.212246 850.88497,97.0329344 C851.498855,95.5295167 851.895757,94.0148574 852.493269,92.5371045 C854.731034,87.0056802 859.01675,86.3131926 861.675204,81.8095599 C867.948578,71.1778784 871.386104,57.9193384 874.958979,46.2510562 C876.618732,40.8326139 879.834215,36.1328718 881.794368,30.9371663 C882.61312,28.7645625 882.241687,19.0883385 884.786232,18.2396471 C892.66513,15.6141126 899.101154,35.3165043 900.927956,40.4932795 L900.927956,40.4932795 Z M561.299413,414.672574 C539.390399,419.947775 517.937784,427.43623 496.63312,434.611013 L494.351029,435.378424 C456.061848,448.234663 418.075928,460.000638 380.753735,475.322167 L363.086709,482.57497 C323.050417,499.031632 283.129018,515.717928 244.422507,534.963482 C254.028401,548.698322 261.473543,561.213457 266.898987,577.009697 C267.942221,580.04675 268.885229,583.128024 269.728772,586.246752 L270.143812,587.815212 C272.479374,596.840241 273.9896,606.167044 274.692672,615.633552 C279.861078,610.492077 283.808904,604.376701 289.025168,599.172638 C294.924854,593.285126 301.85219,588.754319 308.793012,584.138562 C321.357843,575.782828 334.235926,568.218062 348.094924,561.863652 C376.876107,548.666761 407.305855,539.227709 437.746835,529.843722 L448.235284,526.608392 C455.310281,524.434247 463.323722,522.075901 470.454889,520.898123 C477.090764,519.802526 482.985689,517.87951 489.741122,516.282429 C505.060185,512.662904 520.54991,509.341863 536.001666,506.720094 L553.881089,503.675845 C576.604152,499.814502 599.584497,496.018374 622.471674,493.260234 L626.084614,492.833506 C646.494527,490.472291 667.794717,486.643452 688.764701,488.688092 C692.308699,489.033959 695.779379,489.733418 699.348184,489.622736 C700.342852,489.591692 701.526151,488.119704 702.555627,488.221385 C704.536549,488.416951 706.657656,490.631917 708.678614,491.292608 C713.242457,492.784493 719.869553,491.858454 722.355295,495.615027 C724.346407,498.623795 723.617165,501.00746 720.652491,502.990384 C724.21989,507.520957 731.201924,511.696066 735.985207,515.258801 C740.283312,518.461663 744.337076,521.908314 748.67247,524.996372 C753.328959,528.312849 758.971445,531.443648 763.847972,534.828731 C770.209606,539.243761 775.645295,544.899741 781.654085,549.852944 C789.266739,556.128101 796.898692,561.832087 804.726881,567.575366 L814.627123,574.81909 C820.387262,579.042878 825.894113,583.035336 832.065084,586.551576 L833.65769,587.445628 C837.466289,589.624797 844.945113,594.90008 840.804572,599.707482 C836.512817,604.690489 827.905993,597.321882 823.217647,596.791703 C817.82196,596.180284 810.545121,599.550169 805.162962,600.34125 C790.921072,602.433051 776.633597,604.273116 762.387018,606.533864 C746.124577,609.11374 730.033275,612.59796 713.694979,614.741514 C705.256826,615.848789 696.821032,616.917561 688.337263,617.681162 C683.961588,618.075451 677.777047,617.48405 673.665926,618.87989 C670.555237,617.975793 669.201447,618.858983 669.60539,621.53147 C668.843352,622.779018 667.755294,623.658359 666.340132,624.170367 C662.160217,625.891162 667.80498,635.76648 669.010437,639.877502 C670.822247,646.054514 672.534894,652.25769 674.362146,658.431214 C678.229959,671.500486 681.875158,684.622864 685.544729,697.743502 C709.73304,684.617486 735.613899,677.105457 762.47683,670.825176 C787.257403,665.031577 812.52991,660.784431 837.846196,656.787688 L843.922716,655.832614 C858.865631,653.490527 874.540225,650.294049 888.37695,644.20576 C896.653072,640.564323 895.411342,637.192733 895.179914,629.479477 L895.157879,628.545486 C895.032211,621.114676 893.921975,613.548524 892.783503,606.16794 L891.925076,600.628791 C889.81348,587.111229 887.330578,572.782749 881.952105,560.270172 C876.159076,546.795365 868.40849,533.838338 860.955608,521.146394 C852.111632,506.084638 844.579711,489.867004 833.039801,476.496195 C821.014332,462.56225 808.108705,449.922617 795.064566,436.951505 L794.345636,438.305941 C786.579126,452.838833 775.679511,469.998408 761.714851,479.036556 C745.871012,489.288681 720.947067,494.55987 702.930424,485.978972 C685.242385,477.555105 674.604125,460.499055 663.613814,445.336769 L661.717887,442.730393 C651.252225,428.252775 641.788226,412.994442 623.104522,407.852173 C602.692477,402.233053 581.200416,409.881306 561.299413,414.672574 Z M247.737659,554.822594 L243.417189,557.648862 C223.732027,570.461673 200.827695,584.267486 177.214767,587.55941 L176.339895,587.676504 C166.529071,588.934944 156.851972,591.08634 147.223326,592.076312 L145.418502,592.247819 C140.35661,592.688526 136.209086,593.969889 131.750153,596.146282 C126.756937,598.581744 118.497863,599.441456 114.902139,603.446951 C126.363421,603.36998 137.572858,604.600039 148.865307,605.674838 L149.122255,605.576448 C150.927969,604.944235 152.632083,605.481443 154.322607,606.174418 L154.897231,606.225087 L154.897231,606.225087 L156.973752,607.262253 C162.477917,610.019254 167.720262,612.742219 172.796402,616.29864 C178.477527,620.27961 184.537785,626.974444 191.730253,628.259845 C200.213033,629.776899 202.345422,625.457112 204.444276,619.015742 L204.532958,618.742319 C206.925397,611.327618 209.114896,607.962656 215.914852,603.895875 C227.197217,597.149343 240.290827,592.560114 252.720165,587.745047 L257.366794,585.936538 C260.301226,584.769073 260.352823,584.312776 259.116571,580.079861 C258.218212,577.003145 257.121442,573.979716 255.942947,570.990751 L255.393869,569.605985 C253.360193,564.509357 251.077699,559.233676 247.737659,554.822594 Z M859.591192,109.63227 C852.735162,110.856672 846.643551,115.708342 839.414629,116.512049 C832.593212,117.270902 825.962849,115.867651 819.618353,113.766722 L819.005265,113.561278 C811.308075,110.951373 806.0972,107.593169 799.639313,114.105405 C789.263504,124.568819 783.553416,139.108241 772.660751,149.008684 C761.652852,159.015176 746.245179,164.858604 731.912107,167.877283 C718.797215,170.638581 700.669816,169.381216 690.859805,179.433704 L689.240913,181.146828 C687.616499,182.891084 686.346857,184.523675 686.247118,187.333841 L686.230196,187.942614 C686.125945,193.282055 687.513674,189.237509 689.452156,192.972732 C692.723655,199.270676 694.00293,207.128548 694.741094,214.089387 L694.837525,215.051902 C696.142694,228.875399 694.092817,243.828283 683.061631,253.31767 C670.90325,263.775132 655.864811,268.177932 639.78718,267.872633 C628.53908,267.15275 618.490345,264.465824 608.540273,259.347807 C603.015976,256.507031 598.996461,252.428768 595.283997,247.717187 L593.531617,245.452399 C591.981881,243.479131 591.658429,243.483912 587.902965,242.439415 C584.470658,241.485889 580.250053,241.872454 576.725641,241.42959 C564.927754,239.946432 553.168659,236.370501 541.947119,232.648047 C529.35355,228.471679 518.506262,222.58225 504.672595,222.926183 C480.920992,223.517269 461.655663,241.492782 436.87858,233.943355 L435.323774,233.462097 C425.981993,230.523073 416.447872,226.634422 408.915357,220.550557 L406.782223,218.834471 C397.648394,211.539961 391.268946,207.460114 377.727442,210.209569 C365.996126,212.590694 356.995956,218.80696 346.945506,224.536492 C335.49099,231.066428 322.991042,234.978079 310.218795,238.426543 C305.215537,239.777235 300.58158,240.563129 295.33944,240.82645 C292.219695,240.983193 277.440313,238.734018 275.614154,240.322024 C273.884825,241.826182 273.078799,252.018844 273.222512,254.258122 L273.232975,254.390093 C273.501362,257.149207 272.499344,257.793259 274.356906,258.771228 L278.341102,259.039587 L278.341102,259.039587 C277.754617,259.337989 277.175938,259.511254 276.604444,259.570364 C279.639347,260.048525 285.708791,259.339557 288.329228,259.638014 C312.210234,262.366052 336.67624,263.182655 360.174524,267.297882 C382.259597,271.164627 404.424307,274.294133 426.261199,278.829178 C454.666999,284.729589 483.596639,287.42222 512.017739,293.136224 C525.75635,295.897258 539.611135,299.787186 553.187648,302.728558 C565.551091,305.406055 577.972734,307.891221 590.406596,310.317455 L590.323342,310.028753 C589.708995,308.003715 587.573181,302.413615 591.492387,302.958763 C594.106488,303.321985 598.493459,312.34886 599.871817,314.379809 C606.218436,323.730068 612.977081,330.827623 621.610819,338.269231 C630.312124,345.769009 639.073731,353.190835 647.90623,360.552089 L648.410703,360.966625 C655.817372,366.973508 670.612183,375.773115 670.221319,386.034521 C665.826104,386.871303 657.100348,379.085832 653.809517,376.976597 C647.151605,372.70694 640.768328,368.054851 634.560266,363.199378 C628.719768,371.74373 642.562906,381.649203 644.135403,389.73112 C640.575002,389.74576 634.629745,379.948671 632.469303,377.352838 C626.729757,382.701769 620.28862,387.419309 616.15683,394.137956 C662.465056,392.162192 670.057184,449.595215 703.483973,469.063537 C710.889891,473.376377 720.169095,475.158866 728.635756,473.264392 C737.456407,471.291532 745.933357,468.506652 753.693367,463.524169 C770.823419,452.523445 783.4305,431.491882 790.269061,413.262412 L790.505274,412.627657 C794.249757,402.481191 797.783738,392.653089 799.478727,381.976019 C801.354662,370.153467 799.590616,358.136332 798.063285,346.354749 C795.342687,325.363115 784.185291,304.171432 768.382494,289.156032 C761.299982,282.426924 753.563834,276.536776 747.078159,269.191162 C744.815046,266.626993 739.649631,256.809097 736.810343,256.19391 C731.577457,255.059628 728.876349,262.403775 725.254826,256.392633 C721.708923,250.509077 728.473031,248.213065 732.590872,245.471658 C737.033491,242.512855 741.34317,239.401129 745.685217,236.311589 L749.969775,233.263034 C757.096131,228.186896 764.143221,223.111664 771.015137,217.691799 C811.222379,185.980111 846.766398,150.625223 882.773592,114.589876 C876.032062,112.994566 866.445135,108.408652 859.591192,109.63227 Z M747.151707,317.652632 C751.483452,319.509394 754.557909,325.203977 753.229922,329.653122 C751.933747,333.993301 744.456181,337.061494 740.93869,339.671749 L741.527468,339.76665 C745.941887,340.511535 748.086561,341.695855 749.334326,346.169048 C749.937789,348.334477 748.196221,352.406411 748.782596,353.771726 C749.563731,355.584698 750.730216,354.625138 752.091705,356.344381 C757.067944,362.629224 759.665287,375.143063 749.950066,379.480746 C746.310374,375.049762 747.576731,369.904501 750.071461,365.326228 L747.824377,364.818338 C744.014486,363.939554 741.855931,363.124862 740.484681,358.681366 C740.290655,358.051699 739.897125,350.338384 739.736565,350.171164 C738.651839,349.038732 734.260125,350.182384 732.755274,349.337846 C729.430079,347.46992 727.860404,341.220118 728.696648,337.703828 C729.84998,332.855025 734.975085,330.377711 738.870763,327.657967 C726.370947,327.965089 714.878762,337.404324 702.377892,338.036005 C698.903348,338.210808 698.029789,339.757631 696.82341,335.837209 C695.802706,332.516466 696.808409,332.772953 698.948313,331.302641 L699.269463,331.074531 C703.943154,327.645428 711.113124,325.384588 716.632062,323.429186 L717.709633,323.038035 C725.840164,320.028068 738.849111,314.092735 747.151707,317.652632 Z M671.452561,318.711547 C672.08922,323.396612 667.213852,339.748994 660.639075,334.812989 C658.188675,332.97366 656.812176,327.946625 655.209178,325.404579 C653.013482,321.924081 649.939913,318.605516 648.27322,314.863253 C644.74528,306.935255 651.07144,303.362821 658.570815,303.342191 C666.273472,302.729991 670.656301,312.837127 671.452561,318.711547 Z M700.813206,316.461378 L700.879512,316.66341 C702.827938,322.754446 700.750779,321.912511 696.278179,324.168816 C692.405621,326.122345 687.370762,330.655674 682.344168,329.282707 C677.747671,328.026749 676.329431,320.664586 676.349833,316.828067 C676.382151,310.914196 679.938157,309.010416 682.094919,304.293049 C676.949357,303.57085 671.394368,310.29486 670.210087,302.780854 C669.517371,298.377593 673.640185,292.738342 678.488209,292.060852 C686.859061,290.891809 698.529858,309.672139 700.813206,316.461378 L700.813206,316.461378 Z M657.546179,315.504144 L661.480336,324.68928 L661.480336,324.68928 L662.02151,323.538382 C664.235903,318.740384 665.856675,313.755241 657.546179,315.504144 Z M716.185018,272.129424 C723.404409,278.800134 723.826996,292.430245 725.753628,301.702737 L726.159776,303.583825 C726.792706,306.608047 727.455758,311.039477 724.826611,312.6684 C721.330487,314.83328 710.651222,305.772406 708.291259,304.269994 L708.399874,304.577528 C709.479556,307.475297 714.494899,317.760801 709.701582,317.735483 C706.930587,317.720853 701.706327,301.680754 700.95947,299.847431 C699.935079,297.329359 697.777814,293.856543 698.157733,291.003713 L698.362822,289.488019 C698.800794,286.431698 698.942485,287.692782 701.882564,288.164725 C708.399272,289.21267 713.785355,299.130428 719.943416,301.644827 L719.655114,300.589075 C717.117854,291.40818 713.664114,281.438801 716.185018,272.129424 Z M688.674635,311.161001 L684.343811,316.260277 C686.53617,316.750242 689.513819,314.889763 691.447333,314.107334 L688.674635,311.161001 L688.674635,311.161001 Z M745.94321,275.046894 L746.312175,275.634868 C749.623716,281.035016 750.955088,286.717252 747.221544,292.395985 C749.38235,292.219098 751.63922,291.95665 753.800581,292.004782 C754.863316,291.618594 755.880599,291.735871 756.854103,292.339227 C759.00238,292.80822 760.938269,293.843912 762.432833,295.91959 C767.437993,302.871125 762.612094,305.307797 756.833772,305.835381 L756.218781,305.884223 C751.368904,306.213837 741.742979,309.34532 737.49215,306.075285 C730.505229,300.700496 737.457987,290.525543 740.150311,285.377728 L737.723833,285.485055 C732.605083,285.694247 724.799969,285.564919 726.439243,278.519854 C727.832594,272.530703 741.583841,274.04662 745.94321,275.046894 Z M265.557312,255.605691 C263.404596,255.897362 258.471092,255.297346 257.959534,257.776508 L257.917621,259.743119 C257.888845,262.541529 258.229306,264.845188 261.913938,265.115507 C267.900941,265.554139 265.937025,259.454789 265.557312,255.605691 Z M628.146012,258.358198 C633.992065,260.477111 646.443017,261.946757 652.358193,259.930673 L651.001897,254.74095 L651.001897,254.74095 C646.19645,255.64152 641.340777,255.524452 636.47639,255.184036 L635.953474,255.142608 C630.940258,254.70023 629.680926,253.308751 628.146012,258.358198 Z M284.346361,259.241446 L280.35888,258.923705 C281.740849,258.359003 283.097572,258.118333 284.346361,259.241446 Z M656.78172,253.406907 C651.868861,262.225002 668.748175,256.331291 671.92445,254.005905 L671.465123,253.664548 C667.634432,250.894684 660.165066,247.333348 656.78172,253.406907 Z M610.929329,247.911767 C607.753065,251.067492 622.494944,257.747662 624.01514,255.608362 C627.331838,250.939733 613.07303,248.611262 610.929329,247.911767 Z M157.021842,232.040774 C166.789272,237.077972 176.057582,245.155753 186.257854,248.163685 C195.876777,250.999785 205.57951,251.96673 215.711325,252.043134 C223.619964,251.992671 231.472484,252.392265 239.376281,252.427529 L242.342818,252.422084 C245.772367,252.392125 248.723944,253.084878 250.111743,250.717216 C251.807979,247.82298 251.026269,240.264128 251.316155,236.950718 C240.914068,237.783589 231.368513,238.04203 220.984647,237.132591 C209.862634,236.159541 199.068239,232.987371 187.904079,232.299993 C190.283345,233.202036 193.006093,238.113558 191.454871,240.503698 C189.945599,242.827423 187.503885,240.832679 185.112146,239.734852 L184.941405,239.658032 C175.496773,235.498768 167.630497,229.354328 157.021842,232.040774 Z M260.306395,246.280647 C258.217275,247.137246 258.778527,249.118966 258.525528,252.010757 L259.644049,251.967375 C264.748583,251.804051 265.591678,252.170465 267.06813,246.872222 C265.306594,246.718107 261.800901,245.669127 260.306395,246.280647 Z M236.798448,251.978334 L228.818955,251.394654 C230.974441,250.771144 234.574296,251.034896 236.798448,251.978334 Z M196.825853,249.918655 L199.254969,250.119998 C201.45066,250.307078 203.575182,250.548896 205.744629,251.240005 C202.846009,251.018531 199.416209,251.35388 196.825853,249.918655 Z M681.313644,230.782389 C679.630518,234.230363 675.986087,238.746445 675.004419,242.342887 L674.870186,242.808546 C674.249045,244.838266 674.037337,243.802511 674.603325,245.727859 C674.81863,246.461871 677.777814,249.535979 678.296066,250.279075 L678.999911,249.751433 C682.438084,247.194135 686.341081,244.509514 688.06226,240.589762 C691.007524,233.880536 687.219943,233.343032 681.313644,230.782389 Z M570.656423,132.736912 C566.926193,135.846107 561.919566,144.317281 560.72496,148.825111 L561.317901,148.744019 C565.292058,148.229716 573.232913,147.77873 574.212415,151.78095 C575.5372,157.192436 564.612681,154.042753 561.246472,154.928915 C556.134638,156.274946 557.702017,157.760164 555.848442,162.810352 C554.02187,167.782579 550.744302,171.761714 545.558686,173.824208 L546.130531,174.129011 C551.241463,176.829685 552.764606,177.050999 551.856779,182.042404 L551.748156,182.606192 C550.605793,188.247 551.360182,194.584085 551.917895,200.86235 C555.347588,199.458184 559.0432,199.005364 562.725409,198.636535 C563.442042,203.190606 556.286318,205.11848 552.599997,205.384367 L552.937996,206.422067 C554.568505,211.355099 555.014225,211.188239 561.227201,211.170533 C564.93457,211.160041 568.654576,210.947425 572.353532,210.767806 C579.88523,210.401887 587.193671,209.058353 594.622203,207.864682 C597.457367,207.408198 601.472852,205.859794 604.295378,206.170605 L604.792354,206.227589 C609.401892,206.780859 608.434767,207.444772 607.608389,211.705715 C606.449804,217.681885 607.755418,222.205225 609.255665,228.690792 C600.401406,225.672877 607.5129,234.908116 611.690844,236.808506 L612.970989,237.385809 C620.950321,240.952409 630.461536,244.582455 639.143589,245.05558 C639.5506,245.263249 639.978177,245.44727 640.424088,245.608854 L645.870294,246.067033 C645.208421,246.224633 644.550183,246.3398 643.896652,246.399033 C652.664838,247.433783 665.122507,242.925171 670.600856,238.661435 C679.552899,231.691912 680.259938,219.56193 678.826111,209.422107 L661.0105,213.733874 L661.0105,213.733874 C661.171624,215.202514 660.93054,216.574029 660.28733,217.847457 C656.781169,222.340387 654.889672,220.820926 651.485711,217.334289 L650.205039,216.016966 C641.088779,206.68569 632.99975,196.166841 629.282603,183.763021 C625.201561,188.530207 620.60275,191.638592 614.139255,191.124958 L613.74119,191.088969 C610.817421,190.793494 599.603839,187.303031 602.498589,182.186189 C603.40196,180.588759 612.201765,182.532994 615.415677,182.460226 L617.435885,182.362413 C622.477691,182.098038 625.109604,181.660475 627.187474,176.554333 L627.30675,176.254536 C629.251345,171.259731 628.564114,169.206988 622.567293,168.292327 C614.953458,167.128774 614.735467,171.650432 609.309709,173.770304 C595.534574,179.154614 604.941327,157.71428 602.975205,151.674738 C609.746068,149.670612 616.894215,148.279182 622.882397,144.459774 C616.247554,145.220615 609.939423,147.437487 603.513639,149.04986 C604.061118,141.142771 619.748588,139.460029 625.615886,136.976199 C619.276763,136.133205 613.251651,140.305518 606.888983,140.043056 C600.943595,139.797746 592.606884,137.30028 586.871035,135.39811 C580.973309,133.443067 576.346955,127.994348 570.656423,132.736912 Z M597.905416,230.649442 L596.882129,231.21884 C594.184958,232.691101 594.120928,232.603262 595.470187,235.76197 C596.766832,238.796111 601.280497,241.876539 603.869345,243.877906 C604.353686,243.393819 598.642353,232.480077 597.905416,230.649442 Z M264.133639,235.47657 C263.542477,235.670661 259.903468,239.76721 259.146182,240.879688 L268.103593,242.487891 L268.103593,242.487891 L268.488249,240.532273 C269.088741,237.318607 269.324293,233.77438 264.133639,235.47657 Z M599.560965,216.663053 C587.341083,220.464687 572.331837,224.187771 559.397037,223.056123 C559.226725,224.162856 581.334646,230.605842 583.977779,230.141267 C586.679338,229.666319 586.893626,225.902093 590.130054,223.892621 C593.698265,221.677978 596.644548,222.996409 600.589135,222.650535 L599.560965,216.663053 L599.560965,216.663053 Z M684.10969,214.313797 C683.386678,214.907651 683.055752,223.55757 683.276415,223.83817 C684.201768,225.014633 689.037343,225.811246 690.356044,226.263398 C690.405808,224.102873 691.291119,219.312495 690.445835,217.232376 L690.376098,217.067088 C689.698019,215.514602 687.383769,211.624415 684.10969,214.313797 Z M682.805537,198.41263 C678.93029,198.923284 683.301196,208.583603 683.851321,210.611769 L689.200191,210.085845 L689.200191,210.085845 L688.783564,208.282319 C687.902285,204.569935 686.057027,197.984183 682.805537,198.41263 Z M608.194068,206.286021 L604.208854,205.942379 L604.208854,205.942379 C605.609896,205.218735 606.94104,205.294038 608.194068,206.286021 Z M621.242938,172.736403 C625.074396,177.330086 613.522167,178.46465 610.623564,178.573127 C610.726021,175.084649 617.424972,168.157491 621.242938,172.736403 Z M562.465081,162.358879 C564.351235,162.819466 564.609715,165.663246 567.228394,165.769606 C569.824927,165.875992 571.100127,163.644605 572.932286,162.22591 C579.421371,166.883487 565.059359,184.326402 559.368866,170.18424 C557.780686,166.237259 558.275968,161.33545 562.465081,162.358879 Z M889.924401,100.491991 L889.308798,104.621759 C895.320236,105.657701 895.496556,102.027576 889.924401,100.491991 Z M878.47845,95.9089208 L877.554246,102.539479 L877.554246,102.539479 L877.95215,102.62332 C880.733244,103.245617 883.409494,104.53651 884.976768,101.772065 C887.383695,97.5251411 881.629573,97.1697879 878.47845,95.9089208 Z M867.340596,95.4744949 C865.82861,97.1393434 865.682444,100.159515 866.994366,101.208182 C872.68225,105.757818 873.579167,96.7170863 874.044784,94.1632581 L873.541174,94.0964224 C870.234133,93.627966 869.609831,92.973067 867.340596,95.4744949 Z M857.80679,97.7440011 C861.383837,103.179305 863.012699,96.0839359 863.766673,93.3714612 C860.544029,92.2475653 855.272613,93.895125 857.80679,97.7440011 Z M888.496708,32.4729176 C886.656405,44.8685972 890.635531,57.8305087 890.3513,70.3642626 L890.334419,70.9112295 C889.994742,79.5634154 886.55802,74.5002509 885.325964,67.9765019 C884.175589,61.8863908 884.301568,55.8789135 882.733719,49.8200213 C879.856369,54.7264463 879.186027,61.3850208 877.155054,66.8019539 C874.594708,73.6329227 870.97282,79.829073 867.322894,86.1611599 C870.407599,86.8316893 873.476926,87.5395836 876.547408,88.2688697 C877.547814,88.4556462 878.767916,88.8298718 880.10072,89.2681499 L882.858892,90.185149 C886.688122,91.4366984 890.817031,92.5641409 893.211769,91.2220015 C897.875749,88.6075849 896.991266,78.1418493 897.123803,73.8000994 L897.280321,69.9087545 C897.748298,57.4778995 897.710621,41.9683134 888.496708,32.4729176 Z" id="Ink" fill="#685563"/>
    </g>
</svg>
