<svg width="70" height="70" viewBox="0 0 70 70" fill="none" xmlns="http://www.w3.org/2000/svg">
<path d="M28 42C28 34.268 34.268 28 42 28C49.732 28 56 34.268 56 42V53.9259C56 55.0714 55.0714 56 53.9259 56H42C34.268 56 28 49.732 28 42Z" fill="var(--o-icons-orange-100, #FBA82E)"/>
<path d="M14 28.5C14 20.4919 20.4919 14 28.5 14H29C36.732 14 43 20.268 43 28C43 35.732 36.732 42 29 42H16.0741C14.9286 42 14 41.0714 14 39.9259V28.5Z" fill="var(--o-icons-red-300, #D61A1A)"/>
<path d="M43 28.0352C42.981 35.751 36.7203 42 29 42H28C28 34.268 34.268 28 42 28C42.3362 28 42.6697 28.0119 43 28.0352Z" fill="var(--o-icons-purple-300, #82209C)"/>
</svg>
