<svg width="70" height="70" viewBox="0 0 70 70" fill="none" xmlns="http://www.w3.org/2000/svg">
<path d="M35 14L53.1716 32.1716C54.7337 33.7337 54.7337 36.2663 53.1716 37.8284L35 56L16.8284 37.8284C15.2663 36.2663 15.2663 33.7337 16.8284 32.1716L35 14Z" fill="var(--o-icons-orange-200, #FC803D)"/>
<g style="mix-blend-mode:multiply">
<path d="M49.8492 20.1504L49.8492 45.8489C49.8492 48.058 48.0584 49.8489 45.8492 49.8489L20.1508 49.8489L20.1508 24.1504C20.1508 21.9413 21.9416 20.1504 24.1508 20.1504L49.8492 20.1504Z" fill="var(--o-icons-purple-300, #82209C)"/>
</g>
<path d="M20.1508 28.8492L28.8496 20.1504L41.1504 20.1504L49.8492 28.8492L49.8492 41.1508L41.1511 49.8489L28.8489 49.8489L20.1508 41.1508V28.8492Z" fill="var(--o-icons-orange-100, #FBA82E)"/>
</svg>
