<svg width="50" height="50" viewBox="0 0 50 50" fill="none" xmlns="http://www.w3.org/2000/svg">
<path d="M15 15.5C15 19.6421 11.6421 23 7.5 23C3.35786 23 0 19.6421 0 15.5C0 11.3579 3.35786 8 7.5 8C11.6421 8 15 11.3579 15 15.5Z" fill="var(--o-icons-cyan-cyan, #03AAE9)"/>
<path d="M15 15.5C15 19.6421 11.6421 23 7.5 23C3.35786 23 0 19.6421 0 15.5C0 11.3579 3.35786 8 7.5 8C11.6421 8 15 11.3579 15 15.5Z" fill="url(#white_gradient_1)" fill-opacity="0.3"/>
<path d="M19 12C19 9.79086 20.7909 8 23 8H50V19C50 21.2091 48.2091 23 46 23H19V12Z" fill="var(--o-icons-cyan-pure, #1BD4F9)"/>
<path d="M19 12C19 9.79086 20.7909 8 23 8H50V19C50 21.2091 48.2091 23 46 23H19V12Z" fill="url(#white_gradient_2)" fill-opacity="0.3"/>
<path d="M0 34.5C1.08635e-06 30.3579 3.35787 27 7.5 27C11.6421 27 15 30.3579 15 34.5C15 38.6421 11.6421 42 7.5 42C3.35786 42 -1.08635e-06 38.6421 0 34.5Z" fill="var(--o-icons-magenta-magenta, #FF2A62)"/>
<path d="M0 34.5C1.08635e-06 30.3579 3.35787 27 7.5 27C11.6421 27 15 30.3579 15 34.5C15 38.6421 11.6421 42 7.5 42C3.35786 42 -1.08635e-06 38.6421 0 34.5Z" fill="url(#white_gradient_3)" fill-opacity="0.3"/>
<path d="M19 42L38 42C40.2091 42 42 40.2091 42 38L42 27L23 27C20.7909 27 19 28.7909 19 31L19 42Z" fill="var(--o-icons-magenta-pure, #FF689E)"/>
<path d="M19 42L38 42C40.2091 42 42 40.2091 42 38L42 27L23 27C20.7909 27 19 28.7909 19 31L19 42Z" fill="url(#white_gradient_4)" fill-opacity="0.4"/>
<defs>
<linearGradient id="white_gradient_1" x1="0" y1="8" x2="17.6471" y2="12.4118" gradientUnits="userSpaceOnUse">
<stop stop-color="white"/>
<stop offset="1" stop-color="white" stop-opacity="0"/>
</linearGradient>
<linearGradient id="white_gradient_2" x1="19" y1="8" x2="49.5854" y2="23.8025" gradientUnits="userSpaceOnUse">
<stop stop-color="white"/>
<stop offset="1" stop-color="white" stop-opacity="0"/>
</linearGradient>
<linearGradient id="white_gradient_3" x1="0" y1="27" x2="17.6471" y2="31.4118" gradientUnits="userSpaceOnUse">
<stop stop-color="white"/>
<stop offset="1" stop-color="white" stop-opacity="0"/>
</linearGradient>
<linearGradient id="white_gradient_4" x1="19" y1="42" x2="44.0666" y2="32.3911" gradientUnits="userSpaceOnUse">
<stop stop-color="white"/>
<stop offset="1" stop-color="white" stop-opacity="0"/>
</linearGradient>
</defs>
</svg>
