<svg xmlns="http://www.w3.org/2000/svg" xmlns:xlink="http://www.w3.org/1999/xlink" viewBox="0 0 800 1130" width="800" height="1130" data-forced-size="true">
    <style>
        image {
            width: calc(100% - 66px);
        }
    </style>
    <defs>
        <radialGradient id="gradient_01" cx="396.94" cy="847.32" r="1240.76" gradientTransform="translate(1322.37 450.38) rotate(90) scale(1 1.09)" gradientUnits="userSpaceOnUse">
            <stop offset="0.11" stop-color="#5c5c5c"/>
            <stop offset="0.11" stop-color="#454545"/>
            <stop offset="0.12"/>
            <stop offset="0.13" stop-color="#464646"/>
            <stop offset="0.24" stop-color="#636161"/>
            <stop offset="0.37" stop-color="#606060"/>
            <stop offset="0.38"/>
            <stop offset="0.39" stop-color="#aaa"/>
            <stop offset="0.44" stop-color="#6d6d6d"/>
            <stop offset="0.5" stop-color="#7a7a7a"/>
            <stop offset="0.59" stop-color="#7c7c7c"/>
            <stop offset="0.62" stop-color="#545454"/>
            <stop offset="0.62"/>
            <stop offset="0.63" stop-color="#505050"/>
            <stop offset="0.84" stop-color="#444"/>
            <stop offset="0.87" stop-color="#343434"/>
            <stop offset="0.88"/>
            <stop offset="0.89" stop-color="#252527"/>
            <stop offset="0.97" stop-color="#363636"/>
        </radialGradient>
        <radialGradient id="gradient_02" cx="618.92" cy="215.32" r="0.68" gradientTransform="matrix(33.12, 47.69, 47.7, -33.11, -30386.77, -22337.26)" gradientUnits="userSpaceOnUse">
            <stop offset="0" stop-color="#121212"/>
            <stop offset="1" stop-color="#090909"/>
        </radialGradient>
        <radialGradient id="gradient_03" cx="674.84" cy="213.66" r="0.68" gradientTransform="matrix(-11.81, 10.64, 10.64, 11.81, 6095.05, -9641.04)" gradientUnits="userSpaceOnUse">
            <stop offset="0.21" stop-color="#191919"/>
            <stop offset="0.27" stop-color="#3c5052"/>
            <stop offset="0.4" stop-color="#2e5457"/>
            <stop offset="0.52" stop-color="#72a9b7"/>
            <stop offset="0.71" stop-color="#4a6861"/>
            <stop offset="0.92" stop-color="#191919"/>
        </radialGradient>
        <radialGradient id="gradient_04" cx="674.84" cy="213.66" r="0.68" gradientTransform="matrix(-11.81, 10.64, 10.64, 11.81, 6095.05, -9641.04)" gradientUnits="userSpaceOnUse">
            <stop offset="0.41" stop-opacity="0"/>
            <stop offset="0.51"/>
            <stop offset="0.82" stop-opacity="0"/>
        </radialGradient>
        <radialGradient id="gradient_05" cx="674.84" cy="213.66" r="0.68" gradientTransform="matrix(-11.81, 10.64, 10.64, 11.81, 6095.05, -9641.04)" gradientUnits="userSpaceOnUse">
            <stop offset="0.09"/>
            <stop offset="0.17" stop-opacity="0.13"/>
            <stop offset="0.3" stop-opacity="0.13"/>
            <stop offset="0.46"/>
            <stop offset="0.63"/>
            <stop offset="0.68" stop-opacity="0"/>
            <stop offset="0.88" stop-opacity="0"/>
            <stop offset="1"/>
        </radialGradient>
        <radialGradient id="gradient_06" cx="719.38" cy="92.96" r="0.68" gradientTransform="matrix(-1.04, 5.24, 5.15, 1.02, 671.4, -3804.19)" gradientUnits="userSpaceOnUse">
            <stop offset="0.13" stop-color="#6ba7d2"/>
            <stop offset="1" stop-opacity="0"/>
        </radialGradient>
        <mask id="mask" x="21.07" y="18.35" width="752.42" height="1659.31" maskUnits="userSpaceOnUse">
            <rect x="21.07" y="18.35" width="752.42" height="1659.31" fill="#fff"/>
            <path d="M22.43,94.79c0-51.3,29.91-75.08,74.09-75.08H697.37c45.2,0,74.76,26.5,74.76,74.74v1513.9a68,68,0,0,1-68,67.94H90.4a68,68,0,0,1-68-67.94Z"/>
        </mask>
        <mask id="mask-2" x="29.23" y="27.18" width="735.43" height="1632.81" maskUnits="userSpaceOnUse">
            <rect x="29.23" y="27.18" width="735.43" height="1632.81" fill="#fff"/>
            <path d="M29.91,95.81a68,68,0,0,1,68-67.95H696a68,68,0,0,1,68,68V1590.68a68,68,0,0,1-68,68H97.88a68,68,0,0,1-68-68Z"/>
        </mask>
        <path id="filterPath" d="M0.955,1H0.0374V0.0164H0.955Z"/>
    </defs>
    <svg viewBox="0 0 1 1" id="preview" preserveAspectRatio="none">
        <use xlink:href="#filterPath" fill="darkgrey"/>
    </svg>
    <image xlink:href="" preserveAspectRatio="xMidYMin slice" x="30" y="28">
        <animateMotion dur="1ms" repeatCount="indefinite"/>
    </image>
    <g id="device">
        <path d="M796.641 262.28H784.73V469.12H796.641C797.529 469.118 798.381 468.764 799.01 468.137C799.639 467.509 799.995 466.659 800 465.77V265.63C799.995 264.742 799.639 263.891 799.01 263.264C798.381 262.636 797.529 262.283 796.641 262.28Z" fill="#1A1A1A"/>
        <path d="M796.49 264.38H784.73V467H796.49C797.376 467.003 798.226 466.655 798.855 466.033C799.485 465.411 799.843 464.565 799.85 463.68V267.68C799.837 266.798 799.477 265.958 798.848 265.34C798.219 264.722 797.372 264.377 796.49 264.38Z" fill="#353535"/>
        <path d="M794.591 264.38H784.73V467H794.591C795.031 467.008 795.469 466.929 795.879 466.768C796.29 466.606 796.664 466.365 796.981 466.058C797.297 465.752 797.55 465.386 797.726 464.981C797.901 464.576 797.994 464.141 798 463.7V267.7C797.997 267.258 797.905 266.821 797.731 266.414C797.557 266.007 797.305 265.638 796.988 265.33C796.67 265.021 796.295 264.778 795.884 264.615C795.473 264.452 795.033 264.372 794.591 264.38Z" fill="#4C4C4C"/>
        <path d="M796.641 573.68H784.73V691.16H796.641C797.53 691.16 798.383 690.807 799.013 690.179C799.643 689.551 799.998 688.699 800 687.81V577C799.987 576.116 799.628 575.273 799 574.653C798.371 574.032 797.524 573.682 796.641 573.68Z" fill="#1A1A1A"/>
        <path d="M796.49 575.779H784.73V689.059H796.49C797.374 689.062 798.222 688.716 798.852 688.096C799.481 687.476 799.84 686.633 799.85 685.749V579.089C799.84 578.206 799.481 577.363 798.852 576.743C798.222 576.123 797.374 575.777 796.49 575.779Z" fill="#353535"/>
        <path d="M794.591 575.779H784.73V689.059H794.591C795.475 689.065 796.325 688.719 796.955 688.099C797.584 687.478 797.943 686.633 797.951 685.749V579.089C797.943 578.205 797.584 577.36 796.955 576.74C796.325 576.119 795.475 575.774 794.591 575.779Z" fill="#4C4C4C"/>
        <path d="M249.79 8.1499H545.451C546.262 8.1499 547.04 8.47229 547.614 9.04616C548.188 9.62002 548.51 10.3983 548.51 11.2099C548.51 12.0215 548.188 12.7998 547.614 13.3736C547.04 13.9475 546.262 14.2699 545.451 14.2699H249.79C248.979 14.2699 248.201 13.9475 247.627 13.3736C247.053 12.7998 246.73 12.0215 246.73 11.2099C246.73 10.3983 247.053 9.62002 247.627 9.04616C248.201 8.47229 248.979 8.1499 249.79 8.1499Z" fill="#1A1A1A"/>
        <path d="M792.52 146.77H780.29V165.12H792.52V146.77Z" fill="#191919"/>
        <path d="M13.59 146.77H0V165.12H13.59V146.77Z" fill="#191919"/>
        <path d="M397.28 80.1802C407.226 80.1802 415.29 72.1168 415.29 62.1702C415.29 52.2235 407.226 44.1602 397.28 44.1602C387.333 44.1602 379.27 52.2235 379.27 62.1702C379.27 72.1168 387.333 80.1802 397.28 80.1802Z" fill="black"/>
        <path d="M694.66 4.12012C724.17 4.12012 748.38 12.7201 764.66 29.0001C780.22 44.5101 788.45 66.8101 788.5 93.4301V1130H764V95.8601C764 77.8254 756.836 60.5293 744.083 47.7769C731.331 35.0244 714.035 27.8601 696 27.8601H97.8799C79.8538 27.8601 62.5653 35.0175 49.8143 47.7592C37.0633 60.5008 29.8931 77.7841 29.8799 95.8101V1130H4.12988V91.7701C4.12988 68.1201 12.4399 46.3601 27.4399 30.3601C43.5699 13.1901 66.0599 4.12012 92.4399 4.12012H694.66Z" fill="black"/>
        <path d="M92.44 0H694.65C758.54 0 792.52 38.39 792.52 93.43V1130H788.447L788.44 93.43C788.44 66.81 780.21 44.51 764.65 28.96C748.38 12.68 724.17 4.08 694.65 4.08H92.44C66.06 4.08 43.57 13.15 27.39 30.32C12.36 46.27 4.08 68.08 4.08 91.73V1130H0V91.73C0 42.81 34.32 0 92.44 0Z" fill="#1A1A1A"/>
        <path d="M93.8 2.66016H697.71C754.55 2.66016 789.87 37.5701 789.87 93.7701L788.94 1130H783.433L784.37 93.7701C784.37 45.8701 756.5 8.15016 697.71 8.15016H93.8C41.46 8.15016 9.52 40.7502 9.52 92.7502V1130H4V92.7502C4 65.7002 12.26 43.0802 28.13 27.0902C44 11.1002 66.68 2.66016 93.8 2.66016Z" fill="#1A1A1A"/>
        <path d="M96.5197 19.71H697.37C742.57 19.71 772.13 46.21 772.16 94.45V1130H763.986L764 95.86C764 77.8252 756.835 60.5292 744.083 47.7767C731.33 35.0242 714.034 27.86 696 27.86H97.8797C79.8536 27.86 62.5651 35.0174 49.8141 47.759C37.0631 60.5007 29.8929 77.7839 29.8797 95.81V1130H22.4297V94.79C22.4297 43.49 52.3397 19.71 96.5197 19.71Z" fill="black"/>
        <path d="M23.7903 94.7901C23.7903 69.4063 31.1834 51.0339 43.8448 38.9983C56.5187 26.9508 74.6627 21.0701 96.5203 21.0701H697.37C719.708 21.0701 738.026 27.6144 750.753 39.9661C763.474 52.3112 770.77 70.6127 770.77 94.4501V1130H773.49V94.4501C773.49 70.0475 766.007 50.979 752.647 38.0141C739.295 25.0558 720.233 18.3501 697.37 18.3501H96.5203C74.198 18.3501 55.297 24.3594 41.9708 37.0269C28.6322 49.7063 21.0703 68.8739 21.0703 94.7901L21.0498 1130H23.7698L23.7903 94.7901Z" fill="black"/>
        <path d="M50.3248 48.2398C62.9483 35.6255 80.0639 28.5397 97.9097 28.5397H696C713.854 28.5397 730.977 35.6323 743.602 48.2573C756.227 60.8822 763.32 78.0053 763.32 95.8597V1130H764.68V95.8597C764.68 77.6446 757.444 60.1756 744.564 47.2956C731.684 34.4156 714.215 27.1797 696 27.1797H97.9097C79.7034 27.1797 62.242 34.4087 49.3635 47.2777C36.4849 60.1468 29.2431 77.6029 29.2297 95.8092L29.209 1130H30.569L30.5897 95.8102C30.6029 77.9644 37.7013 60.854 50.3248 48.2398Z" fill="black"/>
        <path d="M50.3248 48.2398C62.9483 35.6255 80.0639 28.5397 97.9097 28.5397H696C713.854 28.5397 730.977 35.6323 743.602 48.2573C756.227 60.8822 763.32 78.0053 763.32 95.8597V1130H764.68V95.8597C764.68 77.6446 757.444 60.1756 744.564 47.2956C731.684 34.4156 714.215 27.1797 696 27.1797H97.9097C79.7034 27.1797 62.242 34.4087 49.3635 47.2777C36.4849 60.1468 29.2431 77.6029 29.2297 95.8092L29.209 1130H30.569L30.5897 95.8102C30.6029 77.9644 37.7013 60.854 50.3248 48.2398Z" fill="black"/>
        <g style="mix-blend-mode:overlay">
        <path d="M799.009 468.137C798.38 468.764 797.529 469.117 796.64 469.12H792.52V573.65H796.64C797.529 573.653 798.38 574.006 799.009 574.633C799.639 575.261 799.995 576.111 800 577V687.81C799.997 688.699 799.642 689.551 799.012 690.179C798.383 690.807 797.529 691.16 796.64 691.16H792.52V1130H772.13V94.45C772.13 46.21 742.57 19.71 697.37 19.71H96.49C52.31 19.71 22.4 43.49 22.4 94.79V1130H0V91.73C0 42.81 34.32 0 92.44 0H694.65C758.52 0 792.52 38.43 792.52 93.43V262.28H796.64C797.529 262.283 798.38 262.636 799.009 263.263C799.639 263.891 799.995 264.741 800 265.63V465.77C799.995 466.659 799.639 467.509 799.009 468.137Z" fill="#383E45"/>
        </g>
    </g>
</svg>
