<svg xmlns="http://www.w3.org/2000/svg" xmlns:xlink="http://www.w3.org/1999/xlink" width="234" height="60" viewBox="0 0 234 60">
  <defs>
    <linearGradient id="linearGradient-1" x1="0%" x2="100%" y1="47.717%" y2="52.283%">
      <stop offset="0%" stop-color="#00A09D"/>
      <stop offset="100%" stop-color="#00E2FF"/>
    </linearGradient>
    <rect id="path-21" width="234" height="50" x="0" y="0"/>
  </defs>
  <g fill="none" fill-rule="evenodd" class="header_template_slogan">
    <g class="bg_2lev" transform="translate(0 5)">
      <use fill="#000" fill-opacity=".14" xlink:href="#path-21"/>
      <use fill="url(#linearGradient-1)" fill-opacity=".3" xlink:href="#path-21"/>
    </g>
    <text fill="#FFF" class="logo_2lev" font-family="Arial-Black, Arial Black" font-size="12" font-weight="700">
      <tspan x="10" y="23">LOGO</tspan>
    </text>
    <rect width="214" height="1" x="10" y="30" fill="#FFF" class="rectangle_2lev" opacity=".375"/>
    <g fill="#FFF" class="group" opacity=".804" transform="translate(138 39)">
      <rect width="23" height="4" class="rectangle" rx="1"/>
      <g class="link" transform="translate(28)">
        <rect width="9" height="4" class="rectangle" rx="1"/>
      </g>
      <g class="link" transform="translate(42)">
        <rect width="23" height="4" class="rectangle" rx="1"/>
      </g>
      <g class="link" transform="translate(70)">
        <rect width="16" height="4" class="rectangle" rx="1"/>
      </g>
    </g>
    <rect width="20" height="9" fill="#FFF" class="rectangle" rx="4.5" transform="translate(204 14)"/>
    <path fill="#FFF" fill-rule="nonzero" d="M81.227 21l.472-1.3h2.29l.5 1.3h1.257l-2.293-5.727H82.23L80 21h1.227zm2.39-2.266h-1.562l.773-2.125.79 2.125zm6.5 2.266l.703-2.668.715 2.668h1.055l1.332-4.148H92.84l-.793 2.718-.692-2.718h-1.058l-.715 2.718-.777-2.718h-1.067L89.051 21h1.066zm6.274.094c.614 0 1.124-.207 1.529-.62.405-.412.607-.932.607-1.56 0-.622-.2-1.137-.601-1.545-.401-.407-.916-.611-1.543-.611-.406 0-.774.09-1.104.27a1.84 1.84 0 0 0-.763.78c-.18.342-.27.695-.27 1.06 0 .476.09.88.27 1.212.18.332.442.584.787.756.345.172.707.258 1.088.258zm-.004-.895a.93.93 0 0 1-.723-.328c-.195-.219-.293-.534-.293-.945 0-.412.098-.727.293-.946a.93.93 0 0 1 .723-.328c.286 0 .526.11.72.328.194.22.291.532.291.938 0 .417-.097.734-.29.953a.925.925 0 0 1-.721.328zm4.09.801v-1.879c0-.463.028-.781.084-.953a.787.787 0 0 1 .31-.414.88.88 0 0 1 .512-.156.65.65 0 0 1 .38.109.61.61 0 0 1 .23.307c.046.131.07.42.07.869V21h1.097v-2.578c0-.32-.02-.567-.06-.738a1.21 1.21 0 0 0-.215-.461 1.113 1.113 0 0 0-.455-.334 1.633 1.633 0 0 0-.664-.131c-.55 0-1.006.234-1.368.703v-.61h-1.02V21h1.099zm5.285.094c.234 0 .467-.058.697-.174.23-.116.43-.292.6-.53V21h1.02v-5.727h-1.099v2.063c-.338-.385-.74-.578-1.203-.578-.505 0-.923.183-1.254.549-.33.366-.496.9-.496 1.603 0 .688.17 1.223.51 1.608.34.384.748.576 1.225.576zm.312-.867c-.317 0-.565-.144-.742-.43-.122-.198-.184-.518-.184-.961 0-.412.088-.72.264-.928a.825.825 0 0 1 .654-.31c.269 0 .489.104.66.314.172.21.258.553.258 1.03 0 .426-.088.747-.265.962-.177.215-.392.323-.645.323zm4.778.867c.455 0 .835-.105 1.138-.315.304-.21.526-.515.666-.916l-1.094-.183c-.06.208-.148.36-.265.453a.672.672 0 0 1-.434.14.83.83 0 0 1-.633-.271c-.169-.181-.257-.434-.265-.76h2.75c.015-.841-.155-1.465-.512-1.873-.357-.407-.844-.611-1.46-.611-.55 0-1.005.194-1.364.584-.36.39-.54.928-.54 1.615 0 .576.138 1.052.411 1.43.346.471.88.707 1.602.707zm.773-2.524h-1.64c-.003-.3.074-.536.23-.71a.762.762 0 0 1 .594-.262c.224 0 .414.082.57.248.156.165.238.407.246.724zM114.66 21v-1.281c0-.706.03-1.17.092-1.39.061-.222.145-.375.252-.46a.61.61 0 0 1 .39-.127c.16 0 .331.06.516.18l.34-.957a1.393 1.393 0 0 0-.723-.207.866.866 0 0 0-.474.133c-.14.088-.296.272-.471.55v-.59h-1.02V21h1.098zm3.29 0v-3.285h.82v-.863h-.82v-.293c0-.211.034-.354.103-.428.069-.074.183-.111.342-.111.161 0 .329.02.503.062l.149-.766c-.3-.093-.606-.14-.918-.14-.305 0-.557.054-.756.162a.88.88 0 0 0-.41.42c-.074.172-.111.432-.111.781v.313h-.61v.863h.61V21h1.097zm2.792.094c.274 0 .533-.064.78-.192.246-.127.444-.302.595-.523V21h1.02v-4.148h-1.098v1.75c0 .593-.027.966-.082 1.119a.785.785 0 0 1-.305.383.864.864 0 0 1-.504.154.678.678 0 0 1-.406-.115.585.585 0 0 1-.22-.313c-.04-.131-.061-.489-.061-1.072v-1.906h-1.098v2.625c0 .39.05.696.149.918.099.22.259.393.48.515.222.123.472.184.75.184zm4.63-.094v-5.727h-1.099V21h1.098zm4.948.094c.623 0 1.093-.137 1.41-.41.318-.274.477-.6.477-.98 0-.35-.115-.622-.344-.817-.231-.193-.64-.356-1.224-.489-.585-.132-.927-.235-1.026-.308-.073-.055-.11-.121-.11-.2a.26.26 0 0 1 .126-.222c.125-.08.332-.121.621-.121.23 0 .406.043.53.129a.64.64 0 0 1 .251.37l1.035-.19c-.104-.363-.294-.636-.57-.82-.276-.186-.698-.278-1.266-.278-.596 0-1.036.122-1.32.367a1.15 1.15 0 0 0-.426.906c0 .399.164.71.493.934.237.161.798.34 1.683.535.19.044.313.092.367.145a.288.288 0 0 1 .078.207.35.35 0 0 1-.144.293c-.143.104-.357.156-.64.156-.258 0-.459-.056-.602-.166a.807.807 0 0 1-.285-.487l-1.102.168c.102.394.317.705.647.934.329.23.776.344 1.341.344zm3.946-.094v-5.727h-1.098V21h1.098zm3.015.094c.615 0 1.125-.207 1.53-.62.404-.412.607-.932.607-1.56 0-.622-.2-1.137-.602-1.545-.4-.407-.915-.611-1.543-.611-.406 0-.774.09-1.103.27-.33.179-.584.44-.764.78-.18.342-.27.695-.27 1.06 0 .476.09.88.27 1.212.18.332.442.584.787.756.345.172.708.258 1.088.258zm-.004-.895a.93.93 0 0 1-.722-.328c-.196-.219-.293-.534-.293-.945 0-.412.097-.727.293-.946a.93.93 0 0 1 .722-.328c.287 0 .527.11.721.328.194.22.291.532.291.938 0 .417-.097.734-.291.953a.925.925 0 0 1-.72.328zm4.832 2.485c.373 0 .68-.04.924-.118a1.5 1.5 0 0 0 .584-.324 1.36 1.36 0 0 0 .34-.57c.08-.242.121-.608.121-1.098v-3.722h-1.027v.582c-.334-.45-.757-.676-1.27-.676a1.62 1.62 0 0 0-1.248.55c-.334.368-.502.899-.502 1.594 0 .555.128 1.019.383 1.391.326.471.767.707 1.324.707.5 0 .914-.224 1.242-.672v.606c0 .244-.016.412-.05.503a.531.531 0 0 1-.22.278c-.142.086-.357.129-.644.129-.224 0-.388-.04-.492-.117-.075-.055-.123-.155-.144-.301l-1.254-.153a2.724 2.724 0 0 0-.004.133c0 .37.147.675.441.916.295.241.793.362 1.496.362zm-.066-2.57a.791.791 0 0 1-.63-.307c-.171-.205-.257-.527-.257-.967 0-.42.086-.731.256-.936a.81.81 0 0 1 .65-.306c.271 0 .495.104.672.312.177.208.266.527.266.957 0 .412-.092.722-.277.932a.872.872 0 0 1-.68.314zm4.21.98c.243 0 .471-.046.685-.137a1.98 1.98 0 0 0 .601-.41c.008.02.02.064.04.129.04.143.076.251.105.324h1.086a2.354 2.354 0 0 1-.198-.557c-.035-.173-.052-.442-.052-.806l.011-1.282c0-.476-.049-.804-.146-.982-.098-.178-.267-.325-.506-.441-.24-.116-.604-.174-1.094-.174-.539 0-.945.096-1.219.289-.273.193-.466.49-.578.89l.996.18c.068-.193.157-.327.266-.404.11-.077.262-.115.457-.115.29 0 .486.045.59.134.104.09.156.24.156.452v.109c-.198.083-.553.173-1.066.27-.38.072-.672.158-.873.255a1.097 1.097 0 0 0-.471.422 1.18 1.18 0 0 0-.168.627c0 .354.123.647.37.88.245.23.582.347 1.009.347zm.329-.774a.6.6 0 0 1-.437-.168.538.538 0 0 1-.172-.398c0-.156.071-.285.214-.387.094-.062.293-.126.598-.191s.528-.121.668-.168v.219c0 .263-.014.441-.043.535a.688.688 0 0 1-.262.363.95.95 0 0 1-.566.195zm4.121.68v-1.879c0-.463.028-.781.084-.953a.787.787 0 0 1 .31-.414.88.88 0 0 1 .512-.156.65.65 0 0 1 .381.109.61.61 0 0 1 .229.307c.047.131.07.42.07.869V21h1.098v-2.578c0-.32-.02-.567-.06-.738a1.21 1.21 0 0 0-.216-.461 1.113 1.113 0 0 0-.455-.334 1.633 1.633 0 0 0-.664-.131c-.55 0-1.005.234-1.367.703v-.61h-1.02V21h1.098z" class="awonderfulslogan"/>
  </g>
</svg>
