<svg width="24" height="8" viewBox="0 0 24 8" fill="none" xmlns="http://www.w3.org/2000/svg">
<path d="M21 0H2V8H21V0Z" fill="white"/>
<path d="M8.63824 5.875C8.63824 5.99695 8.68429 6.10061 8.7764 6.18598L9.44745 6.80793C9.53956 6.89329 9.6514 6.93598 9.78298 6.93598C9.91456 6.93598 10.0264 6.89329 10.1185 6.80793L11.5692 5.46342L13.0198 6.80793C13.1119 6.89329 13.2238 6.93598 13.3553 6.93598C13.4869 6.93598 13.5988 6.89329 13.6909 6.80793L14.3619 6.18598C14.454 6.10061 14.5001 5.99695 14.5001 5.875C14.5001 5.75305 14.454 5.64939 14.3619 5.56403L12.9113 4.21951L14.3619 2.875C14.454 2.78964 14.5001 2.68598 14.5001 2.56403C14.5001 2.44208 14.454 2.33842 14.3619 2.25305L13.6909 1.6311C13.5988 1.54573 13.4869 1.50305 13.3553 1.50305C13.2238 1.50305 13.1119 1.54573 13.0198 1.6311L11.5692 2.97561L10.1185 1.6311C10.0264 1.54573 9.91456 1.50305 9.78298 1.50305C9.6514 1.50305 9.53956 1.54573 9.44745 1.6311L8.7764 2.25305C8.68429 2.33842 8.63824 2.44208 8.63824 2.56403C8.63824 2.68598 8.68429 2.78964 8.7764 2.875L10.2271 4.21951L8.7764 5.56403C8.68429 5.64939 8.63824 5.75305 8.63824 5.875Z" fill="#595964"/>
</svg>
