<svg width="50" height="50" viewBox="0 0 50 50" fill="none" xmlns="http://www.w3.org/2000/svg">
<path d="M43.1049 4H44.077V0.817741H45.1846V0H42V0.817741H43.1049V4Z" fill="#D1D5DB"/>
<path d="M45.8805 4H46.7384V1.45253H46.7915L47.6627 4H48.2178L49.089 1.45253H49.1448V4H50V0H48.8924L47.9681 2.71379H47.9177L46.9907 0H45.8805V4Z" fill="#D1D5DB"/>
<path d="M8.5005 15.9756C7.60427 16.7732 6.76451 17.6342 5.98926 18.5525C9.74856 22.383 12.4614 28.229 13.3738 34.9984H16.9899C16.261 29.0338 14.2428 23.5252 11.1277 19.1323C10.3061 17.9737 9.42697 16.9215 8.5005 15.9756Z" fill="#33B6B4"/>
<path d="M4.09384 21.1094C3.39924 22.18 2.78226 23.3069 2.25098 24.4828C4.40333 27.2049 5.98711 30.8544 6.70893 34.9999H10.3382C9.65264 30.5456 8.0709 26.4431 5.71088 23.1218C5.19774 22.4009 4.65739 21.7301 4.09384 21.1094Z" fill="#33B6B4"/>
<path d="M0 35.0003H3.64034C3.11611 32.4755 2.20277 30.1257 0.9416 28.0918C0.328662 30.2872 0 32.6054 0 35.0003Z" fill="#33B6B4"/>
<path d="M39.5075 14.4748C39.0357 14.1291 38.5518 13.8009 38.0558 13.489C37.83 13.7283 37.6062 13.9696 37.3864 14.2171C34.4881 17.4811 31.2056 22.4774 29.4666 29.5065C28.9343 26.6709 28.1853 23.9304 27.2326 21.326C29.1188 17.0424 31.4637 13.7314 33.6231 11.2843C33.0414 11.0655 32.4497 10.8671 31.8478 10.6902C29.9939 12.8765 28.0441 15.665 26.3606 19.1121C25.1468 16.2509 23.6749 13.58 21.9611 11.1565C21.6819 10.7608 21.3966 10.3773 21.1082 10C19.7825 10.2076 18.4921 10.5215 17.2441 10.9326C20.2362 14.4451 22.6769 18.8974 24.3494 23.9734C23.7344 25.7649 23.2011 27.6863 22.7837 29.7519C21.6062 24.3037 19.4882 19.3033 16.5444 15.1445C15.7914 14.0811 14.998 13.0912 14.1683 12.1781C13.0563 12.719 11.9897 13.3407 10.9766 14.0361C15.7057 18.8933 19.0567 26.3764 20.0043 34.9997H23.7495C24.0288 32.0772 24.5429 29.3991 25.2244 26.9572C25.8847 29.5177 26.3565 32.2112 26.6156 34.9997H30.2338C31.3034 25.5676 35.2623 19.2174 38.6648 15.3848C38.944 15.0699 39.2253 14.7682 39.5075 14.4748Z" fill="#33B6B4"/>
<path d="M44.2053 18.9472C43.8373 18.4932 43.4532 18.0524 43.055 17.625C39.2131 21.6181 36.0002 27.411 34.9971 34.9984H36.7351C37.7614 27.6329 40.9148 22.6284 43.6397 19.5607C43.8273 19.3501 44.0158 19.1466 44.2053 18.9472Z" fill="#33B6B4"/>
<path d="M41.5234 34.9994H43.2695C44.0922 30.4337 45.9441 27.0878 47.7476 24.7809C47.4915 24.1919 47.2133 23.6152 46.9149 23.0518C44.4117 26.0192 42.3652 30.0021 41.5234 34.9994Z" fill="#33B6B4"/>
<path d="M49.6497 30.9102C49.0096 32.1434 48.4823 33.5064 48.1113 34.9994H50.0005C50.0005 33.6067 49.8786 32.2415 49.6497 30.9102Z" fill="#33B6B4"/>
</svg>
