<svg width="50" height="50" viewBox="0 0 50 50" fill="none" xmlns="http://www.w3.org/2000/svg">
<path fill-rule="evenodd" clip-rule="evenodd" d="M15.7242 6.39672C16.3772 4.94077 17.8517 4 19.4807 4H30.5185C32.1475 4 33.622 4.94077 34.275 6.39672L37.2363 13H41.899C44.3592 13 46.2655 15.0988 45.9695 17.4813L42.8632 42.4813C42.6137 44.4896 40.8664 46 38.7927 46H11.2071C9.1334 46 7.38615 44.4896 7.13662 42.4813L4.03036 17.4813C3.73433 15.0988 5.64067 13 8.10083 13H12.7629L15.7242 6.39672ZM32.9172 13H17.082C17.082 12.4402 17.205 11.8658 17.4716 11.3085L18.4283 9.30846C19.102 7.90016 20.5508 7 22.1439 7H27.8553C29.4484 7 30.8972 7.90016 31.5709 9.30846L32.5276 11.3085C32.7942 11.8658 32.9172 12.4402 32.9172 13Z" fill="var(--o-icons-purple-purple, #370ADE)"/>
<path fill-rule="evenodd" clip-rule="evenodd" d="M15.7242 6.39672C16.3772 4.94077 17.8517 4 19.4807 4H30.5185C32.1475 4 33.622 4.94077 34.275 6.39672L37.2363 13H41.899C44.3592 13 46.2655 15.0988 45.9695 17.4813L42.8632 42.4813C42.6137 44.4896 40.8664 46 38.7927 46H11.2071C9.1334 46 7.38615 44.4896 7.13662 42.4813L4.03036 17.4813C3.73433 15.0988 5.64067 13 8.10083 13H12.7629L15.7242 6.39672ZM32.9172 13H17.082C17.082 12.4402 17.205 11.8658 17.4716 11.3085L18.4283 9.30846C19.102 7.90016 20.5508 7 22.1439 7H27.8553C29.4484 7 30.8972 7.90016 31.5709 9.30846L32.5276 11.3085C32.7942 11.8658 32.9172 12.4402 32.9172 13Z" fill="url(#white_gradient_1)" fill-opacity="0.3"/>
<path d="M21.4748 4H30.5183C32.1473 4 33.6218 4.94077 34.2748 6.39672L37.2361 13H41.8988C44.359 13 46.2653 15.0988 45.9693 17.4813L43.1337 40.3031C31.1324 36.3213 22.2561 25.745 21.0414 13H32.917C32.917 12.4402 32.794 11.8658 32.5274 11.3085L31.5707 9.30846C30.897 7.90016 29.4482 7 27.8551 7H22.1437C21.7603 7 21.3852 7.05214 21.0273 7.15096C21.1238 6.08476 21.2738 5.03358 21.4748 4Z" fill="var(--o-icons-purple-pure, #7933F3)"/>
<path d="M21.4748 4H30.5183C32.1473 4 33.6218 4.94077 34.2748 6.39672L37.2361 13H41.8988C44.359 13 46.2653 15.0988 45.9693 17.4813L43.1337 40.3031C31.1324 36.3213 22.2561 25.745 21.0414 13H32.917C32.917 12.4402 32.794 11.8658 32.5274 11.3085L31.5707 9.30846C30.897 7.90016 29.4482 7 27.8551 7H22.1437C21.7603 7 21.3852 7.05214 21.0273 7.15096C21.1238 6.08476 21.2738 5.03358 21.4748 4Z" fill="url(#white_gradient_2)" fill-opacity="0.3"/>
<path d="M33.6887 27.9243C32.9128 30.6981 28.1994 35.5281 24.5448 38.955C22.4896 40.8821 19.1422 40.0229 18.3682 37.3695C16.9918 32.6512 15.4308 26.2107 16.2066 23.4369C17.5017 18.8069 22.465 16.058 27.2925 17.2972C32.1201 18.5364 34.9837 23.2943 33.6887 27.9243Z" fill="var(--o-icons-cyan-pure, #1BD4F9)"/>
<path d="M33.6887 27.9243C32.9128 30.6981 28.1994 35.5281 24.5448 38.955C22.4896 40.8821 19.1422 40.0229 18.3682 37.3695C16.9918 32.6512 15.4308 26.2107 16.2066 23.4369C17.5017 18.8069 22.465 16.058 27.2925 17.2972C32.1201 18.5364 34.9837 23.2943 33.6887 27.9243Z" fill="url(#white_gradient_3)" fill-opacity="0.3"/>
<path d="M30.6034 32.7218C26.3622 28.6186 23.2636 23.393 21.8145 17.5397C23.5111 16.9369 25.4119 16.8146 27.2922 17.2972C32.1197 18.5364 34.9834 23.2943 33.6883 27.9243C33.3314 29.2006 32.1408 30.912 30.6034 32.7218Z" fill="var(--o-icons-cyan-cyan, #03AAE9)"/>
<path d="M30.6034 32.7218C26.3622 28.6186 23.2636 23.393 21.8145 17.5397C23.5111 16.9369 25.4119 16.8146 27.2922 17.2972C32.1197 18.5364 34.9834 23.2943 33.6883 27.9243C33.3314 29.2006 32.1408 30.912 30.6034 32.7218Z" fill="url(#white_gradient_4)" fill-opacity="0.3"/>
<defs>
<linearGradient id="white_gradient_1" x1="4" y1="4" x2="53.4116" y2="16.3529" gradientUnits="userSpaceOnUse">
<stop stop-color="white"/>
<stop offset="1" stop-color="white" stop-opacity="0"/>
</linearGradient>
<linearGradient id="white_gradient_2" x1="21.0273" y1="4" x2="51.3461" y2="9.21394" gradientUnits="userSpaceOnUse">
<stop stop-color="white"/>
<stop offset="1" stop-color="white" stop-opacity="0"/>
</linearGradient>
<linearGradient id="white_gradient_3" x1="16" y1="17" x2="37.6705" y2="21.2399" gradientUnits="userSpaceOnUse">
<stop stop-color="white"/>
<stop offset="1" stop-color="white" stop-opacity="0"/>
</linearGradient>
<linearGradient id="white_gradient_4" x1="21.8145" y1="17" x2="36.4948" y2="19.8445" gradientUnits="userSpaceOnUse">
<stop stop-color="white"/>
<stop offset="1" stop-color="white" stop-opacity="0"/>
</linearGradient>
</defs>
</svg>
