<svg width="50" height="50" viewBox="0 0 50 50" fill="none" xmlns="http://www.w3.org/2000/svg">
<path fill-rule="evenodd" clip-rule="evenodd" d="M37.694 20.1502C38.5506 20.1502 39.245 19.445 39.245 18.5751C39.245 17.7052 38.5506 17 37.694 17C36.8373 17 36.1427 17.7052 36.1427 18.5751C36.1427 19.445 36.8373 20.1502 37.694 20.1502ZM21.1479 21.8985C18.4023 21.8985 16.1737 24.1666 16.1737 26.9493C16.1737 29.7319 18.4075 32 21.1479 32C23.8883 32 26.1221 29.7319 26.1221 26.9493C26.1221 24.1666 23.8935 21.8985 21.1479 21.8985ZM21.1479 29.6111C19.7052 29.6111 18.5315 28.4193 18.5315 26.9545C18.5315 25.4897 19.7052 24.2979 21.1479 24.2979C22.5904 24.2979 23.7642 25.4897 23.7642 26.9545C23.7642 28.4193 22.5904 29.6111 21.1479 29.6111ZM10.6101 21.888C10.7394 21.888 10.8635 21.8933 10.9928 21.9037C12.0786 21.9983 13.0765 22.5075 13.8056 23.3371C14.5346 24.1614 14.938 25.2272 14.938 26.3349V31.7952H12.5595V26.2667C12.5543 25.1799 11.6701 24.2926 10.5946 24.2926C10.5326 24.2926 10.4654 24.2979 10.3981 24.3031C9.43642 24.4029 8.62977 25.327 8.62977 26.3245V31.7952H6.25129V26.2825C6.24613 25.1904 5.3671 24.2979 4.29162 24.2979C4.2296 24.2979 4.1624 24.3031 4.09519 24.3084C3.13863 24.4081 2.32679 25.3322 2.32679 26.3349V31.7952H0V26.2667C0 23.8516 1.93899 21.888 4.31748 21.888C5.50673 21.888 6.63908 22.392 7.45606 23.2688C8.27304 22.3868 9.41056 21.888 10.6101 21.888ZM29.7829 17.2363H27.4044V31.8058H29.7829V17.2363ZM31.9546 17.2363H34.3329V31.8058H31.9546V17.2363ZM38.8831 22.14H36.5046V31.8005H38.8831V22.14ZM48.6194 23.3161C49.5087 24.2349 50 25.4424 50 26.7235V27.8313H42.7662C43.0869 28.9968 44.1312 29.8159 45.3412 29.8159C46.2875 29.8159 47.1406 29.3276 47.6319 28.5034L47.73 28.3406L49.695 29.3224L49.5812 29.5166C48.6867 31.0444 47.0475 31.9948 45.3 31.9948H45.2948C43.9606 31.9948 42.7094 31.4592 41.7631 30.4879C40.8171 29.5166 40.305 28.2355 40.3206 26.881C40.336 25.5527 40.8531 24.3084 41.7735 23.3686C42.694 22.4288 43.9246 21.9037 45.2275 21.888H45.2896C46.546 21.888 47.7248 22.3973 48.6194 23.3161ZM47.5956 25.8362C47.2544 24.8071 46.2823 24.0826 45.1965 24.0826C44.1106 24.0826 43.1385 24.8071 42.8025 25.8362H47.5956Z" fill="black"/>
<path d="M43.1049 4H44.077V0.817741H45.1846V0H42V0.817741H43.1049V4Z" fill="#D1D5DB"/>
<path d="M45.8805 4H46.7384V1.45253H46.7915L47.6627 4H48.2178L49.089 1.45253H49.1448V4H50V0H48.8924L47.9681 2.71379H47.9177L46.9907 0H45.8805V4Z" fill="#D1D5DB"/>
</svg>
