<svg width="50" height="50" viewBox="0 0 50 50" fill="none" xmlns="http://www.w3.org/2000/svg">
<path d="M49 27C49 23.717 48.3534 20.4661 47.097 17.4329C45.8406 14.3998 43.9991 11.6438 41.6777 9.32233C39.3562 7.00087 36.6002 5.15938 33.5671 3.90301C30.5339 2.64664 27.283 2 24 2L24 27H49Z" fill="var(--o-icons-purple-pure, #7933F3)"/>
<path d="M49 27C49 23.717 48.3534 20.4661 47.097 17.4329C45.8406 14.3998 43.9991 11.6438 41.6777 9.32233C39.3562 7.00087 36.6002 5.15938 33.5671 3.90301C30.5339 2.64664 27.283 2 24 2L24 27H49Z" fill="url(#white_gradient_1)" fill-opacity="0.3"/>
<path d="M41 31C41 28.2422 40.4568 25.5115 39.4015 22.9636C38.3461 20.4158 36.7993 18.1008 34.8492 16.1508C32.8992 14.2007 30.5842 12.6539 28.0364 11.5985C25.4885 10.5432 22.7578 10 20 10L20 31H41Z" fill="var(--o-icons-cyan-cyan, #03AAE9)"/>
<path d="M41 31C41 28.2422 40.4568 25.5115 39.4015 22.9636C38.3461 20.4158 36.7993 18.1008 34.8492 16.1508C32.8992 14.2007 30.5842 12.6539 28.0364 11.5985C25.4885 10.5432 22.7578 10 20 10L20 31H41Z" fill="url(#white_gradient_2)" fill-opacity="0.3"/>
<path d="M40.6155 27.0002C40.3479 25.6208 39.9418 24.2683 39.4015 22.9639C38.3461 20.416 36.7993 18.1011 34.8492 16.1511C32.8992 14.2009 30.5842 12.6541 28.0363 11.5989C26.7319 11.0586 25.3795 10.6523 24 10.3848V27.0002H40.6155Z" fill="var(--o-icons-purple-cyan, #0D2AED)"/>
<path d="M40.6155 27.0002C40.3479 25.6208 39.9418 24.2683 39.4015 22.9639C38.3461 20.416 36.7993 18.1011 34.8492 16.1511C32.8992 14.2009 30.5842 12.6541 28.0363 11.5989C26.7319 11.0586 25.3795 10.6523 24 10.3848V27.0002H40.6155Z" fill="url(#white_gradient_3)" fill-opacity="0.3"/>
<path d="M8.94198 28.4185C9.21341 26.8887 10.3554 25.5953 11.8719 25.1003L24.4329 21C24.4329 21 27.2998 21.3296 28.4817 22.4876C29.6636 23.6455 30 26.4542 30 26.4542L25.7783 38.8362C25.2867 40.2778 24.026 41.3772 22.5165 41.6806L6 45L8.94198 28.4185Z" fill="var(--o-icons-cyan-pure, #1BD4F9)"/>
<path d="M8.94198 28.4185C9.21341 26.8887 10.3554 25.5953 11.8719 25.1003L24.4329 21C24.4329 21 27.2998 21.3296 28.4817 22.4876C29.6636 23.6455 30 26.4542 30 26.4542L25.7783 38.8362C25.2867 40.2778 24.026 41.3772 22.5165 41.6806L6 45L8.94198 28.4185Z" fill="url(#white_gradient_4)" fill-opacity="0.3"/>
<defs>
<linearGradient id="white_gradient_1" x1="24" y1="2" x2="53.4118" y2="9.35294" gradientUnits="userSpaceOnUse">
<stop stop-color="white"/>
<stop offset="1" stop-color="white" stop-opacity="0"/>
</linearGradient>
<linearGradient id="white_gradient_2" x1="20" y1="10" x2="44.7059" y2="16.1765" gradientUnits="userSpaceOnUse">
<stop stop-color="white"/>
<stop offset="1" stop-color="white" stop-opacity="0"/>
</linearGradient>
<linearGradient id="white_gradient_3" x1="24" y1="10.3848" x2="43.5477" y2="15.2717" gradientUnits="userSpaceOnUse">
<stop stop-color="white"/>
<stop offset="1" stop-color="white" stop-opacity="0"/>
</linearGradient>
<linearGradient id="white_gradient_4" x1="6" y1="21" x2="34.2353" y2="28.0588" gradientUnits="userSpaceOnUse">
<stop stop-color="white"/>
<stop offset="1" stop-color="white" stop-opacity="0"/>
</linearGradient>
</defs>
</svg>
