<svg width="70" height="70" viewBox="0 0 70 70" fill="none" xmlns="http://www.w3.org/2000/svg">
<path d="M51.8446 14.4468L15.181 38.4878C13.337 39.697 13.7257 42.448 15.8362 43.1246L52.4998 54.878C54.2251 55.431 55.9999 54.1762 55.9999 52.4034V16.609C55.9999 14.5247 53.6169 13.2847 51.8446 14.4468Z" fill="var(--o-icons-blue-100, #1ACAF0)"/>
<path d="M54.6712 14.347L36.5214 49.7556L54.2499 55.4389C55.1126 55.7154 56 55.088 56 54.2016L55.9999 16.2801C55.9999 16.2801 55.8795 15.5922 55.531 15.105C55.2132 14.6608 54.6712 14.347 54.6712 14.347Z" fill="var(--o-icons-blue-200, #1861AF)"/>
<path d="M23.8857 45.6344L54.6712 14.342L33.3233 56L23.8857 45.6344Z" fill="var(--o-icons-blue-400, #251B85)"/>
</svg>
