<svg width="50" height="50" viewBox="0 0 50 50" fill="none" xmlns="http://www.w3.org/2000/svg">
<path d="M0 12H50V38C50 40.2091 48.2091 42 46 42H0V12Z" fill="var(--o-icons-magenta-pure, #FF689E)"/>
<path d="M0 12H50V38C50 40.2091 48.2091 42 46 42H0V12Z" fill="url(#white_gradient_1)" fill-opacity="0.4"/>
<path d="M4 21C1.79086 21 2.49754e-07 19.2091 5.5784e-07 17L1.25514e-06 12C1.56323e-06 9.79086 1.79086 8 4 8L50 8.00001V17C50 19.2091 48.2091 21 46 21L4 21Z" fill="var(--o-icons-teal-pure, #00CEB3)"/>
<path d="M4 21C1.79086 21 2.49754e-07 19.2091 5.5784e-07 17L1.25514e-06 12C1.56323e-06 9.79086 1.79086 8 4 8L50 8.00001V17C50 19.2091 48.2091 21 46 21L4 21Z" fill="url(#white_gradient_2)" fill-opacity="0.3"/>
<path d="M0 16H50V20C50 22.2091 48.2091 24 46 24H4C1.79086 24 0 22.2091 0 20V16Z" fill="var(--o-icons-magenta-teal, #00546F)"/>
<path d="M0 16H50V20C50 22.2091 48.2091 24 46 24H4C1.79086 24 0 22.2091 0 20V16Z" fill="url(#white_gradient_3)" fill-opacity="0.3"/>
<defs>
<linearGradient id="white_gradient_1" x1="0" y1="12" x2="53.2544" y2="34.1893" gradientUnits="userSpaceOnUse">
<stop stop-color="white"/>
<stop offset="1" stop-color="white" stop-opacity="0"/>
</linearGradient>
<linearGradient id="white_gradient_2" x1="0" y1="8" x2="32.475" y2="39.226" gradientUnits="userSpaceOnUse">
<stop stop-color="white"/>
<stop offset="1" stop-color="white" stop-opacity="0"/>
</linearGradient>
<linearGradient id="white_gradient_3" x1="0" y1="16" x2="18.1612" y2="44.3768" gradientUnits="userSpaceOnUse">
<stop stop-color="white"/>
<stop offset="1" stop-color="white" stop-opacity="0"/>
</linearGradient>
</defs>
</svg>
