<svg width="50" height="50" viewBox="0 0 50 50" fill="none" xmlns="http://www.w3.org/2000/svg">
<path d="M40.8398 38.5871C22.9755 46.8231 11.8884 39.9324 4.79137 35.7469C4.35233 35.4831 3.6058 35.8086 4.2535 36.5292C6.6178 39.3064 14.3664 46.0001 24.4807 46.0001C34.6018 46.0001 40.623 40.6504 41.3762 39.7171C42.1242 38.7918 41.5959 38.2813 40.8398 38.5871ZM45.857 35.9031C45.3773 35.298 42.94 35.1851 41.4061 35.3676C39.8696 35.5448 37.5637 36.4544 37.7641 37.0004C37.8671 37.2051 38.0771 37.1132 39.1326 37.0214C40.1908 36.919 43.1553 36.5567 43.7731 37.339C44.3937 38.1265 42.8275 41.879 42.5416 42.4841C42.2652 43.0892 42.6472 43.2453 43.1662 42.8423C43.6783 42.4394 44.6051 41.396 45.227 39.9194C45.8448 38.4349 46.2215 36.3637 45.857 35.9031Z" fill="#FF9900"/>
<path d="M36.3187 25.5132V11.7214C36.3187 9.35238 33.953 4 25.451 4C16.9504 4 12.4277 9.14636 12.4277 13.7821L19.5328 14.3977C19.5328 14.3977 21.1153 9.76457 24.7884 9.76457C28.4615 9.76457 28.2096 12.6469 28.2096 13.2703V16.2667C23.5041 16.4203 11.8193 17.7223 11.8193 27.2667C11.8193 37.5305 25.1936 37.961 29.5794 31.3276C29.7488 31.5967 29.9412 31.8605 30.1823 32.1073C31.7961 33.7506 33.9489 35.7089 33.9489 35.7089L39.4335 30.4588C39.4363 30.4574 36.3187 28.0869 36.3187 25.5132ZM20.0667 25.9975C20.0667 21.5888 24.9429 20.695 28.2109 20.59V24.3845C28.2096 31.9011 20.0667 30.7632 20.0667 25.9975Z" fill="black"/>
<path d="M43.1049 4H44.077V0.817741H45.1846V0H42V0.817741H43.1049V4Z" fill="#D1D5DB"/>
<path d="M45.8805 4H46.7384V1.45253H46.7915L47.6627 4H48.2178L49.089 1.45253H49.1448V4H50V0H48.8924L47.9681 2.71379H47.9177L46.9907 0H45.8805V4Z" fill="#D1D5DB"/>
</svg>
