<svg xmlns="http://www.w3.org/2000/svg" xmlns:xlink="http://www.w3.org/1999/xlink" fill="#383E45">
    <style>
        @media only screen and (min-width: 769px) {
            .o_connection_19_mobile {
                display: none;
            }
        }
        @media only screen and (max-width: 768px) {
            .o_connection_19_desktop {
                display: none;
            }
        }
    </style>
    <svg viewBox="0 0 768 64" preserveAspectRatio="none" class="o_connection_19_desktop">
        <path d="M0.00012207 64L768 64L768 61.6264C754.395 64.1032 739.365 49.2422 710.674 27.1571C679.186 2.90482 646.437 25.2995 605.733 43.0501C584.887 52.1318 553.125 72.5657 528.274 50.9966C498.487 25.1963 464.256 24.7835 442.533 33.0396C393.052 51.8222 368.53 47.3846 341.76 28.9115C288.055 -8.13773 283.996 44.4949 218.606 6.20726C187.118 -12.2658 135.772 15.4954 123.264 24.6803C78.0618 58.0143 58.5876 21.4811 0.000166026 22.1003L0.00012207 64Z"/>
    </svg>
    <svg viewBox="0 0 768 64" preserveAspectRatio="xMidYMax slice" class="o_connection_19_mobile">
        <path d="M0.00012207 64L768 64L768 61.6264C754.395 64.1032 739.365 49.2422 710.674 27.1571C679.186 2.90482 646.437 25.2995 605.733 43.0501C584.887 52.1318 553.125 72.5657 528.274 50.9966C498.487 25.1963 464.256 24.7835 442.533 33.0396C393.052 51.8222 368.53 47.3846 341.76 28.9115C288.055 -8.13773 283.996 44.4949 218.606 6.20726C187.118 -12.2658 135.772 15.4954 123.264 24.6803C78.0618 58.0143 58.5876 21.4811 0.000166026 22.1003L0.00012207 64Z"/>
    </svg>
</svg>
