<svg xmlns="http://www.w3.org/2000/svg" xmlns:xlink="http://www.w3.org/1999/xlink" fill="#383E45">
    <style>
        @media only screen and (min-width: 769px) {
            .o_connection_20_mobile {
                display: none;
            }
        }
        @media only screen and (max-width: 768px) {
            .o_connection_20_desktop {
                display: none;
            }
        }
    </style>
    <svg viewBox="0 0 768 64" preserveAspectRatio="none" class="o_connection_20_desktop">
        <path id="o_connection_20" d="M746.112 15.969C743.973 11.1036 740.517 11.1036 738.377 15.969L733.33 27.4466C729.929 35.1814 724.389 35.1814 720.987 27.4466C717.312 19.088 711.333 19.088 707.602 27.4466C705.463 32.3121 702.007 32.3121 699.867 27.4466L693.175 12.2264C689.39 3.61823 683.246 3.61823 679.406 12.2264C677.87 15.7195 675.401 15.7195 673.865 12.2264C671.726 7.3609 668.27 7.3609 666.13 12.2264L659.438 27.4466C657.298 32.3121 653.842 32.3121 651.703 27.4466L642.926 7.48567C638.702 -2.12052 631.899 -2.24529 627.675 7.23615C623.561 16.3433 616.923 16.3433 612.864 6.98662C608.805 -2.2453 602.167 -2.37003 598.053 6.8619L582.912 40.6707C578.907 49.7778 572.379 49.7778 568.375 40.6707C564.37 31.5635 557.897 31.5635 553.838 40.6707L551.205 46.6589C547.2 55.7661 540.672 55.7661 536.667 46.6589L536.174 45.5362C533.595 39.6727 529.481 39.6727 526.903 45.5362C522.624 55.2671 515.657 55.2671 511.378 45.5362L505.015 31.0645C501.23 22.4563 495.031 22.3316 491.246 31.0645L491.136 31.314C489.929 34.0586 487.954 34.0586 486.693 31.314L486.583 31.0645C482.304 21.3335 475.337 21.3335 471.058 31.0645L464.585 45.7857C463.543 48.1561 461.897 48.1561 460.855 45.7857L460.69 45.4114C459.264 42.1677 456.96 42.043 455.534 45.2866C455.534 45.2866 455.534 45.2866 455.479 45.2866L455.369 45.5362C451.09 55.2671 444.123 55.2671 439.845 45.5362L434.688 33.8091C430.409 24.0782 423.442 24.0782 419.163 33.8091L409.399 56.0156C407.698 60.0078 404.846 60.0078 403.145 56.0156L403.09 55.8909C401.719 52.772 399.799 51.5244 397.934 52.5225C395.355 53.8948 391.625 54.8928 389.76 50.6511L376.594 20.7097C370.176 6.11333 359.753 6.11333 353.335 20.7097L348.288 32.4368C340.827 49.4036 328.704 49.5284 321.189 32.4368L320.914 31.813C316.635 21.9573 309.669 21.8326 305.335 31.5635C305.335 31.5635 305.335 31.5635 305.28 31.6882L295.351 54.2691C293.211 59.1345 289.755 59.1345 287.616 54.2691L287.342 53.6453C285.202 48.7798 281.746 48.7798 279.607 53.6453L279.333 54.2691C277.193 59.1345 273.737 59.1345 271.598 54.2691L267.922 45.9104C263.643 36.1795 256.677 36.1795 252.398 45.9104C250.039 51.2749 246.747 53.8948 243.456 53.0215C241.591 52.5225 239.726 52.772 238.848 54.768L238.683 55.1424C234.405 64.8733 227.438 64.8733 223.159 55.1424L212.846 31.813C210.377 26.199 206.373 26.199 203.959 31.813L203.794 32.1873C199.515 41.9182 192.549 41.9182 188.27 32.1873L187.776 31.0645C185.966 26.9475 183.058 26.9475 181.248 31.0645C179.931 34.0586 178.121 35.3062 176.311 34.4329C174.391 33.5596 171.867 33.1854 170.606 36.1795L170.441 36.5537C164.023 51.1502 153.6 51.1502 147.182 36.5537L140.709 22.4564C139.392 19.4622 137.198 19.3375 135.826 22.4564L135.497 23.2049C132.261 30.5655 127.049 30.5655 123.867 23.2049L123.648 22.7059C119.369 12.9749 112.402 12.9749 108.123 22.7059L104.174 31.6882C103.022 34.3081 101.157 34.3081 100.005 31.6882C97.8651 26.8228 94.4091 26.8228 92.2697 31.6882L88.1006 41.1697C85.9611 46.0352 82.5051 46.0352 80.3657 41.1697L72.3017 22.7059C70.1623 17.8404 66.7063 17.8404 64.5669 22.7059L60.3429 32.312C56.064 42.043 49.0971 42.043 44.8183 32.312L38.6194 18.2146C33.3531 6.23808 24.7954 6.23808 19.4743 18.2146C17.3349 23.0801 13.8789 23.0801 11.7394 18.2146L9.32571 12.7254C7.18629 7.85996 3.73029 7.85996 1.59086 12.7254C0.548571 15.0958 0 18.2146 0 21.5831V64H768V18.9632C768 12.1017 765.531 6.48764 762.514 6.48764C761.143 6.48764 759.826 7.73514 758.784 9.85599L755.822 16.0938C753.134 22.082 748.745 22.0821 746.112 15.969Z"/>
    </svg>
    <svg viewBox="0 0 768 64" preserveAspectRatio="xMidYMax slice" class="o_connection_20_mobile">
        <path d="M746.112 15.969C743.973 11.1036 740.517 11.1036 738.377 15.969L733.33 27.4466C729.929 35.1814 724.389 35.1814 720.987 27.4466C717.312 19.088 711.333 19.088 707.602 27.4466C705.463 32.3121 702.007 32.3121 699.867 27.4466L693.175 12.2264C689.39 3.61823 683.246 3.61823 679.406 12.2264C677.87 15.7195 675.401 15.7195 673.865 12.2264C671.726 7.3609 668.27 7.3609 666.13 12.2264L659.438 27.4466C657.298 32.3121 653.842 32.3121 651.703 27.4466L642.926 7.48567C638.702 -2.12052 631.899 -2.24529 627.675 7.23615C623.561 16.3433 616.923 16.3433 612.864 6.98662C608.805 -2.2453 602.167 -2.37003 598.053 6.8619L582.912 40.6707C578.907 49.7778 572.379 49.7778 568.375 40.6707C564.37 31.5635 557.897 31.5635 553.838 40.6707L551.205 46.6589C547.2 55.7661 540.672 55.7661 536.667 46.6589L536.174 45.5362C533.595 39.6727 529.481 39.6727 526.903 45.5362C522.624 55.2671 515.657 55.2671 511.378 45.5362L505.015 31.0645C501.23 22.4563 495.031 22.3316 491.246 31.0645L491.136 31.314C489.929 34.0586 487.954 34.0586 486.693 31.314L486.583 31.0645C482.304 21.3335 475.337 21.3335 471.058 31.0645L464.585 45.7857C463.543 48.1561 461.897 48.1561 460.855 45.7857L460.69 45.4114C459.264 42.1677 456.96 42.043 455.534 45.2866C455.534 45.2866 455.534 45.2866 455.479 45.2866L455.369 45.5362C451.09 55.2671 444.123 55.2671 439.845 45.5362L434.688 33.8091C430.409 24.0782 423.442 24.0782 419.163 33.8091L409.399 56.0156C407.698 60.0078 404.846 60.0078 403.145 56.0156L403.09 55.8909C401.719 52.772 399.799 51.5244 397.934 52.5225C395.355 53.8948 391.625 54.8928 389.76 50.6511L376.594 20.7097C370.176 6.11333 359.753 6.11333 353.335 20.7097L348.288 32.4368C340.827 49.4036 328.704 49.5284 321.189 32.4368L320.914 31.813C316.635 21.9573 309.669 21.8326 305.335 31.5635C305.335 31.5635 305.335 31.5635 305.28 31.6882L295.351 54.2691C293.211 59.1345 289.755 59.1345 287.616 54.2691L287.342 53.6453C285.202 48.7798 281.746 48.7798 279.607 53.6453L279.333 54.2691C277.193 59.1345 273.737 59.1345 271.598 54.2691L267.922 45.9104C263.643 36.1795 256.677 36.1795 252.398 45.9104C250.039 51.2749 246.747 53.8948 243.456 53.0215C241.591 52.5225 239.726 52.772 238.848 54.768L238.683 55.1424C234.405 64.8733 227.438 64.8733 223.159 55.1424L212.846 31.813C210.377 26.199 206.373 26.199 203.959 31.813L203.794 32.1873C199.515 41.9182 192.549 41.9182 188.27 32.1873L187.776 31.0645C185.966 26.9475 183.058 26.9475 181.248 31.0645C179.931 34.0586 178.121 35.3062 176.311 34.4329C174.391 33.5596 171.867 33.1854 170.606 36.1795L170.441 36.5537C164.023 51.1502 153.6 51.1502 147.182 36.5537L140.709 22.4564C139.392 19.4622 137.198 19.3375 135.826 22.4564L135.497 23.2049C132.261 30.5655 127.049 30.5655 123.867 23.2049L123.648 22.7059C119.369 12.9749 112.402 12.9749 108.123 22.7059L104.174 31.6882C103.022 34.3081 101.157 34.3081 100.005 31.6882C97.8651 26.8228 94.4091 26.8228 92.2697 31.6882L88.1006 41.1697C85.9611 46.0352 82.5051 46.0352 80.3657 41.1697L72.3017 22.7059C70.1623 17.8404 66.7063 17.8404 64.5669 22.7059L60.3429 32.312C56.064 42.043 49.0971 42.043 44.8183 32.312L38.6194 18.2146C33.3531 6.23808 24.7954 6.23808 19.4743 18.2146C17.3349 23.0801 13.8789 23.0801 11.7394 18.2146L9.32571 12.7254C7.18629 7.85996 3.73029 7.85996 1.59086 12.7254C0.548571 15.0958 0 18.2146 0 21.5831V64H768V18.9632C768 12.1017 765.531 6.48764 762.514 6.48764C761.143 6.48764 759.826 7.73514 758.784 9.85599L755.822 16.0938C753.134 22.082 748.745 22.0821 746.112 15.969Z"/>
    </svg>
</svg>
