<svg width="70" height="70" viewBox="0 0 70 70" fill="none" xmlns="http://www.w3.org/2000/svg">
<path d="M26.3988 48.0746C29.587 48.0746 31.8644 46.3072 31.8644 43.0322C31.8644 39.1855 29.6377 37.4701 25.9433 37.4701H22.1478V35.5475C22.1478 33.4513 23.8471 31.752 25.9433 31.752L32.9777 34.507C36.5709 35.8066 39 38.5097 39 43.1362C39 48.7504 35.5587 51.9213 31.3077 53.2729C29.7389 53.7407 28.0688 54.0006 26.247 54.0006C20.9332 54.0006 16.9858 51.7134 15.0628 48.1266C14.3543 46.775 14 45.1635 14 43.3441H21.1356C21.1356 45.6834 22.6032 47.0869 24.3239 47.7107C24.9818 47.9706 25.6397 48.0746 26.3988 48.0746Z" fill="var(--o-icons-orange-300, #F84C31)"/>
<path d="M35.3055 32.9984C34.6476 33.5702 33.8379 34.09 32.9776 34.5059L29.4604 35.9874L25.9432 37.4689H22.1476V35.5464C22.1476 33.4501 23.847 31.7508 25.9432 31.7508C29.3339 31.7508 31.3075 29.9314 31.3075 26.6565C31.3075 23.5895 29.4351 21.926 26.3986 21.926C24.2225 21.926 22.6537 22.8617 21.9452 24.3692C21.6922 24.8891 21.5909 25.4609 21.5909 26.0847H14.4553C14.4553 20.9384 17.7954 18.0273 21.6416 16.7278C23.0586 16.2599 24.6274 16 26.2468 16C31.8136 16 35.761 18.0793 37.5322 21.978C38.1395 23.2776 38.4432 24.8371 38.4432 26.5525C38.4432 29.5675 36.9756 31.5429 35.3055 32.9984Z" fill="var(--o-icons-orange-100, #FBA82E)"/>
<path d="M32.9768 34.5067L25.9431 37.4694H22.1477V35.5475C22.1477 33.4513 23.847 31.752 25.9433 31.752L32.9768 34.5067Z" fill="var(--o-icons-orange-200, #FC803D)"/>
<path d="M49 17.3333L51 16H52C54.2091 16 56 17.7909 56 20L56 54H53C50.7909 54 49 52.2091 49 50V17.3333Z" fill="var(--o-icons-orange-200, #FC803D)"/>
<path d="M51 16L42 22L40.592 28.0624L48.9692 24.2727L56 21.1251V20C56 17.7909 54.2091 16 52 16H51Z" fill="var(--o-icons-orange-100, #FBA82E)"/>
<path d="M49 17.3333L51 16H52C54.2091 16 56 17.7909 56 20V21.1251L49 24.2589V17.3333Z" fill="var(--o-icons-orange-300, #F84C31)"/>
</svg>
