<svg width="50" height="50" viewBox="0 0 50 50" fill="none" xmlns="http://www.w3.org/2000/svg">
<path d="M16 38C19 38 22 37 22 33C22 29 19.6943 27 16 27V27C16 25.3431 17.3431 24 19 24H23C26.5931 25.2996 29 28 29 33C29 41 23 44 16 44C9 44 4 41 4 33H11C11 36 13 38 16 38Z" fill="var(--o-icons-purple-pure, #7933F3)"/>
<path d="M16 38C19 38 22 37 22 33C22 29 19.6943 27 16 27V27C16 25.3431 17.3431 24 19 24H23C26.5931 25.2996 29 28 29 33C29 41 23 44 16 44C9 44 4 41 4 33H11C11 36 13 38 16 38Z" fill="url(#white_gradient_1)" fill-opacity="0.3"/>
<path d="M23 24H18C16.8954 24 16 23.1046 16 22V22C20 22 21 19 21 17C21 14 19.0364 12 16 12C13 12 11 14 11 16H4C4 9.61625 10 6 16 6C22 6 28 10 28 16C28 22 23 24 23 24Z" fill="var(--o-icons-yellow-pure, #FBB130)"/>
<path d="M23 24H18C16.8954 24 16 23.1046 16 22V22C20 22 21 19 21 17C21 14 19.0364 12 16 12C13 12 11 14 11 16H4C4 9.61625 10 6 16 6C22 6 28 10 28 16C28 22 23 24 23 24Z" fill="url(#white_gradient_2)" fill-opacity="0.2"/>
<path d="M23 24L16 27H12V25C12 23 13 22 16 22L23 24Z" fill="var(--o-icons-magenta-yellow, #FB481E)"/>
<path d="M23 24L16 27H12V25C12 23 13 22 16 22L23 24Z" fill="url(#white_gradient_3)" fill-opacity="0.3"/>
<path d="M46 11V44H43C41 44 39 42 39 40V14L46 11Z" fill="var(--o-icons-yellow-pure, #FBB130)"/>
<path d="M46 11V44H43C41 44 39 42 39 40V14L46 11Z" fill="url(#white_gradient_4)" fill-opacity="0.2"/>
<path d="M39 7.33313L32 12L31 18L39 14V7.33313Z" fill="var(--o-icons-purple-pure, #7933F3)"/>
<path d="M39 7.33313L32 12L31 18L39 14V7.33313Z" fill="url(#white_gradient_5)" fill-opacity="0.3"/>
<path d="M39 7.33333L41 6H42C44 6 46 8 46 10V11L39 14V7.33333Z" fill="var(--o-icons-magenta-yellow, #FB481E)"/>
<path d="M39 7.33333L41 6H42C44 6 46 8 46 10V11L39 14V7.33333Z" fill="url(#white_gradient_6)" fill-opacity="0.3"/>
<defs>
<linearGradient id="white_gradient_1" x1="4" y1="24" x2="32.4698" y2="32.8968" gradientUnits="userSpaceOnUse">
<stop stop-color="white"/>
<stop offset="1" stop-color="white" stop-opacity="0"/>
</linearGradient>
<linearGradient id="white_gradient_2" x1="4" y1="6" x2="31" y2="15" gradientUnits="userSpaceOnUse">
<stop stop-color="white"/>
<stop offset="1" stop-color="white" stop-opacity="0"/>
</linearGradient>
<linearGradient id="white_gradient_3" x1="12" y1="22" x2="22.5566" y2="27.8061" gradientUnits="userSpaceOnUse">
<stop stop-color="white"/>
<stop offset="1" stop-color="white" stop-opacity="0"/>
</linearGradient>
<linearGradient id="white_gradient_4" x1="39" y1="11" x2="47.7255" y2="11.4627" gradientUnits="userSpaceOnUse">
<stop stop-color="white"/>
<stop offset="1" stop-color="white" stop-opacity="0"/>
</linearGradient>
<linearGradient id="white_gradient_5" x1="31" y1="7.33313" x2="40.6604" y2="9.14442" gradientUnits="userSpaceOnUse">
<stop stop-color="white"/>
<stop offset="1" stop-color="white" stop-opacity="0"/>
</linearGradient>
<linearGradient id="white_gradient_6" x1="39" y1="6" x2="47.3504" y2="7.82665" gradientUnits="userSpaceOnUse">
<stop stop-color="white"/>
<stop offset="1" stop-color="white" stop-opacity="0"/>
</linearGradient>
</defs>
</svg>
