<svg width="50" height="50" viewBox="0 0 50 50" fill="none" xmlns="http://www.w3.org/2000/svg">
<path d="M4 17C4 14.7909 5.79086 13 8 13H46V33C46 35.2091 44.2091 37 42 37H4V17Z" fill="var(--o-icons-magenta-pure, #FF689E)"/>
<path d="M4 17C4 14.7909 5.79086 13 8 13H46V33C46 35.2091 44.2091 37 42 37H4V17Z" fill="url(#white_gradient_1)" fill-opacity="0.4"/>
<path d="M8 8C8 5.79086 9.79086 4 12 4H38C40.2091 4 42 5.79086 42 8V13H8V8Z" fill="var(--o-icons-purple-pure, #7933F3)"/>
<path d="M8 8C8 5.79086 9.79086 4 12 4H38C40.2091 4 42 5.79086 42 8V13H8V8Z" fill="url(#white_gradient_2)" fill-opacity="0.3"/>
<path d="M13 29H37V42C37 44.2091 35.2091 46 33 46H13V29Z" fill="var(--o-icons-yellow-pure, #FBB130)"/>
<path d="M13 29H37V42C37 44.2091 35.2091 46 33 46H13V29Z" fill="url(#white_gradient_3)" fill-opacity="0.2"/>
<path d="M37 37H13V29H37V37Z" fill="var(--o-icons-magenta-yellow, #FB481E)"/>
<path d="M37 37H13V29H37V37Z" fill="url(#white_gradient_4)" fill-opacity="0.3"/>
<defs>
<linearGradient id="white_gradient_1" x1="4" y1="13" x2="48.0656" y2="32.2787" gradientUnits="userSpaceOnUse">
<stop stop-color="white"/>
<stop offset="1" stop-color="white" stop-opacity="0"/>
</linearGradient>
<linearGradient id="white_gradient_2" x1="8" y1="4" x2="30.4633" y2="25.2153" gradientUnits="userSpaceOnUse">
<stop stop-color="white"/>
<stop offset="1" stop-color="white" stop-opacity="0"/>
</linearGradient>
<linearGradient id="white_gradient_3" x1="13" y1="29" x2="39.6769" y2="38.4154" gradientUnits="userSpaceOnUse">
<stop stop-color="white"/>
<stop offset="1" stop-color="white" stop-opacity="0"/>
</linearGradient>
<linearGradient id="white_gradient_4" x1="13" y1="29" x2="32.2" y2="43.4" gradientUnits="userSpaceOnUse">
<stop stop-color="white"/>
<stop offset="1" stop-color="white" stop-opacity="0"/>
</linearGradient>
</defs>
</svg>
