<svg width="70" height="70" viewBox="0 0 70 70" fill="none" xmlns="http://www.w3.org/2000/svg">
<ellipse cx="33.52" cy="32.4785" rx="22.52" ry="22.5" fill="var(--o-icons-purple-200, #CA498D)"/>
<ellipse cx="36.6503" cy="36.6484" rx="22.52" ry="22.5" fill="var(--o-icons-blue-100, #1ACAF0)"/>
<path d="M33.52 54.978C45.9574 54.978 56.0399 44.9044 56.0399 32.478C56.0399 28.3542 54.9295 24.4895 52.9912 21.1661C48.8874 16.8439 43.0839 14.1484 36.6503 14.1484C24.2129 14.1484 14.1304 24.222 14.1304 36.6484C14.1304 40.7722 15.2408 44.6369 17.1791 47.9604C21.2829 52.2826 27.0864 54.978 33.52 54.978Z" fill="var(--o-icons-blue-400, #251B85)"/>
<path d="M17.861 16.308C18.4916 15.6983 19.1578 15.1251 19.8561 14.5918C20.1269 14.6401 20.3892 14.7549 20.6173 14.9375L37.154 28.1736C39.0145 29.6628 39.1433 32.461 37.4576 34.1452C35.7718 35.8295 32.9712 35.7008 31.4807 33.8419L18.2328 17.3199C17.9939 17.0219 17.871 16.6656 17.861 16.308Z" fill="var(--o-icons-bg, #FFFFFF)"/>
</svg>
