<svg width="50" height="50" viewBox="0 0 50 50" fill="none" xmlns="http://www.w3.org/2000/svg">
<path d="M45.4447 23.2223C45.4447 19.3215 44.4179 15.4894 42.4675 12.1112C40.517 8.73295 37.7117 5.92765 34.3335 3.97723C30.9553 2.02681 27.1232 1 23.2223 1C19.3215 1 15.4894 2.02681 12.1112 3.97723C8.73295 5.92765 5.92765 8.73295 3.97723 12.1112C2.02681 15.4894 1 19.3215 1 23.2223C1 27.1232 2.02681 30.9553 3.97723 34.3335C5.92765 37.7117 8.73295 40.517 12.1112 42.4675L23.2223 23.2223H45.4447Z" fill="var(--o-icons-magenta-pure, #FF689E)"/>
<path d="M45.4447 23.2223C45.4447 19.3215 44.4179 15.4894 42.4675 12.1112C40.517 8.73295 37.7117 5.92765 34.3335 3.97723C30.9553 2.02681 27.1232 1 23.2223 1C19.3215 1 15.4894 2.02681 12.1112 3.97723C8.73295 5.92765 5.92765 8.73295 3.97723 12.1112C2.02681 15.4894 1 19.3215 1 23.2223C1 27.1232 2.02681 30.9553 3.97723 34.3335C5.92765 37.7117 8.73295 40.517 12.1112 42.4675L23.2223 23.2223H45.4447Z" fill="url(#white_gradient_1)" fill-opacity="0.4"/>
<path d="M5.3125 32.5295C6.25835 36.0595 8.06017 39.3017 10.5583 41.969C13.0565 44.6362 16.174 46.6463 19.6345 47.821C23.095 48.9956 26.7919 49.2988 30.3976 48.7035C34.0032 48.1082 37.4064 46.6328 40.3057 44.4081C43.205 42.1834 45.5109 39.278 47.0192 35.9493C48.5274 32.6205 49.1914 28.9712 48.9524 25.3245C48.7134 21.6779 47.5787 18.1464 45.6489 15.043C43.7191 11.9396 41.0537 9.36008 37.8888 7.53284L26.7776 26.7779L5.3125 32.5295Z" fill="var(--o-icons-cyan-pure, #1BD4F9)"/>
<path d="M5.3125 32.5295C6.25835 36.0595 8.06017 39.3017 10.5583 41.969C13.0565 44.6362 16.174 46.6463 19.6345 47.821C23.095 48.9956 26.7919 49.2988 30.3976 48.7035C34.0032 48.1082 37.4064 46.6328 40.3057 44.4081C43.205 42.1834 45.5109 39.278 47.0192 35.9493C48.5274 32.6205 49.1914 28.9712 48.9524 25.3245C48.7134 21.6779 47.5787 18.1464 45.6489 15.043C43.7191 11.9396 41.0537 9.36008 37.8888 7.53284L26.7776 26.7779L5.3125 32.5295Z" fill="url(#white_gradient_2)" fill-opacity="0.3"/>
<path d="M23.2224 45.4446C35.4955 45.4446 45.4448 35.4954 45.4448 23.2223C45.4448 17.9916 43.6376 13.183 40.6135 9.38682C36.8173 6.36274 32.0087 4.55554 26.778 4.55554C14.5049 4.55554 4.55566 14.5048 4.55566 26.7779C4.55566 32.0086 6.36287 36.8172 9.38694 40.6134C13.1831 43.6375 17.9917 45.4446 23.2224 45.4446Z" fill="var(--o-icons-magenta-cyan, #1B569A)"/>
<path d="M23.2224 45.4446C35.4955 45.4446 45.4448 35.4954 45.4448 23.2223C45.4448 17.9916 43.6376 13.183 40.6135 9.38682C36.8173 6.36274 32.0087 4.55554 26.778 4.55554C14.5049 4.55554 4.55566 14.5048 4.55566 26.7779C4.55566 32.0086 6.36287 36.8172 9.38694 40.6134C13.1831 43.6375 17.9917 45.4446 23.2224 45.4446Z" fill="url(#white_gradient_3)" fill-opacity="0.3"/>
<path d="M7.71777 7.3023C8.36423 6.67262 9.04889 6.08197 9.76797 5.53418C9.99503 5.59021 10.2133 5.69511 10.4065 5.84975L26.5792 18.7946C28.3988 20.251 28.5247 22.9876 26.8761 24.6347C25.2274 26.2819 22.4885 26.1561 21.0307 24.3381L8.07445 8.1797C7.86578 7.91946 7.74762 7.61377 7.71777 7.3023Z" fill="white"/>
<defs>
<linearGradient id="white_gradient_1" x1="1" y1="1" x2="52.8343" y2="14.889" gradientUnits="userSpaceOnUse">
<stop stop-color="white"/>
<stop offset="1" stop-color="white" stop-opacity="0"/>
</linearGradient>
<linearGradient id="white_gradient_2" x1="5.3125" y1="7.53284" x2="56.3793" y2="20.983" gradientUnits="userSpaceOnUse">
<stop stop-color="white"/>
<stop offset="1" stop-color="white" stop-opacity="0"/>
</linearGradient>
<linearGradient id="white_gradient_3" x1="4.55566" y1="4.55554" x2="52.6605" y2="16.5817" gradientUnits="userSpaceOnUse">
<stop stop-color="white"/>
<stop offset="1" stop-color="white" stop-opacity="0"/>
</linearGradient>
</defs>
</svg>
