<svg width="50" height="50" viewBox="0 0 50 50" fill="none" xmlns="http://www.w3.org/2000/svg">
<path d="M30.8419 34.6116L22.7368 44.9991L5.45233 31.3697C3.78959 30.0441 3.51384 27.6184 4.83642 25.9518L10.5844 18.7089L30.8419 34.6116Z" fill="var(--o-icons-purple-pure, #7933F3)"/>
<path d="M30.8419 34.6116L22.7368 44.9991L5.45233 31.3697C3.78959 30.0441 3.51384 27.6184 4.83642 25.9518L10.5844 18.7089L30.8419 34.6116Z" fill="url(#white_gradient_1)" fill-opacity="0.3"/>
<path d="M22.6216 44.9085L12.167 36.5734L20.2945 26.3319L30.8421 34.6121L22.7371 44.9995L22.6216 44.9085Z" fill="var(--o-icons-purple-teal, #0028A3)"/>
<path d="M22.6216 44.9085L12.167 36.5734L20.2945 26.3319L30.8421 34.6121L22.7371 44.9995L22.6216 44.9085Z" fill="url(#white_gradient_2)" fill-opacity="0.3"/>
<path d="M22.5934 44.8858L22.7369 45.0002L45.1836 16.2326C46.4848 14.5649 46.2011 12.1575 44.5481 10.8396L37.2235 5L20.2949 26.3317L30.8421 34.6116L22.737 44.9991L22.5934 44.8858Z" fill="var(--o-icons-teal-pure, #00CEB3)"/>
<path d="M22.5934 44.8858L22.7369 45.0002L45.1836 16.2326C46.4848 14.5649 46.2011 12.1575 44.5481 10.8396L37.2235 5L20.2949 26.3317L30.8421 34.6116L22.737 44.9991L22.5934 44.8858Z" fill="url(#white_gradient_3)" fill-opacity="0.3"/>
<defs>
<linearGradient id="white_gradient_1" x1="4" y1="18.7089" x2="35.5001" y2="26.7491" gradientUnits="userSpaceOnUse">
<stop stop-color="white"/>
<stop offset="1" stop-color="white" stop-opacity="0"/>
</linearGradient>
<linearGradient id="white_gradient_2" x1="12.167" y1="26.3319" x2="34.1367" y2="31.8265" gradientUnits="userSpaceOnUse">
<stop stop-color="white"/>
<stop offset="1" stop-color="white" stop-opacity="0"/>
</linearGradient>
<linearGradient id="white_gradient_3" x1="20.2949" y1="5" x2="51.6183" y2="10.0324" gradientUnits="userSpaceOnUse">
<stop stop-color="white"/>
<stop offset="1" stop-color="white" stop-opacity="0"/>
</linearGradient>
</defs>
</svg>
