<svg xmlns="http://www.w3.org/2000/svg" xmlns:xlink="http://www.w3.org/1999/xlink" width="800" height="600">
    <defs>
        <clipPath id="clip-path" clipPathUnits="objectBoundingBox">
            <use xlink:href="#filterPath" fill="none"/>
        </clipPath>
        <path id="filterPath" d="M0.1011,0.1011H0V0h0.1011V0.1011zM0.2134,0h-0.1011v0.1011h0.1011V0zM0.3258,0h-0.1011v0.1011h0.1011V0zM0.4381,0h-0.1011v0.1011H0.4381V0zM0.5506,0h-0.1011v0.1011h0.1011V0zM0.6629,0H0.5619v0.1011h0.1011V0zM0.7752,0h-0.1011v0.1011h0.1011V0zM0.8877,0h-0.1011v0.1011h0.1011V0zM1,0h-0.1011v0.1011h0.1011V0zM0.1011,0.1123H0V0.2134h0.1011V0.1123zM0.2134,0.1123h-0.1011V0.2134h0.1011V0.1123zM0.3258,0.1123h-0.1011V0.2134h0.1011V0.1123zM0.4381,0.1123h-0.1011V0.2134H0.4381V0.1123zM0.5506,0.1123h-0.1011V0.2134h0.1011V0.1123zM0.6629,0.1123H0.5619V0.2134h0.1011V0.1123zM0.7752,0.1123h-0.1011V0.2134h0.1011V0.1123zM0.8877,0.1123h-0.1011V0.2134h0.1011V0.1123zM1,0.1123h-0.1011V0.2134h0.1011V0.1123zM0.1011,0.2248H0v0.1011h0.1011V0.2248zM0.2134,0.2248h-0.1011v0.1011h0.1011V0.2248zM0.3258,0.2248h-0.1011v0.1011h0.1011V0.2248zM0.4381,0.2248h-0.1011v0.1011H0.4381V0.2248zM0.5506,0.2248h-0.1011v0.1011h0.1011V0.2248zM0.6629,0.2248H0.5619v0.1011h0.1011V0.2248zM0.7752,0.2248h-0.1011v0.1011h0.1011V0.2248zM0.8877,0.2248h-0.1011v0.1011h0.1011V0.2248zM1,0.2248h-0.1011v0.1011h0.1011V0.2248zM0.1011,0.3371H0v0.1011h0.1011V0.3371zM0.2134,0.3371h-0.1011v0.1011h0.1011V0.3371zM0.3258,0.3371h-0.1011v0.1011h0.1011V0.3371zM0.4381,0.3371h-0.1011v0.1011H0.4381V0.3371zM0.5506,0.3371h-0.1011v0.1011h0.1011V0.3371zM0.6629,0.3371H0.5619v0.1011h0.1011V0.3371zM0.7752,0.3371h-0.1011v0.1011h0.1011V0.3371zM0.8877,0.3371h-0.1011v0.1011h0.1011V0.3371zM1,0.3371h-0.1011v0.1011h0.1011V0.3371zM0.1011,0.4494H0v0.1011h0.1011V0.4494zM0.2134,0.4494h-0.1011v0.1011h0.1011V0.4494zM0.3258,0.4494h-0.1011v0.1011h0.1011V0.4494zM0.4381,0.4494h-0.1011v0.1011H0.4381V0.4494zM0.5506,0.4494h-0.1011v0.1011h0.1011V0.4494zM0.6629,0.4494H0.5619v0.1011h0.1011V0.4494zM0.7752,0.4494h-0.1011v0.1011h0.1011V0.4494zM0.8877,0.4494h-0.1011v0.1011h0.1011V0.4494zM1,0.4494h-0.1011v0.1011h0.1011V0.4494zM0.1011,0.5618H0v0.1011h0.1011V0.5618zM0.2134,0.5618h-0.1011v0.1011h0.1011V0.5618zM0.3258,0.5618h-0.1011v0.1011h0.1011V0.5618zM0.4381,0.5618h-0.1011v0.1011H0.4381V0.5618zM0.5506,0.5618h-0.1011v0.1011h0.1011V0.5618zM0.6629,0.5618H0.5619v0.1011h0.1011V0.5618zM0.7752,0.5618h-0.1011v0.1011h0.1011V0.5618zM0.8877,0.5618h-0.1011v0.1011h0.1011V0.5618zM1,0.5618h-0.1011v0.1011h0.1011V0.5618zM0.1011,0.6742H0v0.1011h0.1011V0.6742zM0.2134,0.6742h-0.1011v0.1011h0.1011V0.6742zM0.3258,0.6742h-0.1011v0.1011h0.1011V0.6742zM0.4381,0.6742h-0.1011v0.1011H0.4381V0.6742zM0.5506,0.6742h-0.1011v0.1011h0.1011V0.6742zM0.6629,0.6742H0.5619v0.1011h0.1011V0.6742zM0.7752,0.6742h-0.1011v0.1011h0.1011V0.6742zM0.8877,0.6742h-0.1011v0.1011h0.1011V0.6742zM1,0.6742h-0.1011v0.1011h0.1011V0.6742zM0.1011,0.7866H0v0.1011h0.1011V0.7866zM0.2134,0.7866h-0.1011v0.1011h0.1011V0.7866zM0.3258,0.7866h-0.1011v0.1011h0.1011V0.7866zM0.4381,0.7866h-0.1011v0.1011H0.4381V0.7866zM0.5506,0.7866h-0.1011v0.1011h0.1011V0.7866zM0.6629,0.7866H0.5619v0.1011h0.1011V0.7866zM0.7752,0.7866h-0.1011v0.1011h0.1011V0.7866zM0.8877,0.7866h-0.1011v0.1011h0.1011V0.7866zM1,0.7866h-0.1011v0.1011h0.1011V0.7866zM0.1011,0.8989H0v0.1011h0.1011V0.8989zM0.2134,0.8989h-0.1011v0.1011h0.1011V0.8989zM0.3258,0.8989h-0.1011v0.1011h0.1011V0.8989zM0.4381,0.8989h-0.1011v0.1011H0.4381V0.8989zM0.5506,0.8989h-0.1011v0.1011h0.1011V0.8989zM0.6629,0.8989H0.5619v0.1011h0.1011V0.8989zM0.7752,0.8989h-0.1011v0.1011h0.1011V0.8989zM0.8877,0.8989h-0.1011v0.1011h0.1011V0.8989zM1,0.8989h-0.1011v0.1011h0.1011V0.8989z"/>   
    </defs>
    <svg viewBox="0 0 1 1" id="preview" preserveAspectRatio="none">
        <use xlink:href="#filterPath" fill="darkgrey"/>
    </svg>
    <image xlink:href="" clip-path="url(#clip-path)"/>
</svg>
