<svg width="50" height="50" viewBox="0 0 50 50" fill="none" xmlns="http://www.w3.org/2000/svg">
<path d="M18.0121 25.8262H17.3222C15.9416 25.9533 14.9982 26.4625 14.4921 26.7753C13.1689 27.4694 13.1689 29.1828 13.1689 29.8192V42.0417C13.1689 42.1688 13.1689 42.3545 13.2953 42.3545C13.479 42.2967 13.4216 42.3545 13.6062 42.2967L14.7333 41.9839C14.8596 41.9839 14.917 41.8568 14.917 41.7289V36.9138C15.4806 37.296 16.1713 37.6781 17.3099 37.7359H17.7471C20.4509 37.7359 21.6469 34.8884 21.6469 31.5318C21.6584 28.6158 20.5198 25.8262 18.0121 25.8262ZM17.5634 36.1504H17.3099C16.3091 36.0926 15.6077 35.7682 14.917 35.3861V28.9856C14.917 28.2915 15.8604 27.4348 17.3788 27.3654C17.5166 27.3423 17.574 27.3423 17.6897 27.3423C19.5764 27.3423 19.7027 29.6227 19.7027 31.5904C19.7027 33.87 19.519 36.1504 17.5634 36.1504Z" fill="#3C4187"/>
<path d="M29.3427 11.2539H28.9629C27.5134 11.3117 25.6841 11.948 25.6841 12.3302C25.6841 12.4573 25.6841 12.515 25.7415 12.643L26.0524 13.4072C26.1098 13.5343 26.1098 13.5343 26.1787 13.5343C26.4322 13.5343 27.4559 12.7701 28.9743 12.7701C29.0432 12.7701 29.0203 12.7701 29.0777 12.7701C30.7109 12.7701 31.1596 13.5343 31.1596 14.9226V15.7446C30.6535 15.7446 29.8365 15.8024 28.9505 15.9295C27.1212 16.2423 25.0508 17.203 25.0508 19.8647C25.0508 21.9479 26.1894 23.1636 28.0761 23.1636H28.962C30.4115 23.0365 31.3549 22.7237 31.6075 22.5273C32.8036 21.763 32.9307 20.3046 32.9307 19.1128V14.5528C32.9315 12.5274 31.9882 11.2539 29.3427 11.2539ZM31.1605 20.6991C31.1605 21.0813 30.0219 21.5212 28.9514 21.5905H28.5716C27.3755 21.5905 26.7423 20.6413 26.7423 19.6922C26.7423 18.3032 27.812 17.7246 28.9514 17.4696C29.8373 17.2145 30.7118 17.2145 31.1605 17.2145V20.6991Z" fill="#F89C33"/>
<path d="M40.6736 26.3354C40.6736 26.1505 40.7425 25.8955 40.5473 25.8955L39.293 25.8262C39.1093 25.8262 38.9821 25.8262 38.9821 25.9533L38.9132 35.4554C38.2807 36.0225 37.5326 36.2197 36.394 36.2197C34.9445 36.2775 34.0701 34.7613 34.0012 32.9208C33.8748 30.5711 34.0012 28.4879 34.0012 26.1382C34.0012 26.0804 33.7477 25.8831 33.5639 25.8831H32.4254C32.4254 25.8831 32.1719 26.1959 32.1719 26.2653C32.2293 27.5272 32.678 35.3861 32.9889 35.9531C33.1152 36.138 33.3687 36.5201 33.6214 36.8445C33.8748 37.0995 34.1849 37.2844 34.5647 37.5386C35.3818 38.0478 37.9584 37.8514 38.9706 36.9716L39.028 38.0478L38.9706 39.2512C38.9017 40.4545 38.9017 42.4222 37.0839 42.4808C35.8879 42.4808 35.3235 41.7165 35.1283 42.3537C35.1283 42.4114 34.9445 43.3028 35.002 43.4299C35.1857 43.6849 35.7616 43.9391 36.7623 43.9969C38.0855 44.0547 39.5924 43.3606 40.0411 42.4114C40.8007 40.8953 40.731 37.3422 40.731 36.0109L40.6736 26.3354Z" fill="#3C4187"/>
<path d="M19.8286 12.4582C19.8286 12.3311 19.8861 12.2734 19.8861 12.2032C19.8861 12.0761 19.8286 11.9482 19.6326 11.8904C19.0001 11.5776 17.677 11.1963 16.8599 11.1963C14.778 11.1963 13.3285 12.5276 13.3285 14.4952C13.3285 18.0483 18.494 17.4697 18.494 19.9466C18.494 21.0806 17.677 21.6592 16.6647 21.6592C15.0314 21.6592 13.8346 20.8371 13.6394 20.8371C13.582 20.8371 13.4441 20.8371 13.3859 21.0335L13.075 21.7978C13.0176 21.8556 13.0176 21.9249 13.0176 22.0528C13.0176 22.4927 15.4104 23.1984 16.5375 23.1984C18.5506 23.1984 20.311 22.0528 20.311 19.8418C20.311 16.1731 15.088 16.925 15.088 14.3326C15.088 13.1986 15.9051 12.7471 16.8484 12.7471C18.0445 12.7471 19.0575 13.3834 19.1724 13.3834C19.2987 13.3834 19.3561 13.3141 19.4833 13.1284L19.8286 12.4582Z" fill="#F89C33"/>
<path d="M23.2919 11.8913C23.2919 11.7064 23.2345 11.5785 22.981 11.5785H21.785C21.6012 11.5785 21.4741 11.6478 21.4741 11.8335V22.5976C21.4741 22.7825 21.6004 22.8527 21.785 22.8527H22.981C23.1648 22.8527 23.2919 22.7833 23.2919 22.5976V11.8913ZM23.6709 7.38905C23.6709 6.62478 23.0384 6 22.2903 6C21.4733 6 20.8408 6.63634 20.8408 7.38905C20.8408 8.21109 21.4618 8.84743 22.2903 8.84743C23.0384 8.84743 23.6709 8.21027 23.6709 7.38905Z" fill="#F89C33"/>
<path d="M26.996 25.9189H26.6162C25.1667 25.9883 23.3374 26.6131 23.3374 26.9952C23.3374 27.1223 23.3374 27.1801 23.3948 27.308L23.7057 28.0723C23.7631 28.1994 23.7631 28.1994 23.832 28.1994C24.0855 28.1994 25.1093 27.4351 26.6277 27.4351C26.6851 27.4351 26.6736 27.4351 26.731 27.4351C28.3643 27.4351 28.813 28.1994 28.813 29.5876V30.4096C28.3068 30.4096 27.4898 30.4674 26.6039 30.5945C24.7746 30.9073 22.7041 31.868 22.7041 34.5297C22.7041 36.6129 23.8427 37.8286 25.7294 37.8286H26.6154C28.0648 37.7015 29.0082 37.3772 29.2609 37.1923C30.4569 36.428 30.584 34.9697 30.584 33.7663V29.2063C30.5963 27.1925 29.6423 25.9189 26.996 25.9189ZM28.8253 35.3642C28.8253 35.7463 27.6867 36.1862 26.6162 36.2555H26.2364C25.0404 36.2555 24.4071 35.3064 24.4071 34.3572C24.4071 32.9682 25.4768 32.3896 26.6162 32.1346C27.5021 31.8796 28.3766 31.8796 28.8253 31.8796V35.3642Z" fill="#3C4187"/>
<path d="M8.29105 11.2539H7.91125C6.46176 11.3117 4.63246 11.948 4.63246 12.3302C4.63246 12.4573 4.63246 12.515 4.68988 12.643L5.00078 13.4072C5.0582 13.5343 5.0582 13.5343 5.12711 13.5343C5.38059 13.5343 6.40434 12.7701 7.92273 12.7701C7.99164 12.7701 7.96867 12.7701 8.02609 12.7701C9.65934 12.7701 10.0966 13.5343 10.0966 14.9226V15.7446C9.59043 15.7446 8.7734 15.8024 7.89977 15.9295C6.07047 16.2423 4 17.203 4 19.8647C4 21.9479 5.13859 23.1636 7.02531 23.1636H7.91125C9.36074 23.0365 10.3041 22.7237 10.5568 22.5273C11.7528 21.763 11.8799 20.3046 11.8799 19.1128V14.5528C11.8799 12.5274 10.9366 11.2539 8.29105 11.2539ZM10.1204 20.6991C10.1204 21.0813 8.98176 21.5212 7.92355 21.5905H7.54375C6.34773 21.5905 5.71445 20.6413 5.71445 19.6922C5.71445 18.3032 6.78414 17.7246 7.92355 17.4696C8.80949 17.2145 9.68395 17.2145 10.1204 17.2145V20.6991Z" fill="#F89C33"/>
<path d="M45.9999 27.4234C45.9999 27.9326 45.8162 28.3725 45.4593 28.7315C45.1025 29.0905 44.6653 29.2754 44.1591 29.2754C43.653 29.2754 43.2158 29.0905 42.8589 28.7315C42.5021 28.3725 42.3184 27.9326 42.3184 27.4234C42.3184 26.9141 42.5021 26.4742 42.8589 26.1152C43.2158 25.7562 43.653 25.5713 44.1591 25.5713C44.6653 25.5713 45.1025 25.7562 45.4593 26.1152C45.8162 26.4742 45.9999 26.9026 45.9999 27.4234ZM45.7588 27.4234C45.7588 26.9719 45.598 26.6013 45.2871 26.2778C44.9762 25.965 44.5972 25.8032 44.16 25.8032C43.7227 25.8032 43.3429 25.965 43.0329 26.2778C42.722 26.5906 42.5612 26.9719 42.5612 27.4234C42.5612 27.8748 42.722 28.2454 43.0329 28.5689C43.3437 28.8817 43.7227 29.0435 44.16 29.0435C44.5972 29.0435 44.977 28.8933 45.2871 28.5689C45.5971 28.2454 45.7588 27.8633 45.7588 27.4234ZM45.2173 28.3609H44.7342L44.1362 27.5967H43.8712V28.3609H43.5144V26.4049H44.1124C44.2502 26.4049 44.3536 26.4049 44.4348 26.4164C44.5152 26.428 44.5955 26.4511 44.6645 26.4973C44.7448 26.5435 44.8137 26.6013 44.8482 26.6706C44.8827 26.74 44.9056 26.8324 44.9056 26.9372C44.9056 27.0759 44.8712 27.1923 44.7908 27.2847C44.7104 27.3771 44.607 27.4465 44.4799 27.5042L45.2173 28.3609ZM44.516 26.9603C44.516 26.9026 44.5045 26.8679 44.493 26.8217C44.4815 26.787 44.4471 26.7524 44.4011 26.7177C44.3667 26.6946 44.3207 26.683 44.2863 26.6715C44.2404 26.6599 44.1829 26.6599 44.114 26.6599H43.8729V27.3194H44.0796C44.1485 27.3194 44.2059 27.3078 44.2748 27.2963C44.3322 27.2847 44.3782 27.2616 44.4241 27.2269C44.4586 27.1923 44.493 27.1576 44.5045 27.1114C44.516 27.0883 44.516 27.0305 44.516 26.9603Z" fill="#3C4187"/>
</svg>
