<svg xmlns="http://www.w3.org/2000/svg" xmlns:xlink="http://www.w3.org/1999/xlink" viewBox="0 0 140 140"><defs><mask id="a" x="0" y="0" width="140" height="140" maskUnits="userSpaceOnUse"><path d="M8,0H130c8,0,10,2,10,10V130c0,8-2,10-10,10H8c-6,0-8-2-8-10V10C0,2,2,0,8,0Z" style="fill:#fff;fill-rule:evenodd"/></mask><linearGradient id="b" x1="-1808.04" y1="430.24" x2="-1810.04" y2="428.24" gradientTransform="matrix(70, 0, 0, -70, 126703.09, 30117)" gradientUnits="userSpaceOnUse"><stop offset="0" stop-color="#7cc098"/><stop offset="1" stop-color="#5f8a71"/></linearGradient></defs><g style="mask:url(#a)"><path d="M0,0H140V140H0Z" style="fill-rule:evenodd;fill:url(#b)"/><path d="M8,2H130q8,0,10,4V0H0V6Q2,2,8,2Z" style="fill:#fff;fill-opacity:0.382999986410141;fill-rule:evenodd"/><path d="M8,138H130q8,0,10-6v8H0v-8Q2,138,8,138Z" style="fill-opacity:0.382999986410141;fill-rule:evenodd"/></g><path d="M104.29,67.58H102.6L109,61.2V48.82a5.73,5.73,0,0,0-5.74-5.73h-2l-2.86,3L92.88,34.32a1.06,1.06,0,0,0-1.41-.5L81.4,38.7h0L68.75,27.18a.88.88,0,0,0-1.25.05l-.18.2L51.66,43.09l-1.42,0,0,0H39.91a5.44,5.44,0,0,0-3.76,1.5l-.14,0-36,36V130c0,8,2,10,8,10H62.68l44.1-44.18h0A14.13,14.13,0,0,0,109,88.24V82.47l-2.21,1.6v0l-2.49,2.49V84.43h-.74l5.67-5.67.93-.91a4,4,0,0,0,1.15-3.18V62.4l-4.06,4A3.15,3.15,0,0,1,104.29,67.58Z" style="fill-rule:evenodd;opacity:0.15"/><g style="opacity:0.3"><path d="M99.29,53,91.88,36.32a1.06,1.06,0,0,0-1.41-.5L56.12,52.66" style="fill:none;stroke:#000;stroke-miterlimit:10;stroke-width:2px"/><path d="M80.21,39.28,68.75,29.18a.88.88,0,0,0-1.25.05L46.57,53.78" style="fill:none;stroke:#000;stroke-miterlimit:10;stroke-width:2px"/><path d="M103.25,45.09h-2l1.47,3h0c2.79,0,4,2.26,4,5.05V65.33L109,63.2V50.82A5.73,5.73,0,0,0,103.25,45.09Z"/></g><path d="M95.1,67.1h9.17s0-10.42,0-10.42a2.89,2.89,0,0,0-2.89-2.9H39.81a2.89,2.89,0,0,1-2.3-3.54,3,3,0,0,1,2.91-2.19h7.19l2.63-2.9,0,0H39.91a5.47,5.47,0,0,0-5.48,5.47V93.85A10.58,10.58,0,0,0,45,104.42H94.29a14,14,0,0,0,7-1.85,6.1,6.1,0,0,0,3-5.32V86.43s-9.54,0-9.54,0A9.66,9.66,0,0,1,85.1,76.6,9.88,9.88,0,0,1,95.1,67.1Z" style="opacity:0.3"/><path d="M106.78,86.07V97.82A14.13,14.13,0,0,0,109,90.24V84.47Z" style="opacity:0.3"/><path d="M111.3,64.4l-4.06,4a3.15,3.15,0,0,1-2.95,1.22H94.75a7.18,7.18,0,0,0,0,14.35h9.54a3.05,3.05,0,0,0,2.95-1.23l2.91-2.85a4,4,0,0,0,1.15-3.18Zm-18.07,15a2.63,2.63,0,1,1,2.63-2.63A2.63,2.63,0,0,1,93.23,79.38Z" style="opacity:0.3"/><path d="M101.4,53.78,92.88,34.32a1.06,1.06,0,0,0-1.41-.5L52.66,52.66" style="fill:none;stroke:#fff;stroke-miterlimit:10;stroke-width:2px"/><path d="M81.4,38.7,68.75,27.18a.88.88,0,0,0-1.25.05L45.87,52.66" style="fill:none;stroke:#fff;stroke-miterlimit:10;stroke-width:2px"/><path d="M103.25,43.09h-2l1.47,3h0c2.79,0,4,2.26,4,5.05V63.33L109,61.2V48.82A5.73,5.73,0,0,0,103.25,43.09Z" style="fill:#fff"/><path d="M95.1,65.1h9.17s0-10.42,0-10.42a2.89,2.89,0,0,0-2.89-2.9H39.81a2.89,2.89,0,0,1-2.3-3.54,3,3,0,0,1,2.91-2.19h5.19s2.62-2.93,2.61-2.95H39.91a5.47,5.47,0,0,0-5.48,5.47V91.85A10.58,10.58,0,0,0,45,102.42H94.29a14,14,0,0,0,7-1.85,6.1,6.1,0,0,0,3-5.32V84.43s-9.54,0-9.54,0A9.66,9.66,0,0,1,85.1,74.6,9.88,9.88,0,0,1,95.1,65.1Z" style="fill:#fff"/><path d="M106.78,84.07V95.82A14.13,14.13,0,0,0,109,88.24V82.47Z" style="fill:#fff"/><path d="M111.3,62.4l-4.06,4a3.15,3.15,0,0,1-2.95,1.22H94.75a7.18,7.18,0,0,0,0,14.35h9.54a3.05,3.05,0,0,0,2.95-1.23l2.91-2.85a4,4,0,0,0,1.15-3.18Zm-18.07,15a2.63,2.63,0,1,1,2.63-2.63A2.63,2.63,0,0,1,93.23,77.38Z" style="fill:#fff"/></svg>