<svg width="70" height="70" viewBox="0 0 70 70" fill="none" xmlns="http://www.w3.org/2000/svg">
<path d="M34.0105 37.3528C34.5267 37.1281 35.1137 37.1313 35.6274 37.3617L51.9318 44.6752C53.507 45.3818 53.507 47.6182 51.9318 48.3248L35.6274 55.6383C35.1137 55.8687 34.5267 55.8719 34.0105 55.6472L17.212 48.3338C15.6098 47.6362 15.6098 45.3638 17.212 44.6662L34.0105 37.3528Z" fill="var(--o-icons-blue-100, #1ACAF0)"/>
<path d="M34.0105 25.3528C34.5267 25.1281 35.1137 25.1313 35.6274 25.3617L51.9318 32.6752C53.507 33.3818 53.507 35.6182 51.9318 36.3248L35.6274 43.6383C35.1137 43.8687 34.5267 43.8719 34.0105 43.6472L17.212 36.3338C15.6098 35.6362 15.6098 33.3638 17.212 32.6662L34.0105 25.3528Z" fill="var(--o-icons-blue-200, #1861AF)"/>
<path d="M42.6237 40.4999L35.6274 43.6382C35.1137 43.8686 34.5267 43.8719 34.0105 43.6471L26.7816 40.4999L34.0105 37.3528C34.5267 37.128 35.1137 37.1313 35.6274 37.3617L42.6237 40.4999Z" fill="var(--o-icons-blue-300, #352B97)"/>
<path d="M34.0105 14.3528C34.5267 14.1281 35.1137 14.1313 35.6274 14.3617L51.9318 21.6752C53.507 22.3818 53.507 24.6182 51.9318 25.3248L35.6274 32.6383C35.1137 32.8687 34.5267 32.8719 34.0105 32.6472L17.212 25.3338C15.6098 24.6362 15.6098 22.3638 17.212 21.6662L34.0105 14.3528Z" fill="var(--o-icons-blue-300, #352B97)"/>
<path d="M43.7384 28.9999L35.6274 32.6382C35.1137 32.8686 34.5267 32.8719 34.0105 32.6471L25.6332 28.9999L34.0105 25.3528C34.5267 25.128 35.1137 25.1313 35.6274 25.3617L43.7384 28.9999Z" fill="var(--o-icons-blue-400, #251B85)"/>
</svg>
