<svg width="50" height="50" viewBox="0 0 50 50" fill="none" xmlns="http://www.w3.org/2000/svg">
<path d="M23.0003 0.0788574V19C23.0003 21.2092 21.2094 23 19.0003 23H0.0791016C1.04575 10.7878 10.7881 1.04551 23.0003 0.0788574Z" fill="var(--o-icons-teal-pure, #00CEB3)"/>
<path d="M23.0003 0.0788574V19C23.0003 21.2092 21.2094 23 19.0003 23H0.0791016C1.04575 10.7878 10.7881 1.04551 23.0003 0.0788574Z" fill="url(#white_gradient_1)" fill-opacity="0.3"/>
<path d="M49.9212 23H31C28.7909 23 27 21.2092 27 19V0.0788574C39.2122 1.04551 48.9545 10.7878 49.9212 23Z" fill="var(--o-icons-purple-pure, #7933F3)"/>
<path d="M49.9212 23H31C28.7909 23 27 21.2092 27 19V0.0788574C39.2122 1.04551 48.9545 10.7878 49.9212 23Z" fill="url(#white_gradient_2)" fill-opacity="0.3"/>
<path d="M49.9212 27C48.9545 39.2122 39.2122 48.9545 27 49.9212V31C27 28.7909 28.7909 27 31 27H49.9212Z" fill="var(--o-icons-cyan-pure, #1BD4F9)"/>
<path d="M49.9212 27C48.9545 39.2122 39.2122 48.9545 27 49.9212V31C27 28.7909 28.7909 27 31 27H49.9212Z" fill="url(#white_gradient_3)" fill-opacity="0.3"/>
<path d="M23.0003 49.9212C10.7881 48.9545 1.04575 39.2122 0.0791016 27H19.0003C21.2094 27 23.0003 28.7909 23.0003 31V49.9212Z" fill="var(--o-icons-magenta-magenta, #FF2A62)"/>
<path d="M23.0003 49.9212C10.7881 48.9545 1.04575 39.2122 0.0791016 27H19.0003C21.2094 27 23.0003 28.7909 23.0003 31V49.9212Z" fill="url(#white_gradient_4)" fill-opacity="0.3"/>
<defs>
<linearGradient id="white_gradient_1" x1="0.0791016" y1="0.0788574" x2="27.0452" y2="6.82038" gradientUnits="userSpaceOnUse">
<stop stop-color="white"/>
<stop offset="1" stop-color="white" stop-opacity="0"/>
</linearGradient>
<linearGradient id="white_gradient_2" x1="27" y1="0.0788574" x2="53.9661" y2="6.82038" gradientUnits="userSpaceOnUse">
<stop stop-color="white"/>
<stop offset="1" stop-color="white" stop-opacity="0"/>
</linearGradient>
<linearGradient id="white_gradient_3" x1="27" y1="27" x2="53.9661" y2="33.7415" gradientUnits="userSpaceOnUse">
<stop stop-color="white"/>
<stop offset="1" stop-color="white" stop-opacity="0"/>
</linearGradient>
<linearGradient id="white_gradient_4" x1="0.0791016" y1="27" x2="27.0452" y2="33.7415" gradientUnits="userSpaceOnUse">
<stop stop-color="white"/>
<stop offset="1" stop-color="white" stop-opacity="0"/>
</linearGradient>
</defs>
</svg>
