<svg width="70" height="70" viewBox="0 0 70 70" fill="none" xmlns="http://www.w3.org/2000/svg">
<path fill-rule="evenodd" clip-rule="evenodd" d="M37.303 14.6105L51.697 22.8321C53.1221 23.6461 54 25.1504 54 26.7784V43.2216C54 44.8496 53.1221 46.3539 51.697 47.1679L37.303 55.3895C35.8779 56.2035 34.1221 56.2035 32.697 55.3895L18.303 47.1679C16.8779 46.3539 16 44.8496 16 43.2216V26.7784C16 25.1504 16.8779 23.6461 18.303 22.8321L32.697 14.6105C34.1221 13.7965 35.8779 13.7965 37.303 14.6105ZM35 43.0007C39.4183 43.0007 43 39.419 43 35.0007C43 30.5825 39.4183 27.0007 35 27.0007C30.5817 27.0007 27 30.5825 27 35.0007C27 39.419 30.5817 43.0007 35 43.0007Z" fill="var(--o-icons-purple-300, #82209C)"/>
<path d="M35 27V14C35.7952 14 36.5905 14.2035 37.303 14.6105L51.697 22.8321C53.1221 23.6461 54 25.1504 54 26.7784V43.2216C54 43.9739 53.8125 44.6998 53.4702 45.3433L41.9813 38.9095C42.6301 37.7535 43 36.42 43 35C43 30.5817 39.4183 27 35 27Z" fill="var(--o-icons-orange-200, #FC803D)"/>
<path d="M35 27V14C34.2048 14 33.4095 14.2035 32.697 14.6105L18.303 22.8321C16.8779 23.6461 16 25.1504 16 26.7784V43.2216C16 43.9739 16.1875 44.6998 16.5298 45.3433L28.0187 38.9095C27.3699 37.7535 27 36.42 27 35C27 30.5817 30.5817 27 35 27Z" fill="var(--o-icons-orange-100, #FBA82E)"/>
</svg>
