<svg width="50" height="50" viewBox="0 0 50 50" fill="none" xmlns="http://www.w3.org/2000/svg">
<path fill-rule="evenodd" clip-rule="evenodd" d="M27.303 4.6105L41.697 12.8321C43.1221 13.6461 44 15.1504 44 16.7784V33.2216C44 34.8496 43.1221 36.3539 41.697 37.1679L27.303 45.3895C25.8779 46.2035 24.1221 46.2035 22.697 45.3895L8.30303 37.1679C6.87791 36.3539 6 34.8496 6 33.2216V16.7784C6 15.1504 6.87791 13.6461 8.30303 12.8321L22.697 4.6105C24.1221 3.7965 25.8779 3.7965 27.303 4.6105ZM25 33.0007C29.4183 33.0007 33 29.419 33 25.0007C33 20.5825 29.4183 17.0007 25 17.0007C20.5817 17.0007 17 20.5825 17 25.0007C17 29.419 20.5817 33.0007 25 33.0007Z" fill="var(--o-icons-teal-pure, #00CEB3)"/>
<path fill-rule="evenodd" clip-rule="evenodd" d="M27.303 4.6105L41.697 12.8321C43.1221 13.6461 44 15.1504 44 16.7784V33.2216C44 34.8496 43.1221 36.3539 41.697 37.1679L27.303 45.3895C25.8779 46.2035 24.1221 46.2035 22.697 45.3895L8.30303 37.1679C6.87791 36.3539 6 34.8496 6 33.2216V16.7784C6 15.1504 6.87791 13.6461 8.30303 12.8321L22.697 4.6105C24.1221 3.7965 25.8779 3.7965 27.303 4.6105ZM25 33.0007C29.4183 33.0007 33 29.419 33 25.0007C33 20.5825 29.4183 17.0007 25 17.0007C20.5817 17.0007 17 20.5825 17 25.0007C17 29.419 20.5817 33.0007 25 33.0007Z" fill="url(#white_gradient_1)" fill-opacity="0.3"/>
<path d="M25 17V4C25.7952 4 26.5905 4.2035 27.303 4.6105L41.697 12.8321C43.1221 13.6461 44 15.1504 44 16.7784V33.2216C44 33.9739 43.8125 34.6998 43.4702 35.3433L31.9813 28.9095C32.6301 27.7535 33 26.42 33 25C33 20.5817 29.4183 17 25 17Z" fill="var(--o-icons-yellow-pure, #FBB130)"/>
<path d="M25 17V4C25.7952 4 26.5905 4.2035 27.303 4.6105L41.697 12.8321C43.1221 13.6461 44 15.1504 44 16.7784V33.2216C44 33.9739 43.8125 34.6998 43.4702 35.3433L31.9813 28.9095C32.6301 27.7535 33 26.42 33 25C33 20.5817 29.4183 17 25 17Z" fill="url(#white_gradient_2)" fill-opacity="0.2"/>
<path d="M25 17V4C24.2048 4 23.4095 4.2035 22.697 4.6105L8.30303 12.8321C6.87791 13.6461 6 15.1504 6 16.7784V33.2216C6 33.9739 6.18746 34.6998 6.52976 35.3433L18.0187 28.9095C17.3699 27.7535 17 26.42 17 25C17 20.5817 20.5817 17 25 17Z" fill="var(--o-icons-purple-pure, #7933F3)"/>
<path d="M25 17V4C24.2048 4 23.4095 4.2035 22.697 4.6105L8.30303 12.8321C6.87791 13.6461 6 15.1504 6 16.7784V33.2216C6 33.9739 6.18746 34.6998 6.52976 35.3433L18.0187 28.9095C17.3699 27.7535 17 26.42 17 25C17 20.5817 20.5817 17 25 17Z" fill="url(#white_gradient_3)" fill-opacity="0.3"/>
<defs>
<linearGradient id="white_gradient_1" x1="6" y1="4" x2="51.1881" y2="14.2211" gradientUnits="userSpaceOnUse">
<stop stop-color="white"/>
<stop offset="1" stop-color="white" stop-opacity="0"/>
</linearGradient>
<linearGradient id="white_gradient_2" x1="25" y1="4" x2="48.2168" y2="7.51844" gradientUnits="userSpaceOnUse">
<stop stop-color="white"/>
<stop offset="1" stop-color="white" stop-opacity="0"/>
</linearGradient>
<linearGradient id="white_gradient_3" x1="6" y1="4" x2="29.2168" y2="7.51844" gradientUnits="userSpaceOnUse">
<stop stop-color="white"/>
<stop offset="1" stop-color="white" stop-opacity="0"/>
</linearGradient>
</defs>
</svg>
