<svg width="70" height="70" viewBox="0 0 70 70" fill="none" xmlns="http://www.w3.org/2000/svg">
<circle cx="35" cy="35" r="7" fill="var(--o-icons-orange-200, #FC803D)"/>
<path d="M35 47H39C43.9706 47 48 51.0294 48 56H35V47Z" fill="var(--o-icons-green-200, #18B17E)"/>
<path d="M35 56C23.402 56 14 46.5977 14 35C14 23.4023 23.402 14 35 14C46.598 14 56 23.4023 56 35C56 40.7988 53.6495 46.0488 49.8492 49.8496L43.4852 43.4854C45.6568 41.3135 47 38.3135 47 35C47 28.373 41.6274 23 35 23C28.3726 23 23 28.373 23 35C23 41.627 28.3726 47 35 47V56Z" fill="var(--o-icons-green-300, #10846B)"/>
<path d="M26.655 43.623C28.8146 45.7139 31.757 47 35 47V56C30.0294 56 26 51.9707 26 47C26 45.8057 26.2326 44.666 26.655 43.623Z" fill="var(--o-icons-green-200, #18B17E)"/>
</svg>
