<svg width="50" height="50" viewBox="0 0 50 50" fill="none" xmlns="http://www.w3.org/2000/svg">
<path d="M41.7002 16.7132C41.7258 17.0929 41.7258 17.4726 41.7258 17.8558C41.7258 29.5329 33.0579 43 17.2083 43V42.993C12.5263 43 7.9415 41.6246 4 39.0313C4.6808 39.1152 5.36502 39.1572 6.05094 39.159C9.93102 39.1625 13.7002 37.8273 16.7527 35.3687C13.0654 35.297 9.83205 32.8314 8.7025 29.2319C9.99415 29.4874 11.325 29.4349 12.5928 29.0796C8.57282 28.2467 5.68068 24.6244 5.68068 20.4177C5.68068 20.3792 5.68068 20.3424 5.68068 20.3057C6.87849 20.9899 8.21962 21.3696 9.59147 21.4116C5.80524 18.8165 4.63815 13.6509 6.92456 9.61211C11.2995 15.133 17.7543 18.4893 24.6835 18.8445C23.989 15.7752 24.9377 12.5589 27.1764 10.4013C30.6469 7.05552 36.1053 7.22701 39.3677 10.7845C41.2975 10.3943 43.1471 9.6681 44.8397 8.63917C44.1965 10.6848 42.8502 12.4224 41.0518 13.5266C42.7598 13.3201 44.4285 12.8512 46 12.1354C44.8431 13.9133 43.386 15.462 41.7002 16.7132Z" fill="#1D9BF0"/>
</svg>
