<?xml version="1.0" encoding="UTF-8" standalone="no"?>
<svg width="262px" height="196px" viewBox="0 0 262 196" version="1.1" xmlns="http://www.w3.org/2000/svg" xmlns:xlink="http://www.w3.org/1999/xlink">
    <title>Website Welcome</title>
    <desc>Odoo Website Builder</desc>
    <defs>
        <rect id="path-1" x="1" y="0" width="261" height="196"></rect>
        <mask id="mask-2" maskContentUnits="userSpaceOnUse" maskUnits="objectBoundingBox" x="0" y="0" width="261" height="196" fill="white">
            <use xlink:href="#path-1"></use>
        </mask>
    </defs>
    <g id="Page-1" stroke="none" stroke-width="1" fill="none" fill-rule="evenodd">
        <g id="Illo_Exploration" transform="translate(-309.000000, -268.000000)">
            <g id="window" transform="translate(309.000000, 268.000000)">
                <rect id="base" fill="#C4E1F7" x="1" y="0" width="261" height="196"></rect>
                <polygon id="light" fill="#FFFFFF" opacity="0.44" points="119.8 195.5 0.8 195.5 0.8 21.5 183.8 21.5"></polygon>
                <path d="M256.8,1.5 L5.8,1.5 C4.1,1.5 2.8,2.8 2.8,4.5 L2.8,21.5 L259.8,21.5 L259.8,4.5 C259.8,2.8 258.5,1.5 256.8,1.5 L256.8,1.5 Z" id="background-toolbar" fill="#FFFFFF"></path>
                <path d="M3,21 L260,21" id="separator" stroke="#1485E0" stroke-width="2" fill="#C4E1F7"></path>
                <path d="M15.1,13.5 C16.7568542,13.5 18.1,12.1568542 18.1,10.5 C18.1,8.84314575 16.7568542,7.5 15.1,7.5 C13.4431458,7.5 12.1,8.84314575 12.1,10.5 C12.1,12.1568542 13.4431458,13.5 15.1,13.5 Z M26.1,13.5 C27.7568542,13.5 29.1,12.1568542 29.1,10.5 C29.1,8.84314575 27.7568542,7.5 26.1,7.5 C24.4431458,7.5 23.1,8.84314575 23.1,10.5 C23.1,12.1568542 24.4431458,13.5 26.1,13.5 Z M37.1,13.5 C38.7568542,13.5 40.1,12.1568542 40.1,10.5 C40.1,8.84314575 38.7568542,7.5 37.1,7.5 C35.4431458,7.5 34.1,8.84314575 34.1,10.5 C34.1,12.1568542 35.4431458,13.5 37.1,13.5 Z" id="Combined-Shape" stroke="#1485E0" stroke-width="2" fill="#FFFFFF"></path>
                <use id="base" stroke="#1485E0" mask="url(#mask-2)" stroke-width="4" xlink:href="#path-1"></use>
                <polygon id="icon-valid" fill="#1485E0" points="169.2 62.4 118.6 113 98.5 92.9 89.7 101.7 118.6 130.6 178.1 71.2"></polygon>
            </g>
        </g>
    </g>
</svg>