<svg width="70" height="70" viewBox="0 0 70 70" fill="none" xmlns="http://www.w3.org/2000/svg">
<path d="M14 24C14 21.7909 15.7909 20 18 20H50V52C50 54.2091 48.2091 56 46 56H14V24Z" fill="var(--o-icons-blue-100, #1ACAF0)"/>
<path d="M54.6956 15.3044C56.4348 17.0437 56.4348 19.8638 54.6956 21.603L20.2993 56H14V49.7021L48.397 15.3044C50.1365 13.5652 52.9563 13.5652 54.6956 15.3044Z" fill="var(--o-icons-purple-100, #FF92CB)"/>
<path d="M20.0001 43.7026V50.0004H26.2994L50.0001 26.2997V20.0011H43.7016L20.0001 43.7026Z" fill="var(--o-icons-green-400, #105B54)"/>
<path d="M20.0001 43.7026V50.0004H26.2994L50.0001 26.2997V20.0011H43.7016L20.0001 43.7026Z" fill="var(--o-icons-purple-400, #460993)"/>
</svg>
