<svg width="50" height="50" viewBox="0 0 50 50" fill="none" xmlns="http://www.w3.org/2000/svg">
<path d="M7.05379 20.6365C8.03122 20.6365 8.82359 21.4203 8.82359 22.3871V29.364H1.7698C0.792364 29.364 0 28.5802 0 27.6134V25.6598C0 24.693 0.792364 23.9093 1.7698 23.9093H3.67651V26.682C3.67651 26.9582 3.90291 27.1822 4.18216 27.1822H5.14708V23.3185C5.14708 23.0423 4.92068 22.8184 4.64143 22.8183H0.126414V20.6365H7.05379ZM15.441 27.1822L15.4411 17H19.1176V29.364H12.064C11.0865 29.364 10.2942 28.5802 10.2942 27.6134V22.3871C10.2942 21.4203 11.0865 20.6365 12.064 20.6365H13.9704V26.682C13.9704 26.9582 14.1968 27.1822 14.4761 27.1822H15.441ZM25.7352 27.1822V20.6365H29.4118V31.2495C29.4118 32.2163 28.6194 33 27.642 33H20.7146V30.455H25.7353V29.364H22.358C21.3806 29.364 20.5882 28.5802 20.5882 27.6134V20.6365H24.2646V26.682C24.2646 26.9582 24.491 27.1822 24.7702 27.1822H25.7352ZM37.936 20.6365C38.9135 20.6365 39.7058 21.4203 39.7058 22.3871V24.3407C39.7058 25.3075 38.9135 26.0912 37.936 26.0912H36.0293V23.3186C36.0293 23.0424 35.803 22.8184 35.5237 22.8184H34.5588V26.682C34.5588 26.9582 34.7852 27.1822 35.0644 27.1822H39.5794V29.364H32.6522C31.6747 29.364 30.8824 28.5802 30.8824 27.6134V20.6365H37.936ZM48.2302 20.6365C49.2076 20.6365 50 21.4203 50 22.3871V29.364H46.3235V23.3185C46.3235 23.0434 46.0959 22.8183 45.8178 22.8183H44.8529V29.364H41.1764V20.6365H48.2302Z" fill="#32AA52"/>
<path d="M43.1049 4H44.077V0.817741H45.1846V0H42V0.817741H43.1049V4Z" fill="#D1D5DB"/>
<path d="M45.8805 4H46.7384V1.45253H46.7915L47.6627 4H48.2178L49.089 1.45253H49.1448V4H50V0H48.8924L47.9681 2.71379H47.9177L46.9907 0H45.8805V4Z" fill="#D1D5DB"/>
</svg>
