<svg viewBox="0 0 1038 444" stroke="#3AADAA" fill="none" xmlns="http://www.w3.org/2000/svg">
    <style>
        @media only screen and (max-width: 130px) and (max-height: 55px) {
            .not_in_preview {
                display: none;
            }
            path {
                stroke-width: 15px;
            }
            g {
                opacity: .75;
            }
        }
    </style>
    <g opacity=".25">
        <path d="M1.90039 391C19.3004 387.1 133.2 377.7 120.7 445"/>
        <path class="not_in_preview" d="M1.80078 385.1C21.3008 380.4 149.401 370.5 135.501 445"/>
        <path class="not_in_preview" d="M1.80078 379.3C23.4008 373.8 165.701 363.4 150.501 445"/>
        <path d="M1.69922 373.4C25.3992 367 181.799 356.2 165.299 445"/>
        <path class="not_in_preview" d="M1.69922 367.5C27.4992 360.3 198.099 349.1 180.199 445"/>
        <path class="not_in_preview" d="M1.59961 361.7C29.4996 353.7 214.3 342 195 445"/>
        <path d="M1.59961 355.8C31.5996 346.9 230.5 334.8 210 445"/>
        <path class="not_in_preview" d="M1.5 350C33.6 340.3 246.7 327.7 224.8 445"/>
        <path class="not_in_preview" d="M1.5 344.1C35.7 333.6 263 320.5 239.7 445"/>
        <path d="M1.40039 338.2C37.7004 326.8 279.1 313.3 254.5 445"/>
        <path class="not_in_preview" d="M1.40039 332.4C39.8004 320.2 295.4 306.3 269.5 445"/>
        <path class="not_in_preview" d="M1.40039 326.5C41.9004 313.5 311.7 299.1 284.4 445"/>
        <path d="M1.30078 320.6C43.9008 306.7 327.801 291.9 299.201 445"/>
        <path class="not_in_preview" d="M1.30078 314.8C46.0008 300.1 344.101 284.8 314.101 445"/>
        <path class="not_in_preview" d="M1.19922 308.9C48.0992 293.4 360.299 277.7 328.999 445"/>
        <path d="M1.19922 303.1C50.1992 286.7 376.499 270.6 343.899 445"/>
        <path class="not_in_preview" d="M1.09961 297.2C52.1996 280 392.7 263.4 358.7 445"/>
        <path class="not_in_preview" d="M1.09961 291.3C54.2996 273.3 409 256.2 373.6 445"/>
        <path d="M1 285.5C56.3 266.6 425.1 249.1 388.5 445"/>
        <path class="not_in_preview" d="M1 279.6C58.4 259.9 441.4 241.9 403.4 445"/>
        <path class="not_in_preview" d="M0.900391 273.7C60.4004 253.2 457.6 234.8 418.2 445"/>
        <path d="M0.900391 267.9C62.5004 246.5 473.8 227.7 433.1 445"/>
        <path class="not_in_preview" d="M0.800781 262C64.5008 239.8 490.001 220.5 448.001 445"/>
        <path class="not_in_preview" d="M0.800781 256.1C66.6008 233.1 506.301 213.3 462.901 445"/>
        <path d="M0.699219 250.3C68.5992 226.4 522.499 206.2 477.699 445"/>
        <path class="not_in_preview" d="M0.699219 244.4C70.6992 219.7 538.699 199.1 492.599 445"/>
        <path class="not_in_preview" d="M0.599609 238.6C72.6996 213 554.9 191.9 507.5 445"/>
        <path d="M0.599609 232.7C74.7996 206.3 571.2 184.8 522.4 445"/>
        <path class="not_in_preview" d="M0.599609 226.8C76.8996 199.6 587.4 177.6 537.3 445"/>
        <path class="not_in_preview" d="M0.5 221C78.9 193 603.6 170.5 552.2 445"/>
        <path d="M0.5 215.1C81 186.2 619.8 163.4 567 445"/>
        <path class="not_in_preview" d="M0.400391 209.2C83.0004 179.6 636 156.2 581.9 445"/>
        <path class="not_in_preview" d="M0.400391 203.4C85.1004 172.9 652.3 149.1 596.8 445"/>
        <path d="M0.300781 197.5C87.1008 166.1 668.501 141.9 611.701 445"/>
        <path class="not_in_preview" d="M0.300781 191.7C89.2008 159.5 684.701 134.8 626.601 445"/>
        <path class="not_in_preview" d="M0.199219 185.8C91.1992 152.8 700.899 127.7 641.399 445"/>
        <path d="M0.199219 179.9C93.2992 146 717.199 120.5 656.299 445"/>
        <path class="not_in_preview" d="M0.0996094 174.1C95.3996 139.4 733.3 113.4 671.2 445"/>
        <path class="not_in_preview" d="M0.0996094 168.2C97.4996 132.7 749.6 106.2 686.1 445"/>
        <path d="M0 162.3C99.5 126 765.8 99.1001 700.9 445"/>
        <path class="not_in_preview" d="M0 156.5C101.6 119.3 782 91.9001 715.8 445"/>
        <path class="not_in_preview" d="M-0.0996094 150.6C103.6 112.6 798.2 84.8001 730.7 445"/>
        <path d="M-0.0996094 144.7C105.7 105.9 814.5 77.6001 745.6 445"/>
        <path class="not_in_preview" d="M-0.199219 138.9C107.701 99.1999 830.601 70.4999 760.401 445"/>
        <path class="not_in_preview" d="M-0.199219 133C109.801 92.4999 846.901 63.2999 775.301 445"/>
        <path d="M-0.199219 127.2C111.901 85.9 863.201 56.2001 790.301 445"/>
        <path class="not_in_preview" d="M-0.300781 121.3C113.899 79.1 879.299 49.1 805.099 445"/>
        <path class="not_in_preview" d="M-0.300781 115.4C115.999 72.4 895.499 41.9 819.999 445"/>
        <path d="M-0.400391 109.6C118 65.7001 911.8 34.8 834.9 445"/>
        <path class="not_in_preview" d="M-0.400391 103.7C120.1 59 928 27.6001 849.7 445"/>
        <path class="not_in_preview" d="M-0.5 97.8C122.1 52.3 944.2 20.4 864.6 445"/>
        <path d="M-0.5 91.9999C124.2 45.6999 960.5 13.3999 879.5 445"/>
        <path class="not_in_preview" d="M-0.599609 86.0999C126.2 38.8999 976.6 6.19989 894.3 445"/>
        <path class="not_in_preview" d="M-0.599609 80.3C128.3 32.3 992.9 -0.899994 909.3 445"/>
        <path d="M-0.699219 74.4C130.301 25.6 1009.1 -8.10001 924.101 445"/>
        <path class="not_in_preview" d="M-0.699219 68.4999C132.401 18.7999 1025.3 -15.3001 939.001 445"/>
        <path class="not_in_preview" d="M-0.800781 62.7001C134.399 12.2001 1041.5 -22.2999 953.899 445"/>
        <path d="M-0.800781 56.8001C136.499 5.50006 1057.7 -29.4999 968.799 445"/>
        <path class="not_in_preview" d="M-0.900391 50.9001C138.6 -1.19995 1074 -36.7 983.6 445"/>
        <path class="not_in_preview" d="M-0.900391 45.1001C140.7 -7.89989 1090.2 -43.7999 998.5 445"/>
        <path d="M-1 39.2001C142.7 -14.5999 1106.4 -50.9999 1013.4 445"/>
        <path class="not_in_preview" d="M-1 33.2999C144.8 -21.3001 1122.6 -58.1001 1028.3 445"/>
    </g>
</svg>
