<svg width="50" height="50" viewBox="0 0 50 50" fill="none" xmlns="http://www.w3.org/2000/svg">
<path d="M0 42V8L25 25L0 42Z" fill="var(--o-icons-magenta-magenta, #FF2A62)"/>
<path d="M0 42V8L25 25L0 42Z" fill="url(#white_gradient_1)" fill-opacity="0.3"/>
<path d="M25 25L0 8H50L25 25Z" fill="var(--o-icons-magenta-pure, #FF689E)"/>
<path d="M25 25L0 8H50L25 25Z" fill="url(#white_gradient_2)" fill-opacity="0.4"/>
<path d="M50 8L0 42H46C48.2091 42 50 40.2091 50 38V8Z" fill="var(--o-icons-purple-yellow, #77232E)"/>
<path d="M50 8L0 42H46C48.2091 42 50 40.2091 50 38V8Z" fill="url(#white_gradient_3)" fill-opacity="0.3"/>
<defs>
<linearGradient id="white_gradient_1" x1="0" y1="8" x2="30.2285" y2="13.5567" gradientUnits="userSpaceOnUse">
<stop stop-color="white"/>
<stop offset="1" stop-color="white" stop-opacity="0"/>
</linearGradient>
<linearGradient id="white_gradient_2" x1="0" y1="8" x2="40.5671" y2="37.8287" gradientUnits="userSpaceOnUse">
<stop stop-color="white"/>
<stop offset="1" stop-color="white" stop-opacity="0"/>
</linearGradient>
<linearGradient id="white_gradient_3" x1="0" y1="8" x2="55.0581" y2="28.242" gradientUnits="userSpaceOnUse">
<stop stop-color="white"/>
<stop offset="1" stop-color="white" stop-opacity="0"/>
</linearGradient>
</defs>
</svg>
