<svg width="70" height="70" viewBox="0 0 70 70" fill="none" xmlns="http://www.w3.org/2000/svg">
<path d="M14 35.1816C14 32.9725 15.7909 31.1816 18 31.1816H33.0909V51.9998C33.0909 54.209 31.3 55.9998 29.0909 55.9998H14V35.1816Z" fill="var(--o-icons-orange-300, #F84C31)"/>
<path d="M36.9092 18C36.9092 15.7909 38.7 14 40.9092 14H56.0001V52C56.0001 54.2091 54.2092 56 52.0001 56H36.9092V18Z" fill="var(--o-icons-orange-100, #FBA82E)"/>
<path d="M25.4546 27.5449C25.4546 25.3358 27.2455 23.5449 29.4546 23.5449H44.5455V51.9995C44.5455 54.2086 42.7546 55.9995 40.5455 55.9995H25.4546V27.5449Z" fill="var(--o-icons-orange-200, #FC803D)"/>
<path d="M36.9092 55.9995V23.5449H44.5456V51.9995C44.5456 54.2086 42.7548 55.9995 40.5456 55.9995H36.9092Z" fill="var(--o-icons-orange-300, #F84C31)"/>
<path d="M25.4546 55.9998V31.1816H33.0909V51.9998C33.0909 54.209 31.3 55.9998 29.0909 55.9998H25.4546Z" fill="var(--o-icons-red-300, #D61A1A)"/>
</svg>
