<svg width="50" height="50" viewBox="0 0 50 50" fill="none" xmlns="http://www.w3.org/2000/svg">
<path d="M29.2 13.45H44.4597C45.3102 13.45 46 14.1398 46 14.9903V35.0096C46 35.8601 45.3102 36.55 44.4597 36.55H29.2V13.45Z" fill="#1976D2"/>
<path d="M43.9 18.6556H29.2V34.9747H43.9V18.6556Z" fill="white"/>
<path d="M28.15 46L4 41.275V8.725L28.15 4V46Z" fill="#1976D2"/>
<path d="M15.8125 17.1247C12.4777 17.1247 9.77504 20.6506 9.77504 24.9997C9.77504 29.3488 12.4777 32.8747 15.8125 32.8747C19.1473 32.8747 21.85 29.3488 21.85 24.9997C21.85 20.6506 19.1473 17.1247 15.8125 17.1247ZM15.55 29.7247C13.8102 29.7247 12.4 27.6089 12.4 24.9997C12.4 22.3904 13.8102 20.2747 15.55 20.2747C17.2899 20.2747 18.7 22.3904 18.7 24.9997C18.7 27.6089 17.2899 29.7247 15.55 29.7247Z" fill="white"/>
<path d="M32.0843 31.0231H29.2493V34.0681H32.0843V31.0231Z" fill="#1976D2"/>
<path d="M35.6554 31.0231H32.8204V34.0681H35.6554V31.0231Z" fill="#1976D2"/>
<path d="M39.2265 31.0231H36.3915V34.0681H39.2265V31.0231Z" fill="#1976D2"/>
<path d="M32.0844 27.2666H29.2494V30.3116H32.0844V27.2666Z" fill="#1976D2"/>
<path d="M35.6554 27.2666H32.8204V30.3116H35.6554V27.2666Z" fill="#1976D2"/>
<path d="M39.2265 27.2666H36.3915V30.3116H39.2265V27.2666Z" fill="#1976D2"/>
<path d="M42.7975 27.2666H39.9625V30.3116H42.7975V27.2666Z" fill="#1976D2"/>
<path d="M32.0843 23.6412H29.2493V26.6862H32.0843V23.6412Z" fill="#1976D2"/>
<path d="M35.6554 23.6412H32.8204V26.6862H35.6554V23.6412Z" fill="#1976D2"/>
<path d="M39.2265 23.6412H36.3915V26.6862H39.2265V23.6412Z" fill="#1976D2"/>
<path d="M42.7975 23.6412H39.9625V26.6862H42.7975V23.6412Z" fill="#1976D2"/>
<path d="M35.6554 19.8673H32.8204V22.9123H35.6554V19.8673Z" fill="#1976D2"/>
<path d="M39.2265 19.8673H36.3915V22.9123H39.2265V19.8673Z" fill="#1976D2"/>
<path d="M42.7975 19.8673H39.9625V22.9123H42.7975V19.8673Z" fill="#1976D2"/>
</svg>
