<svg width="50" height="50" viewBox="0 0 50 50" fill="none" xmlns="http://www.w3.org/2000/svg">
<path fill-rule="evenodd" clip-rule="evenodd" d="M22.4301 17.5994L20.4346 25.0944L31.8532 17.5573L24.3858 45.9929L31.969 46L43.0003 4L22.4301 17.5994Z" fill="#3395FF"/>
<path fill-rule="evenodd" clip-rule="evenodd" d="M10.1394 34.0458L7 45.9997H22.5438C22.5438 45.9997 28.9016 21.6876 28.9034 21.6807C28.8974 21.6845 10.1394 34.0458 10.1394 34.0458Z" fill="#072654"/>
<path d="M43.1049 4H44.077V0.817741H45.1846V0H42V0.817741H43.1049V4Z" fill="#D1D5DB"/>
<path d="M45.8805 4H46.7384V1.45253H46.7915L47.6627 4H48.2178L49.089 1.45253H49.1448V4H50V0H48.8924L47.9681 2.71379H47.9177L46.9907 0H45.8805V4Z" fill="#D1D5DB"/>
</svg>
