<svg width="50" height="50" viewBox="0 0 50 50" fill="none" xmlns="http://www.w3.org/2000/svg">
<path d="M0 12.5H50V38C50 40.2091 48.2091 42 46 42H0V12.5Z" fill="var(--o-icons-purple-pure, #7933F3)"/>
<path d="M0 12.5H50V38C50 40.2091 48.2091 42 46 42H0V12.5Z" fill="url(#white_gradient_1)" fill-opacity="0.3"/>
<path d="M4 20.5C1.79086 20.5 2.49754e-07 18.7091 5.57841e-07 16.5L1.18541e-06 12C1.4935e-06 9.79086 1.79086 8 4 8L50 8.00001V16.5C50 18.7091 48.2091 20.5 46 20.5L4 20.5Z" fill="var(--o-icons-cyan-pure, #1BD4F9)"/>
<path d="M4 20.5C1.79086 20.5 2.49754e-07 18.7091 5.57841e-07 16.5L1.18541e-06 12C1.4935e-06 9.79086 1.79086 8 4 8L50 8.00001V16.5C50 18.7091 48.2091 20.5 46 20.5L4 20.5Z" fill="url(#white_gradient_2)" fill-opacity="0.3"/>
<path d="M0 16.25H50V20.25C50 22.4591 48.2091 24.25 46 24.25H4C1.79086 24.25 0 22.4591 0 20.25V16.25Z" fill="var(--o-icons-purple-cyan, #0D2AED)"/>
<path d="M0 16.25H50V20.25C50 22.4591 48.2091 24.25 46 24.25H4C1.79086 24.25 0 22.4591 0 20.25V16.25Z" fill="url(#white_gradient_3)" fill-opacity="0.3"/>
<path d="M29.7197 22.9099C29.7197 25.7533 27.4147 28.0583 24.5713 28.0583C21.7279 28.0583 19.4229 25.7533 19.4229 22.9099C19.4229 20.0665 21.7279 17.7615 24.5713 17.7615C27.4147 17.7615 29.7197 20.0665 29.7197 22.9099Z" fill="white"/>
<path d="M33.151 30.6326H24.5703C20.3052 30.6326 16.8477 34.0901 16.8477 38.3552H25.4284C29.6935 38.3552 33.151 34.8977 33.151 30.6326Z" fill="white"/>
<defs>
<linearGradient id="white_gradient_1" x1="0" y1="12.5" x2="52.9865" y2="34.9519" gradientUnits="userSpaceOnUse">
<stop stop-color="white"/>
<stop offset="1" stop-color="white" stop-opacity="0"/>
</linearGradient>
<linearGradient id="white_gradient_2" x1="0" y1="8" x2="31.25" y2="39.25" gradientUnits="userSpaceOnUse">
<stop stop-color="white"/>
<stop offset="1" stop-color="white" stop-opacity="0"/>
</linearGradient>
<linearGradient id="white_gradient_3" x1="0" y1="16.25" x2="18.1612" y2="44.6268" gradientUnits="userSpaceOnUse">
<stop stop-color="white"/>
<stop offset="1" stop-color="white" stop-opacity="0"/>
</linearGradient>
</defs>
</svg>
