<svg width="50" height="50" viewBox="0 0 50 50" fill="none" xmlns="http://www.w3.org/2000/svg">
<path d="M43.1049 50H44.077V46.8177H45.1846V46H42V46.8177H43.1049V50Z" fill="#D1D5DB"/>
<path d="M45.8805 50H46.7384V47.4525H46.7915L47.6627 50H48.2178L49.089 47.4525H49.1448V50H50V46H48.8924L47.9681 48.7138H47.9177L46.9907 46H45.8805V50Z" fill="#D1D5DB"/>
<path d="M4 15.4251C4 13.2163 4.64396 11.3364 6.02729 9.99707L8.41234 12.3469C5.76494 14.9551 8.07843 23.0618 15.639 30.5107C23.1996 37.9595 31.4281 40.2387 34.0755 37.6305L36.4605 39.9803C31.9766 44.3979 21.7925 41.2491 13.254 32.8604C7.33907 27.0095 4 20.4066 4 15.4251Z" fill="#009A46"/>
<path d="M19.0495 42C16.8076 42 14.8995 41.3656 13.54 40.0027L15.9251 37.6529C18.5725 40.2612 26.8009 37.9819 34.3615 30.5331C41.9221 23.0843 44.2356 14.9776 41.5882 12.3693L43.9733 10.0195C48.4572 14.4371 45.2612 24.4707 36.7466 32.8829C30.8078 38.7103 24.082 42 19.0495 42Z" fill="#FF5805"/>
<path d="M37.5103 29.5219C36.0554 25.4098 33.098 21.0157 29.1865 17.162C20.648 8.74983 10.4639 5.62462 5.97997 10.0187C5.66992 10.3477 5.95612 11.1231 6.60008 11.7575C7.24405 12.392 8.05496 12.674 8.36502 12.3685C11.0124 9.76023 19.2408 12.0395 26.8015 19.4883C30.379 23.013 33.0503 26.9606 34.3382 30.6028C35.4592 33.7985 35.3638 36.3832 34.052 37.6756C33.7419 37.9811 34.0043 38.7565 34.6721 39.4145C35.3399 40.0724 36.127 40.3309 36.4371 40.0254C38.7267 37.7461 39.1083 34.01 37.5103 29.5219Z" fill="#F5AFCB"/>
<path d="M43.9494 10.0202C41.6597 7.76438 37.8675 7.38842 33.312 8.93927C29.1382 10.3726 24.6782 13.2864 20.7667 17.14C12.2282 25.5522 9.0561 35.5858 13.54 40.0034C13.85 40.3088 14.661 40.0504 15.3049 39.3924C15.9489 38.7345 16.2351 37.9591 15.925 37.6536C13.2776 35.0453 15.5911 26.9386 23.1517 19.4898C26.7293 15.9651 30.7362 13.3334 34.4092 12.0645C37.6528 10.9601 40.2764 11.0541 41.5882 12.3465C41.8982 12.6519 42.6853 12.3934 43.3531 11.7355C44.0209 11.0776 44.2833 10.3491 43.9494 10.0202Z" fill="#FF9B00"/>
</svg>
