<svg width="50" height="50" viewBox="0 0 50 50" fill="none" xmlns="http://www.w3.org/2000/svg">
<path d="M30.439 0.812794C28.7227 0.287313 26.8971 0 25.0013 0C19.4699 0 14.5198 2.42326 11.2197 6.23016L19.7235 13.1635L30.439 0.812794Z" fill="#1A73E8"/>
<path d="M11.2168 6.23047C8.58763 9.26238 7 13.1751 7 17.4432C7 20.7247 7.67484 23.3823 8.78267 25.764L19.7206 13.1638L11.2168 6.23047Z" fill="#EA4335"/>
<path d="M25.0034 10.7744C28.8067 10.7744 31.8883 13.761 31.8883 17.4469C31.8883 19.0876 31.2759 20.5922 30.2617 21.7528C30.2617 21.7528 35.6994 15.4849 40.9772 9.40592C38.7967 5.34195 35.0168 2.21553 30.445 0.812988L19.7217 13.1637C20.9855 11.7006 22.8813 10.7744 25.0034 10.7744Z" fill="#4285F4"/>
<path d="M25.0028 24.1149C21.1995 24.1149 18.1179 21.1283 18.1179 17.4424C18.1179 15.813 18.7225 14.3198 19.7211 13.1592L8.7832 25.7632C10.6517 29.7818 13.7606 33.0065 16.9632 37.0704L30.2572 21.7521C28.9972 23.1962 27.1092 24.1149 25.0028 24.1149Z" fill="#FBBC04"/>
<path d="M29.9945 41.2522C35.9979 32.1527 42.9999 28.0206 42.9999 17.443C42.9999 14.5434 42.2665 11.8101 40.9753 9.40576L16.9658 37.071C17.9839 38.3639 19.0098 39.74 20.0124 41.2559C23.6635 46.7225 22.6493 50.0001 25.0054 50.0001C27.3537 50.0001 26.3434 46.7187 29.9945 41.2522Z" fill="#34A853"/>
</svg>
