<svg width="70" height="70" viewBox="0 0 70 70" fill="none" xmlns="http://www.w3.org/2000/svg">
<path fill-rule="evenodd" clip-rule="evenodd" d="M33.4814 33.4668C31.804 31.7737 31.804 29.0286 33.4814 27.3355L36.5186 24.2698C38.196 22.5767 40.9156 22.5767 42.5931 24.2698L54.742 36.5325C56.4194 38.2256 56.4194 40.9707 54.742 42.6638L51.7047 45.7294C50.0273 47.4225 47.3077 47.4225 45.6303 45.7294L33.4814 33.4668ZM41.8337 28.1018C43.0918 29.3716 43.0918 31.4304 41.8337 32.7003C40.5757 33.9701 38.536 33.9701 37.2779 32.7003C36.0198 31.4304 36.0198 29.3716 37.2779 28.1018C38.536 26.832 40.5757 26.832 41.8337 28.1018ZM50.9454 41.8975C52.2034 40.6277 52.2034 38.5689 50.9454 37.2991C49.6873 36.0292 47.6476 36.0292 46.3895 37.2991C45.1315 38.5689 45.1315 40.6277 46.3895 41.8975C47.6476 43.1674 49.6873 43.1674 50.9454 41.8975Z" fill="var(--o-icons-green-100, #49DC69)"/>
<path fill-rule="evenodd" clip-rule="evenodd" d="M15.2581 33.4668C13.5806 31.7737 13.5806 29.0286 15.2581 27.3355L18.2953 24.2698C19.9727 22.5767 22.6923 22.5767 24.3697 24.2698L36.5186 36.5325C38.196 38.2256 38.196 40.9707 36.5186 42.6638L33.4814 45.7294C31.804 47.4225 29.0844 47.4225 27.407 45.7294L15.2581 33.4668ZM23.6104 28.1018C24.8685 29.3716 24.8685 31.4304 23.6104 32.7003C22.3523 33.9701 20.3126 33.9701 19.0546 32.7003C17.7965 31.4304 17.7965 29.3716 19.0546 28.1018C20.3126 26.832 22.3523 26.832 23.6104 28.1018ZM32.7221 41.8975C33.9802 40.6277 33.9802 38.5689 32.7221 37.2991C31.464 36.0292 29.4243 36.0292 28.1663 37.2991C26.9082 38.5689 26.9082 40.6277 28.1663 41.8975C29.4243 43.1674 31.464 43.1674 32.7221 41.8975Z" fill="var(--o-icons-blue-100, #1ACAF0)"/>
<path fill-rule="evenodd" clip-rule="evenodd" d="M36.5186 24.2698C38.1961 22.5767 40.9157 22.5767 42.5931 24.2698L45.6303 27.3355C47.3077 29.0286 47.3077 31.7737 45.6303 33.4668L33.4814 45.7294C31.804 47.4225 29.0844 47.4225 27.407 45.7294L24.3698 42.6638C22.6923 40.9707 22.6923 38.2256 24.3698 36.5325L36.5186 24.2698ZM32.7221 37.2991C33.9802 38.5689 33.9802 40.6277 32.7221 41.8975C31.464 43.1674 29.4243 43.1674 28.1663 41.8975C26.9082 40.6277 26.9082 38.5689 28.1663 37.2991C29.4243 36.0292 31.464 36.0292 32.7221 37.2991ZM41.8337 32.7003C43.0918 31.4304 43.0918 29.3716 41.8337 28.1018C40.5757 26.832 38.536 26.832 37.2779 28.1018C36.0198 29.3716 36.0198 31.4304 37.2779 32.7003C38.536 33.9701 40.5757 33.9701 41.8337 32.7003Z" fill="var(--o-icons-blue-400, #251B85)"/>
<path fill-rule="evenodd" clip-rule="evenodd" d="M30.4441 30.4014L21.3325 39.5983L27.4069 45.7296C29.0843 47.4228 31.8039 47.4228 33.4814 45.7296L36.5186 42.664C38.196 40.9709 38.196 38.2258 36.5186 36.5327L30.4441 30.4014ZM32.7221 41.8975C33.9802 40.6277 33.9802 38.5689 32.7221 37.2991C31.464 36.0292 29.4243 36.0292 28.1663 37.2991C26.9082 38.5689 26.9082 40.6277 28.1663 41.8975C29.4243 43.1674 31.464 43.1674 32.7221 41.8975Z" fill="var(--o-icons-blue-200, #1861AF)"/>
</svg>
