<svg width="50" height="50" viewBox="0 0 50 50" fill="none" xmlns="http://www.w3.org/2000/svg">
<path d="M29.3186 6.86208C33.1347 3.04597 39.3218 3.04597 43.1379 6.86208C46.954 10.6782 46.954 16.8653 43.1379 20.6814L20.6814 43.1379C16.8653 46.954 10.6782 46.954 6.86208 43.1379C3.04597 39.3218 3.04597 33.1347 6.86208 29.3186L29.3186 6.86208Z" fill="var(--o-icons-magenta-pure, #FF689E)"/>
<path d="M29.3186 6.86208C33.1347 3.04597 39.3218 3.04597 43.1379 6.86208C46.954 10.6782 46.954 16.8653 43.1379 20.6814L20.6814 43.1379C16.8653 46.954 10.6782 46.954 6.86208 43.1379C3.04597 39.3218 3.04597 33.1347 6.86208 29.3186L29.3186 6.86208Z" fill="url(#white_gradient_1)" fill-opacity="0.4"/>
<path d="M43.1379 29.3186C46.954 33.1347 46.954 39.3218 43.1379 43.1379C39.3218 46.954 33.1347 46.954 29.3185 43.1379L6.86209 20.6814C3.04597 16.8653 3.04597 10.6782 6.86209 6.86208C10.6782 3.04597 16.8653 3.04597 20.6815 6.86209L43.1379 29.3186Z" fill="var(--o-icons-yellow-pure, #FBB130)"/>
<path d="M43.1379 29.3186C46.954 33.1347 46.954 39.3218 43.1379 43.1379C39.3218 46.954 33.1347 46.954 29.3185 43.1379L6.86209 20.6814C3.04597 16.8653 3.04597 10.6782 6.86209 6.86208C10.6782 3.04597 16.8653 3.04597 20.6815 6.86209L43.1379 29.3186Z" fill="url(#white_gradient_2)" fill-opacity="0.2"/>
<path d="M6.86208 6.86304L43.1379 43.1389C39.3218 46.955 33.1347 46.955 29.3186 43.1389L6.86208 20.6824C3.04597 16.8663 3.04597 10.6792 6.86208 6.86304Z" fill="var(--o-icons-yellow-pure, #FBB130)"/>
<path d="M6.86208 6.86304L43.1379 43.1389C39.3218 46.955 33.1347 46.955 29.3186 43.1389L6.86208 20.6824C3.04597 16.8663 3.04597 10.6792 6.86208 6.86304Z" fill="url(#white_gradient_3)" fill-opacity="0.2"/>
<path d="M25 11.1807L11.1807 25.0009L25 38.8203L38.8194 25L25 11.1807Z" fill="var(--o-icons-magenta-yellow, #FB481E)"/>
<path d="M25 11.1807L11.1807 25.0009L25 38.8203L38.8194 25L25 11.1807Z" fill="url(#white_gradient_4)" fill-opacity="0.3"/>
<defs>
<linearGradient id="white_gradient_1" x1="4" y1="4" x2="53.4118" y2="16.3529" gradientUnits="userSpaceOnUse">
<stop stop-color="white"/>
<stop offset="1" stop-color="white" stop-opacity="0"/>
</linearGradient>
<linearGradient id="white_gradient_2" x1="4" y1="4" x2="53.4118" y2="16.3529" gradientUnits="userSpaceOnUse">
<stop stop-color="white"/>
<stop offset="1" stop-color="white" stop-opacity="0"/>
</linearGradient>
<linearGradient id="white_gradient_3" x1="4" y1="6.86304" x2="50.0446" y2="18.3742" gradientUnits="userSpaceOnUse">
<stop stop-color="white"/>
<stop offset="1" stop-color="white" stop-opacity="0"/>
</linearGradient>
<linearGradient id="white_gradient_4" x1="11.1807" y1="11.1807" x2="43.6969" y2="19.3095" gradientUnits="userSpaceOnUse">
<stop stop-color="white"/>
<stop offset="1" stop-color="white" stop-opacity="0"/>
</linearGradient>
</defs>
</svg>
