<?xml version="1.0" encoding="utf-8"?>
<!-- Generator: Adobe Illustrator 27.9.0, SVG Export Plug-In . SVG Version: 6.00 Build 0)  -->
<svg version="1.1" id="Layer_1" xmlns="http://www.w3.org/2000/svg" xmlns:xlink="http://www.w3.org/1999/xlink" x="0px" y="0px"
	 viewBox="0 0 51.8 51.8" style="enable-background:new 0 0 51.8 51.8;" xml:space="preserve">
<style type="text/css">
	.st0{fill:#ED232A;}
	.st1{fill:#FFFFFF;}
	.st2{fill:#004C8F;}
	.st3{enable-background:new    ;}
</style>
<g>
	<text transform="matrix(1 0 0 1 54.5496 49.5972)" class="st1" style="font-family:'Helvetica-Black'; font-size:5.5px;">HDFC BANK</text>
</g>
<g>
	<g>
		<path class="st0" d="M7.5,2.4h36.8v36.8H7.5V2.4z"/>
		<g>
			<path class="st1" d="M14,8.9h23.9v23.9H14V8.9z"/>
			<path class="st1" d="M24.1,2.4h3.7v37.9h-3.7V2.4z"/>
			<path class="st1" d="M6.5,19h38.8v3.7H6.5V19z"/>
		</g>
		<path class="st2" d="M20.4,15.3h11v11h-11V15.3z"/>
	</g>
	<rect x="7.4" y="42" class="st2" width="37" height="7.4"/>
	<g>
		<g class="st3">
			<path class="st1" d="M8.1,47.7v-3.9h1.3v1.3h1.2v-1.3h1.3v3.9h-1.3v-1.5H9.4v1.5H8.1z"/>
			<path class="st1" d="M12.7,47.7v-3.9h1.8c0.4,0,0.7,0.1,1,0.2c0.3,0.1,0.5,0.3,0.7,0.6s0.2,0.7,0.2,1.1c0,0.3,0,0.5-0.1,0.8
				c-0.1,0.2-0.2,0.4-0.3,0.6s-0.2,0.3-0.4,0.3c-0.1,0.1-0.3,0.2-0.5,0.2s-0.5,0.1-0.8,0.1H12.7z M13.9,46.7l0.3,0
				c0.2,0,0.4,0,0.5-0.1c0.1-0.1,0.2-0.2,0.3-0.3c0.1-0.2,0.1-0.3,0.1-0.6c0-0.1,0-0.3,0-0.4S15,45.1,15,45
				c-0.1-0.1-0.1-0.1-0.2-0.2c-0.1-0.1-0.3-0.1-0.5-0.1h-0.3V46.7z"/>
			<path class="st1" d="M17,47.7v-3.9h3v1h-1.8v0.6h1.4v0.9h-1.4v1.4H17z"/>
			<path class="st1" d="M24.3,45.3h-1.2c0-0.2-0.1-0.3-0.2-0.5c-0.1-0.1-0.3-0.2-0.4-0.2c-0.2,0-0.4,0.1-0.6,0.3
				c-0.1,0.2-0.2,0.5-0.2,0.9c0,0.3,0,0.5,0.1,0.6c0.1,0.1,0.1,0.2,0.3,0.3c0.1,0.1,0.2,0.1,0.4,0.1c0.2,0,0.4-0.1,0.5-0.2
				c0.1-0.1,0.2-0.3,0.2-0.5h1.2c0,0.2-0.1,0.4-0.1,0.6c-0.1,0.2-0.2,0.3-0.4,0.5c-0.2,0.2-0.4,0.3-0.6,0.4
				c-0.2,0.1-0.5,0.1-0.8,0.1c-0.3,0-0.6,0-0.8-0.1c-0.3-0.1-0.5-0.2-0.6-0.4c-0.2-0.2-0.3-0.3-0.4-0.6c-0.1-0.3-0.2-0.6-0.2-1
				c0-0.3,0-0.6,0.1-0.8c0.1-0.3,0.2-0.5,0.4-0.7c0.2-0.2,0.4-0.3,0.6-0.4c0.3-0.1,0.6-0.2,0.9-0.2c0.3,0,0.5,0,0.8,0.1
				s0.5,0.2,0.6,0.4s0.3,0.3,0.4,0.6C24.2,44.9,24.3,45.1,24.3,45.3z"/>
			<path class="st1" d="M26.8,47.7v-3.9h1.9c0.5,0,0.8,0.1,1.1,0.2c0.3,0.2,0.4,0.4,0.4,0.8c0,0.3-0.2,0.6-0.5,0.8
				c0.2,0.1,0.4,0.2,0.5,0.3c0.1,0.2,0.2,0.4,0.2,0.6c0,0.2,0,0.3-0.1,0.5c-0.1,0.1-0.1,0.2-0.2,0.3c-0.1,0.1-0.2,0.1-0.3,0.2
				c-0.1,0.1-0.3,0.1-0.4,0.1c-0.1,0-0.3,0-0.6,0H26.8z M28,44.7v0.7h0.5c0.2,0,0.3,0,0.4-0.1C29,45.2,29,45.1,29,45
				c0-0.1,0-0.1-0.1-0.2c0-0.1-0.1-0.1-0.2-0.1c-0.1,0-0.2,0-0.4,0H28z M28,46.1v0.7h0.5c0.2,0,0.4,0,0.5-0.1s0.1-0.2,0.1-0.3
				s0-0.2-0.1-0.3c-0.1-0.1-0.2-0.1-0.5-0.1H28z"/>
			<path class="st1" d="M30.7,47.7l1.4-3.9h1.3l1.4,3.9h-1.3l-0.1-0.5h-1.3l-0.1,0.5H30.7z M32.7,45l-0.4,1.4h0.8L32.7,45z"/>
			<path class="st1" d="M35.3,47.7v-3.9h1.2l1.3,2.1v-2.1h1.2v3.9h-1.2l-1.3-2v2H35.3z"/>
			<path class="st1" d="M39.9,47.7v-3.9h1.2v1.3l1.2-1.3h1.5l-1.4,1.5l1.6,2.4h-1.5l-0.9-1.6l-0.3,0.3v1.2H39.9z"/>
		</g>
	</g>
</g>
</svg>
