<?xml version="1.0" encoding="utf-8"?>

<svg version="1.1" xmlns="http://www.w3.org/2000/svg" xmlns:xlink="http://www.w3.org/1999/xlink" x="0px" y="0px"
	 viewBox="0 0 400 120" style="enable-background:new 0 0 400 120;" xml:space="preserve">

    <g style="fill: #666666;">
        <line class="st1" x1="-72" y1="120" x2="48.5" y2="-0.5"/>
        <line class="st1" x1="-52" y1="120" x2="68.5" y2="-0.5"/>
        <line class="st1" x1="-32" y1="120" x2="88.5" y2="-0.5"/>
        <line class="st1" x1="-12" y1="120" x2="108.5" y2="-0.5"/>
        <line class="st1" x1="8" y1="120" x2="128.5" y2="-0.5"/>
        <line class="st1" x1="28" y1="120" x2="148.5" y2="-0.5"/>
        <line class="st1" x1="48" y1="120" x2="168.5" y2="-0.5"/>
        <line class="st1" x1="68" y1="120" x2="188.5" y2="-0.5"/>
        <line class="st1" x1="88" y1="120" x2="208.5" y2="-0.5"/>
        <line class="st1" x1="108" y1="120" x2="228.5" y2="-0.5"/>
        <line class="st1" x1="128" y1="120" x2="248.5" y2="-0.5"/>
        <line class="st1" x1="148" y1="120" x2="268.5" y2="-0.5"/>
        <line class="st1" x1="168" y1="120" x2="288.5" y2="-0.5"/>
        <line class="st1" x1="188" y1="120" x2="308.5" y2="-0.5"/>
        <line class="st1" x1="208" y1="120" x2="328.5" y2="-0.5"/>
        <line class="st1" x1="228" y1="120" x2="348.5" y2="-0.5"/>
        <line class="st1" x1="248" y1="120" x2="368.5" y2="-0.5"/>
        <line class="st1" x1="268" y1="120" x2="388.5" y2="-0.5"/>
        <line class="st1" x1="288" y1="120" x2="408.5" y2="-0.5"/>
        <line class="st1" x1="308" y1="120" x2="428.5" y2="-0.5"/>
        <line class="st1" x1="328" y1="120" x2="448.5" y2="-0.5"/>
        <line class="st1" x1="348" y1="120" x2="468.5" y2="-0.5"/>
        <line class="st1" x1="368" y1="120" x2="488.5" y2="-0.5"/>
        <line class="st1" x1="388" y1="120" x2="508.5" y2="-0.5"/>
        <line class="st1" x1="408" y1="120" x2="528.5" y2="-0.5"/>
        <line class="st1" x1="428" y1="120" x2="548.5" y2="-0.5"/>
        <line class="st1" x1="448" y1="120" x2="568.5" y2="-0.5"/>
        <line class="st1" x1="458" y1="120" x2="578.5" y2="-0.5"/>
        <line class="st1" x1="468" y1="120" x2="588.5" y2="-0.5"/>
        <line class="st1" x1="-82" y1="120" x2="38.5" y2="-0.5"/>
        <line class="st1" x1="-62" y1="120" x2="58.5" y2="-0.5"/>
        <line class="st1" x1="-42" y1="120" x2="78.5" y2="-0.5"/>
        <line class="st1" x1="-22" y1="120" x2="98.5" y2="-0.5"/>
        <line class="st1" x1="-2" y1="120" x2="118.5" y2="-0.5"/>
        <line class="st1" x1="18" y1="120" x2="138.5" y2="-0.5"/>
        <line class="st1" x1="38" y1="120" x2="158.5" y2="-0.5"/>
        <line class="st1" x1="58" y1="120" x2="178.5" y2="-0.5"/>
        <line class="st1" x1="78" y1="120" x2="198.5" y2="-0.5"/>
        <line class="st1" x1="98" y1="120" x2="218.5" y2="-0.5"/>
        <line class="st1" x1="118" y1="120" x2="238.5" y2="-0.5"/>
        <line class="st1" x1="138" y1="120" x2="258.5" y2="-0.5"/>
        <line class="st1" x1="158" y1="120" x2="278.5" y2="-0.5"/>
        <line class="st1" x1="178" y1="120" x2="298.5" y2="-0.5"/>
        <line class="st1" x1="198" y1="120" x2="318.5" y2="-0.5"/>
        <line class="st1" x1="218" y1="120" x2="338.5" y2="-0.5"/>
        <line class="st1" x1="238" y1="120" x2="358.5" y2="-0.5"/>
        <line class="st1" x1="258" y1="120" x2="378.5" y2="-0.5"/>
        <line class="st1" x1="278" y1="120" x2="398.5" y2="-0.5"/>
        <line class="st1" x1="298" y1="120" x2="418.5" y2="-0.5"/>
        <line class="st1" x1="318" y1="120" x2="438.5" y2="-0.5"/>
        <line class="st1" x1="338" y1="120" x2="458.5" y2="-0.5"/>
        <line class="st1" x1="358" y1="120" x2="478.5" y2="-0.5"/>
        <line class="st1" x1="378" y1="120" x2="498.5" y2="-0.5"/>
        <line class="st1" x1="398" y1="120" x2="518.5" y2="-0.5"/>
        <line class="st1" x1="418" y1="120" x2="538.5" y2="-0.5"/>
        <line class="st1" x1="438" y1="120" x2="558.5" y2="-0.5"/>

        <path d="M85,39.21v40.5c0,3.73-3.02,6.75-6.75,6.75h-58.5c-3.73,0-6.75-3.02-6.75-6.75v-40.5
            c0-3.73,3.02-6.75,6.75-6.75h58.5C81.98,32.46,85,35.48,85,39.21z M78.25,78.87V40.06c0-0.47-0.38-0.84-0.84-0.84H20.59
            c-0.47,0-0.84,0.38-0.84,0.84v38.81c0,0.47,0.38,0.84,0.84,0.84h56.81C77.87,79.71,78.25,79.33,78.25,78.87z M36.62,50.46
            c0,3.11-2.52,5.62-5.62,5.62s-5.62-2.52-5.62-5.62s2.52-5.62,5.62-5.62S36.62,47.36,36.62,50.46z M26.5,66.21l5.56-5.56
            c0.66-0.66,1.73-0.66,2.39,0L40,66.21l16.81-16.81c0.66-0.66,1.73-0.66,2.39,0L71.5,61.71v11.25h-45V66.21z"/>
        <path d="M138.28,38.7l-14.1,26.94v15.42h-6.9V65.64L103.12,38.7h7.92l9.72,19.62l9.72-19.62H138.28z"/>
        <path d="M161.96,49.62c2.56,1.36,4.56,3.32,6,5.88s2.16,5.56,2.16,9c0,3.48-0.72,6.5-2.16,9.06
            c-1.44,2.56-3.44,4.52-6,5.88c-2.56,1.36-5.44,2.04-8.64,2.04c-3.2,0-6.07-0.68-8.61-2.04c-2.54-1.36-4.54-3.33-6-5.91
            c-1.46-2.58-2.19-5.59-2.19-9.03s0.73-6.44,2.19-9c1.46-2.56,3.46-4.52,6-5.88c2.54-1.36,5.41-2.04,8.61-2.04
            C156.52,47.58,159.4,48.26,161.96,49.62z M148.46,54.72c-1.48,0.8-2.67,2.03-3.57,3.69c-0.9,1.66-1.35,3.69-1.35,6.09
            c0,2.44,0.45,4.48,1.35,6.12c0.9,1.64,2.09,2.86,3.57,3.66c1.48,0.8,3.1,1.2,4.86,1.2c1.76,0,3.38-0.4,4.86-1.2
            c1.48-0.8,2.67-2.02,3.57-3.66c0.9-1.64,1.35-3.68,1.35-6.12c0-2.4-0.45-4.43-1.35-6.09c-0.9-1.66-2.09-2.89-3.57-3.69
            c-1.48-0.8-3.1-1.2-4.86-1.2C151.56,53.52,149.94,53.92,148.46,54.72z"/>
        <path d="M206.52,48v33.06h-6.9v-7.2c-0.84,2.44-2.3,4.33-4.38,5.67c-2.08,1.34-4.5,2.01-7.26,2.01
            c-3.84,0-6.92-1.24-9.24-3.72c-2.32-2.48-3.48-6.02-3.48-10.62V48h6.84v18.48c0,3,0.76,5.31,2.28,6.93
            c1.52,1.62,3.6,2.43,6.24,2.43c2.72,0,4.9-0.88,6.54-2.64c1.64-1.76,2.46-4.32,2.46-7.68V48H206.52z"/>
        <path d="M225.57,49.35c2.08-1.26,4.48-1.89,7.2-1.89v7.44h-2.04c-3,0-5.41,0.73-7.23,2.19
            c-1.82,1.46-2.73,3.87-2.73,7.23v16.74h-6.84V48h6.84v6.48C221.89,52.32,223.49,50.61,225.57,49.35z"/>
        <path d="M258.75,75.72h14.64v5.34h-21.48V38.7h6.84V75.72z"/>
        <path d="M300.76,49.62c2.56,1.36,4.56,3.32,6,5.88c1.44,2.56,2.16,5.56,2.16,9c0,3.48-0.72,6.5-2.16,9.06
            c-1.44,2.56-3.44,4.52-6,5.88c-2.56,1.36-5.44,2.04-8.64,2.04s-6.07-0.68-8.61-2.04c-2.54-1.36-4.54-3.33-6-5.91
            c-1.46-2.58-2.19-5.59-2.19-9.03s0.73-6.44,2.19-9c1.46-2.56,3.46-4.52,6-5.88c2.54-1.36,5.41-2.04,8.61-2.04
            S298.2,48.26,300.76,49.62z M287.26,54.72c-1.48,0.8-2.67,2.03-3.57,3.69c-0.9,1.66-1.35,3.69-1.35,6.09
            c0,2.44,0.45,4.48,1.35,6.12c0.9,1.64,2.09,2.86,3.57,3.66c1.48,0.8,3.1,1.2,4.86,1.2c1.76,0,3.38-0.4,4.86-1.2
            c1.48-0.8,2.67-2.02,3.57-3.66c0.9-1.64,1.35-3.68,1.35-6.12c0-2.4-0.45-4.43-1.35-6.09c-0.9-1.66-2.09-2.89-3.57-3.69
            c-1.48-0.8-3.1-1.2-4.86-1.2C290.36,53.52,288.74,53.92,287.26,54.72z"/>
        <path d="M335.71,49.8c2.12,1.48,3.62,3.44,4.5,5.88V48h6.84v33.42c0,3.08-0.63,5.81-1.89,8.19s-3.07,4.25-5.43,5.61
            c-2.36,1.36-5.16,2.04-8.4,2.04c-4.64,0-8.39-1.1-11.25-3.3c-2.86-2.2-4.65-5.18-5.37-8.94h6.78c0.56,1.96,1.64,3.49,3.24,4.59
            c1.6,1.1,3.64,1.65,6.12,1.65c2.72,0,4.96-0.84,6.72-2.52c1.76-1.68,2.64-4.12,2.64-7.32v-8.04c-0.88,2.44-2.38,4.4-4.5,5.88
            c-2.12,1.48-4.68,2.22-7.68,2.22c-2.88,0-5.45-0.68-7.71-2.04c-2.26-1.36-4.03-3.32-5.31-5.88c-1.28-2.56-1.92-5.58-1.92-9.06
            c0-3.44,0.64-6.44,1.92-9c1.28-2.56,3.05-4.52,5.31-5.88c2.26-1.36,4.83-2.04,7.71-2.04C331.04,47.58,333.59,48.33,335.71,49.8z
                M322.84,56.49c-1.82,1.94-2.73,4.61-2.73,8.01s0.91,6.07,2.73,8.01c1.82,1.94,4.25,2.91,7.29,2.91c1.92,0,3.64-0.45,5.16-1.35
            c1.52-0.9,2.72-2.17,3.6-3.81c0.88-1.64,1.32-3.56,1.32-5.76c0-2.16-0.44-4.07-1.32-5.73c-0.88-1.66-2.08-2.94-3.6-3.84
            c-1.52-0.9-3.24-1.35-5.16-1.35C327.09,53.58,324.66,54.55,322.84,56.49z"/>
        <path d="M378.23,49.62c2.56,1.36,4.56,3.32,6,5.88c1.44,2.56,2.16,5.56,2.16,9c0,3.48-0.72,6.5-2.16,9.06
            c-1.44,2.56-3.44,4.52-6,5.88c-2.56,1.36-5.44,2.04-8.64,2.04s-6.07-0.68-8.61-2.04c-2.54-1.36-4.54-3.33-6-5.91
            c-1.46-2.58-2.19-5.59-2.19-9.03s0.73-6.44,2.19-9c1.46-2.56,3.46-4.52,6-5.88c2.54-1.36,5.41-2.04,8.61-2.04
            S375.67,48.26,378.23,49.62z M364.73,54.72c-1.48,0.8-2.67,2.03-3.57,3.69c-0.9,1.66-1.35,3.69-1.35,6.09
            c0,2.44,0.45,4.48,1.35,6.12c0.9,1.64,2.09,2.86,3.57,3.66c1.48,0.8,3.1,1.2,4.86,1.2c1.76,0,3.38-0.4,4.86-1.2
            c1.48-0.8,2.67-2.02,3.57-3.66c0.9-1.64,1.35-3.68,1.35-6.12c0-2.4-0.45-4.43-1.35-6.09c-0.9-1.66-2.09-2.89-3.57-3.69
            c-1.48-0.8-3.1-1.2-4.86-1.2C367.83,53.52,366.21,53.92,364.73,54.72z"/>
    </g>
</svg>
