<svg width="50" height="50" viewBox="0 0 50 50" fill="none" xmlns="http://www.w3.org/2000/svg">
<path d="M38 46L12 46C7.58172 46 4 42.5016 4 38.186L4 4L34 4C36.2091 4 38 5.74922 38 7.90698L38 46Z" fill="var(--o-icons-cyan-pure, #1BD4F9)"/>
<path d="M38 46L12 46C7.58172 46 4 42.5016 4 38.186L4 4L34 4C36.2091 4 38 5.74922 38 7.90698L38 46Z" fill="url(#white_gradient_1)" fill-opacity="0.3"/>
<path d="M12 46H38C39.0506 46 40.0909 45.7931 41.0615 45.391C42.0321 44.989 42.914 44.3997 43.6569 43.6569C44.3997 42.914 44.989 42.0321 45.391 41.0615C45.7931 40.0909 46 39.0506 46 38H20C20 42.4183 16.4183 46 12 46Z" fill="var(--o-icons-magenta-cyan, #1B569A)"/>
<path d="M12 46H38C39.0506 46 40.0909 45.7931 41.0615 45.391C42.0321 44.989 42.914 44.3997 43.6569 43.6569C44.3997 42.914 44.989 42.0321 45.391 41.0615C45.7931 40.0909 46 39.0506 46 38H20C20 42.4183 16.4183 46 12 46Z" fill="url(#white_gradient_2)" fill-opacity="0.3"/>
<path d="M38 8C23.4078 8 10.6874 16.0141 4 27.8809L4 4L34 4C36.2091 4 38 5.79087 38 8Z" fill="var(--o-icons-cyan-cyan, #03AAE9)"/>
<path d="M38 8C23.4078 8 10.6874 16.0141 4 27.8809L4 4L34 4C36.2091 4 38 5.79087 38 8Z" fill="url(#white_gradient_3)" fill-opacity="0.3"/>
<path d="M20.4251 34H21.6063V32.2927C24.8362 32.0949 27 30.502 27 27.8577V27.8369C27 25.5049 25.5052 24.3389 22.5575 23.6935L21.6063 23.4957V20.4766C22.6411 20.6431 23.3206 21.2157 23.4669 22.1839L23.4774 22.2047L26.7596 22.1943L26.77 22.1839C26.6551 19.6541 24.7631 17.9676 21.6063 17.749V16H20.4251V17.7386C17.3519 17.8843 15.1463 19.4667 15.1463 22.0694V22.0902C15.1463 24.4326 16.6934 25.6923 19.4843 26.3065L20.4251 26.5043V29.5859C19.2021 29.4714 18.4913 28.9612 18.324 28.0451L18.3136 28.0243L15.0209 28.0347L15 28.0451C15.0836 30.7102 17.2369 32.1781 20.4251 32.3031V34ZM18.6481 21.8091V21.7883C18.6481 21.0388 19.2544 20.5599 20.4251 20.4558V23.225C19.2125 22.9023 18.6481 22.4962 18.6481 21.8091ZM23.4983 28.2325V28.2533C23.4983 29.0549 22.8188 29.4818 21.6063 29.5859V26.7646C22.9652 27.1082 23.4983 27.4621 23.4983 28.2325Z" fill="white"/>
<defs>
<linearGradient id="white_gradient_1" x1="4" y1="4" x2="44.8278" y2="12.2628" gradientUnits="userSpaceOnUse">
<stop stop-color="white"/>
<stop offset="1" stop-color="white" stop-opacity="0"/>
</linearGradient>
<linearGradient id="white_gradient_2" x1="12" y1="38" x2="31.9633" y2="59.211" gradientUnits="userSpaceOnUse">
<stop stop-color="white"/>
<stop offset="1" stop-color="white" stop-opacity="0"/>
</linearGradient>
<linearGradient id="white_gradient_3" x1="4" y1="4" x2="41.7212" y2="17.4262" gradientUnits="userSpaceOnUse">
<stop stop-color="white"/>
<stop offset="1" stop-color="white" stop-opacity="0"/>
</linearGradient>
</defs>
</svg>
