<?xml version="1.0" encoding="UTF-8"?> <svg xmlns="http://www.w3.org/2000/svg" xmlns:xlink="http://www.w3.org/1999/xlink" version="1.1" viewBox="0 0 416 178"><defs><style> .cls-1 { fill: none; } .cls-2 { fill: #0069b1; } .cls-3 { fill: #e12e56; } .cls-4 { clip-path: url(#clippath); } </style><clipPath id="clippath"><rect class="cls-1" x="12.5" y="19.9" width="391" height="138.1"></rect></clipPath></defs><g><g id="Layer_1"><g class="cls-4"><g><path class="cls-2" d="M216.5,131.6c0-1-.2-1.9-.5-2.8-.3-.9-.7-1.6-1.3-2.2-.6-.6-1.3-1.1-2.2-1.5-.9-.4-1.8-.6-3-.6s-2,.2-2.9.6c-.9.4-1.7.9-2.4,1.5-.7.6-1.2,1.4-1.7,2.2-.5.9-.7,1.8-.7,2.8h14.7ZM221.5,133.5v.8c0,.3,0,.6,0,.8h-19.6c0,1,.3,2,.7,2.9.5.9,1,1.7,1.7,2.4.7.7,1.6,1.2,2.5,1.6,1,.4,2,.6,3,.6,1.7,0,3.1-.4,4.3-1.1,1.2-.7,2.1-1.6,2.8-2.7l3.4,2.8c-1.3,1.7-2.9,3-4.7,3.9-1.8.8-3.8,1.2-6,1.2s-3.6-.3-5.2-.9c-1.6-.6-3-1.5-4.1-2.6-1.1-1.1-2-2.5-2.7-4.1-.7-1.6-1-3.4-1-5.3s.3-3.7,1-5.3c.6-1.6,1.6-3,2.7-4.1,1.1-1.1,2.5-2,4.1-2.7,1.6-.6,3.3-1,5-1s3.4.3,4.9.9c1.5.6,2.8,1.4,3.7,2.6,1,1.1,1.8,2.4,2.4,4,.6,1.7.9,3.4.9,5.4h0Z"></path><path class="cls-2" d="M270.9,121.4l-5.6,19-6-19h-5.2l-5.9,19-5.6-19h-5.3l8.2,24.7h5.1l6-18.5h.1l6.1,18.5h5.1l8.2-24.7h-5.1,0Z"></path><path class="cls-2" d="M297.1,133.7c0-1.2-.2-2.3-.6-3.4-.4-1.1-.9-2-1.6-2.8-.7-.8-1.6-1.4-2.6-2-1-.5-2.2-.7-3.5-.7s-2.5.3-3.5.7c-1,.5-1.9,1.1-2.6,2-.7.8-1.2,1.7-1.6,2.8-.4,1.1-.6,2.2-.6,3.4s.2,2.3.6,3.4c.4,1.1.9,2,1.6,2.8.7.8,1.6,1.5,2.6,2s2.2.7,3.5.7,2.5-.3,3.5-.7c1-.5,1.9-1.1,2.6-2,.7-.8,1.2-1.8,1.6-2.8.4-1.1.6-2.2.6-3.4ZM302.2,133.7c0,1.9-.3,3.7-1,5.3-.7,1.6-1.6,3-2.8,4.1-1.2,1.1-2.6,2.1-4.2,2.7-1.6.6-3.4,1-5.3,1s-3.6-.3-5.3-1c-1.6-.6-3-1.6-4.2-2.7-1.2-1.1-2.1-2.6-2.8-4.1-.7-1.6-1-3.3-1-5.3s.3-3.7,1-5.2c.7-1.6,1.6-2.9,2.8-4.1,1.2-1.1,2.6-2,4.2-2.7,1.6-.6,3.4-1,5.3-1s3.6.3,5.3,1c1.6.6,3,1.5,4.2,2.7,1.2,1.2,2.1,2.5,2.8,4.1.7,1.6,1,3.3,1,5.2Z"></path><path class="cls-2" d="M325.9,113.8h-4.9v32.3h4.9v-32.3Z"></path><path class="cls-2" d="M235.3,125.1v-3.7h-6.2v-7.6h-4.9v25c0,2.6.6,4.5,1.8,5.8,1.2,1.3,3,1.9,5.3,1.9s1.5,0,2.2-.2c.6-.1,1.1-.2,1.6-.4v-4c-.4.1-.8.3-1.2.4-.5.1-1,.1-1.4.1-1.2,0-2.1-.3-2.7-1-.6-.6-.8-1.7-.8-3.2v-13.1h6.2Z"></path><path class="cls-2" d="M316.9,120.7c-1.7,0-3.2.5-4.5,1.3-1.3.9-2.5,2-3.2,3.5v-4.2h-4.6v24.7h4.9v-13c0-1,.1-2,.4-3,.3-1,.7-1.8,1.3-2.5.6-.7,1.3-1.3,2.2-1.7.9-.5,1.9-.7,3.1-.7s1.5,0,2.2.3v-4.5c-.5-.1-1.1-.1-1.7-.1h0,0Z"></path><path class="cls-2" d="M193.7,126.9c-.4-1.2-.9-2.2-1.7-3.2-.8-.9-1.7-1.6-2.9-2.2-1.1-.5-2.5-.8-4.1-.8s-1.8.1-2.6.4c-.8.3-1.6.6-2.3,1-.7.5-1.3.9-1.8,1.5-.6.6-1.1,1.2-1.4,1.8v-4h-4.6v24.7h4.9v-13.1c0-2.4.6-4.4,1.8-5.9,1.2-1.5,2.8-2.2,4.7-2.2s2.1.2,2.8.6c.7.4,1.3,1,1.7,1.7.4.7.7,1.5.9,2.4.1.9.2,1.8.2,2.8v13.7h4.9v-15.3c0-1.4-.2-2.7-.6-3.9h0Z"></path><path class="cls-2" d="M336.3,121.4h6l-10.4,12.4,10.3,12.3h-6l-10.3-12.3,10.4-12.4h0Z"></path><path class="cls-2" d="M122.4,142.3c1.2,0,2.3-.2,3.3-.6,1-.4,1.8-1,2.5-1.7.7-.7,1.2-1.6,1.6-2.6.4-1,.6-2.2.6-3.4s-.2-2.3-.6-3.3c-.4-1-.9-1.9-1.6-2.6-.7-.7-1.5-1.3-2.5-1.7-1-.4-2.1-.7-3.3-.7s-2.3.2-3.3.7c-1,.4-1.8,1-2.5,1.7-.7.7-1.2,1.6-1.6,2.6-.4,1-.6,2.1-.6,3.3s.2,2.3.6,3.4c.4,1,.9,1.9,1.6,2.6.7.7,1.5,1.3,2.5,1.7,1,.4,2.1.6,3.3.6ZM110,107.6h4.6v17.7h.1c.8-1.2,2-2.2,3.5-2.9,1.5-.7,3.1-1.1,4.9-1.1s3.5.3,5,1c1.5.6,2.8,1.5,3.9,2.7,1.1,1.1,1.9,2.4,2.5,4,.6,1.5.9,3.2.9,5s-.3,3.4-.9,5c-.6,1.5-1.4,2.8-2.5,4-1,1.1-2.3,2-3.9,2.7-1.5.6-3.2,1-5,1s-3.2-.4-4.8-1.1c-1.5-.7-2.7-1.7-3.6-3h-.1v3.4h-4.6v-38.3h0Z"></path><path class="cls-2" d="M135.5,121.9h5.3l7.1,18.7h.1l6.8-18.7h4.9l-11.4,29.2c-.4,1-.8,2-1.3,2.8-.4.9-1,1.6-1.6,2.2-.6.6-1.3,1.1-2.2,1.4-.8.3-1.9.5-3.1.5s-1.4,0-2.1-.1c-.7,0-1.3-.2-2-.5l.6-4.2c.9.4,1.8.6,2.7.6s1.3-.1,1.8-.3c.5-.2.9-.4,1.3-.8.4-.3.7-.7.9-1.2.2-.5.5-1,.7-1.6l1.5-3.8-10-24.1h0Z"></path><path class="cls-2" d="M12.5,87.8V20.5h39c4.8,0,9.1.8,13.2,2.4,4,1.6,7.5,3.9,10.4,6.8,2.9,2.9,5.2,6.4,6.8,10.4,1.6,4,2.5,8.5,2.5,13.4s-.8,9.4-2.5,13.6c-1.6,4.2-3.9,7.8-6.8,10.9-2.9,3.1-6.4,5.5-10.4,7.2-4,1.8-8.4,2.6-13.2,2.6H12.5ZM51.5,76.1c3,0,5.8-.6,8.4-1.7,2.6-1.1,4.8-2.6,6.7-4.6,1.9-1.9,3.3-4.3,4.4-7,1-2.7,1.6-5.7,1.6-8.8s-.5-6.1-1.6-8.8c-1-2.7-2.5-5-4.4-6.9-1.9-1.9-4.1-3.4-6.7-4.5-2.6-1.1-5.4-1.6-8.4-1.6h-27.3v43.8h27.3,0Z"></path><path class="cls-2" d="M113.2,69.1v-11.4h27c4.1,0,7.4-1.2,9.7-3.5,2.3-2.3,3.5-5.4,3.5-9.3s-1.2-7-3.5-9.3c-2.3-2.3-5.6-3.4-9.7-3.4h-35.7v55.6h-11.7V20.5h47.3c3.9,0,7.4.6,10.4,1.7,3.1,1.1,5.6,2.7,7.7,4.8,2.1,2.1,3.7,4.6,4.8,7.5,1.1,3,1.7,6.3,1.7,10s-.6,7-1.7,10c-1.1,3-2.7,5.6-4.8,7.7-2.1,2.2-4.7,3.8-7.7,5.1-3.1,1.2-6.5,1.8-10.4,1.8h-27Z"></path><path class="cls-2" d="M205.7,87.8c-4.7,0-9-.9-13-2.6-4-1.8-7.4-4.2-10.4-7.2-2.9-3.1-5.2-6.7-6.9-10.9-1.6-4.2-2.5-8.7-2.5-13.6s.8-9.5,2.5-13.5c1.6-4.1,3.9-7.5,6.9-10.4,2.9-2.9,6.4-5.1,10.4-6.7,4-1.6,8.3-2.4,13-2.4h16.4c4.9,0,9.3.8,13.4,2.4,4,1.6,7.5,3.9,10.4,6.8,2.9,2.9,5.1,6.4,6.8,10.4,1.6,4,2.4,8.5,2.4,13.4s-.8,9.4-2.5,13.6c-1.6,4.2-3.9,7.8-6.8,10.9-2.9,3.1-6.4,5.5-10.4,7.2-4,1.8-8.4,2.6-13.2,2.6h-16.4ZM222.1,76.1c3.1,0,5.9-.6,8.5-1.7,2.6-1.1,4.8-2.6,6.7-4.6,1.9-1.9,3.3-4.3,4.4-7,1-2.7,1.6-5.7,1.6-8.8s-.5-6.1-1.6-8.8c-1-2.7-2.5-5-4.4-6.9-1.9-1.9-4.1-3.4-6.7-4.5-2.6-1.1-5.4-1.6-8.5-1.6h-16.4c-3,0-5.8.5-8.4,1.6-2.6,1.1-4.8,2.6-6.6,4.5s-3.3,4.2-4.4,6.9c-1.1,2.7-1.6,5.6-1.6,8.8s.5,6.1,1.6,8.8c1,2.7,2.5,5.1,4.4,7,1.9,1.9,4.1,3.5,6.6,4.6,2.6,1.1,5.4,1.7,8.4,1.7h16.4Z"></path><path class="cls-2" d="M287.5,32.5c0,8-4.9,12.6-11.6,12.6s-7.9-2.1-9.4-5.6v15.3h-3V20.5h2.9v5.2c1.7-3.5,5.3-5.6,9.6-5.6,6.9,0,11.5,4.4,11.5,12.5ZM284.2,32.5c.1-6.2-3.6-9.6-8.9-9.6s-8.8,2.8-8.8,9v.5c0,6.3,3.6,9.7,8.8,9.7s8.8-3.5,8.9-9.7Z"></path><path class="cls-2" d="M315.4,20.5v24.1h-3v-4.7c-1.7,3.2-5.3,5.2-9.5,5.2-7,0-11.6-4.5-11.6-12.5s4.9-12.6,11.7-12.6,8.1,2.1,9.5,5.7v-5.3h2.9ZM312.2,32.6c0-6.4-3.7-9.7-8.8-9.7s-8.8,3.5-8.9,9.7c-.1,6.2,3.7,9.6,8.9,9.6s8.8-2.8,8.8-9v-.5Z"></path><path class="cls-2" d="M342.7,20.4l-15.9,34.3h-3.3l5.4-11.4-9.5-22.9h3.7l7.5,19.2,8.5-19.3h3.6,0Z"></path><path class="cls-3" d="M375,19.9h-16.6l28.6,34.4-28.2,33.9h16.6l28.1-33.9-28.5-34.4Z"></path></g></g></g></g></svg> 