<svg width="50" height="50" viewBox="0 0 50 50" fill="none" xmlns="http://www.w3.org/2000/svg">
<path d="M28 16C28 21.5228 23.5228 26 18 26C12.4772 26 8 21.5228 8 16C8 10.4772 12.4772 6 18 6C23.5228 6 28 10.4772 28 16Z" fill="var(--o-icons-purple-cyan, #0D2AED)"/>
<path d="M28 16C28 21.5228 23.5228 26 18 26C12.4772 26 8 21.5228 8 16C8 10.4772 12.4772 6 18 6C23.5228 6 28 10.4772 28 16Z" fill="url(#white_gradient_1)" fill-opacity="0.3"/>
<path d="M43 24C43 26.7614 40.7614 29 38 29C35.2386 29 33 26.7614 33 24C33 21.2386 35.2386 19 38 19C40.7614 19 43 21.2386 43 24Z" fill="var(--o-icons-cyan-pure, #1BD4F9)"/>
<path d="M43 24C43 26.7614 40.7614 29 38 29C35.2386 29 33 26.7614 33 24C33 21.2386 35.2386 19 38 19C40.7614 19 43 21.2386 43 24Z" fill="url(#white_gradient_2)" fill-opacity="0.3"/>
<path d="M16 31H42C44.2091 31 46 32.7909 46 35V40C46 42.2091 44.2091 44 42 44H20C17.7909 44 16 42.2091 16 40V31Z" fill="var(--o-icons-cyan-pure, #1BD4F9)"/>
<path d="M16 31H42C44.2091 31 46 32.7909 46 35V40C46 42.2091 44.2091 44 42 44H20C17.7909 44 16 42.2091 16 40V31Z" fill="url(#white_gradient_3)" fill-opacity="0.3"/>
<path d="M4 31H20C27.1797 31 33 36.8203 33 44H17C9.8203 44 4 38.1797 4 31Z" fill="var(--o-icons-purple-cyan, #0D2AED)"/>
<path d="M4 31H20C27.1797 31 33 36.8203 33 44H17C9.8203 44 4 38.1797 4 31Z" fill="url(#white_gradient_4)" fill-opacity="0.3"/>
<path d="M17.6167 22H18.4042V20.8618C20.5575 20.7299 22 19.668 22 17.9051V17.8913C22 16.3366 21.0035 15.5593 19.0383 15.129L18.4042 14.9971V12.9844C19.0941 13.0954 19.547 13.4772 19.6446 14.1226L19.6516 14.1365L21.8397 14.1296L21.8467 14.1226C21.77 12.4361 20.5087 11.3117 18.4042 11.166V10H17.6167V11.1591C15.5679 11.2562 14.0976 12.3112 14.0976 14.0463V14.0602C14.0976 15.6217 15.1289 16.4615 16.9895 16.871L17.6167 17.0029V19.0573C16.8014 18.9809 16.3275 18.6408 16.216 18.0301L16.2091 18.0162L14.0139 18.0231L14 18.0301C14.0557 19.8068 15.4913 20.7854 17.6167 20.8687V22ZM16.4321 13.8728V13.8589C16.4321 13.3592 16.8362 13.0399 17.6167 12.9705V14.8167C16.8084 14.6015 16.4321 14.3308 16.4321 13.8728ZM19.6655 18.155V18.1689C19.6655 18.7033 19.2125 18.9879 18.4042 19.0573V17.1764C19.3101 17.4054 19.6655 17.6414 19.6655 18.155Z" fill="white"/>
<defs>
<linearGradient id="white_gradient_1" x1="8" y1="6" x2="31.5294" y2="11.8824" gradientUnits="userSpaceOnUse">
<stop stop-color="white"/>
<stop offset="1" stop-color="white" stop-opacity="0"/>
</linearGradient>
<linearGradient id="white_gradient_2" x1="33" y1="19" x2="44.7647" y2="21.9412" gradientUnits="userSpaceOnUse">
<stop stop-color="white"/>
<stop offset="1" stop-color="white" stop-opacity="0"/>
</linearGradient>
<linearGradient id="white_gradient_3" x1="16" y1="31" x2="44.1354" y2="47.232" gradientUnits="userSpaceOnUse">
<stop stop-color="white"/>
<stop offset="1" stop-color="white" stop-opacity="0"/>
</linearGradient>
<linearGradient id="white_gradient_4" x1="4" y1="31" x2="31.6502" y2="46.4203" gradientUnits="userSpaceOnUse">
<stop stop-color="white"/>
<stop offset="1" stop-color="white" stop-opacity="0"/>
</linearGradient>
</defs>
</svg>
