<svg width="50" height="50" viewBox="0 0 50 50" fill="none" xmlns="http://www.w3.org/2000/svg">
<path fill-rule="evenodd" clip-rule="evenodd" d="M26.5 25.6214L44.0607 8.06077L41.9393 5.93945L25 22.8788L14.0607 11.9395L11.9393 14.0608L21.3787 23.5001H7V26.5001H23.5V42.0001H26.5V25.6214Z" fill="var(--o-icons-purple-purple, #370ADE)"/>
<path fill-rule="evenodd" clip-rule="evenodd" d="M26.5 25.6214L44.0607 8.06077L41.9393 5.93945L25 22.8788L14.0607 11.9395L11.9393 14.0608L21.3787 23.5001H7V26.5001H23.5V42.0001H26.5V25.6214Z" fill="url(#white_gradient_1)" fill-opacity="0.3"/>
<path d="M46 8.5C46 10.9853 43.9853 13 41.5 13C39.0147 13 37 10.9853 37 8.5C37 6.01472 39.0147 4 41.5 4C43.9853 4 46 6.01472 46 8.5Z" fill="var(--o-icons-magenta-magenta, #FF2A62)"/>
<path d="M46 8.5C46 10.9853 43.9853 13 41.5 13C39.0147 13 37 10.9853 37 8.5C37 6.01472 39.0147 4 41.5 4C43.9853 4 46 6.01472 46 8.5Z" fill="url(#white_gradient_2)" fill-opacity="0.3"/>
<path d="M10 13C10 11.3431 11.3431 10 13 10C14.6569 10 16 11.3431 16 13C16 14.6569 14.6569 16 13 16C11.3431 16 10 14.6569 10 13Z" fill="var(--o-icons-magenta-pure, #FF689E)"/>
<path d="M10 13C10 11.3431 11.3431 10 13 10C14.6569 10 16 11.3431 16 13C16 14.6569 14.6569 16 13 16C11.3431 16 10 14.6569 10 13Z" fill="url(#white_gradient_3)" fill-opacity="0.4"/>
<path d="M4 25C4 23.3431 5.34315 22 7 22C8.65685 22 10 23.3431 10 25C10 26.6569 8.65685 28 7 28C5.34315 28 4 26.6569 4 25Z" fill="var(--o-icons-magenta-pure, #FF689E)"/>
<path d="M4 25C4 23.3431 5.34315 22 7 22C8.65685 22 10 23.3431 10 25C10 26.6569 8.65685 28 7 28C5.34315 28 4 26.6569 4 25Z" fill="url(#white_gradient_4)" fill-opacity="0.4"/>
<path d="M29 25C29 27.2091 27.2091 29 25 29C22.7909 29 21 27.2091 21 25C21 22.7909 22.7909 21 25 21C27.2091 21 29 22.7909 29 25Z" fill="var(--o-icons-yellow-pure, #FBB130)"/>
<path d="M29 25C29 27.2091 27.2091 29 25 29C22.7909 29 21 27.2091 21 25C21 22.7909 22.7909 21 25 21C27.2091 21 29 22.7909 29 25Z" fill="url(#white_gradient_5)" fill-opacity="0.2"/>
<path d="M29 42C29 44.2091 27.2091 46 25 46C22.7909 46 21 44.2091 21 42C21 39.7909 22.7909 38 25 38C27.2091 38 29 39.7909 29 42Z" fill="var(--o-icons-magenta-pure, #FF689E)"/>
<path d="M29 42C29 44.2091 27.2091 46 25 46C22.7909 46 21 44.2091 21 42C21 39.7909 22.7909 38 25 38C27.2091 38 29 39.7909 29 42Z" fill="url(#white_gradient_6)" fill-opacity="0.4"/>
<defs>
<linearGradient id="white_gradient_1" x1="7" y1="5.93945" x2="50.457" y2="17.105" gradientUnits="userSpaceOnUse">
<stop stop-color="white"/>
<stop offset="1" stop-color="white" stop-opacity="0"/>
</linearGradient>
<linearGradient id="white_gradient_2" x1="37" y1="4" x2="47.5882" y2="6.64706" gradientUnits="userSpaceOnUse">
<stop stop-color="white"/>
<stop offset="1" stop-color="white" stop-opacity="0"/>
</linearGradient>
<linearGradient id="white_gradient_3" x1="10" y1="10" x2="17.0588" y2="11.7647" gradientUnits="userSpaceOnUse">
<stop stop-color="white"/>
<stop offset="1" stop-color="white" stop-opacity="0"/>
</linearGradient>
<linearGradient id="white_gradient_4" x1="4" y1="22" x2="11.0588" y2="23.7647" gradientUnits="userSpaceOnUse">
<stop stop-color="white"/>
<stop offset="1" stop-color="white" stop-opacity="0"/>
</linearGradient>
<linearGradient id="white_gradient_5" x1="21" y1="21" x2="30.4118" y2="23.3529" gradientUnits="userSpaceOnUse">
<stop stop-color="white"/>
<stop offset="1" stop-color="white" stop-opacity="0"/>
</linearGradient>
<linearGradient id="white_gradient_6" x1="21" y1="38" x2="30.4118" y2="40.3529" gradientUnits="userSpaceOnUse">
<stop stop-color="white"/>
<stop offset="1" stop-color="white" stop-opacity="0"/>
</linearGradient>
</defs>
</svg>
