<svg width="50" height="50" viewBox="0 0 50 50" fill="none" xmlns="http://www.w3.org/2000/svg">
<path fill-rule="evenodd" clip-rule="evenodd" d="M15.7242 6.39672C16.3772 4.94077 17.8517 4 19.4807 4H30.5185C32.1475 4 33.622 4.94077 34.275 6.39672L37.2363 13H41.899C44.3592 13 46.2655 15.0988 45.9695 17.4813L42.8632 42.4813C42.6137 44.4896 40.8664 46 38.7927 46H11.2071C9.1334 46 7.38615 44.4896 7.13662 42.4813L4.03036 17.4813C3.73433 15.0988 5.64067 13 8.10083 13H12.7629L15.7242 6.39672ZM32.9172 13H17.082C17.082 12.4402 17.205 11.8658 17.4716 11.3085L18.4283 9.30846C19.102 7.90016 20.5508 7 22.1439 7H27.8553C29.4484 7 30.8972 7.90016 31.5709 9.30846L32.5276 11.3085C32.7942 11.8658 32.9172 12.4402 32.9172 13Z" fill="var(--o-icons-purple-purple, #370ADE)"/>
<path fill-rule="evenodd" clip-rule="evenodd" d="M15.7242 6.39672C16.3772 4.94077 17.8517 4 19.4807 4H30.5185C32.1475 4 33.622 4.94077 34.275 6.39672L37.2363 13H41.899C44.3592 13 46.2655 15.0988 45.9695 17.4813L42.8632 42.4813C42.6137 44.4896 40.8664 46 38.7927 46H11.2071C9.1334 46 7.38615 44.4896 7.13662 42.4813L4.03036 17.4813C3.73433 15.0988 5.64067 13 8.10083 13H12.7629L15.7242 6.39672ZM32.9172 13H17.082C17.082 12.4402 17.205 11.8658 17.4716 11.3085L18.4283 9.30846C19.102 7.90016 20.5508 7 22.1439 7H27.8553C29.4484 7 30.8972 7.90016 31.5709 9.30846L32.5276 11.3085C32.7942 11.8658 32.9172 12.4402 32.9172 13Z" fill="url(#white_gradient_1)" fill-opacity="0.3"/>
<path d="M21.4748 4H30.5183C32.1473 4 33.6218 4.94077 34.2748 6.39672L37.2361 13H41.8988C44.359 13 46.2653 15.0988 45.9693 17.4813L43.1337 40.3031C31.1324 36.3213 22.2561 25.745 21.0414 13H32.917C32.917 12.4402 32.794 11.8658 32.5274 11.3085L31.5707 9.30846C30.897 7.90016 29.4482 7 27.8551 7H22.1437C21.7603 7 21.3852 7.05214 21.0273 7.15096C21.1238 6.08476 21.2738 5.03358 21.4748 4Z" fill="var(--o-icons-purple-pure, #7933F3)"/>
<path d="M21.4748 4H30.5183C32.1473 4 33.6218 4.94077 34.2748 6.39672L37.2361 13H41.8988C44.359 13 46.2653 15.0988 45.9693 17.4813L43.1337 40.3031C31.1324 36.3213 22.2561 25.745 21.0414 13H32.917C32.917 12.4402 32.794 11.8658 32.5274 11.3085L31.5707 9.30846C30.897 7.90016 29.4482 7 27.8551 7H22.1437C21.7603 7 21.3852 7.05214 21.0273 7.15096C21.1238 6.08476 21.2738 5.03358 21.4748 4Z" fill="url(#white_gradient_2)" fill-opacity="0.3"/>
<path d="M36.0868 23.9446C37.9562 27.0219 36.8639 30.9474 33.6472 32.7124L22.5625 38.7945C21.7889 39.219 20.8046 38.965 20.355 38.2249L13.9132 27.6203C12.0438 24.5429 13.1361 20.6174 16.3528 18.8525C19.5695 17.0875 23.6926 18.1514 25.5619 21.2288L26.0455 22.0249L26.8777 21.5683C30.0944 19.8033 34.2174 20.8672 36.0868 23.9446Z" fill="var(--o-icons-magenta-pure, #FF689E)"/>
<path d="M36.0868 23.9446C37.9562 27.0219 36.8639 30.9474 33.6472 32.7124L22.5625 38.7945C21.7889 39.219 20.8046 38.965 20.355 38.2249L13.9132 27.6203C12.0438 24.5429 13.1361 20.6174 16.3528 18.8525C19.5695 17.0875 23.6926 18.1514 25.5619 21.2288L26.0455 22.0249L26.8777 21.5683C30.0944 19.8033 34.2174 20.8672 36.0868 23.9446Z" fill="url(#white_gradient_3)" fill-opacity="0.4"/>
<path d="M31.732 33.7633C27.1307 29.7123 23.7118 24.4075 22.041 18.4009C23.4725 18.9045 24.7367 19.8706 25.5618 21.2289L26.0454 22.025L26.8775 21.5684C30.0942 19.8034 34.2173 20.8673 36.0867 23.9447C37.956 27.022 36.8638 30.9475 33.6471 32.7125L31.732 33.7633Z" fill="var(--o-icons-magenta-magenta, #FF2A62)"/>
<path d="M31.732 33.7633C27.1307 29.7123 23.7118 24.4075 22.041 18.4009C23.4725 18.9045 24.7367 19.8706 25.5618 21.2289L26.0454 22.025L26.8775 21.5684C30.0942 19.8034 34.2173 20.8673 36.0867 23.9447C37.956 27.022 36.8638 30.9475 33.6471 32.7125L31.732 33.7633Z" fill="url(#white_gradient_4)" fill-opacity="0.3"/>
<defs>
<linearGradient id="white_gradient_1" x1="4" y1="4" x2="53.4116" y2="16.3529" gradientUnits="userSpaceOnUse">
<stop stop-color="white"/>
<stop offset="1" stop-color="white" stop-opacity="0"/>
</linearGradient>
<linearGradient id="white_gradient_2" x1="21.0273" y1="4" x2="51.3461" y2="9.21394" gradientUnits="userSpaceOnUse">
<stop stop-color="white"/>
<stop offset="1" stop-color="white" stop-opacity="0"/>
</linearGradient>
<linearGradient id="white_gradient_3" x1="13" y1="18" x2="40.7358" y2="25.9245" gradientUnits="userSpaceOnUse">
<stop stop-color="white"/>
<stop offset="1" stop-color="white" stop-opacity="0"/>
</linearGradient>
<linearGradient id="white_gradient_4" x1="22.041" y1="18.4009" x2="39.6935" y2="22.6981" gradientUnits="userSpaceOnUse">
<stop stop-color="white"/>
<stop offset="1" stop-color="white" stop-opacity="0"/>
</linearGradient>
</defs>
</svg>
