<svg width="50" height="50" viewBox="0 0 50 50" fill="none" xmlns="http://www.w3.org/2000/svg">
<path d="M0 8H33C35.2091 8 37 9.79086 37 12V25H4C1.79086 25 0 23.2091 0 21V8Z" fill="var(--o-icons-cyan-pure, #1BD4F9)"/>
<path d="M0 8H33C35.2091 8 37 9.79086 37 12V25H4C1.79086 25 0 23.2091 0 21V8Z" fill="url(#white_gradient_1)" fill-opacity="0.3"/>
<path d="M4 17C4 14.7909 5.79086 13 8 13H46C48.2091 13 50 14.7909 50 17V25H4V17Z" fill="var(--o-icons-purple-pure, #7933F3)"/>
<path d="M4 17C4 14.7909 5.79086 13 8 13H46C48.2091 13 50 14.7909 50 17V25H4V17Z" fill="url(#white_gradient_2)" fill-opacity="0.3"/>
<path d="M37 13V25H4V17C4 14.7909 5.79086 13 8 13H37Z" fill="var(--o-icons-purple-cyan, #0D2AED)"/>
<path d="M37 13V25H4V17C4 14.7909 5.79086 13 8 13H37Z" fill="url(#white_gradient_3)" fill-opacity="0.3"/>
<path d="M4 31H50V37H4V31Z" fill="var(--o-icons-magenta-pure, #FF689E)"/>
<path d="M4 31H50V37H4V31Z" fill="url(#white_gradient_4)" fill-opacity="0.4"/>
<path d="M4 25H50V31H4V25Z" fill="var(--o-icons-magenta-magenta, #FF2A62)"/>
<path d="M4 25H50V31H4V25Z" fill="url(#white_gradient_5)" fill-opacity="0.3"/>
<path d="M4 37H50V38C50 40.2091 48.2091 42 46 42H8C5.79086 42 4 40.2091 4 38V37Z" fill="var(--o-icons-yellow-pure, #FBB130)"/>
<path d="M4 37H50V38C50 40.2091 48.2091 42 46 42H8C5.79086 42 4 40.2091 4 38V37Z" fill="url(#white_gradient_6)" fill-opacity="0.2"/>
<defs>
<linearGradient id="white_gradient_1" x1="0" y1="8" x2="35.685" y2="27.4168" gradientUnits="userSpaceOnUse">
<stop stop-color="white"/>
<stop offset="1" stop-color="white" stop-opacity="0"/>
</linearGradient>
<linearGradient id="white_gradient_2" x1="4" y1="13" x2="33.9729" y2="41.724" gradientUnits="userSpaceOnUse">
<stop stop-color="white"/>
<stop offset="1" stop-color="white" stop-opacity="0"/>
</linearGradient>
<linearGradient id="white_gradient_3" x1="4" y1="13" x2="32.0106" y2="32.2573" gradientUnits="userSpaceOnUse">
<stop stop-color="white"/>
<stop offset="1" stop-color="white" stop-opacity="0"/>
</linearGradient>
<linearGradient id="white_gradient_4" x1="4" y1="31" x2="16.3031" y2="54.581" gradientUnits="userSpaceOnUse">
<stop stop-color="white"/>
<stop offset="1" stop-color="white" stop-opacity="0"/>
</linearGradient>
<linearGradient id="white_gradient_5" x1="4" y1="25" x2="16.3031" y2="48.581" gradientUnits="userSpaceOnUse">
<stop stop-color="white"/>
<stop offset="1" stop-color="white" stop-opacity="0"/>
</linearGradient>
<linearGradient id="white_gradient_6" x1="4" y1="37" x2="13.1415" y2="58.0254" gradientUnits="userSpaceOnUse">
<stop stop-color="white"/>
<stop offset="1" stop-color="white" stop-opacity="0"/>
</linearGradient>
</defs>
</svg>
