<svg width="70" height="70" viewBox="0 0 70 70" fill="none" xmlns="http://www.w3.org/2000/svg">
<path d="M10.9829 33.8136C9.67237 32.5031 9.67237 30.3783 10.9829 29.0678L21.0678 18.9829C22.3783 17.6724 24.5031 17.6724 25.8136 18.9829L43.0171 36.1864C44.3276 37.4969 44.3276 39.6217 43.0171 40.9322L32.9322 51.0171C31.6217 52.3276 29.4969 52.3276 28.1864 51.0171L10.9829 33.8136Z" fill="var(--o-icons-orange-200, #FC803D)"/>
<path d="M26.9829 33.8136C25.6724 32.5031 25.6724 30.3783 26.9829 29.0678L37.0678 18.9829C38.3783 17.6724 40.5031 17.6724 41.8136 18.9829L59.0171 36.1864C60.3276 37.4969 60.3276 39.6217 59.0171 40.9322L48.9322 51.0171C47.6217 52.3276 45.4969 52.3276 44.1864 51.0171L26.9829 33.8136Z" fill="var(--o-icons-blue-100, #1ACAF0)"/>
<path d="M31.4407 24.6104L43.0171 36.1868C44.3276 37.4973 44.3276 39.622 43.0171 40.9325L38.5593 45.3904L26.9829 33.814C25.6724 32.5035 25.6724 30.3787 26.9829 29.0682L31.4407 24.6104Z" fill="var(--o-icons-orange-200, #FC803D)"/>
<path d="M26.9829 29.0682C25.6724 30.3787 25.6724 32.5035 26.9829 33.814L31.4407 38.4128L38.576 31.7456L31.4407 24.6104L26.9829 29.0682Z" fill="var(--o-icons-blue-100, #1ACAF0)"/>
</svg>
