<svg width="50" height="50" viewBox="0 0 50 50" fill="none" xmlns="http://www.w3.org/2000/svg">
<path d="M0.982886 23.8136C-0.327629 22.5031 -0.327629 20.3783 0.982886 19.0678L11.0678 8.98289C12.3783 7.67237 14.5031 7.67237 15.8136 8.98289L33.0171 26.1864C34.3276 27.4969 34.3276 29.6217 33.0171 30.9322L22.9322 41.0171C21.6217 42.3276 19.4969 42.3276 18.1864 41.0171L0.982886 23.8136Z" fill="var(--o-icons-yellow-pure, #FBB130)"/>
<path d="M0.982886 23.8136C-0.327629 22.5031 -0.327629 20.3783 0.982886 19.0678L11.0678 8.98289C12.3783 7.67237 14.5031 7.67237 15.8136 8.98289L33.0171 26.1864C34.3276 27.4969 34.3276 29.6217 33.0171 30.9322L22.9322 41.0171C21.6217 42.3276 19.4969 42.3276 18.1864 41.0171L0.982886 23.8136Z" fill="url(#white_gradient_1)" fill-opacity="0.2"/>
<path d="M16.9829 19.0678C15.6724 20.3783 15.6724 22.5031 16.9829 23.8136L21.5138 28.3445L28.5761 21.7456L33.0172 26.1867C34.3277 27.4972 34.3277 29.622 33.0172 30.9325L28.5595 35.3902L34.1864 41.0171C35.4969 42.3276 37.6217 42.3276 38.9322 41.0171L49.0171 30.9322C50.3276 29.6217 50.3276 27.4969 49.0171 26.1864L31.8136 8.98289C30.5031 7.67237 28.3783 7.67237 27.0678 8.98289L16.9829 19.0678Z" fill="var(--o-icons-purple-purple, #370ADE)"/>
<path d="M16.9829 19.0678C15.6724 20.3783 15.6724 22.5031 16.9829 23.8136L21.5138 28.3445L28.5761 21.7456L33.0172 26.1867C34.3277 27.4972 34.3277 29.622 33.0172 30.9325L28.5595 35.3902L34.1864 41.0171C35.4969 42.3276 37.6217 42.3276 38.9322 41.0171L49.0171 30.9322C50.3276 29.6217 50.3276 27.4969 49.0171 26.1864L31.8136 8.98289C30.5031 7.67237 28.3783 7.67237 27.0678 8.98289L16.9829 19.0678Z" fill="url(#white_gradient_2)" fill-opacity="0.3"/>
<defs>
<linearGradient id="white_gradient_1" x1="0" y1="8" x2="40" y2="18" gradientUnits="userSpaceOnUse">
<stop stop-color="white"/>
<stop offset="1" stop-color="white" stop-opacity="0"/>
</linearGradient>
<linearGradient id="white_gradient_2" x1="16" y1="8" x2="56" y2="18" gradientUnits="userSpaceOnUse">
<stop stop-color="white"/>
<stop offset="1" stop-color="white" stop-opacity="0"/>
</linearGradient>
</defs>
</svg>
