<svg width="50" height="50" viewBox="0 0 50 50" fill="none" xmlns="http://www.w3.org/2000/svg">
<path fill-rule="evenodd" clip-rule="evenodd" d="M3.48372 23.0118H2.80956C2.70191 23.0118 2.61485 22.9283 2.61485 22.8254V21.0922C2.61485 20.9892 2.52719 20.9051 2.41954 20.9051H1.36654C1.25889 20.9051 1.17124 20.9892 1.17124 21.0922V22.8254C1.17124 22.9283 1.08418 23.0118 0.975935 23.0118H0.195305C0.0876518 23.0118 0 23.0953 0 23.1983V24.0246C0 24.1281 0.0876518 24.2116 0.195305 24.2116H0.975935C1.08418 24.2116 1.17124 24.2951 1.17124 24.398V28.2144C1.17124 29.3166 1.91481 29.9165 2.92074 29.9165H3.48372C3.59137 29.9165 3.67902 29.8324 3.67902 29.7295V28.8061C3.67902 28.7114 3.5996 28.6349 3.50078 28.6326H3.49372H3.13958C2.77485 28.6326 2.61485 28.3397 2.61485 27.9633V24.398C2.61485 24.2951 2.70191 24.2116 2.80956 24.2116H3.48372C3.59137 24.2116 3.67902 24.1281 3.67902 24.0246V23.1983C3.67902 23.0953 3.59137 23.0118 3.48372 23.0118ZM49.9627 29.5918L47.7937 26.503C47.7443 26.433 47.7443 26.3412 47.7937 26.2712L49.8615 23.3218C49.9586 23.1836 49.855 22.9977 49.6809 22.9977H48.4897C48.4144 22.9977 48.3438 23.0348 48.3043 23.0965L47.0955 24.9703C47.0102 25.102 46.8102 25.102 46.7254 24.9703L45.516 23.0965C45.4766 23.0348 45.4066 22.9977 45.3313 22.9977H44.14C43.9659 22.9977 43.8623 23.1836 43.9594 23.3218L46.0272 26.2712C46.0766 26.3412 46.0766 26.433 46.0272 26.503L43.8576 29.5918C43.7606 29.7306 43.8641 29.9165 44.0382 29.9165H45.2312C45.3054 29.9165 45.3748 29.88 45.4148 29.8206L46.7272 27.8604C46.8131 27.7322 47.0078 27.7322 47.0937 27.8604L48.4061 29.8206C48.4461 29.88 48.515 29.9165 48.5891 29.9165H49.7821C49.9562 29.9165 50.0597 29.7306 49.9627 29.5918ZM41.7275 25.8572H39.0944C38.9674 25.8572 38.8615 25.7513 38.8774 25.6308C38.9968 24.7027 39.6074 24.2116 40.418 24.2116C41.2293 24.2116 41.8275 24.7033 41.9452 25.6308C41.9605 25.7513 41.8546 25.8572 41.7275 25.8572ZM40.418 22.9277C39.0186 22.9277 37.4149 23.7929 37.4149 26.4847C37.4149 29.3166 39.1497 30 40.6369 30C41.5022 30 42.3052 29.7477 42.9752 29.166C43.0629 29.0896 43.0664 28.9561 42.9876 28.872L42.3564 28.2015C42.2764 28.1162 42.1428 28.1139 42.0517 28.188C41.6263 28.5308 41.1116 28.7167 40.6075 28.7167C39.981 28.7167 39.4127 28.4656 39.1062 27.9774C38.9627 27.7375 38.888 27.4975 38.8656 27.1734C38.8574 27.0511 38.9538 26.9452 39.0821 26.9452H43.19C43.31 26.9452 43.407 26.8523 43.407 26.7376V25.9689C43.407 24.0716 42.0223 22.9277 40.418 22.9277ZM36.6978 20.2082H35.9778C34.8548 20.2082 34.0095 20.794 34.0095 22.0767V22.8077C34.0095 22.9207 33.9142 23.0118 33.7965 23.0118H33.0512C32.9335 23.0118 32.8382 23.103 32.8382 23.2153V24.0075C32.8382 24.1204 32.9335 24.2116 33.0512 24.2116H33.7965C33.9142 24.2116 34.0095 24.3028 34.0095 24.4151V29.7124C34.0095 29.8247 34.1054 29.9165 34.2224 29.9165H35.2395C35.3572 29.9165 35.4525 29.8247 35.4525 29.7124V24.4151C35.4525 24.3028 35.5484 24.2116 35.666 24.2116H36.6978C36.8155 24.2116 36.9108 24.1204 36.9108 24.0075V23.2153C36.9108 23.103 36.8155 23.0118 36.6978 23.0118H35.666C35.5484 23.0118 35.4525 22.9207 35.4525 22.8077V22.2167C35.4525 21.7844 35.6131 21.4909 36.0943 21.4909H36.6978C36.8155 21.4909 36.9108 21.3998 36.9108 21.2874V20.4117C36.9108 20.2994 36.8155 20.2082 36.6978 20.2082ZM31.304 20H31.2852C30.7711 20 30.354 20.3993 30.354 20.8916C30.354 21.3839 30.7711 21.7826 31.2852 21.7826H31.304C31.8188 21.7826 32.2358 21.3839 32.2358 20.8916C32.2358 20.3993 31.8188 20 31.304 20ZM31.7358 23.0118H30.854C30.6987 23.0118 30.5734 23.1318 30.5734 23.28V29.6477C30.5734 29.7959 30.6987 29.9165 30.854 29.9165H31.7358C31.8905 29.9165 32.0164 29.7959 32.0164 29.6477V23.28C32.0164 23.1318 31.8905 23.0118 31.7358 23.0118ZM27.768 25.9272C27.4909 25.8572 27.1997 25.829 26.8644 25.7872C26.5579 25.7455 26.252 25.7455 25.9167 25.7319C25.1731 25.6902 24.9396 25.3832 24.9396 25.062C24.9396 24.5739 25.2602 24.2116 26.2085 24.2116C26.9197 24.2116 27.4479 24.4092 27.9656 24.7268C28.0762 24.7944 28.2221 24.7709 28.2974 24.668L28.8157 23.9605C28.8904 23.8587 28.8698 23.7164 28.7651 23.6435C28.105 23.1841 27.3268 22.9277 26.2085 22.9277C24.6919 22.9277 23.4966 23.6394 23.4966 25.0485C23.4966 26.1083 24.2107 26.75 25.2602 26.9588C25.7855 27.057 26.3249 26.987 26.8497 27.0711C27.3597 27.154 27.7827 27.294 27.7827 27.8098C27.7827 28.4097 27.1703 28.7167 26.3391 28.7167C25.4455 28.7167 24.8007 28.4785 24.2231 27.9927C24.1189 27.9045 23.9613 27.911 23.8725 28.0133L23.3001 28.6779C23.2154 28.7767 23.2283 28.9267 23.3318 29.0066C24.2037 29.6836 25.1749 30 26.2226 30C27.9138 30 29.2263 29.2048 29.2263 27.8798C29.2263 26.6524 28.5992 26.1501 27.768 25.9272ZM19.9734 22.9277C19.1716 22.9277 18.5381 23.1859 18.078 23.737C18.0586 23.7605 18.0345 23.7676 18.0345 23.737V23.2483C18.0345 23.11 17.9174 22.9977 17.7733 22.9977H16.8527C16.7085 22.9977 16.5915 23.11 16.5915 23.2483V29.6659C16.5915 29.8042 16.7085 29.9165 16.8527 29.9165H17.7733C17.9174 29.9165 18.0345 29.8042 18.0345 29.6659V25.8013C18.0345 24.8391 18.6616 24.2951 19.4928 24.2951C20.3234 24.2951 20.9505 24.8391 20.9505 25.8013V29.6659C20.9505 29.8042 21.0676 29.9165 21.2117 29.9165H22.1318C22.2765 29.9165 22.3936 29.8042 22.3936 29.6659V25.3132C22.3936 23.7505 21.0958 22.9277 19.9734 22.9277ZM14.0525 27.4893C14.0525 27.8939 13.9649 28.1868 13.7754 28.3679C13.5419 28.605 13.0754 28.7167 12.3901 28.7167C11.3988 28.7167 10.9906 28.3121 10.9906 27.8239C10.9906 27.3081 11.3988 26.9729 12.2736 26.9729H14.0525V27.4893ZM14.6502 23.4165C14.1255 23.0677 13.3819 22.9277 12.4636 22.9277C11.5289 22.9277 10.8088 23.1665 10.2911 23.6435C10.1976 23.7299 10.2047 23.8764 10.297 23.9634L10.9147 24.5451C11.0059 24.6309 11.1482 24.6298 11.2424 24.5468C11.5047 24.3157 11.9118 24.2116 12.536 24.2116C13.586 24.2116 14.0525 24.4345 14.0525 25.1044V25.8572H13.4548H11.9965C10.437 25.8572 9.64934 26.7776 9.64934 27.8939C9.64934 28.605 9.97053 29.2048 10.5682 29.5813C10.9906 29.8465 11.5447 30 12.2007 30C13.1919 30 13.7931 29.6383 13.9943 29.3025C14.0208 29.2584 14.0525 29.276 14.0525 29.3025V29.6895C14.0525 29.8147 14.1584 29.9165 14.2896 29.9165H15.2438C15.3749 29.9165 15.4808 29.8147 15.4808 29.6895V25.1738C15.4808 24.3369 15.1749 23.7929 14.6502 23.4165ZM9.52639 23.2453C9.15578 23.0306 8.76047 22.9277 8.32221 22.9277C7.5204 22.9277 6.89331 23.193 6.42681 23.737H6.38328V23.1977C6.38328 23.0871 6.28975 22.9977 6.17386 22.9977H5.1491C5.03321 22.9977 4.93968 23.0871 4.93968 23.1977V29.7165C4.93968 29.8265 5.03321 29.9165 5.1491 29.9165H6.17386C6.28975 29.9165 6.38328 29.8265 6.38328 29.7165V25.7596C6.38328 24.7133 7.09744 24.2951 7.81218 24.2951C8.13985 24.2951 8.35633 24.3434 8.6134 24.5127C8.70576 24.5739 8.83341 24.5492 8.89812 24.461L9.58287 23.53C9.65052 23.437 9.62757 23.3041 9.52639 23.2453Z" fill="#223657"/>
<path d="M43.1049 4H44.077V0.817741H45.1846V0H42V0.817741H43.1049V4Z" fill="#D1D5DB"/>
<path d="M45.8805 4H46.7384V1.45253H46.7915L47.6627 4H48.2178L49.089 1.45253H49.1448V4H50V0H48.8924L47.9681 2.71379H47.9177L46.9907 0H45.8805V4Z" fill="#D1D5DB"/>
</svg>
