<svg width="70" height="70" viewBox="0 0 70 70" fill="none" xmlns="http://www.w3.org/2000/svg">
<path d="M23.2377 21.4835C22.7504 20.5959 23.0337 19.4923 23.8923 18.9337C25.2951 18.0211 26.819 17.7001 28.0733 18.3204C28.2739 18.4196 28.4487 18.5603 28.6139 18.7092L59.2588 47.3467C59.7313 47.7728 60 48.3721 60 49H38L23.2377 21.4835Z" fill="var(--o-icons-purple-100, #FF92CB)"/>
<ellipse cx="49" cy="49" rx="11" ry="3" fill="var(--o-icons-purple-200, #CA498D)"/>
<path d="M46.7623 21.4835C47.2496 20.5959 46.9663 19.4923 46.1077 18.9337C44.7049 18.0211 43.181 17.7001 41.9267 18.3204C41.7261 18.4196 41.5513 18.5603 41.3861 18.7092L10.7412 47.3467C10.2687 47.7728 10 48.3721 10 49H32L46.7623 21.4835Z" fill="var(--o-icons-orange-100, #FBA82E)"/>
<path d="M41.6933 30.9316L35 24.6768L28.3066 30.9316L35 43.4078L41.6933 30.9316Z" fill="var(--o-icons-purple-300, #82209C)"/>
<ellipse cx="11" cy="3" rx="11" ry="3" transform="matrix(-1 0 0 1 32 46)" fill="var(--o-icons-orange-200, #FC803D)"/>
</svg>
