<svg width="70" height="70" viewBox="0 0 70 70" fill="none" xmlns="http://www.w3.org/2000/svg">
<path d="M19.0557 53.9564C18.5082 53.4852 17.9813 52.9906 17.4765 52.4743C16.7501 51.7312 16.8057 50.5496 17.5405 49.8148L43.491 23.8643L44.9052 25.2785C45.6863 26.0595 45.6863 27.3258 44.9052 28.1069L19.0557 53.9564Z" fill="var(--o-icons-red-100, #F3B9B9)"/>
<path d="M25.8075 25.8076L17.3223 17.3223C22.0107 12.6339 28.3695 10 34.9999 10C37.0069 10 38.9889 10.2413 40.9073 10.7079L25.8075 25.8076Z" fill="var(--o-icons-orange-100, #FBA82E)"/>
<path d="M25.8076 25.8077L40.9074 10.708C45.3268 11.7829 49.4084 14.0532 52.6777 17.3225L35 35.0001L25.8076 25.8077Z" fill="var(--o-icons-orange-200, #FC803D)"/>
<path d="M43.4853 43.4852L35 34.9999L52.6777 17.3223C55.6701 20.3146 57.8255 23.9875 58.9934 27.9771L43.4853 43.4852Z" fill="var(--o-icons-orange-300, #F84C31)"/>
<path d="M43.4852 43.4856L58.9933 27.9775C59.6553 30.2388 59.9999 32.6018 59.9999 35.0004C59.9999 40.9615 57.8709 46.7032 54.0339 51.2087C53.3178 52.0496 52.0445 52.0449 51.2634 51.2638L43.4852 43.4856Z" fill="var(--o-icons-orange-400, #BA220A)"/>
</svg>
