<svg width="70" height="70" viewBox="0 0 70 70" fill="none" xmlns="http://www.w3.org/2000/svg">
<path d="M52.3458 35.3547C52.3458 44.9389 44.5763 52.7084 34.9921 52.7084C25.4079 52.7084 17.6384 44.9389 17.6384 35.3547C17.6384 25.7705 25.4079 18.001 34.9921 18.001C44.5763 18.001 52.3458 25.7705 52.3458 35.3547Z" fill="var(--o-icons-orange-200, #FC803D)"/>
<path d="M28.8752 51.5996C22.3093 49.126 17.6384 42.7858 17.6384 35.3547C17.6384 25.7705 25.4079 18.001 34.9921 18.001C42.4239 18.001 48.7645 22.6726 51.2377 29.2394C48.2901 40.0999 39.7362 48.6531 28.8752 51.5996Z" fill="var(--o-icons-orange-100, #FBA82E)"/>
<path d="M29.6799 25.3622C29.6799 23.5538 28.1598 22.0306 26.4892 22.7226C25.4776 23.1416 24.5584 23.7558 23.7842 24.53C23.0099 25.3042 22.3957 26.2234 21.9767 27.235C21.2847 28.9057 22.808 30.4258 24.6163 30.4258H25.6799C27.8891 30.4258 29.6799 28.6349 29.6799 26.4258V25.3622Z" fill="var(--o-icons-bg, #FFFFFF)"/>
<rect width="52.5377" height="1.22678" rx="0.613389" transform="matrix(0.723913 -0.689892 0.34296 0.93935 18.25 54.2451)" fill="var(--o-icons-green-100, #49DC69)"/>
<rect width="48.3273" height="1.29696" rx="0.648479" transform="matrix(0.824643 -0.565654 0.308369 0.951267 14 54.1641)" fill="var(--o-icons-green-200, #18B17E)"/>
</svg>
