<svg width="70" height="70" viewBox="0 0 70 70" fill="none" xmlns="http://www.w3.org/2000/svg">
<rect x="23" y="14" width="24" height="42" rx="4" fill="var(--o-icons-orange-100, #FBA82E)"/>
<path d="M38 38C38 33.0294 42.0294 29 47 29C51.9706 29 56 33.0294 56 38V47H47C42.0294 47 38 42.9706 38 38Z" fill="var(--o-icons-purple-300, #82209C)"/>
<path d="M47 29V47C42.0294 47 38 42.9706 38 38C38 33.0294 42.0294 29 47 29Z" fill="var(--o-icons-orange-300, #F84C31)"/>
<path d="M32 32C32 36.9706 27.9706 41 23 41C18.0294 41 14 36.9706 14 32L14 23L23 23C27.9706 23 32 27.0294 32 32Z" fill="var(--o-icons-purple-200, #CA498D)"/>
<path d="M23 41V23C27.9706 23 32 27.0294 32 32C32 36.9706 27.9706 41 23 41Z" fill="var(--o-icons-orange-200, #FC803D)"/>
</svg>
