<svg width="50" height="50" viewBox="0 0 50 50" fill="none" xmlns="http://www.w3.org/2000/svg">
<path d="M50 25C50 38.8071 38.8071 50 25 50C11.1929 50 0 38.8071 0 25C0 11.1929 11.1929 0 25 0C38.8071 0 50 11.1929 50 25Z" fill="var(--o-icons-purple-yellow, #77232E)"/>
<path d="M50 25C50 38.8071 38.8071 50 25 50C11.1929 50 0 38.8071 0 25C0 11.1929 11.1929 0 25 0C38.8071 0 50 11.1929 50 25Z" fill="url(#white_gradient_1)" fill-opacity="0.3"/>
<path d="M25 50C38.8071 50 50 38.8071 50 25C50 20.0834 48.5807 15.4983 46.1295 11.6321C41.888 8.11456 36.4409 6 30.5 6C16.969 6 6 16.969 6 30.5C6 36.4409 8.11456 41.888 11.6321 46.1295C15.4983 48.5807 20.0834 50 25 50Z" fill="var(--o-icons-magenta-magenta, #FF2A62)"/>
<path d="M25 50C38.8071 50 50 38.8071 50 25C50 20.0834 48.5807 15.4983 46.1295 11.6321C41.888 8.11456 36.4409 6 30.5 6C16.969 6 6 16.969 6 30.5C6 36.4409 8.11456 41.888 11.6321 46.1295C15.4983 48.5807 20.0834 50 25 50Z" fill="url(#white_gradient_2)" fill-opacity="0.3"/>
<path d="M25 50V50C21.9313 50 18.9917 49.4471 16.2755 48.4355C14.8146 45.2595 14 41.7249 14 38C14 24.1929 25.1929 13 39 13C42.0687 13 45.0082 13.5529 47.7245 14.5645C49.1853 17.7404 50 21.2751 50 25V25L50.0002 45.2382C50.0002 47.8681 47.8683 50.0001 45.2383 50.0001L25 50Z" fill="var(--o-icons-magenta-pure, #FF689E)"/>
<path d="M25 50V50C21.9313 50 18.9917 49.4471 16.2755 48.4355C14.8146 45.2595 14 41.7249 14 38C14 24.1929 25.1929 13 39 13C42.0687 13 45.0082 13.5529 47.7245 14.5645C49.1853 17.7404 50 21.2751 50 25V25L50.0002 45.2382C50.0002 47.8681 47.8683 50.0001 45.2383 50.0001L25 50Z" fill="url(#white_gradient_3)" fill-opacity="0.4"/>
<defs>
<linearGradient id="white_gradient_1" x1="0" y1="0" x2="58.8235" y2="14.7059" gradientUnits="userSpaceOnUse">
<stop stop-color="white"/>
<stop offset="1" stop-color="white" stop-opacity="0"/>
</linearGradient>
<linearGradient id="white_gradient_2" x1="6" y1="6" x2="57.7647" y2="18.9412" gradientUnits="userSpaceOnUse">
<stop stop-color="white"/>
<stop offset="1" stop-color="white" stop-opacity="0"/>
</linearGradient>
<linearGradient id="white_gradient_3" x1="14" y1="13" x2="56.4865" y2="23.3346" gradientUnits="userSpaceOnUse">
<stop stop-color="white"/>
<stop offset="1" stop-color="white" stop-opacity="0"/>
</linearGradient>
</defs>
</svg>
