<svg width="70" height="70" viewBox="0 0 70 70" fill="none" xmlns="http://www.w3.org/2000/svg">
<path d="M39.7927 43.9167C39.7927 50.5634 34.3928 55.9516 27.7318 55.9516C21.0707 55.9516 15.6708 50.5634 15.6708 43.9167C15.6708 37.27 21.0707 31.8818 27.7318 31.8818C34.3928 31.8818 39.7927 37.27 39.7927 43.9167Z" fill="var(--o-icons-blue-400, #251B85)"/>
<path d="M55 26.6491C55 31.8508 50.774 36.0677 45.561 36.0677C40.3479 36.0677 36.1219 31.8508 36.1219 26.6491C36.1219 21.4473 40.3479 17.2305 45.561 17.2305C50.774 17.2305 55 21.4473 55 26.6491Z" fill="var(--o-icons-blue-200, #1861AF)"/>
<path d="M16.9817 15.9223C19.733 13.1769 24.1938 13.1769 26.9451 15.9223C29.6964 18.6677 29.6964 23.1188 26.9451 25.8642C24.1938 28.6095 19.733 28.6095 16.9817 25.8642C14.2304 23.1188 14.2304 18.6677 16.9817 15.9223Z" fill="var(--o-icons-blue-300, #352B97)"/>
<path d="M43.0212 35.7224C43.9725 33.9553 44.5122 31.9347 44.5122 29.7882C44.5122 25.5978 42.4553 21.8867 39.294 19.6055C37.348 21.3308 36.1219 23.8469 36.1219 26.6487C36.1219 30.9725 39.0417 34.6157 43.0212 35.7224Z" fill="var(--o-icons-orange-100, #FBA82E)"/>
<path d="M28.3308 17.8799C26.4363 18.4724 24.649 19.5207 23.1428 21.0236C21.286 22.8764 20.1216 25.1556 19.6519 27.5358C22.1218 28.3897 24.9728 27.8325 26.9453 25.8643C29.1095 23.7048 29.5713 20.4899 28.3308 17.8799Z" fill="var(--o-icons-orange-200, #FC803D)"/>
<path d="M20.2482 34.478C22.3045 32.8525 24.9045 31.8818 27.7317 31.8818C33.0431 31.8818 37.5525 35.3076 39.162 40.0656C37.1152 41.503 34.6198 42.347 31.9268 42.347C26.6374 42.347 22.1101 39.091 20.2482 34.478Z" fill="var(--o-icons-orange-300, #F84C31)"/>
</svg>
