<svg width="50" height="32" viewBox="0 0 50 32" fill="none" xmlns="http://www.w3.org/2000/svg">
<path d="M4.20296 0.000500661C0.484178 0.0437573 -1.40634 4.67865 1.22549 7.28304L10.1234 16.0882L10.1223 16.0893L24.9705 30.7827C26.6106 32.4057 29.2697 32.4057 30.9098 30.7827L39.8188 21.9667C41.4588 20.3437 41.4589 17.7123 39.8188 16.0893L25.0456 1.47027L26.5462 0.000244141L4.20296 0.000500661Z" fill="var(--o-icons-cyan-pure, #1BD4F9)"/>
<path d="M4.20296 0.000500661C0.484178 0.0437573 -1.40634 4.67865 1.22549 7.28304L10.1234 16.0882L10.1223 16.0893L24.9705 30.7827C26.6106 32.4057 29.2697 32.4057 30.9098 30.7827L39.8188 21.9667C41.4588 20.3437 41.4589 17.7123 39.8188 16.0893L25.0456 1.47027L26.5462 0.000244141L4.20296 0.000500661Z" fill="url(#white_gradient_1)" fill-opacity="0.3"/>
<path d="M23.3949 0L15.687 7.63888C14.2533 9.05984 14.2541 11.3617 15.689 12.7816C17.1246 14.2022 19.4522 14.2022 20.8878 12.7816L28.6129 5.13706L24.2279 9.47673C26.4398 7.28794 29.8872 7.06704 32.3484 8.81403L39.8179 16.1663L48.7163 7.36066C51.3481 4.75627 49.6871 0.0435072 45.9684 0.000252579L23.396 0.0010126L23.3949 0Z" fill="var(--o-icons-purple-pure, #7933F3)"/>
<path d="M23.3949 0L15.687 7.63888C14.2533 9.05984 14.2541 11.3617 15.689 12.7816C17.1246 14.2022 19.4522 14.2022 20.8878 12.7816L28.6129 5.13706L24.2279 9.47673C26.4398 7.28794 29.8872 7.06704 32.3484 8.81403L39.8179 16.1663L48.7163 7.36066C51.3481 4.75627 49.6871 0.0435072 45.9684 0.000252579L23.396 0.0010126L23.3949 0Z" fill="url(#white_gradient_2)" fill-opacity="0.3"/>
<path d="M10.1579 22.0045C8.51378 20.3604 8.51378 17.6948 10.1579 16.0507C11.802 14.4066 14.4676 14.4066 16.1117 16.0507L24.9293 24.8683C26.5735 26.5124 26.5735 29.1781 24.9293 30.8222C23.2852 32.4663 20.6196 32.4663 18.9755 30.8222L10.1579 22.0045Z" fill="var(--o-icons-purple-pure, #7933F3)"/>
<path d="M10.1579 22.0045C8.51378 20.3604 8.51378 17.6948 10.1579 16.0507C11.802 14.4066 14.4676 14.4066 16.1117 16.0507L24.9293 24.8683C26.5735 26.5124 26.5735 29.1781 24.9293 30.8222C23.2852 32.4663 20.6196 32.4663 18.9755 30.8222L10.1579 22.0045Z" fill="url(#white_gradient_3)" fill-opacity="0.3"/>
<defs>
<linearGradient id="white_gradient_1" x1="41.0488" y1="0.000244141" x2="-5.47729" y2="14.9211" gradientUnits="userSpaceOnUse">
<stop stop-color="white"/>
<stop offset="1" stop-color="white" stop-opacity="0"/>
</linearGradient>
<linearGradient id="white_gradient_2" x1="50" y1="0" x2="15.9597" y2="18.6284" gradientUnits="userSpaceOnUse">
<stop stop-color="white"/>
<stop offset="1" stop-color="white" stop-opacity="0"/>
</linearGradient>
<linearGradient id="white_gradient_3" x1="8.9248" y1="14.8176" x2="29.2044" y2="19.8875" gradientUnits="userSpaceOnUse">
<stop stop-color="white"/>
<stop offset="1" stop-color="white" stop-opacity="0"/>
</linearGradient>
</defs>
</svg>
