<svg width="50" height="50" viewBox="0 0 50 50" fill="none" xmlns="http://www.w3.org/2000/svg">
<path d="M39.2742 4H10.7281C7.01053 4 4 7.01141 4 10.7286V39.2726C4 42.9874 7.01053 46 10.7281 46H39.2742C42.9909 46 45.9999 42.9874 45.9999 39.2726V10.7286C45.9999 7.01141 42.9909 4 39.2742 4Z" fill="#1677FF"/>
<path d="M15.3483 36.2987C8.81425 36.2987 6.88248 31.152 10.1116 28.3361C11.1892 27.3845 13.1583 26.9199 14.2081 26.8156C18.0895 26.4321 21.6824 27.9128 25.9225 29.9824C22.9421 33.8703 19.146 36.2987 15.3483 36.2987ZM38.5796 30.3727C36.8989 29.8097 34.6438 28.949 32.132 28.0403C33.6404 25.4179 34.8454 22.4317 35.6373 19.1862H27.3583V16.2043H37.5V14.5399H27.3583V9.56898H23.2194C22.4934 9.56898 22.4934 10.2857 22.4934 10.2857V14.5399H12.2362V16.2043H22.4934V19.1862H14.0248V20.8503H30.4494C29.8483 22.9211 29.0413 24.8652 28.0836 26.6315C22.754 24.8731 17.067 23.4478 13.4943 24.3251C11.2094 24.888 9.73788 25.8927 8.87337 26.9455C4.90547 31.7731 7.75136 39.106 16.1311 39.106C21.0857 39.106 25.8586 36.3436 29.5579 31.7912C35.0755 34.4435 45.9996 38.9974 45.9996 38.9974V32.5072C45.9996 32.5072 44.6276 32.3979 38.5796 30.3727Z" fill="white"/>
<path d="M43.1049 4H44.077V0.817741H45.1846V0H42V0.817741H43.1049V4Z" fill="#D1D5DB"/>
<path d="M45.8805 4H46.7384V1.45253H46.7915L47.6627 4H48.2178L49.089 1.45253H49.1448V4H50V0H48.8924L47.9681 2.71379H47.9177L46.9907 0H45.8805V4Z" fill="#D1D5DB"/>
</svg>
