<svg width="50" height="50" viewBox="0 0 50 50" fill="none" xmlns="http://www.w3.org/2000/svg">
<path fill-rule="evenodd" clip-rule="evenodd" d="M50.0001 25.3669C50.0001 21.6072 48.2779 18.6406 44.9862 18.6406C41.6807 18.6406 39.6807 21.6072 39.6807 25.3376C39.6807 29.7581 42.0418 31.9904 45.4307 31.9904C47.0834 31.9904 48.3334 31.5939 49.2779 31.0358V28.0986C48.3334 28.5979 47.2501 28.9063 45.8751 28.9063C44.5279 28.9063 43.3334 28.407 43.1807 26.674H49.9723C49.9723 26.4831 50.0001 25.7194 50.0001 25.3669ZM43.139 23.9717C43.139 22.3122 44.0973 21.6219 44.9723 21.6219C45.8195 21.6219 46.7223 22.3122 46.7223 23.9717H43.139Z" fill="#635BFF"/>
<path fill-rule="evenodd" clip-rule="evenodd" d="M34.3197 18.6406C32.9585 18.6406 32.0835 19.3162 31.5974 19.7862L31.4169 18.8756H28.3613V35.9998L31.8336 35.2214L31.8474 31.0652C32.3474 31.447 33.0835 31.9904 34.3058 31.9904C36.7919 31.9904 39.0558 29.8756 39.0558 25.2201C39.0419 20.9611 36.7502 18.6406 34.3197 18.6406ZM33.4863 28.7595C32.6669 28.7595 32.1808 28.451 31.8474 28.0692L31.8336 22.6206C32.1947 22.1947 32.6947 21.901 33.4863 21.901C34.7502 21.901 35.6252 23.399 35.6252 25.3229C35.6252 27.2908 34.7641 28.7595 33.4863 28.7595Z" fill="#635BFF"/>
<path fill-rule="evenodd" clip-rule="evenodd" d="M23.583 17.7744L27.0691 16.9813V14L23.583 14.7784V17.7744Z" fill="#635BFF"/>
<path d="M27.0691 18.8906H23.583V31.7411H27.0691V18.8906Z" fill="#635BFF"/>
<path fill-rule="evenodd" clip-rule="evenodd" d="M19.8472 19.9778L19.625 18.8911H16.625V31.7415H20.0972V23.0326C20.9167 21.9017 22.3056 22.1074 22.7361 22.2689V18.8911C22.2917 18.7148 20.6667 18.3917 19.8472 19.9778Z" fill="#635BFF"/>
<path fill-rule="evenodd" clip-rule="evenodd" d="M12.9028 15.7041L9.51389 16.4678L9.5 28.2315C9.5 30.405 11.0417 32.0058 13.0972 32.0058C14.2361 32.0058 15.0694 31.7855 15.5278 31.5212V28.5399C15.0833 28.7308 12.8889 29.4064 12.8889 27.2328V22.0192H15.5278V18.891H12.8889L12.9028 15.7041Z" fill="#635BFF"/>
<path fill-rule="evenodd" clip-rule="evenodd" d="M3.51389 22.6206C3.51389 22.0478 3.95833 21.8275 4.69445 21.8275C5.75 21.8275 7.08333 22.1653 8.13889 22.7675V19.3162C6.98611 18.8315 5.84722 18.6406 4.69445 18.6406C1.875 18.6406 0 20.1974 0 22.7968C0 26.8502 5.27778 26.204 5.27778 27.9517C5.27778 28.6273 4.72222 28.8476 3.94444 28.8476C2.79167 28.8476 1.31944 28.3482 0.152778 27.6727V31.168C1.44444 31.7554 2.75 32.0051 3.94444 32.0051C6.83333 32.0051 8.81944 30.4924 8.81944 27.8636C8.80556 23.4871 3.51389 24.2655 3.51389 22.6206Z" fill="#635BFF"/>
<path d="M43.1049 4H44.077V0.817741H45.1846V0H42V0.817741H43.1049V4Z" fill="#D1D5DB"/>
<path d="M45.8805 4H46.7384V1.45253H46.7915L47.6627 4H48.2178L49.089 1.45253H49.1448V4H50V0H48.8924L47.9681 2.71379H47.9177L46.9907 0H45.8805V4Z" fill="#D1D5DB"/>
</svg>
