<svg width="50" height="50" viewBox="0 0 50 50" fill="none" xmlns="http://www.w3.org/2000/svg">
<path d="M43.1049 4H44.077V0.817741H45.1846V0H42V0.817741H43.1049V4Z" fill="#D1D5DB"/>
<path d="M45.8805 4H46.7384V1.45253H46.7915L47.6627 4H48.2178L49.089 1.45253H49.1448V4H50V0H48.8924L47.9681 2.71379H47.9177L46.9907 0H45.8805V4Z" fill="#D1D5DB"/>
<path d="M49 24.0699C49 15.234 38.2605 8 25 8C11.7395 8 1 15.234 1 24.0699C1 24.2766 1 24.9484 1 25C1 34.4043 10.3781 42 25 42C39.6723 42 49 34.4043 49 25C49 24.69 49 24.535 49 24.0699Z" fill="#2D3277"/>
<path d="M48.1427 24.0706C48.1427 32.3897 37.8065 39.1587 25.1006 39.1587C12.3947 39.1587 2.05859 32.3897 2.05859 24.0706C2.05859 15.7514 12.3947 8.98242 25.1006 8.98242C37.8065 8.98242 48.1427 15.7514 48.1427 24.0706Z" fill="#52BAF9"/>
<path d="M17.4373 19.3169C17.4373 19.3169 17.1852 19.5752 17.3364 19.7819C17.6894 20.2469 18.7986 20.5053 19.9583 20.2469C20.6138 20.0919 21.5213 19.3685 22.328 18.6968C23.2356 17.9734 24.1432 17.1983 25.0507 16.9399C26.0087 16.6299 26.6138 16.7849 27.0171 16.8882C27.4709 17.0433 27.9751 17.3533 28.8322 17.9733C30.3953 19.1618 36.7482 24.8457 37.8575 25.8275C38.7146 25.4141 42.6474 23.709 47.9919 22.4688C47.5381 19.5752 45.8238 16.8883 43.202 14.7181C39.5717 16.2682 35.0843 17.095 30.6978 14.9248C30.6978 14.9248 28.3281 13.7879 25.9583 13.8396C22.4793 13.9429 21.0171 15.4415 19.4037 17.0949L17.4373 19.3169Z" fill="white"/>
<path d="M37.6052 26.4473C37.5548 26.3956 30.143 19.7816 28.4792 18.4898C27.5212 17.7664 26.9665 17.5597 26.4119 17.4564C26.1094 17.4047 25.706 17.4564 25.4035 17.5597C24.6472 17.7664 23.5884 18.4898 22.6808 19.2132C21.7229 19.9883 20.8657 20.7117 20.0589 20.8667C19.0001 21.1251 17.7396 20.8151 17.185 20.4017C16.9329 20.2467 16.7817 20.04 16.6808 19.8333C16.4791 19.3166 16.8825 18.9032 16.9329 18.8515L18.9497 16.578C19.2018 16.3196 19.4035 16.1129 19.6556 15.8545C19.0002 15.9579 18.3951 16.1129 17.79 16.2679C17.0337 16.4746 16.3279 16.6813 15.622 16.6813C15.3195 16.6813 13.706 16.4229 13.4035 16.3196C11.538 15.8029 9.92448 15.2862 7.50431 14.1494C4.63036 16.3713 2.664 19.1099 2.10938 22.1585C2.51274 22.2619 3.21859 22.4685 3.4707 22.5202C10.0253 24.0187 12.0422 25.5689 12.4455 25.8789C12.8489 25.4138 13.4035 25.1555 14.0589 25.1555C14.7648 25.1555 15.4203 25.5172 15.8236 26.0856C16.1766 25.7756 16.7313 25.5172 17.3867 25.5172C17.6892 25.5172 17.9917 25.5688 18.3447 25.6722C19.101 25.9305 19.4539 26.4473 19.6556 26.9123C19.9077 26.809 20.2102 26.7056 20.5632 26.7056C20.9161 26.7056 21.2691 26.809 21.6724 26.964C22.8825 27.4807 23.0842 28.7209 22.9833 29.651C23.0842 29.651 23.1346 29.651 23.2354 29.651C24.6976 29.651 25.8573 30.8394 25.8573 32.3379C25.8573 32.8029 25.7564 33.2163 25.5548 33.578C25.9581 33.7847 26.9161 34.3014 27.8237 34.198C28.5296 34.0947 28.7816 33.888 28.8825 33.733C28.9329 33.6296 29.0337 33.5263 28.9329 33.423L27.0674 31.3044C27.0674 31.3044 26.7648 30.9944 26.8657 30.891C26.9665 30.7877 27.1682 30.9427 27.3195 31.0461C28.2775 31.8728 29.3867 33.0613 29.3867 33.0613C29.3867 33.0613 29.4875 33.2163 29.8909 33.3196C30.2438 33.3713 30.8993 33.3196 31.3531 32.9579C31.4539 32.8546 31.6052 32.7512 31.6556 32.6479C32.1094 32.0278 31.6052 31.4077 31.6052 31.4077L29.4371 28.9275C29.4371 28.9275 29.1346 28.6175 29.2355 28.5141C29.3363 28.4108 29.5379 28.5658 29.6892 28.6692C30.3951 29.2376 31.3531 30.271 32.2607 31.2011C32.4624 31.3561 33.2691 31.8728 34.3279 31.1494C34.9834 30.6843 35.1346 30.1676 35.0842 29.7543C35.0338 29.2376 34.6304 28.8242 34.6304 28.8242L31.706 25.7756C31.706 25.7756 31.4035 25.5172 31.5044 25.3622C31.6052 25.2588 31.8068 25.4139 31.9581 25.5172C32.9161 26.344 35.4371 28.7208 35.4371 28.7208C35.4875 28.7208 36.3447 29.3926 37.4539 28.6692C37.8573 28.4108 38.1094 28.0491 38.1094 27.5841C38.1598 26.9123 37.6052 26.4473 37.6052 26.4473Z" fill="white"/>
<path d="M23.3358 30.3227C22.882 30.3227 22.3778 30.581 22.3274 30.581C22.277 30.581 22.3274 30.3744 22.3778 30.271C22.4283 30.1677 23.0333 28.3075 21.5711 27.6358C20.4619 27.119 19.756 27.6874 19.5543 27.9458C19.5039 27.9974 19.4535 27.9974 19.4535 27.9458C19.4535 27.6357 19.3022 26.7057 18.2938 26.3956C16.882 25.9306 16.0249 26.964 15.7728 27.3257C15.672 26.499 15.0165 25.8789 14.1594 25.8789C13.2518 25.8789 12.5459 26.6023 12.5459 27.5324C12.5459 28.4625 13.2518 29.1859 14.1594 29.1859C14.6132 29.1859 14.9661 29.0309 15.2686 28.7209C15.2686 28.7209 15.2686 28.7208 15.2686 28.7725C15.2182 29.1859 15.0669 30.6844 16.5795 31.2528C17.1846 31.5111 17.6888 31.3045 18.1426 30.9944C18.2938 30.8911 18.2938 30.9427 18.2938 31.0461C18.2434 31.4078 18.2938 32.2345 19.4535 32.6996C20.3106 33.0613 20.8148 32.6996 21.1173 32.3895C21.2686 32.2345 21.319 32.2862 21.319 32.4929C21.3694 33.578 22.277 34.4564 23.3358 34.4564C24.4451 34.4564 25.3526 33.5263 25.3526 32.3895C25.3526 31.2528 24.4451 30.3227 23.3358 30.3227Z" fill="white"/>
<path d="M37.9073 25.6724C35.6383 23.6572 30.3946 18.9551 28.9324 17.87C28.1257 17.2499 27.5711 16.8882 27.0669 16.7849C26.8652 16.7332 26.5627 16.6298 26.1593 16.6298C25.8064 16.6298 25.4031 16.6815 24.9997 16.8365C24.0921 17.1466 23.1846 17.87 22.277 18.5934L22.2266 18.645C21.4199 19.3168 20.5627 19.9885 19.9073 20.1435C19.6048 20.1952 19.3526 20.2468 19.0501 20.2468C18.3442 20.2468 17.6888 20.0402 17.4367 19.7301C17.3863 19.6785 17.4366 19.5751 17.5375 19.4718L19.5543 17.2499C21.1173 15.6481 22.5795 14.1496 26.0081 14.0462C26.0585 14.0462 26.1089 14.0462 26.1593 14.0462C28.277 14.0462 30.3946 15.028 30.6467 15.1313C32.6635 16.1131 34.6803 16.6298 36.7476 16.6298C38.9156 16.6298 41.1342 16.0615 43.4535 14.9763C43.2014 14.7697 42.8989 14.5113 42.6468 14.3046C40.5795 15.2347 38.6635 15.648 36.7476 15.648C34.8316 15.648 32.9157 15.183 31.0501 14.2529C30.9493 14.2013 28.6299 13.0645 26.1593 13.0645C26.1089 13.0645 26.0081 13.0645 25.9577 13.0645C23.0837 13.1161 21.4703 14.1496 20.4115 15.0797C19.3527 15.0797 18.4451 15.3897 17.6384 15.5964C16.9325 15.8031 16.277 15.9581 15.672 15.9581C15.4199 15.9581 14.9661 15.9581 14.9157 15.9581C14.2098 15.9581 10.6804 15.0797 7.90724 13.9429C7.60472 14.1496 7.35264 14.3563 7.05012 14.5629C9.97449 15.8031 13.5543 16.7332 14.6636 16.8365C14.9661 16.8365 15.319 16.8882 15.672 16.8882C16.4283 16.8882 17.1342 16.6815 17.8905 16.4748C18.3442 16.3715 18.798 16.2164 19.2518 16.1131C19.1005 16.2681 18.9997 16.3715 18.8484 16.5265L16.8316 18.8001C16.6803 18.9551 16.3274 19.4201 16.5291 19.9368C16.6299 20.1435 16.8316 20.3502 17.0837 20.5569C17.5879 20.8669 18.4451 21.1253 19.2518 21.1253C19.5543 21.1253 19.8568 21.0736 20.1089 21.0219C20.966 20.8152 21.8736 20.0919 22.7812 19.3168C23.5375 18.6967 24.5963 17.9216 25.403 17.6633C25.6551 17.6116 25.9072 17.5599 26.1593 17.5599C26.2097 17.5599 26.3106 17.5599 26.361 17.5599C26.9156 17.6116 27.4198 17.8183 28.3778 18.5417C30.0417 19.8335 37.4535 26.4474 37.5039 26.4991C37.5039 26.4991 37.9577 26.9125 37.9577 27.6359C37.9577 27.9976 37.7056 28.3594 37.3526 28.6177C37.0501 28.8244 36.6972 28.9277 36.3947 28.9277C35.8905 28.9277 35.5375 28.6694 35.5375 28.6694C35.5375 28.6694 32.9661 26.2924 32.0585 25.4657C31.9073 25.3107 31.756 25.2073 31.6047 25.2073C31.5039 25.2073 31.4535 25.259 31.403 25.3107C31.2518 25.5174 31.4031 25.7757 31.6047 25.9307L34.5795 28.9794C34.5795 28.9794 34.9324 29.3411 34.9829 29.8061C34.9829 30.3228 34.7812 30.7362 34.277 31.0463C33.9241 31.3046 33.5711 31.4079 33.2182 31.4079C32.7644 31.4079 32.4619 31.2013 32.361 31.1496L31.9072 30.7362C31.1509 29.9612 30.3443 29.1344 29.7392 28.6694C29.5879 28.566 29.4367 28.411 29.2854 28.411C29.235 28.411 29.1341 28.411 29.0837 28.5143C29.0333 28.566 28.9829 28.721 29.1341 28.9794C29.1846 29.0827 29.2854 29.1344 29.2854 29.1344L31.4534 31.6146C31.4534 31.6146 31.9073 32.183 31.5039 32.6481L31.403 32.7515C31.3526 32.8031 31.2518 32.9064 31.2013 32.9581C30.8484 33.2681 30.3442 33.3198 30.1425 33.3198C30.0417 33.3198 29.9409 33.3198 29.84 33.3198C29.6383 33.2682 29.4871 33.2165 29.3862 33.1131C29.2854 32.9581 28.1762 31.873 27.2686 31.0979C27.1678 30.9946 27.0165 30.8912 26.8652 30.8912C26.8148 30.8912 26.714 30.9429 26.6635 30.9946C26.5123 31.2013 26.7644 31.5113 26.8652 31.6146L28.7308 33.6815C28.7308 33.6815 28.7308 33.7332 28.6803 33.8366C28.6299 33.9399 28.3779 34.1465 27.7224 34.2499C27.6216 34.2499 27.5711 34.2499 27.4703 34.2499C26.7644 34.2499 26.0585 33.8882 25.6551 33.6815C25.8064 33.3198 25.9072 32.9065 25.9072 32.4931C25.9072 30.9429 24.6972 29.7028 23.1846 29.7028C23.1342 29.7028 23.1341 29.7028 23.0837 29.7028C23.1341 28.9794 23.0333 27.6359 21.672 27.0676C21.2686 26.9125 20.9157 26.8092 20.5123 26.8092C20.2098 26.8092 19.9577 26.8608 19.6552 26.9642C19.3527 26.3958 18.8988 25.9825 18.2938 25.7758C17.9408 25.6724 17.6383 25.6207 17.2854 25.6207C16.7308 25.6207 16.2266 25.7757 15.7728 26.1374C15.319 25.5691 14.6635 25.259 13.9577 25.259C13.3526 25.259 12.7476 25.5174 12.3442 25.9307C11.7896 25.4657 9.52068 24.0189 3.41983 22.5721C3.11731 22.5204 2.46187 22.3138 2.05851 22.1587C2.00809 22.4688 1.95765 22.8305 1.90723 23.1922C1.90723 23.1922 3.01651 23.4505 3.26861 23.5022C9.47029 24.8973 11.5375 26.3958 11.8904 26.6542C11.7896 26.9642 11.7392 27.2742 11.7392 27.5843C11.7392 28.9277 12.798 29.9612 14.0585 29.9612C14.2097 29.9612 14.361 29.9612 14.5123 29.9095C14.714 30.8913 15.319 31.6147 16.277 31.9764C16.5795 32.0797 16.8316 32.1314 17.0837 32.1314C17.235 32.1314 17.4367 32.1314 17.6384 32.0797C17.7896 32.5447 18.1929 33.1131 19.1005 33.4748C19.403 33.6298 19.7056 33.6815 20.0081 33.6815C20.2602 33.6815 20.5123 33.6299 20.714 33.5265C21.1173 34.56 22.1257 35.2833 23.235 35.2833C23.9913 35.2833 24.6972 34.9733 25.2014 34.4049C25.6552 34.6633 26.5627 35.1283 27.5207 35.1283C27.672 35.1283 27.7728 35.1283 27.8736 35.1283C28.8316 35.025 29.235 34.6116 29.4366 34.3533C29.4871 34.3016 29.4871 34.2499 29.5375 34.1982C29.7392 34.2499 29.9913 34.3016 30.2938 34.3016C30.798 34.3016 31.3022 34.1465 31.8064 33.7332C32.3106 33.3715 32.6635 32.8548 32.6635 32.3897C32.8148 32.4414 33.0165 32.4414 33.1677 32.4414C33.6719 32.4414 34.2266 32.2864 34.7308 31.9247C35.6887 31.3046 35.84 30.4262 35.84 29.9095C35.9913 29.9612 36.193 29.9612 36.3442 29.9612C36.8484 29.9612 37.3527 29.8061 37.8064 29.4961C38.4115 29.0827 38.7644 28.5144 38.8148 27.8426C38.8653 27.3776 38.714 26.9125 38.5123 26.4991C40.1257 25.7757 43.756 24.4322 48.0921 23.3988C48.0921 23.0371 48.0417 22.7271 47.9409 22.3654C42.7476 23.5022 38.8652 25.2073 37.9073 25.6724ZM23.3358 34.3016C22.3274 34.3016 21.5207 33.4748 21.4703 32.4414C21.4703 32.338 21.4703 32.1314 21.2686 32.1314C21.1678 32.1314 21.1173 32.1831 21.0165 32.2347C20.8148 32.4414 20.5123 32.6481 20.1089 32.6481C19.9072 32.6481 19.7056 32.5964 19.5039 32.4931C18.4451 32.0281 18.3947 31.3046 18.4451 30.9946C18.4451 30.8913 18.4451 30.8396 18.3947 30.7879L18.3442 30.7362H18.2938C18.2434 30.7362 18.1929 30.7362 18.0921 30.8396C17.7896 31.0463 17.4871 31.1496 17.1846 31.1496C17.0333 31.1496 16.8316 31.0979 16.6804 31.0463C15.2686 30.4779 15.3694 29.1344 15.4703 28.721C15.4703 28.6177 15.4703 28.566 15.4199 28.5143L15.319 28.411L15.2182 28.5143C14.9156 28.7727 14.5627 28.9277 14.2098 28.9277C13.403 28.9277 12.7476 28.256 12.7476 27.4292C12.7476 26.6025 13.403 25.9307 14.2098 25.9307C14.9156 25.9307 15.5711 26.4991 15.672 27.2225L15.7224 27.6359L15.9241 27.2742C15.9241 27.2225 16.5291 26.2925 17.6384 26.3441C17.84 26.3441 18.0417 26.3958 18.2938 26.4475C19.1509 26.7058 19.3022 27.5326 19.3022 27.8426C19.3022 28.0493 19.4535 28.0493 19.4535 28.0493C19.5039 28.0493 19.6047 27.9976 19.6047 27.946C19.756 27.7909 20.109 27.4809 20.6636 27.4809C20.9157 27.4809 21.1678 27.5326 21.4703 27.6876C22.8316 28.3077 22.2266 30.0645 22.2266 30.1161C22.1257 30.4262 22.0753 30.5295 22.2266 30.6329H22.277H22.3274C22.3778 30.6329 22.4787 30.6329 22.5795 30.5812C22.7812 30.5295 23.0333 30.4262 23.2854 30.4262C24.2938 30.4262 25.1509 31.3046 25.1509 32.3381C25.2013 33.4748 24.3442 34.3016 23.3358 34.3016Z" fill="#2D3277"/>
</svg>
