<svg width="50" height="50" viewBox="0 0 50 50" fill="none" xmlns="http://www.w3.org/2000/svg">
<path d="M43.1049 4H44.077V0.817741H45.1846V0H42V0.817741H43.1049V4Z" fill="#D1D5DB"/>
<path d="M45.8805 4H46.7384V1.45253H46.7915L47.6627 4H48.2178L49.089 1.45253H49.1448V4H50V0H48.8924L47.9681 2.71379H47.9177L46.9907 0H45.8805V4Z" fill="#D1D5DB"/>
<path d="M46.3249 18.2371L43.3468 18.236C43.022 18.236 42.7587 18.4999 42.7585 18.8254L42.7583 19.2417H42.9649C44.3096 19.2417 44.8097 19.464 44.8097 20.6914V22.4362L46.3233 22.4368C46.6482 22.4369 46.9115 22.1733 46.9116 21.8477L46.9127 18.8266C46.9127 18.5011 46.6496 18.2372 46.3249 18.2371ZM30.0716 22.9276C29.9341 22.7547 29.6743 22.7307 29.4138 22.7307H29.2184C28.5692 22.7307 28.3146 22.9314 28.1709 23.5556L26.3671 31.069C26.142 31.9924 25.8256 32.1611 25.2843 32.1611C24.6215 32.1611 24.3561 32.0026 24.0919 31.0654L22.0488 23.5519C21.8797 22.9227 21.6303 22.7307 20.9809 22.7307H20.807C20.5449 22.7307 20.2839 22.755 20.1499 22.9302C20.0157 23.1055 20.061 23.3672 20.1302 23.6245L22.1949 31.2031C22.5822 32.6534 23.0425 33.854 24.7627 33.854C25.0838 33.854 25.3808 33.8093 25.6278 33.7258C25.1061 35.37 24.5753 36.0952 23.0102 36.2563C22.6926 36.2828 22.4862 36.3284 22.3712 36.4829C22.2518 36.6432 22.2789 36.8727 22.3216 37.0777L22.3647 37.272C22.458 37.7214 22.6173 38 23.1207 38C23.1736 38 23.2305 37.9972 23.2915 37.992C25.6285 37.8387 26.8807 36.5779 27.6134 33.6402L30.1136 23.6191C30.1729 23.362 30.2087 23.1003 30.0716 22.9276ZM17.4958 28.7001V30.2168C17.4958 31.4532 17.0384 32.1691 14.7 32.1691C13.1551 32.1691 12.4041 31.6088 12.4041 30.4564C12.4041 29.1926 13.1575 28.7001 15.0912 28.7001H17.4958ZM14.7 22.4118C13.4251 22.4118 12.6262 22.5721 12.3232 22.6329C11.7867 22.7496 11.5623 22.8972 11.5623 23.5086V23.6829C11.5623 23.9225 11.5978 24.0884 11.6737 24.2052C11.762 24.3412 11.9045 24.4101 12.0971 24.4101C12.1909 24.4101 12.2998 24.3944 12.4297 24.3618C12.7362 24.2851 13.7156 24.1264 14.7869 24.1264C16.7111 24.1264 17.4958 24.6605 17.4958 25.9697V27.138H15.0694C11.9503 27.138 10.4974 28.1923 10.4974 30.4564C10.4974 32.6524 11.9976 33.8618 14.7217 33.8618C17.959 33.8618 19.4025 32.7579 19.4025 30.2821V25.9697C19.4025 23.5756 17.8644 22.4118 14.7 22.4118ZM8.58514 23.8643C8.58514 25.6672 8.12579 26.6443 5.70233 26.6443H1.97189V21.9912C1.97189 21.346 2.21133 21.1061 2.85514 21.1061H5.70233C7.52813 21.1061 8.58514 21.5576 8.58514 23.8643ZM5.70233 19.2391H2.48552C0.766555 19.2391 0 20.0072 0 21.7299V32.7939C0 33.4594 0.21316 33.673 0.877372 33.673H1.09469C1.75873 33.673 1.97189 33.4594 1.97189 32.7939V28.4894H5.70233C9.0144 28.4894 10.557 27.0197 10.557 23.8643C10.557 20.7087 9.0144 19.2391 5.70233 19.2391ZM46.6148 15.1191L45.1126 15.1186C44.9487 15.1184 44.816 14.9853 44.816 14.8211L44.8165 13.2971C44.8167 13.1329 44.9496 13 45.1133 13L46.6155 13.0005C46.7794 13.0005 46.9122 13.1337 46.9122 13.2978L46.9116 14.8218C46.9115 14.986 46.7787 15.1191 46.6148 15.1191ZM49.5621 18.239L47.3502 18.2381C47.1091 18.2381 46.9135 18.042 46.9137 17.8003L46.9144 15.5565C46.9146 15.3147 47.1103 15.1187 47.3514 15.1187L49.5631 15.1196C49.8045 15.1196 50 15.3157 50 15.5574L49.9991 17.8014C49.9991 18.043 49.8034 18.239 49.5621 18.239ZM43.3453 22.4359C43.0204 22.4359 42.7573 22.172 42.7575 21.8465L42.7583 19.2417H42.5415C41.1969 19.2417 40.6967 19.4641 40.6967 20.6915V23.5637C40.6965 23.5698 40.6958 23.5758 40.6958 23.5819V24.2114C40.6955 24.2333 40.6941 24.2535 40.6941 24.2761V28.2892C40.6941 28.7793 40.5999 29.1696 40.4054 29.4728C40.0387 30.0389 39.3128 30.2962 38.1514 30.2977C36.9905 30.2962 36.2647 30.0391 35.898 29.4734C35.703 29.1701 35.6086 28.7796 35.6086 28.2892V24.2761C35.6086 24.2535 35.6074 24.2333 35.6071 24.2114V23.5819C35.6071 23.5758 35.6064 23.5698 35.6062 23.5637V20.6915C35.6062 19.4641 35.1061 19.2417 33.7614 19.2417H33.338C31.9932 19.2417 31.4932 19.4641 31.4932 20.6915V28.2892C31.4932 29.5114 31.7682 30.5462 32.2997 31.3803C33.3261 32.9966 35.3144 33.8575 38.141 33.8575C38.1445 33.8575 38.1479 33.8573 38.1514 33.8573C38.155 33.8573 38.1583 33.8575 38.1619 33.8575C40.9885 33.8575 42.9768 32.9966 44.0032 31.3803C44.5347 30.5462 44.8097 29.5114 44.8097 28.2892V22.4362L43.3453 22.4359Z" fill="#A6C307"/>
</svg>
