<svg xmlns="http://www.w3.org/2000/svg" xmlns:xlink="http://www.w3.org/1999/xlink" viewBox="0 0 140 140"><defs><mask id="a" x="0" y="0" width="140" height="140" maskUnits="userSpaceOnUse"><path d="M8,0H130c8,0,10,2,10,10V130c0,8-2,10-10,10H8c-6,0-8-2-8-10V10C0,2,2,0,8,0Z" style="fill:#fff;fill-rule:evenodd"/></mask><linearGradient id="b" x1="-620.97" y1="430.24" x2="-622.97" y2="428.24" gradientTransform="matrix(70, 0, 0, -70, 43608, 30117)" gradientUnits="userSpaceOnUse"><stop offset="0" stop-color="#94b6c8"/><stop offset="1" stop-color="#6a9eba"/></linearGradient></defs><circle cx="96.15" cy="74.8" r="2.37" style="fill:#fff"/><g style="mask:url(#a)"><path d="M0,0H140V140H0Z" style="fill-rule:evenodd;fill:url(#b)"/><path d="M8,2H130q8,0,10,4V0H0V6Q2,2,8,2Z" style="fill:#fff;fill-opacity:0.382999986410141;fill-rule:evenodd"/><path d="M8,138H130q8,0,10-6v8H0v-8Q2,138,8,138Z" style="fill-opacity:0.382999986410141;fill-rule:evenodd"/></g><path d="M105.78,41.06H72.17l-5.63,5.63v0a25.27,25.27,0,0,0,.79-7.16A25.51,25.51,0,0,0,23.09,23h0L0,46v84.74C0,138.11,2.45,140,7.58,140H75.76l34.85-34.85h0a7.1,7.1,0,0,0,2.18-5.12V48.13A7,7,0,0,0,105.78,41.06Z" style="opacity:0.15"/><g style="opacity:0.3"><path d="M63.28,94.94h19.8a1.77,1.77,0,0,0,1.75-1.77V87.28a1.76,1.76,0,0,0-1.75-1.77H63.28a1.75,1.75,0,0,0-1.74,1.77v5.89A1.75,1.75,0,0,0,63.28,94.94Z"/><path d="M44.65,94.94H55.13a1.77,1.77,0,0,0,1.75-1.77V87.28a1.76,1.76,0,0,0-1.75-1.77H44.65a1.76,1.76,0,0,0-1.75,1.77v5.89A1.77,1.77,0,0,0,44.65,94.94Z"/><path d="M41.83,16.75A25.54,25.54,0,1,0,67.34,42.28,25.52,25.52,0,0,0,41.83,16.75Zm0,40.51a15,15,0,1,1,15-15A15,15,0,0,1,41.83,57.26Z"/><path d="M105.78,43.06H72.17a30,30,0,0,1-1,7.07H104.9a.88.88,0,0,1,.88.88V59.3H67A30.34,30.34,0,0,1,28.93,69.79V102a7,7,0,0,0,7,7.07h69.85a7,7,0,0,0,7-7.07V50.13A7,7,0,0,0,105.78,43.06Zm0,58.07a.89.89,0,0,1-.88.89H36.8a.88.88,0,0,1-.87-.89V76.07h69.85Z"/></g><path d="M41.83,14.75A25.54,25.54,0,1,0,67.34,40.28,25.52,25.52,0,0,0,41.83,14.75Zm0,40.51a15,15,0,1,1,15-15A15,15,0,0,1,41.83,55.26Z" style="fill:#fff"/><path d="M105.78,41.06H72.17a30,30,0,0,1-1,7.07H104.9a.88.88,0,0,1,.88.88V57.3H67A30.34,30.34,0,0,1,28.93,67.79V100a7,7,0,0,0,7,7.07h69.85a7,7,0,0,0,7-7.07V48.13A7,7,0,0,0,105.78,41.06Zm0,58.07a.89.89,0,0,1-.88.89H36.8a.88.88,0,0,1-.87-.89V74.07h69.85Z" style="fill:#fff"/><path d="M63.28,92.94h19.8a1.77,1.77,0,0,0,1.75-1.77V85.28a1.76,1.76,0,0,0-1.75-1.77H63.28a1.75,1.75,0,0,0-1.74,1.77v5.89A1.75,1.75,0,0,0,63.28,92.94Z" style="fill:#fff"/><path d="M44.65,92.94H55.13a1.77,1.77,0,0,0,1.75-1.77V85.28a1.76,1.76,0,0,0-1.75-1.77H44.65a1.76,1.76,0,0,0-1.75,1.77v5.89A1.77,1.77,0,0,0,44.65,92.94Z" style="fill:#fff"/></svg>