<svg width="50" height="50" viewBox="0 0 50 50" fill="none" xmlns="http://www.w3.org/2000/svg">
<path d="M0 21C0 18.7909 1.79086 17 4 17H50V38C50 40.2091 48.2091 42 46 42H0V21Z" fill="var(--o-icons-teal-pure, #00CEB3)"/>
<path d="M0 21C0 18.7909 1.79086 17 4 17H50V38C50 40.2091 48.2091 42 46 42H0V21Z" fill="url(#white_gradient_1)" fill-opacity="0.3"/>
<path d="M0 21C0 18.7909 1.79086 17 4 17H25V42H0V21Z" fill="var(--o-icons-teal-teal, #00A079)"/>
<path d="M0 21C0 18.7909 1.79086 17 4 17H25V42H0V21Z" fill="url(#white_gradient_2)" fill-opacity="0.3"/>
<path d="M34 17C34 21.9706 29.9706 26 25 26C20.0294 26 16 21.9706 16 17C16 12.0294 20.0294 8 25 8C29.9706 8 34 12.0294 34 17Z" fill="var(--o-icons-purple-pure, #7933F3)"/>
<path d="M34 17C34 21.9706 29.9706 26 25 26C20.0294 26 16 21.9706 16 17C16 12.0294 20.0294 8 25 8C29.9706 8 34 12.0294 34 17Z" fill="url(#white_gradient_3)" fill-opacity="0.3"/>
<path d="M25 17H16C16 19.3869 16.9482 21.6761 18.636 23.364C20.3239 25.0518 22.6131 26 25 26L25 17Z" fill="var(--o-icons-purple-teal, #0028A3)"/>
<path d="M25 17H16C16 19.3869 16.9482 21.6761 18.636 23.364C20.3239 25.0518 22.6131 26 25 26L25 17Z" fill="url(#white_gradient_4)" fill-opacity="0.3"/>
<defs>
<linearGradient id="white_gradient_1" x1="0" y1="17" x2="50" y2="42" gradientUnits="userSpaceOnUse">
<stop stop-color="white"/>
<stop offset="1" stop-color="white" stop-opacity="0"/>
</linearGradient>
<linearGradient id="white_gradient_2" x1="0" y1="17" x2="29.4118" y2="24.3529" gradientUnits="userSpaceOnUse">
<stop stop-color="white"/>
<stop offset="1" stop-color="white" stop-opacity="0"/>
</linearGradient>
<linearGradient id="white_gradient_3" x1="16" y1="8" x2="37.1765" y2="13.2941" gradientUnits="userSpaceOnUse">
<stop stop-color="white"/>
<stop offset="1" stop-color="white" stop-opacity="0"/>
</linearGradient>
<linearGradient id="white_gradient_4" x1="16" y1="17" x2="26.5882" y2="19.6471" gradientUnits="userSpaceOnUse">
<stop stop-color="white"/>
<stop offset="1" stop-color="white" stop-opacity="0"/>
</linearGradient>
</defs>
</svg>
