<svg width="50" height="50" viewBox="0 0 50 50" fill="none" xmlns="http://www.w3.org/2000/svg">
<path d="M38.7944 9.09019L25.0003 33L11.2062 9.09019C10.4645 7.80464 10.4956 6.21412 11.2869 4.95854L13.2352 1.86724C13.9677 0.705009 15.2454 0 16.6192 0H33.3814C34.7552 0 36.0328 0.705008 36.7653 1.86724L38.7136 4.95853C39.505 6.21412 39.5361 7.80464 38.7944 9.09019Z" fill="var(--o-icons-purple-pure, #7933F3)"/>
<path d="M38.7944 9.09019L25.0003 33L11.2062 9.09019C10.4645 7.80464 10.4956 6.21412 11.2869 4.95854L13.2352 1.86724C13.9677 0.705009 15.2454 0 16.6192 0H33.3814C34.7552 0 36.0328 0.705008 36.7653 1.86724L38.7136 4.95853C39.505 6.21412 39.5361 7.80464 38.7944 9.09019Z" fill="url(#white_gradient_1)" fill-opacity="0.3"/>
<path d="M42.0002 33.0001C42.0002 42.389 34.389 50.0002 25.0001 50.0002C15.6112 50.0002 8 42.389 8 33.0001C8 23.6112 15.6112 16 25.0001 16C34.389 16 42.0002 23.6112 42.0002 33.0001Z" fill="var(--o-icons-yellow-pure, #FBB130)"/>
<path d="M42.0002 33.0001C42.0002 42.389 34.389 50.0002 25.0001 50.0002C15.6112 50.0002 8 42.389 8 33.0001C8 23.6112 15.6112 16 25.0001 16C34.389 16 42.0002 23.6112 42.0002 33.0001Z" fill="url(#white_gradient_2)" fill-opacity="0.2"/>
<path d="M33.4963 18.2723L24.9996 33L16.5029 18.2724C19.0027 16.8271 21.9046 16 24.9997 16C28.0947 16 30.9966 16.8271 33.4963 18.2723Z" fill="var(--o-icons-yellow-yellow, #ED7609)"/>
<path d="M33.4963 18.2723L24.9996 33L16.5029 18.2724C19.0027 16.8271 21.9046 16 24.9997 16C28.0947 16 30.9966 16.8271 33.4963 18.2723Z" fill="url(#white_gradient_3)" fill-opacity="0.3"/>
<path d="M8 33.0001C8 42.389 15.6112 50.0002 25.0001 50.0002V16C15.6112 16 8 23.6112 8 33.0001Z" fill="var(--o-icons-yellow-yellow, #ED7609)"/>
<path d="M8 33.0001C8 42.389 15.6112 50.0002 25.0001 50.0002V16C15.6112 16 8 23.6112 8 33.0001Z" fill="url(#white_gradient_4)" fill-opacity="0.3"/>
<path d="M25.0003 0H16.6192C15.2454 0 13.9677 0.705009 13.2352 1.86724L11.2869 4.95853C10.4956 6.21412 10.4645 7.80464 11.2062 9.09019L25.0003 33V0Z" fill="var(--o-icons-purple-yellow, #77232E)"/>
<path d="M25.0003 0H16.6192C15.2454 0 13.9677 0.705009 13.2352 1.86724L11.2869 4.95853C10.4956 6.21412 10.4645 7.80464 11.2062 9.09019L25.0003 33V0Z" fill="url(#white_gradient_5)" fill-opacity="0.3"/>
<path d="M24.9996 16C21.9045 16 19.0027 16.8271 16.5029 18.2724L24.9996 33V16Z" fill="var(--o-icons-yellow-pure, #FBB130)"/>
<path d="M24.9996 16C21.9045 16 19.0027 16.8271 16.5029 18.2724L24.9996 33V16Z" fill="url(#white_gradient_6)" fill-opacity="0.2"/>
<defs>
<linearGradient id="white_gradient_1" x1="10.6709" y1="0" x2="44.8817" y2="7.42758" gradientUnits="userSpaceOnUse">
<stop stop-color="white"/>
<stop offset="1" stop-color="white" stop-opacity="0"/>
</linearGradient>
<linearGradient id="white_gradient_2" x1="8" y1="16" x2="48.0002" y2="26" gradientUnits="userSpaceOnUse">
<stop stop-color="white"/>
<stop offset="1" stop-color="white" stop-opacity="0"/>
</linearGradient>
<linearGradient id="white_gradient_3" x1="16.5029" y1="16" x2="36.4961" y2="20.9964" gradientUnits="userSpaceOnUse">
<stop stop-color="white"/>
<stop offset="1" stop-color="white" stop-opacity="0"/>
</linearGradient>
<linearGradient id="white_gradient_4" x1="8" y1="16" x2="28.9232" y2="18.6154" gradientUnits="userSpaceOnUse">
<stop stop-color="white"/>
<stop offset="1" stop-color="white" stop-opacity="0"/>
</linearGradient>
<linearGradient id="white_gradient_5" x1="10.6709" y1="0" x2="28.374" y2="1.92178" gradientUnits="userSpaceOnUse">
<stop stop-color="white"/>
<stop offset="1" stop-color="white" stop-opacity="0"/>
</linearGradient>
<linearGradient id="white_gradient_6" x1="16.5029" y1="16" x2="26.9605" y2="17.3067" gradientUnits="userSpaceOnUse">
<stop stop-color="white"/>
<stop offset="1" stop-color="white" stop-opacity="0"/>
</linearGradient>
</defs>
</svg>
