<svg width="50" height="50" viewBox="0 0 50 50" fill="none" xmlns="http://www.w3.org/2000/svg">
<path d="M15.0441 41L12.7832 33H36.6962L34.4354 41H15.0441Z" fill="var(--o-icons-cyan-pure, #1BD4F9)"/>
<path d="M15.0441 41L12.7832 33H36.6962L34.4354 41H15.0441Z" fill="url(#white_gradient_1)" fill-opacity="0.3"/>
<path d="M11.6448 28.9735L11.6406 28.9587L13.7392 27H22.2392L36.751 32.8047L36.6958 33H24.2392L11.6448 28.9735Z" fill="var(--o-icons-purple-teal, #0028A3)"/>
<path d="M11.6448 28.9735L11.6406 28.9587L13.7392 27H22.2392L36.751 32.8047L36.6958 33H24.2392L11.6448 28.9735Z" fill="url(#white_gradient_2)" fill-opacity="0.3"/>
<path d="M8.26338 17.0093L8.25879 16.993L16.739 14L35.739 21H18.739L8.26338 17.0093Z" fill="var(--o-icons-purple-teal, #0028A3)"/>
<path d="M8.26338 17.0093L8.25879 16.993L16.739 14L35.739 21H18.739L8.26338 17.0093Z" fill="url(#white_gradient_3)" fill-opacity="0.3"/>
<path d="M8.26087 17L6 9H43.4783L41.2174 17H8.26087Z" fill="var(--o-icons-magenta-cyan, #1B569A)"/>
<path d="M8.26087 17L6 9H43.4783L41.2174 17H8.26087Z" fill="url(#white_gradient_4)" fill-opacity="0.3"/>
<path d="M11.6456 28.9766L9.38477 20.9766H40.0937L37.8328 28.9766H11.6456Z" fill="var(--o-icons-cyan-cyan, #03AAE9)"/>
<path d="M11.6456 28.9766L9.38477 20.9766H40.0937L37.8328 28.9766H11.6456Z" fill="url(#white_gradient_5)" fill-opacity="0.3"/>
<defs>
<linearGradient id="white_gradient_1" x1="12.7832" y1="33" x2="31.9636" y2="47.3332" gradientUnits="userSpaceOnUse">
<stop stop-color="white"/>
<stop offset="1" stop-color="white" stop-opacity="0"/>
</linearGradient>
<linearGradient id="white_gradient_2" x1="11.6406" y1="27" x2="26.6253" y2="42.6779" gradientUnits="userSpaceOnUse">
<stop stop-color="white"/>
<stop offset="1" stop-color="white" stop-opacity="0"/>
</linearGradient>
<linearGradient id="white_gradient_3" x1="8.25879" y1="14" x2="25.7557" y2="31.1721" gradientUnits="userSpaceOnUse">
<stop stop-color="white"/>
<stop offset="1" stop-color="white" stop-opacity="0"/>
</linearGradient>
<linearGradient id="white_gradient_4" x1="6" y1="9" x2="25.7529" y2="32.1345" gradientUnits="userSpaceOnUse">
<stop stop-color="white"/>
<stop offset="1" stop-color="white" stop-opacity="0"/>
</linearGradient>
<linearGradient id="white_gradient_5" x1="9.38477" y1="20.9766" x2="29.3678" y2="40.1534" gradientUnits="userSpaceOnUse">
<stop stop-color="white"/>
<stop offset="1" stop-color="white" stop-opacity="0"/>
</linearGradient>
</defs>
</svg>
