<svg width="70" height="70" viewBox="0 0 70 70" fill="none" xmlns="http://www.w3.org/2000/svg">
<circle cx="40.5" cy="40.5" r="15.5" fill="var(--o-icons-blue-100, #1ACAF0)"/>
<circle cx="26" cy="26" r="12" fill="var(--o-icons-blue-200, #1861AF)"/>
<path d="M26 38.0003C32.6275 38.0003 38 32.6277 38 26.0003C38 25.7331 37.9913 25.4679 37.9741 25.2051C31.4371 26.2765 26.2762 31.4374 25.2048 37.9744C25.4677 37.9916 25.7328 38.0003 26 38.0003Z" fill="var(--o-icons-blue-300, #352B97)"/>
<path d="M22.8879 19.4284C22.8879 18.1272 21.7941 17.031 20.5918 17.529V17.529C19.8639 17.8305 19.2024 18.2725 18.6453 18.8296C18.0881 19.3868 17.6462 20.0482 17.3447 20.7762V20.7762C16.8467 21.9784 17.9428 23.0723 19.2441 23.0723L19.8879 23.0723C21.5448 23.0723 22.8879 21.7291 22.8879 20.0723L22.8879 19.4284Z" fill="white"/>
<circle cx="51" cy="19" r="5" fill="var(--o-icons-blue-300, #352B97)"/>
<path d="M50 16.1781C50 15.5274 49.4531 14.9794 48.8519 15.2284V15.2284C48.488 15.3791 48.1573 15.6001 47.8787 15.8787C47.6001 16.1573 47.3791 16.488 47.2284 16.852V16.852C46.9794 17.4531 47.5274 18 48.1781 18L48.5 18C49.3284 18 50 17.3284 50 16.5L50 16.1781Z" fill="white"/>
</svg>
