<svg width="50" height="50" xmlns="http://www.w3.org/2000/svg"><path d="M42 38a4 4 0 0 1-4 4H4V12a8 8 0 0 1 8-8h30v34Z" fill="var(--o-icons-teal-pure, #00CEB3)"/><path d="M42 38a4 4 0 0 1-4 4H4V12a8 8 0 0 1 8-8h30v34Z" fill="url(#o_icon_contacts__a)" fill-opacity=".2"/><path d="M46 38a8 8 0 0 1-8 8H8V12a4 4 0 0 1 4-4h34v30Z" fill="var(--o-icons-red-pure, #FC787D)"/><path d="M46 38a8 8 0 0 1-8 8H8V12a4 4 0 0 1 4-4h34v30Z" fill="url(#o_icon_contacts__b)" fill-opacity=".2"/><path d="M38 42a4 4 0 0 0 4-4V8H12a4 4 0 0 0-4 4v30h30Z" fill="var(--o-icons-red-teal, #006158)"/><path d="M38 42a4 4 0 0 0 4-4V8H12a4 4 0 0 0-4 4v30h30Z" fill="url(#o_icon_contacts__c)" fill-opacity=".2"/><path d="M30 19a6 6 0 1 1-12 0 6 6 0 0 1 12 0Zm4 9H24a9 9 0 0 0-9 9h10a9 9 0 0 0 9-9Z" fill="var(--o-icons-white, #FFFFFF)"/><defs><linearGradient id="o_icon_contacts__a" x1="4" y1="4" x2="48.706" y2="15.177" gradientUnits="userSpaceOnUse"><stop stop-color="#fff"/><stop offset="1" stop-color="#fff" stop-opacity="0"/></linearGradient><linearGradient id="o_icon_contacts__b" x1="8" y1="8" x2="52.706" y2="19.177" gradientUnits="userSpaceOnUse"><stop stop-color="#fff"/><stop offset="1" stop-color="#fff" stop-opacity="0"/></linearGradient><linearGradient id="o_icon_contacts__c" x1="8" y1="8" x2="48" y2="18" gradientUnits="userSpaceOnUse"><stop stop-color="#fff"/><stop offset="1" stop-color="#fff" stop-opacity="0"/></linearGradient></defs></svg>
