<svg width="50" height="50" viewBox="0 0 50 50" xmlns="http://www.w3.org/2000/svg"><path fill-rule="evenodd" clip-rule="evenodd" d="M38 46a8 8 0 0 0 8-8V8H12a4 4 0 0 0-4 4v34h30Zm-8-27a6 6 0 1 1-12 0 6 6 0 0 1 12 0Zm4 9H24a9 9 0 0 0-9 9h10a9 9 0 0 0 9-9Z" fill="#FC868B"/><path fill-rule="evenodd" clip-rule="evenodd" d="M38 42a4 4 0 0 0 4-4V4H12a8 8 0 0 0-8 8v30h34Zm-8-23a6 6 0 1 1-12 0 6 6 0 0 1 12 0Zm4 9H24a9 9 0 0 0-9 9h10a9 9 0 0 0 9-9Z" fill="#1AD3BB"/><path fill-rule="evenodd" clip-rule="evenodd" d="M42 38a4 4 0 0 1-4 4H8V12a4 4 0 0 1 4-4h30v30ZM30 19a6 6 0 1 1-12 0 6 6 0 0 1 12 0Zm4 9H24a9 9 0 0 0-9 9h10a9 9 0 0 0 9-9Z" fill="#1A6F66"/></svg>