<svg width="50" height="50" viewBox="0 0 50 50" fill="none" xmlns="http://www.w3.org/2000/svg">
<path d="M42 38C42 40.2091 40.2091 42 38 42L4 42L4 12C4 7.58172 7.58173 4 12 4L42 4L42 38Z" fill="var(--o-icons-teal-pure, #00CEB3)"/>
<path d="M42 38C42 40.2091 40.2091 42 38 42L4 42L4 12C4 7.58172 7.58173 4 12 4L42 4L42 38Z" fill="url(#white_gradient_1)" fill-opacity="0.3"/>
<path d="M46 38C46 42.4183 42.4183 46 38 46L8 46L8 12C8 9.79086 9.79086 8 12 8L46 8L46 38Z" fill="var(--o-icons-purple-pure, #7933F3)"/>
<path d="M46 38C46 42.4183 42.4183 46 38 46L8 46L8 12C8 9.79086 9.79086 8 12 8L46 8L46 38Z" fill="url(#white_gradient_2)" fill-opacity="0.3"/>
<path d="M38 42C40.2091 42 42 40.2091 42 38L42 8L12 8C9.79086 8 8 9.79086 8 12L8 42L38 42Z" fill="var(--o-icons-purple-teal, #0028A3)"/>
<path d="M38 42C40.2091 42 42 40.2091 42 38L42 8L12 8C9.79086 8 8 9.79086 8 12L8 42L38 42Z" fill="url(#white_gradient_3)" fill-opacity="0.3"/>
<path d="M30 19C30 22.3137 27.3137 25 24 25C20.6863 25 18 22.3137 18 19C18 15.6863 20.6863 13 24 13C27.3137 13 30 15.6863 30 19Z" fill="white"/>
<path d="M34 28H24C19.0294 28 15 32.0294 15 37H25C29.9706 37 34 32.9706 34 28Z" fill="white"/>
<defs>
<linearGradient id="white_gradient_1" x1="4" y1="4" x2="48.7059" y2="15.1765" gradientUnits="userSpaceOnUse">
<stop stop-color="white"/>
<stop offset="1" stop-color="white" stop-opacity="0"/>
</linearGradient>
<linearGradient id="white_gradient_2" x1="8" y1="8" x2="52.7059" y2="19.1765" gradientUnits="userSpaceOnUse">
<stop stop-color="white"/>
<stop offset="1" stop-color="white" stop-opacity="0"/>
</linearGradient>
<linearGradient id="white_gradient_3" x1="8" y1="8" x2="48" y2="18" gradientUnits="userSpaceOnUse">
<stop stop-color="white"/>
<stop offset="1" stop-color="white" stop-opacity="0"/>
</linearGradient>
</defs>
</svg>
