<svg width="70" height="70" viewBox="0 0 70 70" fill="none" xmlns="http://www.w3.org/2000/svg">
<path d="M52 48C52 50.2091 50.2091 52 48 52L14 52L14 22C14 17.5817 17.5817 14 22 14L52 14L52 48Z" fill="var(--o-icons-blue-100, #1ACAF0)"/>
<path d="M56 48C56 52.4183 52.4183 56 48 56L18 56L18 22C18 19.7909 19.7909 18 22 18L56 18L56 48Z" fill="var(--o-icons-orange-200, #FC803D)"/>
<path d="M48 52C50.2091 52 52 50.2091 52 48L52 18L22 18C19.7909 18 18 19.7909 18 22L18 52L48 52Z" fill="var(--o-icons-blue-400, #251B85)"/>
<circle cx="34" cy="29" r="6" fill="var(--o-icons-orange-100, #FBA82E)"/>
<path d="M44 38H34C29.0294 38 25 42.0294 25 47H35C39.9706 47 44 42.9706 44 38Z" fill="var(--o-icons-orange-100, #FBA82E)"/>
</svg>
