<svg width="70" height="70" viewBox="0 0 70 70" fill="none" xmlns="http://www.w3.org/2000/svg">
<circle cx="28" cy="26" r="10" fill="var(--o-icons-blue-100, #1ACAF0)"/>
<circle cx="48" cy="34" r="5" fill="var(--o-icons-blue-400, #251B85)"/>
<path d="M26 41H52C54.2091 41 56 42.7909 56 45V50C56 52.2091 54.2091 54 52 54H26V41Z" fill="var(--o-icons-blue-400, #251B85)"/>
<path d="M14 41H30C37.1797 41 43 46.8203 43 54H27C19.8203 54 14 48.1797 14 41Z" fill="var(--o-icons-blue-100, #1ACAF0)"/>
<path fill-rule="evenodd" clip-rule="evenodd" d="M23.0769 25.1154C23.2894 24.6056 23.8748 24.3645 24.3846 24.5769L27.5377 25.8907L32.5144 23.1258C32.9972 22.8576 33.606 23.0316 33.8742 23.5144C34.1424 23.9971 33.9684 24.6059 33.4857 24.8742L28.0857 27.8742C27.8183 28.0227 27.4977 28.0407 27.2154 27.9231L23.6154 26.4231C23.1056 26.2107 22.8645 25.6252 23.0769 25.1154Z" fill="var(--o-icons-bg, #FFFFFF)"/>
</svg>
