<svg width="50" height="50" viewBox="0 0 50 50" fill="none" xmlns="http://www.w3.org/2000/svg">
<circle cx="18" cy="16" r="10" fill="var(--o-icons-magenta-teal, #00546F)"/>
<circle cx="18" cy="16" r="10" fill="url(#white_gradient_1)" fill-opacity="0.3"/>
<path d="M10.2158 9.72137C10.6662 9.16376 11.1752 8.65552 11.7336 8.20605L19.2126 14.2051C20.1975 14.9951 20.2656 16.4795 19.3733 17.373C18.4809 18.2664 16.9983 18.1982 16.2093 17.212L10.2158 9.72137Z" fill="white"/>
<circle cx="38" cy="24" r="5" fill="var(--o-icons-teal-pure, #00CEB3)"/>
<circle cx="38" cy="24" r="5" fill="url(#white_gradient_2)" fill-opacity="0.3"/>
<path d="M16 31H42C44.2091 31 46 32.7909 46 35V40C46 42.2091 44.2091 44 42 44H16V31Z" fill="var(--o-icons-teal-pure, #00CEB3)"/>
<path d="M16 31H42C44.2091 31 46 32.7909 46 35V40C46 42.2091 44.2091 44 42 44H16V31Z" fill="url(#white_gradient_3)" fill-opacity="0.3"/>
<path d="M4 31H20C27.1797 31 33 36.8203 33 44V44H17C9.8203 44 4 38.1797 4 31V31Z" fill="var(--o-icons-magenta-teal, #00546F)"/>
<path d="M4 31H20C27.1797 31 33 36.8203 33 44V44H17C9.8203 44 4 38.1797 4 31V31Z" fill="url(#white_gradient_4)" fill-opacity="0.3"/>
<defs>
<linearGradient id="white_gradient_1" x1="8" y1="6" x2="31.5294" y2="11.8824" gradientUnits="userSpaceOnUse">
<stop stop-color="white"/>
<stop offset="1" stop-color="white" stop-opacity="0"/>
</linearGradient>
<linearGradient id="white_gradient_2" x1="33" y1="19" x2="44.7647" y2="21.9412" gradientUnits="userSpaceOnUse">
<stop stop-color="white"/>
<stop offset="1" stop-color="white" stop-opacity="0"/>
</linearGradient>
<linearGradient id="white_gradient_3" x1="16" y1="31" x2="44.1354" y2="47.232" gradientUnits="userSpaceOnUse">
<stop stop-color="white"/>
<stop offset="1" stop-color="white" stop-opacity="0"/>
</linearGradient>
<linearGradient id="white_gradient_4" x1="4" y1="31" x2="31.6502" y2="46.4203" gradientUnits="userSpaceOnUse">
<stop stop-color="white"/>
<stop offset="1" stop-color="white" stop-opacity="0"/>
</linearGradient>
</defs>
</svg>
